<svg width="36" height="36" viewBox="0 0 36 36" fill="none" xmlns="http://www.w3.org/2000/svg">
<path d="M10.9397 4.9432C11.198 4.6849 11.5416 4.5298 11.9061 4.5069C12.2707 4.4839 12.6311 4.5948 12.9197 4.8187L13.0607 4.9432L25.0607 16.9432C25.3189 17.2015 25.4741 17.5451 25.497 17.9097C25.5199 18.2742 25.409 18.6346 25.1852 18.9232L25.0607 19.0642L13.0607 31.0642C12.7907 31.3332 12.4285 31.4894 12.0476 31.501C11.6667 31.5127 11.2956 31.3789 11.0097 31.1268C10.7239 30.8748 10.5447 30.5234 10.5086 30.144C10.4724 29.7646 10.5821 29.3857 10.8152 29.0842L10.9397 28.9432L21.8792 18.0037L10.9397 7.0642C10.6585 6.7829 10.5005 6.4014 10.5005 6.0037C10.5005 5.606 10.6585 5.2245 10.9397 4.9432Z" fill="black"/>
</svg>
