<svg xmlns="http://www.w3.org/2000/svg" width="130" height="146" fill="none"><path fill="#E3A22A" d="m1.72 92.36 35.697-61.157 14.478 24.464 21.22-36.447-9.738-5.241L90.961 0l1.998 30.454-9.362-4.742-32.076 54.293-13.853-24.463L16.2 92.36H1.72Z"/><path fill="#E3A22A" d="m37.417 80.564-6.74 12.08H44.47l-7.052-12.08Z"/><path fill="#0D2137" d="M58.569 91.953 91.27 38.441l31.344 53.94-20.265-20.846-9.33 3.645-4.81-14.289-29.641 31.062Z"/><path fill="#E3A22A" d="m58.569 91.953 29.64-31.062 3.062-22.45-32.702 53.512ZM119.484 127.726a2.364 2.364 0 0 1-3.31-.367l-8.045-10.056a2.363 2.363 0 0 1 .367-3.31 2.364 2.364 0 0 1 3.309.367l8.045 10.056a2.362 2.362 0 0 1-.366 3.31Z"/><path fill="#0D2137" d="M111.7 126.393s-.391-1.394-2.17-1.772c-.369.038-.745.056-1.123.056-6.009 0-10.879-4.869-10.879-10.878 0-5.993 4.886-10.879 10.879-10.879 6.008 0 10.878 4.87 10.878 10.879 0 1.18-.189 2.316-.537 3.38 0 0 .057 2.287 1.515 2.649.031.007.063.016.093.025l.112.03c1.291.31 2.589-.469 2.958-1.745.399-1.378.611-2.834.611-4.341 0-8.633-7-15.633-15.633-15.633-8.626 0-15.632 7.007-15.632 15.633 0 8.632 7 15.632 15.632 15.632.369 0 .734-.014 1.096-.039a2.496 2.496 0 0 0 2.15-1.553c.167-.417.228-.907.05-1.444ZM60.628 113.772c0-3.964-1.606-7.547-4.203-10.146a14.306 14.306 0 0 0-10.824-4.186c-7.343.335-13.316 6.307-13.653 13.653a14.304 14.304 0 0 0 4.187 10.824 14.302 14.302 0 0 0 10.145 4.202c4.285 0 8.123-1.879 10.753-4.856.087-.098.167-.207.246-.321.028-.1.071-.312.071-.569 0-.285-.052-.615-.228-.934-.175-.319-.469-.643-1.034-.927l-.002-.003-.05-.02a2.415 2.415 0 0 0-.226-.073 3.334 3.334 0 0 0-.868-.112c-.036 0-.072 0-.111.003-.725.022-1.435.305-2.05.763a2.999 2.999 0 0 0-.44.391l-.02.023-.023.021c-.025.022-.586.524-1.551 1.027-.966.501-2.342 1.009-3.989 1.009-.423 0-.863-.034-1.316-.109a6.7 6.7 0 0 1-1.214-.283 8.387 8.387 0 0 1-2.554-1.323 7.49 7.49 0 0 1-1.706-1.838c-.672-1.028-1.17-2.349-1.328-4.016l-.059-.624h20.461c.435 0 .83-.173 1.119-.456.29-.284.465-.667.465-1.095l.002-.025Zm-22.168-1.959.075-.638c.16-1.337.506-2.451.978-3.369a7.373 7.373 0 0 1 1.704-2.198c1.28-1.116 2.717-1.578 3.737-1.774a7.515 7.515 0 0 1 1.353-.142h.066c1.413.06 2.59.356 3.563.809a7.093 7.093 0 0 1 2.323 1.722c1.178 1.328 1.658 2.85 1.866 3.856a7.1 7.1 0 0 1 .15 1.148l.016.586h-15.83ZM91.28 113.772c0-3.964-1.606-7.547-4.203-10.146a14.306 14.306 0 0 0-10.823-4.186c-7.344.335-13.317 6.307-13.654 13.653a14.304 14.304 0 0 0 4.187 10.824 14.302 14.302 0 0 0 10.145 4.202c4.285 0 8.123-1.879 10.754-4.856.086-.098.166-.207.246-.321.027-.1.07-.312.07-.569 0-.285-.052-.615-.227-.934-.176-.319-.47-.643-1.035-.927l-.002-.003-.05-.02a2.405 2.405 0 0 0-.225-.073 3.333 3.333 0 0 0-.868-.112c-.037 0-.073 0-.112.003-.724.022-1.435.305-2.05.763a3.004 3.004 0 0 0-.44.391l-.02.023-.023.021c-.025.022-.585.524-1.551 1.027-.966.501-2.342 1.009-3.988 1.009-.424 0-.864-.034-1.317-.109a6.701 6.701 0 0 1-1.214-.283 8.387 8.387 0 0 1-2.553-1.323 7.49 7.49 0 0 1-1.706-1.838c-.672-1.028-1.171-2.349-1.328-4.016l-.06-.624h20.462c.435 0 .829-.173 1.118-.456.29-.284.465-.667.465-1.095l.002-.025Zm-22.17-1.959.076-.638c.159-1.337.505-2.451.977-3.369a7.374 7.374 0 0 1 1.703-2.198c1.28-1.116 2.718-1.578 3.738-1.774a7.514 7.514 0 0 1 1.353-.142h.066c1.413.06 2.59.356 3.563.809a7.092 7.092 0 0 1 2.323 1.722c1.178 1.328 1.658 2.85 1.866 3.856.136.672.15 1.123.15 1.148l.016.586H69.11ZM15.619 98.874C7.06 98.48 0 105.302 0 113.773c0 .307.01.61.03.913.025.392.006.781-.023 1.173a1.891 1.891 0 0 0-.007.162V142.653a2.518 2.518 0 0 0 2.517 2.517 2.086 2.086 0 0 0 2.086-2.087v-18.539a14.863 14.863 0 0 0 10.312 4.146c8.471 0 15.293-7.061 14.899-15.621-.35-7.642-6.553-13.842-14.195-14.195Zm.237 25.169c-6.424.572-11.783-4.788-11.212-11.211.44-4.925 4.406-8.89 9.33-9.33 6.424-.572 11.783 4.786 11.212 11.211-.44 4.925-4.406 8.891-9.33 9.33ZM120.937 96.854c-.167 0-.292-.036-.372-.107-.082-.07-.12-.18-.12-.323 0-.144.041-.253.125-.328.084-.076.207-.11.369-.11h3.059c.164 0 .287.037.371.11.085.072.123.182.123.328 0 .143-.041.25-.123.32-.082.071-.205.11-.371.11h-1.025v3.56c0 .18-.041.315-.125.404-.085.088-.21.134-.378.134-.169 0-.296-.046-.381-.134-.084-.092-.127-.224-.127-.401v-3.56h-1.025v-.003ZM126.012 100.353c0 .207-.039.358-.114.456-.075.098-.194.145-.358.145-.166 0-.287-.047-.364-.141-.076-.093-.114-.248-.114-.458v-3.67c0-.297.045-.5.134-.607.089-.107.248-.162.481-.162h.353c.2 0 .346.039.435.116.091.078.178.283.262.615l.806 3.078.777-3.014c.089-.34.178-.558.269-.651.091-.094.223-.142.403-.142h.403c.232 0 .392.055.481.164.088.11.134.312.134.609v3.669c0 .207-.039.358-.116.456-.078.097-.196.145-.356.145-.166 0-.286-.048-.364-.143-.077-.096-.114-.248-.114-.458v-3.424l-.847 3.351c-.066.251-.15.426-.248.526-.098.098-.24.148-.422.148a.579.579 0 0 1-.424-.155c-.104-.102-.189-.275-.252-.519l-.845-3.357v3.423Z"/></svg>