<svg width="50" height="50" viewBox="0 0 50 50" fill="none" xmlns="http://www.w3.org/2000/svg">
<path d="M43.9844 26.0938L43.0469 11.9531L36.5625 15.9375C33.3594 15.3906 32.5 15.3906 30 14.2188C28.5156 13.5156 26.6406 13.9844 25.7031 14.5313C24.2969 13.0469 15.1562 15.2344 14.1406 15.7031C11.4062 14.8438 7.34375 11.7188 7.34375 11.7188L5.9375 27.6563L7.8125 28.125C7.96875 28.6719 8.4375 30 8.4375 30C6.71875 32.1875 8.75 34.7656 10.7031 33.9063C9.84375 36.0938 12.1094 38.125 13.9062 36.7188C13.6719 38.75 15.7812 40.2344 17.3438 38.8281C16.6406 41.25 19.375 43.0469 21.0156 41.0938C22.1875 41.875 23.2812 42.5 24.2188 42.8125C25.8594 43.5156 27.6562 41.9531 27.3438 40C29.2188 42.1875 32.0313 40.0781 31.4063 37.6563C33.5156 39.2969 36.0938 36.5625 34.7656 34.1406C37.1094 35.4688 39.1406 31.875 36.875 29.5312L43.9844 26.0938Z" fill="#FFDD67"/>
<path d="M10.8594 28.3594C12.0312 28.9062 12.8125 30.7031 11.5625 32.2656L11.0156 32.8906C10.3906 33.6719 9.76562 33.9063 9.14062 33.9063C9.60938 34.1406 10.1562 34.1406 10.7031 33.9063C10.7812 33.6719 10.9375 33.3594 11.1719 33.125L11.7188 32.5C12.0313 32.1094 12.4219 31.7969 12.7344 31.6406C13.3594 30 12.2656 28.4375 10.8594 28.3594ZM19.7656 36.0938C21.0156 36.4062 21.9531 38.0469 21.0156 39.8437L20.5469 40.5469C20.0781 41.4063 19.4531 41.7969 18.8281 41.875C19.6875 42.1094 20.625 41.7969 21.25 40.625L21.7187 39.9219C22.8906 37.7344 21.4062 35.9375 19.7656 36.0938ZM14.2969 35.4688L15.5469 33.5156C15.4688 32.4219 14.5312 31.4844 13.5938 31.4062C14.7656 31.9531 15.5469 33.75 14.2969 35.3125L13.75 35.9375C13.125 36.7187 12.5 36.9531 11.7969 36.9531C12.4219 37.2656 13.125 37.1875 13.8281 36.7187C13.9063 36.3281 14.0625 35.8594 14.2969 35.4688ZM17.6562 31.9531C18.9062 32.3438 19.7656 34.0625 18.6719 35.7812L17.1875 38.125C16.6406 38.9844 16.0156 39.2969 15.3906 39.2969C16.1719 39.5312 17.1875 39.2969 17.8906 38.2031L19.375 35.8594C20.625 33.8281 19.2188 31.875 17.6562 31.9531ZM28.0469 33.9063C28.125 33.9063 29.0625 33.75 29.375 33.75C28.2031 32.5781 26.3281 33.5156 25.2344 32.8906C26.0156 34.2187 27.6562 33.9063 27.8125 33.9063L29.6875 36.3281C31.25 38.2812 30 40.5469 28.3594 40.7812C30.0781 41.3281 31.7969 39.5312 31.25 37.5781C31.1719 37.5 28.0469 33.9063 28.0469 33.9063ZM29.9219 29.375C29.9219 29.375 31.0937 29.1406 32.1094 29.1406C30.9375 28.2031 29.1406 29.0625 27.9687 28.2812C28.4375 29.2969 29.4531 29.2969 29.7656 29.375L33.3594 33.5156C35 35.3906 33.8281 37.6562 32.1875 38.0469C34.0625 38.5938 35.8594 36.1719 34.6875 34.0625C33.9062 33.75 29.9219 29.375 29.9219 29.375Z" fill="#EBA352"/>
<path d="M27.4219 38.3594C26.25 37.4219 24.6094 38.125 23.9063 37.6563C24.2969 38.75 25.7812 38.5156 25.8594 38.5156C27.1875 40.5469 25.7813 42.6562 24.1406 42.8125C25.7813 43.5156 27.5781 41.9531 27.2656 40C27.1875 39.9219 26.0938 38.5156 26.0938 38.5156C26.25 38.4375 27.1094 38.3594 27.4219 38.3594ZM43.125 24.7656C43.125 24.7656 41.7969 27.5 36.6406 28.9844C35.9375 28.125 34.4531 26.4062 32.7344 24.9219C33.8281 24.6875 34.375 23.8281 35.2344 23.6719C34.9219 23.3594 33.8281 23.5156 32.9688 23.8281C31.4063 24.375 27.8125 21.875 27.8125 21.875L24.8438 22.2656C22.7344 24.2969 18.2031 25.3906 17.9688 22.2656C17.8125 20.0781 22.5781 18.5938 24.0625 17.1875C25.9375 15.3906 27.5781 13.125 30.625 14.6875C33.125 15.9375 34.1406 15.8594 37.5781 16.4844C38.75 16.7188 39.5313 17.2656 40.3906 18.4375C39.6875 16.7969 38.6719 16.0937 37.4219 15.8594L42.8906 13.2812L42.9688 11.9531L36.4844 15.625C33.5156 15.1562 32.4219 15.1562 30 13.9844C28.4375 13.2031 27.1875 13.4375 26.1719 14.0625C24.2969 12.9687 23.2031 13.2031 22.5 13.3594C20.3125 14.0625 16.7969 14.1406 13.6719 15.3906C14.2188 15.5469 14.7656 15.7031 15.1562 15.7031C18.2031 14.7656 21.4062 14.8437 22.8906 14.2969C23.3594 14.1406 24.2969 14.1406 25.3125 14.6875C24.6875 15.2344 24.1406 15.8594 23.5156 16.4844C22.0313 17.8906 17.5 19.9219 17.8125 22.5C17.9687 23.75 19.6875 27.0312 25.3906 23.3594L27.8125 23.0469C27.8125 23.0469 32.2656 25.1563 36.4062 30C38.0469 31.875 37.0313 33.9062 35.3906 34.375C37.5 34.7656 39.2969 31.7969 37.2656 29.7656L42.1875 27.1094L43.125 24.7656Z" fill="#EBA352"/>
<path d="M41.719 12.7344L44.2972 26.0938L42.1878 27.0312C41.094 24.1406 39.4534 17.1875 39.844 13.8281L41.719 12.7344Z" fill="#3B946F"/>
<path d="M8.67188 29.6875C8.28125 28.75 8.04688 27.5 8.04688 27.5L6.09375 26.1719L5.9375 27.6563L7.65625 28.125C7.89063 28.9062 8.125 29.5313 8.4375 30L8.67188 29.6875Z" fill="#EBA352"/>
<path d="M4.76562 27.4219L8.98438 12.8125L10.9375 14.1406C11.25 16.3281 7.65625 26.3281 6.32813 27.8125L4.76562 27.4219Z" fill="#3B946F"/>
<path d="M41.6406 12.6563C41.0156 13.0469 43.2812 26.5625 44.2187 26.1719C47.1875 24.8438 48.5156 24.4531 48.5156 24.4531V8.35937C48.4375 8.35937 46.6406 9.6875 41.6406 12.6563ZM1.5625 7.03125V26.9531C1.5625 26.9531 2.96875 27.1875 4.76562 27.5781C5.78125 27.8125 9.45312 13.125 9.21875 12.8906C6.5625 11.0938 1.5625 7.03125 1.5625 7.03125Z" fill="#47B892"/>
</svg>
