<svg width="31" height="31" viewBox="0 0 31 31" fill="none" xmlns="http://www.w3.org/2000/svg">
<g clip-path="url(#clip0_675_3036)">
<path d="M30.4857 15.5815C30.4857 14.3524 30.3836 13.4555 30.1627 12.5254H15.7988V18.0729H24.2301C24.0602 19.4515 23.1423 21.5277 21.1024 22.9228L21.0738 23.1085L25.6154 26.5463L25.93 26.577C28.8198 23.9692 30.4857 20.1325 30.4857 15.5815Z" fill="#4285F4"/>
<path d="M15.7988 30.1971C19.9295 30.1971 23.3971 28.8682 25.93 26.5762L21.1024 22.9221C19.8105 23.8024 18.0766 24.4169 15.7988 24.4169C11.7532 24.4169 8.31945 21.8093 7.09543 18.2051L6.91602 18.22L2.19359 21.791L2.13184 21.9587C4.64762 26.8419 9.81523 30.1971 15.7988 30.1971Z" fill="#34A853"/>
<path d="M7.09543 18.2063C6.77246 17.2761 6.58555 16.2795 6.58555 15.2498C6.58555 14.2199 6.77246 13.2234 7.07844 12.2933L7.06988 12.0952L2.28828 8.4668L2.13184 8.53951C1.09496 10.5659 0.5 12.8414 0.5 15.2498C0.5 17.6581 1.09496 19.9336 2.13184 21.9599L7.09543 18.2063Z" fill="#FBBC05"/>
<path d="M15.7988 6.08082C18.6716 6.08082 20.6094 7.2933 21.7143 8.30654L26.032 4.18738C23.3803 1.77903 19.9295 0.300781 15.7988 0.300781C9.81523 0.300781 4.64762 3.65586 2.13184 8.53899L7.07844 12.2928C8.31945 8.68853 11.7532 6.08082 15.7988 6.08082Z" fill="#EB4335"/>
</g>
<defs>
<clipPath id="clip0_675_3036">
<rect width="30" height="30" fill="white" transform="translate(0.5 0.300781)"/>
</clipPath>
</defs>
</svg>
