<svg width="130" height="146" viewBox="0 0 130 146" fill="none" xmlns="http://www.w3.org/2000/svg">
<path d="M1.71973 92.3596L37.4172 31.2034L51.8948 55.6668L73.1146 19.2199L63.3771 13.9788L90.9611 0L92.9587 30.454L83.597 25.7116L51.5212 80.0049L37.6677 55.5415L16.1996 92.3596H1.71973Z" fill="#E3A22A"/>
<path d="M37.4172 80.5645L30.6772 92.6436H44.4692L37.4172 80.5645Z" fill="#E3A22A"/>
<path d="M58.5687 91.9534L91.2709 38.4414L122.615 92.3816L102.35 71.5353L93.0202 75.1798L88.2095 60.8913L58.5687 91.9534Z" fill="white"/>
<path d="M58.5687 91.9534L88.2095 60.8913L91.2709 38.4414L58.5687 91.9534Z" fill="#E3A22A"/>
<path d="M119.484 127.726C118.472 128.535 116.983 128.368 116.174 127.359L108.129 117.303C107.32 116.292 107.486 114.802 108.496 113.993C109.507 113.185 110.997 113.351 111.805 114.36L119.85 124.416C120.659 125.428 120.495 126.915 119.484 127.726Z" fill="#E3A22A"/>
<path d="M111.7 126.393C111.7 126.393 111.309 124.999 109.53 124.621C109.161 124.659 108.785 124.677 108.407 124.677C102.398 124.677 97.528 119.808 97.528 113.799C97.528 107.806 102.414 102.92 108.407 102.92C114.415 102.92 119.285 107.79 119.285 113.799C119.285 114.979 119.096 116.115 118.748 117.179C118.748 117.179 118.805 119.466 120.263 119.828C120.294 119.835 120.326 119.844 120.356 119.853C120.381 119.86 120.42 119.871 120.468 119.883C121.759 120.193 123.057 119.414 123.426 118.138C123.825 116.76 124.037 115.304 124.037 113.797C124.037 105.164 117.037 98.1641 108.404 98.1641C99.7784 98.1641 92.772 105.171 92.772 113.797C92.772 122.429 99.7716 129.429 108.404 129.429C108.773 129.429 109.138 129.415 109.5 129.39C110.452 129.324 111.297 128.725 111.65 127.837C111.817 127.42 111.878 126.93 111.7 126.393Z" fill="white"/>
<path d="M60.6278 113.772C60.6278 109.808 59.0219 106.225 56.4253 103.626C53.8263 101.03 50.2434 99.4238 46.28 99.4238C46.0545 99.4238 45.829 99.4284 45.6012 99.4398C38.2577 99.7746 32.2853 105.747 31.9482 113.093C31.9368 113.321 31.9323 113.546 31.9323 113.772C31.9323 117.735 33.5381 121.318 36.1348 123.917C38.7337 126.514 42.3167 128.119 46.28 128.119C50.5645 128.119 54.4026 126.24 57.0334 123.263C57.12 123.165 57.1997 123.056 57.2794 122.942C57.3068 122.842 57.35 122.63 57.35 122.373C57.35 122.088 57.2977 121.758 57.1223 121.439C56.9469 121.12 56.653 120.796 56.0882 120.512L56.0859 120.509C56.0768 120.505 56.0585 120.498 56.0358 120.489C55.9879 120.471 55.9105 120.443 55.8103 120.416C55.6075 120.361 55.3092 120.304 54.9424 120.304C54.906 120.304 54.8695 120.304 54.8308 120.307C54.1065 120.329 53.3958 120.612 52.7808 121.07C52.6168 121.193 52.4596 121.327 52.3412 121.461L52.3207 121.484L52.2979 121.505C52.2729 121.527 51.7125 122.029 50.7468 122.532C49.781 123.033 48.4052 123.541 46.7584 123.541C46.3347 123.541 45.8951 123.507 45.4418 123.432C45.3757 123.425 44.9042 123.366 44.2277 123.149C43.5193 122.924 42.5854 122.525 41.6743 121.826C41.0684 121.359 40.4717 120.758 39.9683 119.988C39.2963 118.96 38.7975 117.639 38.6403 115.972L38.5811 115.348H59.0424C59.4775 115.348 59.8716 115.175 60.1608 114.892C60.4501 114.608 60.6255 114.225 60.6255 113.797L60.6278 113.772ZM38.4604 111.813L38.5355 111.175C38.695 109.838 39.0412 108.724 39.5127 107.806C39.9842 106.888 40.5787 106.166 41.2165 105.608C42.4966 104.492 43.9339 104.03 44.9543 103.834C45.6377 103.704 46.1411 103.692 46.3073 103.692C46.3415 103.692 46.3597 103.692 46.3666 103.692H46.3711H46.3734C47.7856 103.752 48.9632 104.048 49.9359 104.501C50.9085 104.954 51.6715 105.562 52.2592 106.223C53.4368 107.551 53.9174 109.073 54.1247 110.079C54.2614 110.751 54.275 111.202 54.275 111.227L54.291 111.813H38.4604Z" fill="white"/>
<path d="M91.28 113.772C91.28 109.808 89.6742 106.225 87.0775 103.626C84.4785 101.03 80.8956 99.4238 76.9322 99.4238C76.7067 99.4238 76.4812 99.4284 76.2535 99.4398C68.9099 99.7746 62.9375 105.747 62.6004 113.093C62.589 113.321 62.5845 113.546 62.5845 113.772C62.5845 117.735 64.1903 121.318 66.787 123.917C69.3859 126.514 72.9689 128.119 76.9322 128.119C81.2168 128.119 85.0548 126.24 87.6857 123.263C87.7722 123.165 87.8519 123.056 87.9317 122.942C87.959 122.842 88.0023 122.63 88.0023 122.373C88.0023 122.088 87.9499 121.758 87.7745 121.439C87.5991 121.12 87.3053 120.796 86.7404 120.512L86.7381 120.509C86.729 120.505 86.7108 120.498 86.688 120.489C86.6402 120.471 86.5627 120.443 86.4625 120.416C86.2598 120.361 85.9614 120.304 85.5947 120.304C85.5582 120.304 85.5218 120.304 85.483 120.307C84.7587 120.329 84.048 120.612 83.433 121.07C83.269 121.193 83.1119 121.327 82.9934 121.461L82.9729 121.484L82.9501 121.505C82.9251 121.527 82.3648 122.029 81.399 122.532C80.4332 123.033 79.0574 123.541 77.4106 123.541C76.9869 123.541 76.5473 123.507 76.094 123.432C76.028 123.425 75.5565 123.366 74.88 123.149C74.1716 122.924 73.2377 122.525 72.3266 121.826C71.7207 121.359 71.1239 120.758 70.6205 119.988C69.9486 118.96 69.4497 117.639 69.2925 115.972L69.2333 115.348H89.6947C90.1297 115.348 90.5238 115.175 90.813 114.892C91.1023 114.608 91.2777 114.225 91.2777 113.797L91.28 113.772ZM69.1103 111.813L69.1855 111.175C69.3449 109.838 69.6912 108.724 70.1627 107.806C70.6342 106.888 71.2287 106.166 71.8664 105.608C73.1466 104.492 74.5838 104.03 75.6043 103.834C76.2876 103.704 76.791 103.692 76.9573 103.692C76.9915 103.692 77.0097 103.692 77.0165 103.692H77.0211H77.0233C78.4356 103.752 79.6132 104.048 80.5858 104.501C81.5584 104.954 82.3215 105.562 82.9091 106.223C84.0868 107.551 84.5674 109.073 84.7747 110.079C84.9113 110.751 84.925 111.202 84.925 111.227L84.9409 111.813H69.1103Z" fill="white"/>
<path d="M15.6188 98.8737C7.06113 98.4796 0 105.302 0 113.773C0 114.08 0.00911225 114.383 0.0296123 114.686C0.0546679 115.078 0.0364443 115.467 0.00683308 115.859C0.00227751 115.912 0 115.966 0 116.021V138.692V139.4V142.653C0 144.042 1.1275 145.17 2.51695 145.17C3.66951 145.17 4.6034 144.236 4.6034 143.083V139.4V138.692V124.544C7.28208 127.109 10.9129 128.69 14.9149 128.69C23.386 128.69 30.208 121.629 29.8139 113.069C29.4631 105.427 23.2607 99.2267 15.6188 98.8737ZM15.8557 124.043C9.43231 124.615 4.07268 119.255 4.6444 112.832C5.08402 107.907 9.04964 103.942 13.9742 103.502C20.3976 102.93 25.7572 108.288 25.1855 114.713C24.7459 119.638 20.7802 123.604 15.8557 124.043Z" fill="white"/>
<path d="M120.937 96.8542C120.77 96.8542 120.645 96.8177 120.565 96.7471C120.483 96.6765 120.445 96.5672 120.445 96.4237C120.445 96.2802 120.486 96.1708 120.57 96.0957C120.654 96.0205 120.777 95.9863 120.939 95.9863H123.998C124.162 95.9863 124.285 96.0228 124.369 96.0957C124.454 96.1685 124.492 96.2779 124.492 96.4237C124.492 96.5672 124.451 96.6742 124.369 96.7448C124.287 96.8154 124.164 96.8542 123.998 96.8542H122.973V100.414C122.973 100.594 122.932 100.729 122.848 100.818C122.763 100.906 122.638 100.952 122.47 100.952C122.301 100.952 122.174 100.906 122.089 100.818C122.005 100.726 121.962 100.594 121.962 100.417V96.8564H120.937V96.8542Z" fill="white"/>
<path d="M126.012 100.353C126.012 100.56 125.973 100.711 125.898 100.809C125.823 100.907 125.704 100.954 125.54 100.954C125.374 100.954 125.253 100.907 125.176 100.813C125.1 100.72 125.062 100.565 125.062 100.355V96.6859C125.062 96.3875 125.107 96.1848 125.196 96.0777C125.285 95.9707 125.444 95.916 125.677 95.916H126.03C126.23 95.916 126.376 95.9547 126.465 96.0322C126.556 96.1096 126.643 96.3146 126.727 96.6472L127.533 99.7245L128.31 96.711C128.399 96.3716 128.488 96.1529 128.579 96.0595C128.67 95.9661 128.802 95.9183 128.982 95.9183H129.385C129.617 95.9183 129.777 95.973 129.866 96.0823C129.954 96.1916 130 96.3943 130 96.6905V100.36C130 100.567 129.961 100.718 129.884 100.816C129.806 100.913 129.688 100.961 129.528 100.961C129.362 100.961 129.242 100.913 129.164 100.818C129.087 100.722 129.05 100.57 129.05 100.36V96.9365L128.203 100.287C128.137 100.538 128.053 100.713 127.955 100.813C127.857 100.911 127.715 100.961 127.533 100.961C127.355 100.961 127.214 100.909 127.109 100.806C127.005 100.704 126.92 100.531 126.857 100.287L126.012 96.9296V100.353Z" fill="white"/>
</svg>
