<svg width="21" height="24" viewBox="0 0 21 24" fill="none" xmlns="http://www.w3.org/2000/svg">
<g clip-path="url(#clip0_1401_2738)">
<path d="M10.1044 23.9989C7.852 23.9989 5.52191 23.6882 3.34715 22.8338C2.64812 22.6008 2.02676 22.2125 1.4054 21.7465C0.473361 21.0474 -0.0703305 20.0377 0.00733944 18.795C0.162679 16.2319 1.17239 14.0571 2.9588 12.193C3.19181 11.8824 3.50249 11.8047 3.89084 11.8824C4.27919 11.96 4.43453 12.193 4.5122 12.5814C4.58987 12.9697 4.43452 13.2804 4.20151 13.5134C3.26947 14.4455 2.64811 15.5328 2.25976 16.7756C2.02675 17.4746 1.94908 18.2513 1.87141 19.028C1.87141 19.494 2.02676 19.8047 2.33744 20.1154C2.88113 20.5814 3.50248 20.8921 4.20151 21.1251C6.45394 21.9018 8.86171 22.1348 11.2695 22.0571C12.9005 21.9795 14.5316 21.7464 16.085 21.1251C16.7064 20.8921 17.4054 20.5814 17.9491 20.1154C18.3374 19.8047 18.4928 19.4163 18.4928 18.9503C18.3374 16.8532 17.6384 14.9892 16.1627 13.5134C15.9297 13.2804 15.7743 12.9697 15.7743 12.6591C15.852 12.2707 16.0073 12.0377 16.3957 11.8824C16.784 11.727 17.0947 11.8047 17.4054 12.1154C18.4928 13.2027 19.3472 14.4455 19.8132 15.9212C20.2015 16.9309 20.3569 17.9406 20.3569 19.028C20.4345 19.96 20.0462 20.7367 19.3471 21.3581C18.4928 22.1348 17.4831 22.6008 16.3957 22.9892C14.3763 23.7659 12.3569 23.9989 10.1044 23.9989Z" fill="#666566" stroke="white" stroke-width="0.7805" stroke-miterlimit="10"/>
<path d="M10.4466 0C6.87379 0 4 2.87378 4 6.44659C4 10.0194 6.87379 12.8932 10.4466 12.8932C13.9418 12.8932 16.8932 10.0194 16.8932 6.52427C16.8932 2.87378 14.0194 0 10.4466 0ZM10.3689 11.1068C7.80582 11.1068 5.78641 9.0097 5.78641 6.44659C5.78641 3.96116 7.88349 1.86407 10.3689 1.86407C12.932 1.86407 15.0291 3.96116 15.0291 6.44659C15.0291 9.0097 12.932 11.1068 10.3689 11.1068Z" fill="#666566" stroke="white" stroke-width="0.7805" stroke-miterlimit="10"/>
</g>
<defs>
<clipPath id="clip0_1401_2738">
<rect width="20.3667" height="23.9994" fill="white"/>
</clipPath>
</defs>
</svg>
