<svg width="150" height="45" viewBox="0 0 150 45" fill="none" xmlns="http://www.w3.org/2000/svg">
<path d="M144.444 45H5.55556C2.44444 45 0 42.525 0 39.375V5.625C0 2.475 2.44444 0 5.55556 0H144.444C147.556 0 150 2.475 150 5.625V39.375C150 42.525 147.556 45 144.444 45Z" fill="black"/>
<path d="M144.444 0.9C147 0.9 149.111 3.0375 149.111 5.625V39.375C149.111 41.9625 147 44.1 144.444 44.1H5.55556C3 44.1 0.888889 41.9625 0.888889 39.375V5.625C0.888889 3.0375 3 0.9 5.55556 0.9H144.444ZM144.444 0H5.55556C2.44444 0 0 2.5875 0 5.625V39.375C0 42.525 2.44444 45 5.55556 45H144.444C147.556 45 150 42.525 150 39.375V5.625C150 2.5875 147.556 0 144.444 0Z" fill="#A6A6A6"/>
<path d="M52.6667 11.4762C52.6667 12.3762 52.4444 13.1637 51.8889 13.7262C51.2222 14.4012 50.4444 14.7387 49.4444 14.7387C48.4444 14.7387 47.6667 14.4012 47 13.7262C46.3333 13.0512 46 12.2637 46 11.2512C46 10.2387 46.3333 9.45117 47 8.77617C47.6667 8.10117 48.4444 7.76367 49.4444 7.76367C49.8889 7.76367 50.3333 7.87617 50.7778 8.10117C51.2222 8.32617 51.5556 8.55117 51.7778 8.88867L51.2222 9.45117C50.7778 8.88867 50.2222 8.66367 49.4444 8.66367C48.7778 8.66367 48.1111 8.88867 47.6667 9.45117C47.1111 9.90117 46.8889 10.5762 46.8889 11.3637C46.8889 12.1512 47.1111 12.8262 47.6667 13.2762C48.2222 13.7262 48.7778 14.0637 49.4444 14.0637C50.2222 14.0637 50.7778 13.8387 51.3333 13.2762C51.6667 12.9387 51.8889 12.4887 51.8889 11.9262H49.4444V11.0262H52.6667V11.4762ZM57.7778 8.66367H54.7778V10.8012H57.5556V11.5887H54.7778V13.7262H57.7778V14.6262H53.8889V7.87617H57.7778V8.66367ZM61.4444 14.6262H60.5556V8.66367H58.6667V7.87617H63.3333V8.66367H61.4444V14.6262ZM66.5556 14.6262V7.87617H67.4444V14.6262H66.5556ZM71.2222 14.6262H70.3333V8.66367H68.4444V7.87617H73V8.66367H71.1111V14.6262H71.2222ZM81.7778 13.7262C81.1111 14.4012 80.3333 14.7387 79.3333 14.7387C78.3333 14.7387 77.5555 14.4012 76.8889 13.7262C76.2222 13.0512 75.8889 12.2637 75.8889 11.2512C75.8889 10.2387 76.2222 9.45117 76.8889 8.77617C77.5555 8.10117 78.3333 7.76367 79.3333 7.76367C80.3333 7.76367 81.1111 8.10117 81.7778 8.77617C82.4444 9.45117 82.7778 10.2387 82.7778 11.2512C82.7778 12.2637 82.4444 13.0512 81.7778 13.7262ZM77.5556 13.1637C78 13.6137 78.6667 13.9512 79.3333 13.9512C80 13.9512 80.6667 13.7262 81.1111 13.1637C81.5556 12.7137 81.8889 12.0387 81.8889 11.2512C81.8889 10.4637 81.6667 9.78867 81.1111 9.33867C80.6667 8.88867 80 8.55117 79.3333 8.55117C78.6667 8.55117 78 8.77617 77.5556 9.33867C77.1111 9.78867 76.7778 10.4637 76.7778 11.2512C76.7778 12.0387 77 12.7137 77.5556 13.1637ZM84 14.6262V7.87617H85L88.2222 13.1637V7.87617H89.1111V14.6262H88.2222L84.7778 9.11367V14.6262H84Z" fill="white" stroke="white" stroke-width="1.18519" stroke-miterlimit="10"/>
<path d="M75.666 24.5238C72.9994 24.5238 70.8882 26.5488 70.8882 29.3613C70.8882 32.0613 72.9994 34.1988 75.666 34.1988C78.3327 34.1988 80.4438 32.1738 80.4438 29.3613C80.4438 26.4363 78.3327 24.5238 75.666 24.5238ZM75.666 32.1738C74.2216 32.1738 72.9993 30.9363 72.9993 29.2488C72.9993 27.5613 74.2216 26.3238 75.666 26.3238C77.1105 26.3238 78.3327 27.4488 78.3327 29.2488C78.3327 30.9363 77.1105 32.1738 75.666 32.1738ZM65.3327 24.5238C62.666 24.5238 60.5549 26.5488 60.5549 29.3613C60.5549 32.0613 62.666 34.1988 65.3327 34.1988C67.9994 34.1988 70.1105 32.1738 70.1105 29.3613C70.1105 26.4363 67.9994 24.5238 65.3327 24.5238ZM65.3327 32.1738C63.8882 32.1738 62.666 30.9363 62.666 29.2488C62.666 27.5613 63.8882 26.3238 65.3327 26.3238C66.7771 26.3238 67.9994 27.4488 67.9994 29.2488C67.9994 30.9363 66.7771 32.1738 65.3327 32.1738ZM52.9994 25.9863V28.0113H57.7771C57.666 29.1363 57.2216 30.0363 56.666 30.5988C55.9994 31.2738 54.8882 32.0613 52.9994 32.0613C49.9994 32.0613 47.7771 29.6988 47.7771 26.6613C47.7771 23.6238 50.1105 21.2613 52.9994 21.2613C54.5549 21.2613 55.7771 21.9363 56.666 22.7238L58.1105 21.2613C56.8882 20.1363 55.3327 19.2363 53.1105 19.2363C49.1105 19.2363 45.666 22.6113 45.666 26.6613C45.666 30.7113 49.1105 34.0863 53.1105 34.0863C55.3327 34.0863 56.8882 33.4113 58.2216 31.9488C59.5549 30.5988 59.9994 28.6863 59.9994 27.2238C59.9994 26.7738 59.9994 26.3238 59.8882 25.9863H52.9994ZM103.444 27.5613C102.999 26.4363 101.888 24.5238 99.4438 24.5238C96.9994 24.5238 94.9994 26.4363 94.9994 29.3613C94.9994 32.0613 96.9993 34.1988 99.666 34.1988C101.777 34.1988 103.11 32.8488 103.555 32.0613L101.999 30.9363C101.444 31.7238 100.777 32.2863 99.666 32.2863C98.5549 32.2863 97.8882 31.8363 97.3327 30.8238L103.666 28.1238L103.444 27.5613ZM96.9994 29.1363C96.9994 27.3363 98.4438 26.3238 99.4438 26.3238C100.222 26.3238 100.999 26.7738 101.222 27.3363L96.9994 29.1363ZM91.7771 33.7488H93.8882V19.6863H91.7771V33.7488ZM88.4438 25.5363C87.8882 24.9738 86.9994 24.4113 85.8882 24.4113C83.5549 24.4113 81.3327 26.5488 81.3327 29.2488C81.3327 31.9488 83.4438 33.9738 85.8882 33.9738C86.9994 33.9738 87.8882 33.4113 88.3327 32.8488H88.4438V33.5238C88.4438 35.3238 87.4438 36.3363 85.8882 36.3363C84.666 36.3363 83.7771 35.4363 83.5549 34.6488L81.7771 35.4363C82.3327 36.6738 83.666 38.2488 85.9994 38.2488C88.4438 38.2488 90.4438 36.7863 90.4438 33.2988V24.7488H88.4438V25.5363ZM85.9994 32.1738C84.5549 32.1738 83.3327 30.9363 83.3327 29.2488C83.3327 27.5613 84.5549 26.3238 85.9994 26.3238C87.4438 26.3238 88.5549 27.5613 88.5549 29.2488C88.5549 30.9363 87.4438 32.1738 85.9994 32.1738ZM113.11 19.6863H108.11V33.7488H110.222V28.4613H113.11C115.444 28.4613 117.666 26.7738 117.666 24.0738C117.666 21.3738 115.444 19.6863 113.11 19.6863ZM113.222 26.4363H110.222V21.5988H113.222C114.777 21.5988 115.666 22.9488 115.666 23.9613C115.555 25.1988 114.666 26.4363 113.222 26.4363ZM125.999 24.4113C124.444 24.4113 122.888 25.0863 122.333 26.5488L124.222 27.3363C124.666 26.5488 125.333 26.3238 126.11 26.3238C127.222 26.3238 128.222 26.9988 128.333 28.1238V28.2363C127.999 28.0113 127.11 27.6738 126.222 27.6738C124.222 27.6738 122.222 28.7988 122.222 30.8238C122.222 32.7363 123.888 33.9738 125.666 33.9738C127.11 33.9738 127.777 33.2988 128.333 32.6238H128.444V33.7488H130.444V28.3488C130.222 25.8738 128.333 24.4113 125.999 24.4113ZM125.777 32.1738C125.11 32.1738 124.11 31.8363 124.11 30.9363C124.11 29.8113 125.333 29.4738 126.333 29.4738C127.222 29.4738 127.666 29.6988 128.222 29.9238C127.999 31.2738 126.888 32.1738 125.777 32.1738ZM137.444 24.7488L135.11 30.8238H134.999L132.555 24.7488H130.333L133.999 33.2988L131.888 38.0238H133.999L139.666 24.7488H137.444ZM118.777 33.7488H120.888V19.6863H118.777V33.7488Z" fill="white"/>
<path d="M11.5558 8.43945C11.2224 8.77695 11.1113 9.33945 11.1113 10.0145V34.877C11.1113 35.552 11.3336 36.1145 11.6669 36.452L11.778 36.5645L25.5558 22.6145V22.3895L11.5558 8.43945Z" fill="url(#paint0_linear_9509_96947)"/>
<path d="M30.0009 27.3379L25.4453 22.7254V22.3879L30.0009 17.7754L30.112 17.8879L35.5564 21.0379C37.112 21.9379 37.112 23.4004 35.5564 24.3004L30.0009 27.3379Z" fill="url(#paint1_linear_9509_96947)"/>
<path d="M30.1122 27.227L25.4455 22.502L11.5566 36.5645C12.1122 37.127 12.89 37.1269 13.89 36.6769L30.1122 27.227Z" fill="url(#paint2_linear_9509_96947)"/>
<path d="M30.1122 17.7757L13.89 8.43818C12.89 7.87568 12.1122 7.98818 11.5566 8.55068L25.4455 22.5007L30.1122 17.7757Z" fill="url(#paint3_linear_9509_96947)"/>
<path opacity="0.2" d="M30.0011 27.1133L13.89 36.3383C13.0011 36.9008 12.2233 36.7883 11.6678 36.3383L11.5566 36.4508L11.6678 36.5633C12.2233 37.0133 13.0011 37.1258 13.89 36.5633L30.0011 27.1133Z" fill="black"/>
<path opacity="0.12" d="M11.5558 36.3395C11.2224 36.002 11.1113 35.4395 11.1113 34.7645V34.877C11.1113 35.552 11.3336 36.1145 11.6669 36.452V36.3395H11.5558ZM35.5558 23.9645L30.0002 27.1145L30.1113 27.227L35.5558 24.077C36.3335 23.627 36.6669 23.0645 36.6669 22.502C36.6669 23.0645 36.2224 23.5145 35.5558 23.9645Z" fill="black"/>
<path opacity="0.25" d="M13.8891 8.55043L35.5558 21.0379C36.2224 21.4879 36.6669 21.9379 36.6669 22.5004C36.6669 21.9379 36.3335 21.3754 35.5558 20.9254L13.8891 8.43793C12.3336 7.53793 11.1113 8.21293 11.1113 10.0129V10.1254C11.1113 8.43793 12.3336 7.65043 13.8891 8.55043Z" fill="white"/>
<defs>
<linearGradient id="paint0_linear_9509_96947" x1="24.2224" y1="9.8007" x2="5.34303" y2="28.4459" gradientUnits="userSpaceOnUse">
<stop stop-color="#00A0FF"/>
<stop offset="0.007" stop-color="#00A1FF"/>
<stop offset="0.26" stop-color="#00BEFF"/>
<stop offset="0.512" stop-color="#00D2FF"/>
<stop offset="0.76" stop-color="#00DFFF"/>
<stop offset="1" stop-color="#00E3FF"/>
</linearGradient>
<linearGradient id="paint1_linear_9509_96947" x1="37.5942" y1="22.5015" x2="10.7086" y2="22.5015" gradientUnits="userSpaceOnUse">
<stop stop-color="#FFE000"/>
<stop offset="0.409" stop-color="#FFBD00"/>
<stop offset="0.775" stop-color="#FFA500"/>
<stop offset="1" stop-color="#FF9C00"/>
</linearGradient>
<linearGradient id="paint2_linear_9509_96947" x1="27.5866" y1="25.085" x2="1.98587" y2="50.3697" gradientUnits="userSpaceOnUse">
<stop stop-color="#FF3A44"/>
<stop offset="1" stop-color="#C31162"/>
</linearGradient>
<linearGradient id="paint3_linear_9509_96947" x1="8.10886" y1="0.198676" x2="19.5414" y2="11.49" gradientUnits="userSpaceOnUse">
<stop stop-color="#32A071"/>
<stop offset="0.069" stop-color="#2DA771"/>
<stop offset="0.476" stop-color="#15CF74"/>
<stop offset="0.801" stop-color="#06E775"/>
<stop offset="1" stop-color="#00F076"/>
</linearGradient>
</defs>
</svg>
