<svg width="36" height="36" viewBox="0 0 36 36" fill="none" xmlns="http://www.w3.org/2000/svg">
<path d="M25.0603 31.0568C24.802 31.3151 24.4584 31.4702 24.0939 31.4931C23.7293 31.5161 23.3689 31.4052 23.0803 31.1813L22.9393 31.0568L10.9393 19.0568C10.6811 18.7985 10.5259 18.4549 10.503 18.0903C10.4801 17.7258 10.591 17.3654 10.8148 17.0768L10.9393 16.9358L22.9393 4.9358C23.2093 4.66678 23.5715 4.51059 23.9524 4.49896C24.3333 4.48733 24.7044 4.62112 24.9903 4.87317C25.2761 5.12523 25.4553 5.47663 25.4914 5.85601C25.5276 6.2354 25.4179 6.61432 25.1848 6.9158L25.0603 7.0568L14.1208 17.9963L25.0603 28.9358C25.3415 29.2171 25.4995 29.5986 25.4995 29.9963C25.4995 30.394 25.3415 30.7755 25.0603 31.0568Z" fill="black"/>
</svg>
