<svg width="500" height="592" viewBox="0 0 500 592" fill="none" xmlns="http://www.w3.org/2000/svg">
<g clip-path="url(#clip0_10496_26837)">
<mask id="mask0_10496_26837" style="mask-type:luminance" maskUnits="userSpaceOnUse" x="0" y="202" width="500" height="390">
<path d="M500 202H0V591.436H500V202Z" fill="white"/>
</mask>
<g mask="url(#mask0_10496_26837)">
<path d="M115.158 579.733C115.158 579.733 167.652 606.964 227.582 578.202C287.512 549.44 306.978 493.775 338.146 451.89C354.441 430.018 381.125 417.769 401.466 399.287C466.536 340.341 443.024 241.807 383.531 214.794C331.912 191.501 272.42 199.921 198.71 239.51C125.001 279.099 71.8512 304.69 33.1373 383.648C-5.57665 462.717 49.8696 541.566 115.158 579.733Z" fill="#E3A130"/>
<path opacity="0.5" d="M115.158 579.733C115.158 579.733 167.652 606.964 227.582 578.202C287.512 549.44 306.978 493.775 338.146 451.89C354.441 430.018 381.125 417.769 401.466 399.287C466.536 340.341 443.024 241.807 383.531 214.794C331.912 191.501 272.42 199.921 198.71 239.51C125.001 279.099 71.8512 304.69 33.1373 383.648C-5.57665 462.717 49.8696 541.566 115.158 579.733Z" fill="white"/>
<path d="M434.053 545.395C434.053 545.395 430.444 529.866 433.178 516.195C435.912 502.525 442.255 511.602 449.582 502.525C456.909 493.448 453.191 476.06 461.393 468.733C469.595 461.405 481.406 462.39 484.14 448.719C486.874 435.049 488.733 424.113 494.201 425.972C499.669 427.831 489.608 444.236 489.608 454.187C489.608 464.249 495.076 470.592 491.467 480.653C487.858 490.714 472.329 486.996 472.329 498.916C472.329 510.837 478.672 522.648 473.204 530.85C467.736 539.052 453.191 540.911 451.332 545.395C449.473 549.988 444.989 558.19 440.396 558.19C435.912 558.19 434.053 545.395 434.053 545.395Z" fill="#11D147"/>
<path d="M431.101 545.614C431.976 542.88 430.226 519.149 422.024 514.556C413.822 509.963 404.745 511.822 400.151 503.62C395.558 495.417 395.558 491.809 391.074 490.824C386.481 489.949 364.609 486.231 367.343 490.824C370.077 495.417 386.481 488.09 386.481 497.167C386.481 506.244 384.622 520.899 390.09 524.508C395.558 528.117 410.103 527.242 409.228 535.444C408.354 543.646 405.619 546.38 410.103 549.114C414.696 551.848 427.382 563.659 429.242 554.582C431.101 545.614 431.101 545.614 431.101 545.614Z" fill="#11D147"/>
<path d="M441.272 565.737C441.272 565.737 437.007 552.504 448.708 528.007C460.41 503.51 468.94 485.028 474.19 475.404" stroke="#131A2C" stroke-width="1.232" stroke-miterlimit="10"/>
<path d="M431.648 567.814C431.648 567.814 430.007 561.471 424.758 543.863C419.399 526.366 413.056 521.554 404.088 515.758C395.011 509.961 394.574 500.338 392.934 497.713" stroke="#131A2C" stroke-width="1.232" stroke-miterlimit="10"/>
<path d="M453.957 558.299C453.957 558.299 455.051 548.785 463.471 546.051C472.002 543.426 479.985 544.41 481.516 538.614C483.156 532.818 483.157 526.912 486.875 523.741C490.593 520.57 495.405 518.929 495.952 520.569C496.499 522.21 490.593 523.194 490.593 528.553C490.593 533.912 498.576 547.144 486.875 552.503C475.173 557.862 465.659 553.05 461.394 556.768C457.128 560.486 454.504 563.111 454.504 563.111L453.957 558.299Z" fill="#11D147"/>
<path d="M452.973 567.814C452.973 567.814 456.691 554.034 465.768 550.863C474.845 547.691 484.906 554.581 489.171 548.238C493.436 541.895 490.265 535.443 489.718 531.287" stroke="#131A2C" stroke-width="1.232" stroke-miterlimit="10"/>
<path d="M458.878 565.736H425.961C424.539 565.736 423.336 566.939 423.336 568.361C423.336 569.783 424.539 570.986 425.961 570.986H426.179L428.695 577.657C429.132 578.75 430.116 579.406 431.319 579.406H453.41C454.504 579.406 455.598 578.75 456.035 577.657L458.55 570.986H458.769C460.191 570.986 461.394 569.783 461.394 568.361C461.612 566.83 460.409 565.736 458.878 565.736Z" fill="#131A2C"/>
<path d="M12.1977 573.983C12.1977 573.983 11.5991 571.408 12.0526 569.14C12.506 566.873 13.558 568.379 14.7732 566.873C15.9884 565.368 15.3718 562.484 16.7321 561.269C18.0924 560.053 20.0513 560.217 20.5047 557.949C20.9582 555.682 21.2665 553.869 22.1734 554.177C23.0803 554.485 21.4116 557.206 21.4116 558.856C21.4116 560.525 22.3185 561.577 21.72 563.246C21.1214 564.914 18.5459 564.298 18.5459 566.275C18.5459 568.252 19.5978 570.211 18.691 571.571C17.7841 572.931 15.3718 573.24 15.0634 573.983C14.7551 574.745 14.0114 576.105 13.2496 576.105C12.506 576.105 12.1977 573.983 12.1977 573.983Z" fill="#11D147"/>
<path d="M11.7071 574.019C11.8522 573.565 11.562 569.629 10.2017 568.868C8.84134 568.106 7.33591 568.414 6.57413 567.054C5.81235 565.694 5.81235 565.095 5.0687 564.932C4.30692 564.787 0.67938 564.17 1.13282 564.932C1.58626 565.694 4.30692 564.478 4.30692 565.984C4.30692 567.489 3.99858 569.92 4.90547 570.518C5.81235 571.117 8.22467 570.972 8.07956 572.332C7.93446 573.692 7.48102 574.146 8.22466 574.599C8.98645 575.053 11.0904 577.011 11.3988 575.506C11.7071 574.019 11.7071 574.019 11.7071 574.019Z" fill="#11D147"/>
<path d="M13.3953 577.357C13.3953 577.357 12.6879 575.162 14.6286 571.099C16.5694 567.036 17.9841 563.971 18.8547 562.375" stroke="#131A2C" stroke-width="1.232" stroke-miterlimit="10"/>
<path d="M11.7977 577.7C11.7977 577.7 11.5256 576.649 10.655 573.728C9.76628 570.826 8.71429 570.028 7.227 569.067C5.72157 568.106 5.64902 566.51 5.37695 566.074" stroke="#131A2C" stroke-width="1.232" stroke-miterlimit="10"/>
<path d="M15.498 576.122C15.498 576.122 15.6794 574.544 17.076 574.091C18.4908 573.656 19.8148 573.819 20.0687 572.858C20.3408 571.896 20.3408 570.917 20.9575 570.391C21.5742 569.865 22.3722 569.593 22.4629 569.865C22.5536 570.137 21.5742 570.3 21.5742 571.189C21.5742 572.078 22.8982 574.272 20.9575 575.161C19.0168 576.05 17.4388 575.252 16.7314 575.868C16.024 576.485 15.5887 576.92 15.5887 576.92L15.498 576.122Z" fill="#11D147"/>
<path d="M15.334 577.703C15.334 577.703 15.9507 575.417 17.4561 574.891C18.9615 574.365 20.6302 575.508 21.3376 574.456C22.0449 573.404 21.5189 572.334 21.4282 571.645" stroke="#131A2C" stroke-width="1.232" stroke-miterlimit="10"/>
<path d="M16.3147 577.357H10.8552C10.6194 577.357 10.4199 577.557 10.4199 577.793C10.4199 578.029 10.6194 578.228 10.8552 578.228H10.8915L11.3087 579.334C11.3812 579.516 11.5445 579.625 11.744 579.625H15.4078C15.5892 579.625 15.7705 579.516 15.8431 579.334L16.2603 578.228H16.2965C16.5323 578.228 16.7318 578.029 16.7318 577.793C16.7681 577.539 16.5686 577.357 16.3147 577.357Z" fill="#131A2C"/>
<path d="M343.067 448.5C341.973 447.297 341.317 445.657 341.317 443.47V437.127H319.226C317.367 437.127 315.836 436.58 314.742 435.596C313.648 434.611 312.992 433.299 312.992 431.659C312.992 430.565 313.32 429.362 313.867 428.159L333.661 393.71C336.067 389.664 339.567 387.586 344.27 387.586C347.441 387.586 349.956 388.351 351.597 389.883C353.237 391.414 354.112 394.038 354.112 397.647V427.503H358.705C360.236 427.503 361.549 427.94 362.423 428.706C363.298 429.581 363.845 430.674 363.845 432.315C363.845 433.846 363.408 434.939 362.533 435.814C361.658 436.689 360.346 437.127 358.705 437.127H354.112V443.36C354.112 445.547 353.565 447.297 352.472 448.5C351.378 449.703 349.738 450.359 347.66 450.359C345.691 450.359 344.16 449.703 343.067 448.5ZM341.317 427.503V398.741L325.569 427.503H341.317Z" fill="#CC4141"/>
<path d="M382.983 449.703C380.249 448.5 377.952 446.969 376.093 445.001C374.343 443.032 372.812 440.626 371.609 437.892C370.406 435.049 369.64 432.096 369.094 429.034C368.656 425.972 368.328 422.581 368.328 418.973C368.328 415.473 368.547 412.083 369.094 409.021C369.531 405.959 370.406 403.006 371.609 400.272C372.812 397.428 374.234 395.132 376.093 393.163C377.843 391.195 380.139 389.664 382.983 388.461C385.826 387.258 388.997 386.711 392.497 386.711C395.997 386.711 399.059 387.258 401.902 388.461C404.636 389.554 406.933 391.195 408.682 393.054C410.432 395.022 411.963 397.319 413.166 400.162C414.369 402.896 415.244 405.849 415.682 408.911C416.228 411.973 416.447 415.364 416.447 418.973C416.447 422.581 416.228 425.862 415.682 429.034C415.244 432.096 414.369 435.049 413.166 437.892C411.963 440.735 410.542 443.032 408.682 445.001C406.933 446.969 404.636 448.5 401.793 449.703C399.059 450.906 395.887 451.453 392.388 451.453C388.997 451.343 385.826 450.797 382.983 449.703ZM397.856 439.642C399.277 438.548 400.371 436.798 401.027 434.611C401.683 432.424 402.23 430.127 402.449 427.612C402.777 425.206 402.886 422.253 402.886 418.863C402.886 416.239 402.777 413.833 402.668 411.864C402.558 409.896 402.23 407.818 401.793 405.849C401.355 403.881 400.699 402.24 400.043 400.928C399.277 399.616 398.293 398.631 396.981 397.866C395.668 397.1 394.247 396.663 392.388 396.663C390.966 396.663 389.654 396.882 388.451 397.428C387.357 397.975 386.373 398.741 385.607 399.725C384.842 400.709 384.186 401.912 383.748 403.225C383.201 404.537 382.873 406.068 382.545 407.818C382.217 409.567 382.108 411.317 381.998 413.067C381.889 414.817 381.889 416.785 381.889 418.973C381.889 421.16 381.889 423.128 381.998 424.878C382.108 426.628 382.326 428.378 382.545 430.127C382.873 431.877 383.201 433.408 383.748 434.721C384.295 436.033 384.842 437.127 385.607 438.22C386.373 439.204 387.248 439.97 388.451 440.517C389.544 441.064 390.857 441.282 392.388 441.282C394.575 441.282 396.434 440.735 397.856 439.642Z" fill="#CC4141"/>
<path d="M343.067 448.5C341.973 447.297 341.317 445.657 341.317 443.47V437.127H319.226C317.367 437.127 315.836 436.58 314.742 435.596C313.648 434.611 312.992 433.299 312.992 431.659C312.992 430.565 313.32 429.362 313.867 428.159L333.661 393.71C336.067 389.664 339.567 387.586 344.27 387.586C347.441 387.586 349.956 388.351 351.597 389.883C353.237 391.414 354.112 394.038 354.112 397.647V427.503H358.705C360.236 427.503 361.549 427.94 362.423 428.706C363.298 429.581 363.845 430.674 363.845 432.315C363.845 433.846 363.408 434.939 362.533 435.814C361.658 436.689 360.346 437.127 358.705 437.127H354.112V443.36C354.112 445.547 353.565 447.297 352.472 448.5C351.378 449.703 349.738 450.359 347.66 450.359C345.691 450.359 344.16 449.703 343.067 448.5ZM341.317 427.503V398.741L325.569 427.503H341.317Z" fill="#CC4141"/>
<path d="M451.074 448.914C449.981 447.711 449.325 446.071 449.325 443.884V437.541H427.234C425.374 437.541 423.843 436.994 422.75 436.01C421.656 435.025 421 433.713 421 432.073C421 430.979 421.328 429.776 421.875 428.573L441.669 394.124C444.075 390.078 447.575 388 452.277 388C455.449 388 457.964 388.766 459.605 390.297C461.245 391.828 462.12 394.452 462.12 398.061V427.917H466.713C468.244 427.917 469.556 428.354 470.431 429.12C471.306 429.995 471.853 431.088 471.853 432.729C471.853 434.26 471.416 435.353 470.541 436.228C469.666 437.103 468.353 437.541 466.713 437.541H462.12V443.774C462.12 445.962 461.573 447.711 460.479 448.914C459.386 450.117 457.745 450.773 455.668 450.773C453.699 450.773 452.168 450.117 451.074 448.914ZM449.325 427.917V399.155L433.577 427.917H449.325Z" fill="#CC4141"/>
<path d="M360.346 371.074C360.127 370.855 360.018 370.527 360.018 370.308V351.17C360.018 350.842 360.127 350.623 360.346 350.404C360.564 350.186 360.783 350.076 361.111 350.076H372.485C372.813 350.076 373.032 350.186 373.25 350.404C373.469 350.623 373.469 350.842 373.469 351.06C373.469 351.389 373.36 351.607 373.25 351.717C373.032 351.935 372.813 351.935 372.485 351.935H362.533V359.481H372.047C372.375 359.481 372.703 359.591 372.813 359.7C373.032 359.919 373.032 360.137 373.032 360.356C373.032 360.575 372.922 360.903 372.703 361.012C372.485 361.231 372.266 361.231 371.938 361.231H362.424V369.433H372.922C373.25 369.433 373.469 369.542 373.688 369.652C373.906 369.871 373.906 370.089 373.906 370.308C373.906 370.636 373.797 370.855 373.688 370.964C373.469 371.183 373.25 371.292 372.922 371.292H361.221C360.892 371.511 360.674 371.402 360.346 371.074Z" fill="#CC4141"/>
<path d="M378.719 371.184C378.5 370.965 378.391 370.746 378.391 370.418V357.513C378.391 357.185 378.5 356.967 378.719 356.748C378.937 356.529 379.156 356.529 379.484 356.529C379.812 356.529 380.031 356.639 380.25 356.748C380.469 356.967 380.578 357.185 380.578 357.513V359.263C380.797 358.279 381.343 357.513 382.109 356.967C382.874 356.31 383.859 355.982 384.952 355.982C385.171 355.982 385.39 356.092 385.608 356.311C385.718 356.529 385.827 356.748 385.827 356.967C385.827 357.185 385.718 357.404 385.608 357.623C385.499 357.842 385.171 357.842 384.952 357.842C384.187 357.842 383.531 357.951 382.984 358.279C382.437 358.498 382 358.826 381.671 359.263C381.343 359.701 381.125 360.138 381.015 360.576C380.906 361.013 380.797 361.45 380.797 361.888V370.309C380.797 370.637 380.687 370.856 380.468 371.074C380.25 371.293 379.922 371.293 379.703 371.293C379.156 371.512 378.937 371.402 378.719 371.184Z" fill="#CC4141"/>
<path d="M389.326 371.184C389.107 370.965 388.998 370.746 388.998 370.418V357.513C388.998 357.185 389.107 356.967 389.326 356.748C389.545 356.529 389.764 356.529 390.092 356.529C390.42 356.529 390.638 356.639 390.857 356.748C391.076 356.967 391.185 357.185 391.185 357.513V359.263C391.404 358.279 391.951 357.513 392.716 356.967C393.482 356.31 394.466 355.982 395.56 355.982C395.778 355.982 395.997 356.092 396.216 356.311C396.325 356.529 396.435 356.748 396.435 356.967C396.435 357.185 396.325 357.404 396.216 357.623C396.107 357.842 395.778 357.842 395.56 357.842C394.794 357.842 394.138 357.951 393.591 358.279C393.044 358.498 392.607 358.826 392.279 359.263C391.951 359.701 391.732 360.138 391.623 360.576C391.513 361.013 391.404 361.45 391.404 361.888V370.309C391.404 370.637 391.295 370.856 391.076 371.074C390.857 371.293 390.529 371.293 390.31 371.293C389.873 371.512 389.545 371.402 389.326 371.184Z" fill="#CC4141"/>
<path d="M400.592 369.653C399.17 368.231 398.514 366.372 398.514 363.966C398.514 361.56 399.17 359.701 400.592 358.279C402.013 356.857 403.763 356.201 405.95 356.201C408.137 356.201 409.887 356.857 411.309 358.279C412.731 359.701 413.387 361.56 413.387 363.966C413.387 366.372 412.731 368.231 411.309 369.653C409.887 371.074 408.137 371.73 405.95 371.73C403.763 371.84 402.013 371.074 400.592 369.653ZM409.778 359.373C408.903 358.17 407.591 357.623 405.95 357.623C404.31 357.623 403.107 358.17 402.123 359.373C401.248 360.466 400.701 361.997 400.701 363.966C400.701 365.825 401.138 367.356 402.123 368.559C402.998 369.762 404.31 370.309 405.95 370.309C407.591 370.309 408.903 369.762 409.778 368.559C410.653 367.465 411.2 365.934 411.2 363.966C411.2 361.997 410.653 360.576 409.778 359.373Z" fill="#CC4141"/>
<path d="M417.213 371.184C416.994 370.965 416.885 370.746 416.885 370.418V357.513C416.885 357.185 416.994 356.967 417.213 356.748C417.432 356.529 417.65 356.529 417.978 356.529C418.306 356.529 418.525 356.639 418.744 356.748C418.963 356.967 419.072 357.185 419.072 357.513V359.263C419.291 358.279 419.838 357.513 420.603 356.967C421.369 356.31 422.353 355.982 423.446 355.982C423.665 355.982 423.884 356.092 424.103 356.311C424.212 356.529 424.321 356.748 424.321 356.967C424.321 357.185 424.212 357.404 424.103 357.623C423.993 357.842 423.665 357.842 423.446 357.842C422.681 357.842 422.025 357.951 421.478 358.279C420.931 358.498 420.494 358.826 420.166 359.263C419.838 359.701 419.619 360.138 419.509 360.576C419.4 361.013 419.291 361.45 419.291 361.888V370.309C419.291 370.637 419.181 370.856 418.963 371.074C418.744 371.293 418.416 371.293 418.197 371.293C417.65 371.512 417.432 371.402 417.213 371.184Z" fill="#CC4141"/>
<path d="M105.314 342.093C124.581 342.093 140.2 326.474 140.2 307.207C140.2 287.939 124.581 272.32 105.314 272.32C86.0468 272.32 70.4277 287.939 70.4277 307.207C70.4277 326.474 86.0468 342.093 105.314 342.093Z" stroke="#E3A130" stroke-width="1.232" stroke-miterlimit="10" stroke-linecap="round" stroke-linejoin="round"/>
<path d="M109.805 335.731C125.555 333.248 136.311 318.467 133.829 302.716C131.346 286.965 116.565 276.21 100.814 278.692C85.0636 281.175 74.3077 295.956 76.7904 311.707C79.2731 327.457 94.0541 338.213 109.805 335.731Z" stroke="#E3A130" stroke-width="1.232" stroke-miterlimit="10" stroke-linecap="round" stroke-linejoin="round"/>
<path d="M86.9414 307.207H105.314V333.891" stroke="#E3A130" stroke-width="1.232" stroke-miterlimit="10" stroke-linecap="round" stroke-linejoin="round"/>
<path d="M266.184 573.611C266.184 570.33 268.808 567.705 272.089 567.705C275.37 567.705 277.995 570.33 277.995 573.611C277.995 576.891 275.37 579.516 272.089 579.516C268.808 579.516 266.184 576.891 266.184 573.611Z" fill="url(#paint0_linear_10496_26837)" stroke="url(#paint1_linear_10496_26837)" stroke-width="1.232" stroke-miterlimit="10" stroke-linecap="round" stroke-linejoin="round"/>
<path d="M269.027 573.611C269.027 571.971 270.34 570.658 271.98 570.658C273.621 570.658 274.933 571.971 274.933 573.611C274.933 575.251 273.621 576.564 271.98 576.564C270.34 576.564 269.027 575.251 269.027 573.611Z" fill="white" stroke="url(#paint2_linear_10496_26837)" stroke-width="1.232" stroke-miterlimit="10" stroke-linecap="round" stroke-linejoin="round"/>
<path d="M203.521 573.611C203.521 570.33 206.146 567.705 209.427 567.705C212.708 567.705 215.332 570.33 215.332 573.611C215.332 576.891 212.708 579.516 209.427 579.516C206.146 579.516 203.521 576.891 203.521 573.611Z" fill="url(#paint3_linear_10496_26837)" stroke="url(#paint4_linear_10496_26837)" stroke-width="1.232" stroke-miterlimit="10" stroke-linecap="round" stroke-linejoin="round"/>
<path d="M206.365 573.611C206.365 571.971 207.678 570.658 209.318 570.658C210.958 570.658 212.271 571.971 212.271 573.611C212.271 575.251 210.958 576.564 209.318 576.564C207.678 576.564 206.365 575.251 206.365 573.611Z" fill="white" stroke="url(#paint5_linear_10496_26837)" stroke-width="1.232" stroke-miterlimit="10" stroke-linecap="round" stroke-linejoin="round"/>
<path d="M182.961 573.611C182.961 570.33 185.586 567.705 188.866 567.705C192.147 567.705 194.772 570.33 194.772 573.611C194.772 576.891 192.147 579.516 188.866 579.516C185.586 579.516 182.961 576.891 182.961 573.611Z" fill="url(#paint6_linear_10496_26837)" stroke="url(#paint7_linear_10496_26837)" stroke-width="1.232" stroke-miterlimit="10" stroke-linecap="round" stroke-linejoin="round"/>
<path d="M185.914 573.611C185.914 571.971 187.226 570.658 188.867 570.658C190.507 570.658 191.82 571.971 191.82 573.611C191.82 575.251 190.507 576.564 188.867 576.564C187.226 576.564 185.914 575.251 185.914 573.611Z" fill="white" stroke="url(#paint8_linear_10496_26837)" stroke-width="1.232" stroke-miterlimit="10" stroke-linecap="round" stroke-linejoin="round"/>
<path d="M218.395 566.939H230.752V503.619H218.504V566.939H218.395Z" fill="url(#paint9_linear_10496_26837)" stroke="url(#paint10_linear_10496_26837)" stroke-width="1.232" stroke-miterlimit="10" stroke-linecap="round" stroke-linejoin="round"/>
<path d="M215.137 566.951H234.057V522.222H215.137V566.951Z" fill="url(#paint11_linear_10496_26837)" stroke="url(#paint12_linear_10496_26837)" stroke-width="1.232" stroke-miterlimit="10" stroke-linecap="round" stroke-linejoin="round"/>
<path d="M237.312 493.011H253.17V459H237.203L237.312 493.011C237.203 493.011 237.203 493.011 237.312 493.011Z" fill="url(#paint13_linear_10496_26837)"/>
<path d="M237.312 493.011H253.17V459H237.203L237.312 493.011ZM237.312 493.011C237.203 493.011 237.203 493.011 237.312 493.011Z" stroke="url(#paint14_linear_10496_26837)" stroke-width="1.232" stroke-miterlimit="10" stroke-linecap="round" stroke-linejoin="round"/>
<path d="M213.8 458.89H275.807C281.932 458.89 286.853 453.859 286.634 447.735L285.103 387.258C284.994 381.353 280.182 376.65 274.276 376.65H223.095C217.737 376.65 213.143 380.587 212.378 385.837L203.082 446.314C202.098 452.985 207.238 458.89 213.8 458.89Z" fill="#E3A130" stroke="url(#paint15_linear_10496_26837)" stroke-width="1.232" stroke-miterlimit="10" stroke-linecap="round" stroke-linejoin="round"/>
<path d="M234.143 505.807L261.264 523.742" stroke="url(#paint16_linear_10496_26837)" stroke-width="1.232" stroke-miterlimit="10" stroke-linecap="round" stroke-linejoin="round"/>
<path d="M262.248 521.007L266.841 524.178C268.481 525.272 268.591 527.569 267.278 528.881L266.95 529.209C265.856 530.303 264.107 530.412 262.904 529.428L258.639 525.928C257.326 524.835 257.217 522.757 258.42 521.554C259.514 520.351 261.154 520.241 262.248 521.007Z" fill="#CC4141" stroke="url(#paint17_linear_10496_26837)" stroke-width="1.232" stroke-miterlimit="10" stroke-linecap="round" stroke-linejoin="round"/>
<path d="M174.212 508.869H275.043C280.402 508.869 284.776 504.494 284.776 499.136C284.776 493.777 280.402 489.402 275.043 489.402H174.212C168.853 489.402 164.479 493.777 164.479 499.136C164.479 504.494 168.853 508.869 174.212 508.869Z" fill="#E3A130" stroke="url(#paint18_linear_10496_26837)" stroke-width="1.232" stroke-miterlimit="10" stroke-linecap="round" stroke-linejoin="round"/>
<path d="M164.587 498.042C165.134 493.121 169.618 489.512 174.649 489.512H226.923C231.954 489.512 236.438 493.121 236.985 498.042C237.641 503.947 233.048 508.978 227.361 508.978H174.321C168.415 508.869 163.822 503.947 164.587 498.042Z" fill="#E3A130" stroke="url(#paint19_linear_10496_26837)" stroke-width="1.232" stroke-miterlimit="10" stroke-linecap="round" stroke-linejoin="round"/>
<path d="M181.102 570.439H277.886C277.886 567.486 275.48 565.189 272.637 565.189H186.46C183.508 565.189 181.102 567.595 181.102 570.439Z" fill="url(#paint20_linear_10496_26837)" stroke="url(#paint21_linear_10496_26837)" stroke-width="1.232" stroke-miterlimit="10" stroke-linecap="round" stroke-linejoin="round"/>
<path d="M198.381 570.439H229.877V565.189H203.63C200.677 565.189 198.381 567.595 198.381 570.439Z" fill="url(#paint22_linear_10496_26837)" stroke="url(#paint23_linear_10496_26837)" stroke-width="1.232" stroke-miterlimit="10" stroke-linecap="round" stroke-linejoin="round"/>
<path d="M191.6 448.827L184.601 460.31C184.601 460.31 160.213 462.716 146.215 465.887C132.326 469.059 129.483 484.369 128.827 487.541C128.061 491.04 123.687 564.203 125.108 564.531C126.53 564.859 136.919 565.953 136.919 565.953C136.919 565.953 154.527 494.868 159.776 493.775C165.025 492.681 242.344 494.431 253.936 488.197C265.419 481.964 268.262 463.81 261.591 451.233C255.03 438.656 191.6 448.827 191.6 448.827Z" fill="url(#paint24_linear_10496_26837)" stroke="url(#paint25_linear_10496_26837)" stroke-width="1.232" stroke-miterlimit="10" stroke-linecap="round" stroke-linejoin="round"/>
<path d="M238.954 462.717C238.954 462.717 206.583 462.717 190.835 464.138C175.197 465.56 165.354 477.371 166.12 487.87C166.776 498.369 179.462 566.938 179.462 566.938L191.71 565.845L198.272 492.354C198.272 492.354 209.208 499.462 251.64 488.526" fill="url(#paint26_linear_10496_26837)"/>
<path d="M238.954 462.717C238.954 462.717 206.583 462.717 190.835 464.138C175.197 465.56 165.354 477.371 166.12 487.87C166.776 498.369 179.462 566.938 179.462 566.938L191.71 565.845L198.272 492.354C198.272 492.354 209.208 499.462 251.64 488.526" stroke="url(#paint27_linear_10496_26837)" stroke-width="1.232" stroke-miterlimit="10" stroke-linecap="round" stroke-linejoin="round"/>
<path d="M315.287 350.841C314.194 350.185 310.804 359.152 310.804 359.152C310.804 359.152 306.648 358.933 304.132 359.152C300.305 359.48 297.133 364.73 297.133 368.229C297.133 371.729 281.057 399.616 281.057 399.616C281.057 399.616 267.168 376.65 262.247 372.822C257.326 368.995 239.281 365.495 239.281 365.495C231.188 364.402 224.955 364.292 216.971 365.495C216.971 365.495 198.818 368.995 194.006 372.822C189.084 376.65 175.195 399.616 175.195 399.616C175.195 399.616 159.119 371.729 159.119 368.229C159.119 364.73 155.948 359.48 152.12 359.152C149.714 358.933 145.449 359.152 145.449 359.152C145.449 359.152 141.95 350.075 140.965 350.841C139.872 351.497 141.622 362.652 142.715 365.167C143.809 367.573 152.448 369.323 152.448 369.323C152.448 369.323 163.275 410.443 166.775 416.02C170.274 421.598 174.102 428.597 183.507 424.332C192.912 420.176 204.723 406.506 204.723 406.506L224.627 406.834H226.158H227.47L251.53 406.506C251.53 406.506 263.341 420.066 272.746 424.332C282.151 428.487 285.979 421.598 289.478 416.02C292.978 410.443 303.804 369.323 303.804 369.323C303.804 369.323 312.553 367.573 313.538 365.167C314.631 362.652 316.381 351.497 315.287 350.841Z" fill="#BEBEBE" stroke="url(#paint28_linear_10496_26837)" stroke-width="1.232" stroke-miterlimit="10" stroke-linecap="round" stroke-linejoin="round"/>
<path d="M286.853 389.663C283.791 395.241 281.166 399.725 281.166 399.725C281.166 399.725 267.278 376.759 262.356 372.931C257.435 369.103 239.39 365.604 239.39 365.604C231.298 364.51 225.064 364.401 217.081 365.604C217.081 365.604 198.927 369.103 194.115 372.931C189.194 376.759 175.305 399.725 175.305 399.725C175.305 399.725 172.571 394.913 169.29 389.007L159.666 394.803C162.509 404.427 165.353 413.614 166.884 416.019C170.383 421.597 174.211 428.596 183.616 424.331C193.021 420.175 204.832 406.505 204.832 406.505L224.736 406.833H226.267H227.579L251.639 406.505C251.639 406.505 263.45 420.066 272.855 424.331C282.26 428.487 286.088 421.597 289.587 416.019C291.118 413.614 294.071 404.318 296.805 394.694L286.853 389.663Z" fill="white"/>
<mask id="mask1_10496_26837" style="mask-type:luminance" maskUnits="userSpaceOnUse" x="159" y="364" width="138" height="62">
<path d="M286.853 389.663C283.791 395.241 281.166 399.725 281.166 399.725C281.166 399.725 267.278 376.759 262.356 372.931C257.435 369.103 239.39 365.604 239.39 365.604C231.298 364.51 225.064 364.401 217.081 365.604C217.081 365.604 198.927 369.103 194.115 372.931C189.194 376.759 175.305 399.725 175.305 399.725C175.305 399.725 172.571 394.913 169.29 389.007L159.666 394.803C162.509 404.427 165.353 413.614 166.884 416.019C170.383 421.597 174.211 428.596 183.616 424.331C193.021 420.175 204.832 406.505 204.832 406.505L224.736 406.833H226.267H227.579L251.639 406.505C251.639 406.505 263.45 420.066 272.855 424.331C282.26 428.487 286.088 421.597 289.587 416.019C291.118 413.614 294.071 404.318 296.805 394.694L286.853 389.663Z" fill="white"/>
</mask>
<g mask="url(#mask1_10496_26837)">
<path d="M278.433 406.067C278.215 403.771 278.105 401.583 278.98 400.271C279.527 399.505 279.965 398.959 280.402 398.412C280.074 397.865 279.636 397.1 278.98 396.225C278.324 396.881 277.559 397.756 276.793 398.849C275.371 400.927 275.59 403.661 275.809 406.286C276.027 408.582 276.137 410.77 275.262 412.082C274.496 413.285 273.731 413.176 271.544 412.738C269.903 412.41 267.716 411.973 265.31 412.738C263.342 413.394 262.248 414.925 261.701 416.785C262.357 417.441 263.123 417.988 263.779 418.534C264.107 417.003 264.763 415.582 266.076 415.144C267.825 414.597 269.466 414.925 270.997 415.253C273.075 415.691 275.481 416.238 277.34 413.504C278.871 411.426 278.652 408.692 278.433 406.067Z" fill="#E3A130"/>
<path d="M251.529 406.615C251.529 406.615 251.857 406.943 252.404 407.599C253.388 407.161 254.153 406.833 254.482 406.505C254.7 406.286 255.794 406.396 256.778 406.505C258.637 406.724 261.262 406.943 264.543 405.958C268.808 404.755 268.917 400.162 269.027 396.116C269.136 393.819 269.136 391.523 269.901 390.101C270.886 388.242 272.526 388.133 273.838 388.461C273.292 387.586 272.745 386.711 272.089 385.836C270.448 386.055 268.699 386.82 267.605 388.898C266.511 390.867 266.511 393.491 266.402 396.007C266.293 400.272 265.964 402.896 263.668 403.552C260.825 404.318 258.637 404.099 256.778 403.99C255.138 403.881 253.716 403.662 252.622 404.537C252.076 404.974 249.888 405.849 247.482 406.724L251.529 406.615Z" fill="#E3A130"/>
<path d="M191.6 412.847C189.194 412.082 187.116 412.519 185.366 412.847C183.288 413.285 182.413 413.394 181.648 412.191C180.773 410.77 180.882 408.582 181.101 406.395C181.32 403.77 181.538 401.036 180.117 398.959C179.242 397.537 178.367 396.553 177.601 395.896C177.055 396.771 176.617 397.537 176.18 398.084C176.726 398.631 177.383 399.396 178.039 400.38C178.914 401.802 178.804 403.989 178.586 406.176C178.367 408.801 178.148 411.535 179.57 413.613C181.32 416.238 183.726 415.8 185.913 415.363C187.444 415.035 189.084 414.707 190.834 415.253C192.037 415.691 192.693 416.784 193.021 418.206C193.677 417.659 194.443 417.003 195.099 416.456C194.443 414.816 193.349 413.394 191.6 412.847Z" fill="#E3A130"/>
<path d="M199.912 403.881C198.053 403.99 195.865 404.209 193.022 403.443C190.725 402.787 190.507 400.162 190.288 395.897C190.179 393.382 190.069 390.757 189.085 388.789C187.773 386.492 185.804 385.727 183.945 385.727C183.289 386.711 182.633 387.586 182.086 388.57C183.398 388.133 185.695 387.804 186.898 389.992C187.663 391.413 187.773 393.71 187.773 396.007C187.882 400.053 188.101 404.646 192.257 405.849C195.537 406.833 198.162 406.505 200.021 406.396C201.005 406.286 202.099 406.177 202.318 406.396C202.646 406.615 203.193 406.943 203.958 407.38C204.396 406.943 204.614 406.615 204.614 406.615L209.098 406.724C206.692 405.849 204.396 404.974 203.849 404.427C203.083 403.552 201.552 403.662 199.912 403.881Z" fill="#E3A130"/>
</g>
<mask id="mask2_10496_26837" style="mask-type:luminance" maskUnits="userSpaceOnUse" x="159" y="364" width="138" height="62">
<path d="M286.853 389.663C283.791 395.241 281.166 399.725 281.166 399.725C281.166 399.725 267.278 376.759 262.356 372.931C257.435 369.103 239.39 365.604 239.39 365.604C231.298 364.51 225.064 364.401 217.081 365.604C217.081 365.604 198.927 369.103 194.115 372.931C189.194 376.759 175.305 399.725 175.305 399.725C175.305 399.725 172.571 394.913 169.29 389.007L159.666 394.803C162.509 404.427 165.353 413.614 166.884 416.019C170.383 421.597 174.211 428.596 183.616 424.331C193.021 420.175 204.832 406.505 204.832 406.505L224.736 406.833H226.267H227.579L251.639 406.505C251.639 406.505 263.45 420.066 272.855 424.331C282.26 428.487 286.088 421.597 289.587 416.019C291.118 413.614 294.071 404.318 296.805 394.694L286.853 389.663Z" fill="white"/>
</mask>
<g mask="url(#mask2_10496_26837)">
<g opacity="0.1">
<path d="M278.433 406.067C278.215 403.771 278.105 401.583 278.98 400.271C279.527 399.505 279.965 398.959 280.402 398.412C280.074 397.865 279.636 397.1 278.98 396.225C278.324 396.881 277.559 397.756 276.793 398.849C275.371 400.927 275.59 403.661 275.809 406.286C276.027 408.582 276.137 410.77 275.262 412.082C274.496 413.285 273.731 413.176 271.544 412.738C269.903 412.41 267.716 411.973 265.31 412.738C263.342 413.394 262.248 414.925 261.701 416.785C262.357 417.441 263.123 417.988 263.779 418.534C264.107 417.003 264.763 415.582 266.076 415.144C267.825 414.597 269.466 414.925 270.997 415.253C273.075 415.691 275.481 416.238 277.34 413.504C278.871 411.426 278.652 408.692 278.433 406.067Z" fill="white"/>
<path d="M251.529 406.615C251.529 406.615 251.857 406.943 252.404 407.599C253.388 407.161 254.153 406.833 254.482 406.505C254.7 406.286 255.794 406.396 256.778 406.505C258.637 406.724 261.262 406.943 264.543 405.958C268.808 404.755 268.917 400.162 269.027 396.116C269.136 393.819 269.136 391.523 269.901 390.101C270.886 388.242 272.526 388.133 273.838 388.461C273.292 387.586 272.745 386.711 272.089 385.836C270.448 386.055 268.699 386.82 267.605 388.898C266.511 390.867 266.511 393.491 266.402 396.007C266.293 400.272 265.964 402.896 263.668 403.552C260.825 404.318 258.637 404.099 256.778 403.99C255.138 403.881 253.716 403.662 252.622 404.537C252.076 404.974 249.888 405.849 247.482 406.724L251.529 406.615Z" fill="white"/>
<path d="M191.6 412.847C189.194 412.082 187.116 412.519 185.366 412.847C183.288 413.285 182.413 413.394 181.648 412.191C180.773 410.77 180.882 408.582 181.101 406.395C181.32 403.77 181.538 401.036 180.117 398.959C179.242 397.537 178.367 396.553 177.601 395.896C177.055 396.771 176.617 397.537 176.18 398.084C176.726 398.631 177.383 399.396 178.039 400.38C178.914 401.802 178.804 403.989 178.586 406.176C178.367 408.801 178.148 411.535 179.57 413.613C181.32 416.238 183.726 415.8 185.913 415.363C187.444 415.035 189.084 414.707 190.834 415.253C192.037 415.691 192.693 416.784 193.021 418.206C193.677 417.659 194.443 417.003 195.099 416.456C194.443 414.816 193.349 413.394 191.6 412.847Z" fill="white"/>
<path d="M199.912 403.881C198.053 403.99 195.865 404.209 193.022 403.443C190.725 402.787 190.507 400.162 190.288 395.897C190.179 393.382 190.069 390.757 189.085 388.789C187.773 386.492 185.804 385.727 183.945 385.727C183.289 386.711 182.633 387.586 182.086 388.57C183.398 388.133 185.695 387.804 186.898 389.992C187.663 391.413 187.773 393.71 187.773 396.007C187.882 400.053 188.101 404.646 192.257 405.849C195.537 406.833 198.162 406.505 200.021 406.396C201.005 406.286 202.099 406.177 202.318 406.396C202.646 406.615 203.193 406.943 203.958 407.38C204.396 406.943 204.614 406.615 204.614 406.615L209.098 406.724C206.692 405.849 204.396 404.974 203.849 404.427C203.083 403.552 201.552 403.662 199.912 403.881Z" fill="white"/>
</g>
</g>
<path d="M286.853 389.663C283.791 395.241 281.166 399.725 281.166 399.725C281.166 399.725 267.278 376.759 262.356 372.931C257.435 369.103 239.39 365.604 239.39 365.604C231.298 364.51 225.064 364.401 217.081 365.604C217.081 365.604 198.927 369.103 194.115 372.931C189.194 376.759 175.305 399.725 175.305 399.725C175.305 399.725 172.571 394.913 169.29 389.007L159.666 394.803C162.509 404.427 165.353 413.614 166.884 416.019C170.383 421.597 174.211 428.596 183.616 424.331C193.021 420.175 204.832 406.505 204.832 406.505L224.736 406.833H226.267H227.579L251.639 406.505C251.639 406.505 263.45 420.066 272.855 424.331C282.26 428.487 286.088 421.597 289.587 416.019C291.118 413.614 294.071 404.318 296.805 394.694L286.853 389.663Z" stroke="url(#paint29_linear_10496_26837)" stroke-width="1.232" stroke-miterlimit="10" stroke-linecap="round" stroke-linejoin="round"/>
<path d="M198.163 389.883C198.163 389.883 193.679 399.616 194.663 405.959C195.757 412.192 195.757 413.614 195.757 413.614C195.757 413.614 189.086 431.768 188.101 438.33C187.008 445.001 190.179 450.141 194.007 452.984C197.835 455.718 250.109 456.484 258.093 454.406C266.076 452.328 265.42 444.673 265.092 437.674C264.764 430.675 261.92 415.692 261.92 415.692C261.92 415.692 263.014 394.476 258.421 389.227" fill="white"/>
<mask id="mask3_10496_26837" style="mask-type:luminance" maskUnits="userSpaceOnUse" x="187" y="389" width="79" height="67">
<path d="M198.163 389.883C198.163 389.883 193.679 399.616 194.663 405.959C195.757 412.192 195.757 413.614 195.757 413.614C195.757 413.614 189.086 431.768 188.101 438.33C187.008 445.001 190.179 450.141 194.007 452.984C197.835 455.718 250.109 456.484 258.093 454.406C266.076 452.328 265.42 444.673 265.092 437.674C264.764 430.675 261.92 415.692 261.92 415.692C261.92 415.692 263.014 394.476 258.421 389.227" fill="white"/>
</mask>
<g mask="url(#mask3_10496_26837)">
<path d="M238.189 403.881C236.658 403.881 235.018 403.225 233.268 401.694C228.566 397.319 225.394 396.554 222.004 399.069C221.457 399.507 220.91 399.835 220.473 400.272C216.973 402.897 213.693 405.412 208.553 402.241C207.35 401.475 206.256 400.71 205.381 400.053C201.881 397.538 200.35 396.554 197.944 398.632C196.085 400.163 194.664 401.038 193.023 400.819C190.945 400.6 189.414 398.632 186.571 394.695L186.352 394.476C185.149 392.945 183.946 392.07 182.525 391.961C180.119 391.742 178.15 393.82 178.041 393.82C177.494 394.367 176.728 394.367 176.291 393.82C175.744 393.273 175.744 392.507 176.291 392.07C176.4 391.961 179.134 389.227 182.634 389.555C184.821 389.664 186.68 390.867 188.321 393.054L188.539 393.273C190.836 396.226 192.258 398.194 193.242 398.413C193.789 398.522 194.773 397.975 196.304 396.773C200.35 393.382 203.522 395.679 206.803 398.085C207.787 398.741 208.771 399.507 209.865 400.163C213.583 402.459 215.552 400.928 218.942 398.304C219.489 397.866 220.035 397.538 220.582 397.101C226.16 393.054 231.081 396.226 235.127 399.944C238.189 402.678 240.049 401.475 243.986 398.522C244.751 397.975 245.517 397.319 246.392 396.773L246.829 396.444C251.969 392.835 252.516 393.164 259.515 396.991L261.374 397.975C263.78 399.288 265.311 400.163 265.967 400.053C266.514 400.053 267.17 399.288 268.483 397.757C269.029 397.101 269.686 396.444 270.451 395.57C276.138 389.555 277.997 389.883 282.481 391.961L282.809 392.179C283.465 392.507 283.684 393.164 283.465 393.82C283.137 394.476 282.481 394.695 281.825 394.476L281.497 394.257C277.778 392.507 277.013 392.179 272.31 397.21C271.545 397.975 270.888 398.741 270.342 399.288C266.733 403.444 265.967 403.225 260.171 399.944L258.312 398.96C252.188 395.57 252.188 395.57 248.251 398.194L247.813 398.522C246.938 399.069 246.173 399.725 245.517 400.272C243.111 402.131 240.705 403.881 238.189 403.881ZM245.407 412.411C246.173 411.864 246.938 411.318 247.704 410.661L248.141 410.333C251.969 407.599 251.969 407.709 258.203 411.099L260.062 412.083C265.858 415.364 266.623 415.473 270.232 411.427C270.779 410.771 271.435 410.115 272.201 409.349C276.903 404.318 277.56 404.647 281.387 406.396L281.715 406.615C282.371 406.943 283.137 406.615 283.356 405.959C283.684 405.303 283.356 404.537 282.7 404.318L282.371 404.1C277.888 402.022 276.028 401.584 270.342 407.709C269.576 408.584 268.92 409.24 268.373 409.896C267.061 411.427 266.405 412.083 265.858 412.192C265.202 412.192 263.671 411.427 261.265 410.115L259.406 409.13C252.406 405.303 251.86 404.975 246.72 408.584L246.282 408.912C245.407 409.458 244.642 410.115 243.876 410.661C239.83 413.724 237.971 414.926 235.018 412.083C230.972 408.365 226.16 405.193 220.473 409.24C219.926 409.677 219.379 410.005 218.833 410.443C215.442 413.067 213.474 414.598 209.756 412.302C208.662 411.646 207.678 410.88 206.693 410.224C203.413 407.818 200.241 405.521 196.195 408.912C194.664 410.115 193.789 410.661 193.133 410.552C192.148 410.443 190.617 408.474 188.43 405.412L188.211 405.193C186.571 403.006 184.712 401.912 182.525 401.694C179.025 401.475 176.291 404.1 176.182 404.209C175.635 404.756 175.635 405.521 176.182 405.959C176.728 406.506 177.494 406.506 177.931 405.959C177.931 405.959 180.009 403.99 182.415 404.1C183.837 404.209 185.04 405.084 186.243 406.615L186.462 406.834C189.414 410.771 190.836 412.63 192.914 412.958C194.554 413.177 195.976 412.302 197.835 410.771C200.35 408.693 201.772 409.677 205.272 412.192C206.256 412.849 207.24 413.614 208.443 414.38C213.583 417.551 216.864 415.036 220.364 412.411C220.91 411.974 221.348 411.646 221.895 411.208C225.285 408.802 228.456 409.458 233.159 413.833C234.909 415.473 236.549 416.02 238.08 416.02C240.705 416.02 243.111 414.27 245.407 412.411Z" fill="#E3A130"/>
</g>
<mask id="mask4_10496_26837" style="mask-type:luminance" maskUnits="userSpaceOnUse" x="187" y="389" width="79" height="67">
<path d="M198.163 389.883C198.163 389.883 193.679 399.616 194.663 405.959C195.757 412.192 195.757 413.614 195.757 413.614C195.757 413.614 189.086 431.768 188.101 438.33C187.008 445.001 190.179 450.141 194.007 452.984C197.835 455.718 250.109 456.484 258.093 454.406C266.076 452.328 265.42 444.673 265.092 437.674C264.764 430.675 261.92 415.692 261.92 415.692C261.92 415.692 263.014 394.476 258.421 389.227" fill="white"/>
</mask>
<g mask="url(#mask4_10496_26837)">
<path opacity="0.1" d="M238.189 403.881C236.658 403.881 235.018 403.225 233.268 401.694C228.566 397.319 225.394 396.554 222.004 399.069C221.457 399.507 220.91 399.835 220.473 400.272C216.973 402.897 213.693 405.412 208.553 402.241C207.35 401.475 206.256 400.71 205.381 400.053C201.881 397.538 200.35 396.554 197.944 398.632C196.085 400.163 194.664 401.038 193.023 400.819C190.945 400.6 189.414 398.632 186.571 394.695L186.352 394.476C185.149 392.945 183.946 392.07 182.525 391.961C180.119 391.742 178.15 393.82 178.041 393.82C177.494 394.367 176.728 394.367 176.291 393.82C175.744 393.273 175.744 392.507 176.291 392.07C176.4 391.961 179.134 389.227 182.634 389.555C184.821 389.664 186.68 390.867 188.321 393.054L188.539 393.273C190.836 396.226 192.258 398.194 193.242 398.413C193.789 398.522 194.773 397.975 196.304 396.773C200.35 393.382 203.522 395.679 206.803 398.085C207.787 398.741 208.771 399.507 209.865 400.163C213.583 402.459 215.552 400.928 218.942 398.304C219.489 397.866 220.035 397.538 220.582 397.101C226.16 393.054 231.081 396.226 235.127 399.944C238.189 402.678 240.049 401.475 243.986 398.522C244.751 397.975 245.517 397.319 246.392 396.773L246.829 396.444C251.969 392.835 252.516 393.164 259.515 396.991L261.374 397.975C263.78 399.288 265.311 400.163 265.967 400.053C266.514 400.053 267.17 399.288 268.483 397.757C269.029 397.101 269.686 396.444 270.451 395.57C276.138 389.555 277.997 389.883 282.481 391.961L282.809 392.179C283.465 392.507 283.684 393.164 283.465 393.82C283.137 394.476 282.481 394.695 281.825 394.476L281.497 394.257C277.778 392.507 277.013 392.179 272.31 397.21C271.545 397.975 270.888 398.741 270.342 399.288C266.733 403.444 265.967 403.225 260.171 399.944L258.312 398.96C252.188 395.57 252.188 395.57 248.251 398.194L247.813 398.522C246.938 399.069 246.173 399.725 245.517 400.272C243.111 402.131 240.705 403.881 238.189 403.881ZM245.407 412.411C246.173 411.864 246.938 411.318 247.704 410.661L248.141 410.333C251.969 407.599 251.969 407.709 258.203 411.099L260.062 412.083C265.858 415.364 266.623 415.473 270.232 411.427C270.779 410.771 271.435 410.115 272.201 409.349C276.903 404.318 277.56 404.647 281.387 406.396L281.715 406.615C282.371 406.943 283.137 406.615 283.356 405.959C283.684 405.303 283.356 404.537 282.7 404.318L282.371 404.1C277.888 402.022 276.028 401.584 270.342 407.709C269.576 408.584 268.92 409.24 268.373 409.896C267.061 411.427 266.405 412.083 265.858 412.192C265.202 412.192 263.671 411.427 261.265 410.115L259.406 409.13C252.406 405.303 251.86 404.975 246.72 408.584L246.282 408.912C245.407 409.458 244.642 410.115 243.876 410.661C239.83 413.724 237.971 414.926 235.018 412.083C230.972 408.365 226.16 405.193 220.473 409.24C219.926 409.677 219.379 410.005 218.833 410.443C215.442 413.067 213.474 414.598 209.756 412.302C208.662 411.646 207.678 410.88 206.693 410.224C203.413 407.818 200.241 405.521 196.195 408.912C194.664 410.115 193.789 410.661 193.133 410.552C192.148 410.443 190.617 408.474 188.43 405.412L188.211 405.193C186.571 403.006 184.712 401.912 182.525 401.694C179.025 401.475 176.291 404.1 176.182 404.209C175.635 404.756 175.635 405.521 176.182 405.959C176.728 406.506 177.494 406.506 177.931 405.959C177.931 405.959 180.009 403.99 182.415 404.1C183.837 404.209 185.04 405.084 186.243 406.615L186.462 406.834C189.414 410.771 190.836 412.63 192.914 412.958C194.554 413.177 195.976 412.302 197.835 410.771C200.35 408.693 201.772 409.677 205.272 412.192C206.256 412.849 207.24 413.614 208.443 414.38C213.583 417.551 216.864 415.036 220.364 412.411C220.91 411.974 221.348 411.646 221.895 411.208C225.285 408.802 228.456 409.458 233.159 413.833C234.909 415.473 236.549 416.02 238.08 416.02C240.705 416.02 243.111 414.27 245.407 412.411Z" fill="white"/>
</g>
<path d="M198.163 389.883C198.163 389.883 193.679 399.616 194.663 405.959C195.757 412.192 195.757 413.614 195.757 413.614C195.757 413.614 189.086 431.768 188.101 438.33C187.008 445.001 190.179 450.141 194.007 452.984C197.835 455.718 250.109 456.484 258.093 454.406C266.076 452.328 265.42 444.673 265.092 437.674C264.764 430.675 261.92 415.692 261.92 415.692C261.92 415.692 263.014 394.476 258.421 389.227" stroke="url(#paint30_linear_10496_26837)" stroke-width="1.232" stroke-miterlimit="10" stroke-linecap="round" stroke-linejoin="round"/>
<path d="M216.972 365.495C216.972 365.495 216.426 365.604 215.441 365.823C215.332 366.479 215.223 367.135 215.223 367.791C215.223 374.462 222.331 379.821 231.08 379.821C239.829 379.821 246.937 374.462 246.937 367.791C246.937 367.572 246.937 367.463 246.937 367.244C242.672 366.151 239.282 365.495 239.282 365.495C231.189 364.401 224.956 364.292 216.972 365.495Z" fill="#11D147" stroke="url(#paint31_linear_10496_26837)" stroke-width="1.232" stroke-miterlimit="10" stroke-linecap="round" stroke-linejoin="round"/>
<path d="M220.472 358.824C220.472 358.824 219.379 367.135 220.472 369.979C221.566 372.713 228.128 377.962 234.799 375.884C241.47 373.806 242.454 367.573 242.454 365.823C242.454 364.073 242.454 356.09 242.454 356.09L220.8 356.746L220.472 358.824Z" fill="#BEBEBE" stroke="url(#paint32_linear_10496_26837)" stroke-width="1.232" stroke-miterlimit="10" stroke-linecap="round" stroke-linejoin="round"/>
<path d="M231.626 355.433C245.276 355.433 256.341 344.564 256.341 331.155C256.341 317.747 245.276 306.877 231.626 306.877C217.976 306.877 206.91 317.747 206.91 331.155C206.91 344.564 217.976 355.433 231.626 355.433Z" fill="url(#paint33_linear_10496_26837)" stroke="url(#paint34_linear_10496_26837)" stroke-width="1.232" stroke-miterlimit="10" stroke-linecap="round" stroke-linejoin="round"/>
<path d="M215.987 339.356C215.987 339.356 213.909 334.435 212.488 339.028C211.066 343.621 214.237 349.089 216.315 349.527C218.393 349.745 215.987 339.356 215.987 339.356Z" fill="#BEBEBE" stroke="url(#paint35_linear_10496_26837)" stroke-width="1.232" stroke-miterlimit="10" stroke-linecap="round" stroke-linejoin="round"/>
<path d="M246.062 339.356C246.062 339.356 248.14 334.435 249.562 339.028C250.984 343.512 247.812 349.089 245.734 349.527C243.656 349.745 246.062 339.356 246.062 339.356Z" fill="#BEBEBE" stroke="url(#paint36_linear_10496_26837)" stroke-width="1.232" stroke-miterlimit="10" stroke-linecap="round" stroke-linejoin="round"/>
<path d="M242.016 323.061C240.157 321.64 237.751 321.093 235.345 321.421C233.377 321.749 230.752 322.077 228.893 321.858C225.393 321.53 222.659 320.109 219.816 322.952C217.082 325.795 215.66 338.591 215.66 345.262C215.66 351.933 220.581 361.338 223.972 363.744C227.471 366.15 237.204 365.822 239.61 363.744C242.016 361.666 245.844 354.011 246.609 347.668C247.266 341.434 245.953 329.186 244.532 326.014C244.094 324.921 243 323.936 242.016 323.061Z" fill="#BEBEBE" stroke="url(#paint37_linear_10496_26837)" stroke-width="1.232" stroke-miterlimit="10" stroke-linecap="round" stroke-linejoin="round"/>
<path d="M226.486 340.341C227.211 340.341 227.799 339.411 227.799 338.263C227.799 337.116 227.211 336.186 226.486 336.186C225.761 336.186 225.174 337.116 225.174 338.263C225.174 339.411 225.761 340.341 226.486 340.341Z" fill="url(#paint38_linear_10496_26837)"/>
<path d="M238.078 338.264C238.078 339.467 237.531 340.342 236.765 340.342C236 340.342 235.453 339.358 235.453 338.264C235.453 337.061 236 336.186 236.765 336.186C237.422 336.077 238.078 337.061 238.078 338.264Z" fill="url(#paint39_linear_10496_26837)"/>
<path d="M233.156 350.293C233.156 351.496 232.609 352.371 231.844 352.371C231.078 352.371 230.531 351.386 230.531 350.293C230.531 349.09 231.078 348.215 231.844 348.215C232.609 348.215 233.156 349.09 233.156 350.293Z" fill="url(#paint40_linear_10496_26837)"/>
<path d="M229.328 340.889C227.141 344.279 231.297 346.466 234.031 344.388C235.89 342.967 234.031 340.889 234.031 340.889" fill="#BEBEBE"/>
<path d="M229.328 340.889C227.141 344.279 231.297 346.466 234.031 344.388C235.89 342.967 234.031 340.889 234.031 340.889" stroke="url(#paint41_linear_10496_26837)" stroke-width="1.232" stroke-miterlimit="10" stroke-linecap="round" stroke-linejoin="round"/>
<path d="M222.002 333.561C222.002 333.561 225.502 330.28 229.11 331.92" stroke="url(#paint42_linear_10496_26837)" stroke-width="1.232" stroke-miterlimit="10" stroke-linecap="round" stroke-linejoin="round"/>
<path d="M235.016 332.14C235.016 332.14 238.296 330.062 241.359 333.999" stroke="url(#paint43_linear_10496_26837)" stroke-width="1.232" stroke-miterlimit="10" stroke-linecap="round" stroke-linejoin="round"/>
<path d="M125.109 564.533C125.109 564.533 104.221 568.689 104.221 570.767C104.221 572.954 130.905 578.969 133.748 579.297C136.592 579.625 137.029 565.955 137.029 565.955L125.109 564.533Z" fill="url(#paint44_linear_10496_26837)" stroke="url(#paint45_linear_10496_26837)" stroke-width="1.232" stroke-miterlimit="10" stroke-linecap="round" stroke-linejoin="round"/>
<path d="M135.498 577.22L105.642 569.564C104.768 570.002 104.221 570.33 104.221 570.658C104.221 572.845 130.905 578.86 133.748 579.188C134.404 579.407 135.061 578.532 135.498 577.22Z" fill="#E3A130" stroke="url(#paint46_linear_10496_26837)" stroke-width="1.232" stroke-miterlimit="10" stroke-linecap="round" stroke-linejoin="round"/>
<path d="M179.46 566.937C179.46 566.937 158.244 576.124 159.666 578.202C161.088 580.389 188.866 579.295 191.709 578.967C194.552 578.639 191.709 565.953 191.709 565.953L179.46 566.937Z" fill="url(#paint47_linear_10496_26837)" stroke="url(#paint48_linear_10496_26837)" stroke-width="1.232" stroke-miterlimit="10" stroke-linecap="round" stroke-linejoin="round"/>
<path d="M160.432 576.889C159.775 577.435 159.557 577.873 159.775 578.201C161.197 580.388 188.975 579.295 191.818 578.967C192.474 578.857 192.802 578.092 193.021 576.889H160.432Z" fill="#E3A130" stroke="url(#paint49_linear_10496_26837)" stroke-width="1.232" stroke-miterlimit="10" stroke-linecap="round" stroke-linejoin="round"/>
<path d="M92.6411 426.893H172.803V423.612H92.6411V426.893Z" fill="white" stroke="url(#paint50_linear_10496_26837)" stroke-width="1.232" stroke-miterlimit="10" stroke-linecap="round" stroke-linejoin="round"/>
<path d="M70.0571 426.893H150.219V423.612H70.0571V426.893Z" fill="white" stroke="url(#paint51_linear_10496_26837)" stroke-width="1.232" stroke-miterlimit="10" stroke-linecap="round" stroke-linejoin="round"/>
<path d="M78.96 417.878H145.78L138.562 366.807H71.7422L78.96 417.878Z" fill="white" stroke="url(#paint52_linear_10496_26837)" stroke-width="1.232" stroke-miterlimit="10" stroke-linecap="round" stroke-linejoin="round"/>
<path d="M76.2257 417.878H143.045L135.828 366.807H69.0078L76.2257 417.878Z" fill="url(#paint53_linear_10496_26837)" stroke="url(#paint54_linear_10496_26837)" stroke-width="1.232" stroke-miterlimit="10" stroke-linecap="round" stroke-linejoin="round"/>
<path d="M96.6769 394.146L90.0059 426.846H107.176L113.847 394.146H96.6769ZM108.379 403.88C108.269 404.208 108.05 404.317 107.832 404.317L98.0986 404.208C97.6611 404.208 97.4424 403.88 97.5518 403.442L98.4267 399.724C98.536 399.396 98.7548 399.286 98.9735 399.286L108.707 399.396C109.144 399.396 109.363 399.724 109.253 400.161L108.379 403.88Z" fill="white" stroke="url(#paint55_linear_10496_26837)" stroke-width="1.232" stroke-miterlimit="10" stroke-linecap="round" stroke-linejoin="round"/>
<path d="M82.4791 365.938C84.0474 359.296 79.9344 352.64 73.2922 351.072C66.6501 349.503 59.9942 353.616 58.4258 360.259C56.8574 366.901 60.9705 373.557 67.6126 375.125C74.2547 376.693 80.9107 372.58 82.4791 365.938Z" fill="#11D147" stroke="#11D147" stroke-width="1.232" stroke-miterlimit="10" stroke-linecap="round" stroke-linejoin="round"/>
<path d="M70.3183 365.606L66.7094 369.762C66.4907 369.981 66.3813 370.199 66.1626 370.309C65.6158 370.746 64.9596 370.746 64.4128 370.637C63.866 370.418 63.5379 370.199 63.4285 369.653C63.2098 368.996 63.3192 368.231 63.9753 367.575L68.2404 363.091L64.1941 358.388C63.866 357.951 63.6473 357.513 63.6473 357.076C63.6473 356.639 63.7566 356.31 63.9753 355.982C64.1941 355.764 64.5222 355.545 64.9596 355.326C65.2877 355.217 65.7251 355.217 66.1626 355.326C66.6 355.436 67.0375 355.764 67.3655 356.201L70.8651 360.247L74.146 356.42C74.3647 356.201 74.5834 355.982 74.8021 355.764C75.4583 355.326 76.0051 355.107 76.6613 355.436C77.0987 355.654 77.4268 355.982 77.6455 356.42C77.8642 356.967 77.7549 357.513 77.4268 357.951L73.0523 362.763L77.4268 367.903C77.5362 368.121 77.6455 368.231 77.7549 368.45C77.9736 368.996 77.8642 369.543 77.5362 370.09C77.2081 370.527 76.6613 370.746 76.1145 370.746C75.3489 370.746 74.6928 370.418 74.146 369.653L70.3183 365.606Z" fill="white"/>
<path d="M228.127 445.438L224.628 576.342C224.628 578.092 223.206 579.404 221.456 579.404C219.707 579.404 218.285 577.982 218.285 576.234L216.535 445.438H228.127Z" fill="white" stroke="url(#paint56_linear_10496_26837)" stroke-width="1.232" stroke-miterlimit="10" stroke-linecap="round" stroke-linejoin="round"/>
<path d="M185.915 445.437L182.415 576.343C182.415 578.093 180.993 579.405 179.244 579.405C177.494 579.405 176.072 577.983 176.072 576.234L174.322 445.328H185.915V445.437Z" fill="white" stroke="url(#paint57_linear_10496_26837)" stroke-width="1.232" stroke-miterlimit="10" stroke-linecap="round" stroke-linejoin="round"/>
<path d="M81.2544 445.437L77.7548 576.343C77.7548 578.093 76.3331 579.405 74.5834 579.405C72.8336 579.405 71.4119 577.983 71.4119 576.234L69.6621 445.328H81.2544V445.437Z" fill="white" stroke="url(#paint58_linear_10496_26837)" stroke-width="1.232" stroke-miterlimit="10" stroke-linecap="round" stroke-linejoin="round"/>
<path d="M39.0415 445.437L35.542 576.343C35.542 578.093 34.1203 579.405 32.3705 579.405C30.6207 579.405 29.199 577.983 29.199 576.234L27.4492 445.328H39.0415V445.437Z" fill="white" stroke="url(#paint59_linear_10496_26837)" stroke-width="1.232" stroke-miterlimit="10" stroke-linecap="round" stroke-linejoin="round"/>
<path d="M23.5537 446.879H232.324V431.24H23.5537V446.879Z" fill="#FFDF6E" stroke="url(#paint60_linear_10496_26837)" stroke-width="1.232" stroke-miterlimit="10" stroke-linecap="round" stroke-linejoin="round"/>
<path d="M173.97 446.879H232.26V431.24H173.97V446.879Z" fill="#FFDF6E" stroke="url(#paint61_linear_10496_26837)" stroke-width="1.232" stroke-miterlimit="10" stroke-linecap="round" stroke-linejoin="round"/>
<path d="M23.5537 439.045H232.324V431.171H23.5537V439.045Z" fill="url(#paint62_linear_10496_26837)" stroke="url(#paint63_linear_10496_26837)" stroke-width="1.232" stroke-miterlimit="10" stroke-linecap="round" stroke-linejoin="round"/>
<path d="M20.2729 434.412H235.496V425.773H20.2729V434.412Z" fill="#E3A130" stroke="url(#paint64_linear_10496_26837)" stroke-width="1.232" stroke-miterlimit="10" stroke-linecap="round" stroke-linejoin="round"/>
<path d="M20.2607 434.412H170.086V425.773H20.2607V434.412Z" fill="#E3A130" stroke="url(#paint65_linear_10496_26837)" stroke-width="1.232" stroke-miterlimit="10" stroke-linecap="round" stroke-linejoin="round"/>
<path d="M490.377 579.516H499.345" stroke="#263238" stroke-width="1.232" stroke-miterlimit="10" stroke-linecap="round" stroke-linejoin="round"/>
<path d="M0.65625 579.516H475.722" stroke="#263238" stroke-width="1.232" stroke-miterlimit="10" stroke-linecap="round" stroke-linejoin="round"/>
</g>
</g>
<g clip-path="url(#clip1_10496_26837)">
<path d="M186.72 92.3596L222.417 31.2034L236.895 55.6668L258.115 19.2199L248.377 13.9788L275.961 0L277.959 30.454L268.597 25.7116L236.521 80.0049L222.668 55.5415L201.2 92.3596H186.72Z" fill="#E3A22A"/>
<path d="M222.417 80.5645L215.677 92.6436H229.469L222.417 80.5645Z" fill="#E3A22A"/>
<path d="M243.569 91.9534L276.271 38.4414L307.615 92.3816L287.35 71.5353L278.02 75.1798L273.21 60.8913L243.569 91.9534Z" fill="#0D2137"/>
<path d="M243.569 91.9534L273.21 60.8913L276.271 38.4414L243.569 91.9534Z" fill="#E3A22A"/>
<path d="M304.484 127.726C303.472 128.535 301.983 128.368 301.174 127.359L293.129 117.303C292.32 116.292 292.486 114.802 293.496 113.993C294.507 113.185 295.997 113.351 296.805 114.36L304.85 124.416C305.659 125.428 305.495 126.915 304.484 127.726Z" fill="#E3A22A"/>
<path d="M296.7 126.393C296.7 126.393 296.309 124.999 294.53 124.621C294.161 124.659 293.785 124.677 293.407 124.677C287.398 124.677 282.528 119.808 282.528 113.799C282.528 107.806 287.414 102.92 293.407 102.92C299.415 102.92 304.285 107.79 304.285 113.799C304.285 114.979 304.096 116.115 303.748 117.179C303.748 117.179 303.805 119.466 305.263 119.828C305.294 119.835 305.326 119.844 305.356 119.853C305.381 119.86 305.42 119.871 305.468 119.883C306.759 120.193 308.057 119.414 308.426 118.138C308.825 116.76 309.037 115.304 309.037 113.797C309.037 105.164 302.037 98.1641 293.404 98.1641C284.778 98.1641 277.772 105.171 277.772 113.797C277.772 122.429 284.772 129.429 293.404 129.429C293.773 129.429 294.138 129.415 294.5 129.39C295.452 129.324 296.297 128.725 296.65 127.837C296.817 127.42 296.878 126.93 296.7 126.393Z" fill="#0D2137"/>
<path d="M245.628 113.772C245.628 109.808 244.022 106.225 241.425 103.626C238.826 101.03 235.243 99.4238 231.28 99.4238C231.054 99.4238 230.829 99.4284 230.601 99.4398C223.258 99.7746 217.285 105.747 216.948 113.093C216.937 113.321 216.932 113.546 216.932 113.772C216.932 117.735 218.538 121.318 221.135 123.917C223.734 126.514 227.317 128.119 231.28 128.119C235.564 128.119 239.402 126.24 242.033 123.263C242.12 123.165 242.2 123.056 242.279 122.942C242.307 122.842 242.35 122.63 242.35 122.373C242.35 122.088 242.298 121.758 242.122 121.439C241.947 121.12 241.653 120.796 241.088 120.512L241.086 120.509C241.077 120.505 241.058 120.498 241.036 120.489C240.988 120.471 240.91 120.443 240.81 120.416C240.607 120.361 240.309 120.304 239.942 120.304C239.906 120.304 239.869 120.304 239.831 120.307C239.106 120.329 238.396 120.612 237.781 121.07C237.617 121.193 237.459 121.327 237.341 121.461L237.321 121.484L237.298 121.505C237.273 121.527 236.712 122.029 235.747 122.532C234.781 123.033 233.405 123.541 231.758 123.541C231.335 123.541 230.895 123.507 230.442 123.432C230.376 123.425 229.904 123.366 229.228 123.149C228.519 122.924 227.585 122.525 226.674 121.826C226.068 121.359 225.472 120.758 224.968 119.988C224.296 118.96 223.797 117.639 223.64 115.972L223.581 115.348H244.042C244.477 115.348 244.871 115.175 245.161 114.892C245.45 114.608 245.625 114.225 245.625 113.797L245.628 113.772ZM223.46 111.813L223.535 111.175C223.695 109.838 224.041 108.724 224.513 107.806C224.984 106.888 225.579 106.166 226.216 105.608C227.496 104.492 228.934 104.03 229.954 103.834C230.638 103.704 231.141 103.692 231.307 103.692C231.341 103.692 231.36 103.692 231.366 103.692H231.371H231.373C232.785 103.752 233.963 104.048 234.936 104.501C235.908 104.954 236.671 105.562 237.259 106.223C238.437 107.551 238.917 109.073 239.125 110.079C239.261 110.751 239.275 111.202 239.275 111.227L239.291 111.813H223.46Z" fill="#0D2137"/>
<path d="M276.28 113.772C276.28 109.808 274.674 106.225 272.077 103.626C269.478 101.03 265.896 99.4238 261.932 99.4238C261.707 99.4238 261.481 99.4284 261.253 99.4398C253.91 99.7746 247.937 105.747 247.6 113.093C247.589 113.321 247.584 113.546 247.584 113.772C247.584 117.735 249.19 121.318 251.787 123.917C254.386 126.514 257.969 128.119 261.932 128.119C266.217 128.119 270.055 126.24 272.686 123.263C272.772 123.165 272.852 123.056 272.932 122.942C272.959 122.842 273.002 122.63 273.002 122.373C273.002 122.088 272.95 121.758 272.774 121.439C272.599 121.12 272.305 120.796 271.74 120.512L271.738 120.509C271.729 120.505 271.711 120.498 271.688 120.489C271.64 120.471 271.563 120.443 271.462 120.416C271.26 120.361 270.961 120.304 270.595 120.304C270.558 120.304 270.522 120.304 270.483 120.307C269.759 120.329 269.048 120.612 268.433 121.07C268.269 121.193 268.112 121.327 267.993 121.461L267.973 121.484L267.95 121.505C267.925 121.527 267.365 122.029 266.399 122.532C265.433 123.033 264.057 123.541 262.411 123.541C261.987 123.541 261.547 123.507 261.094 123.432C261.028 123.425 260.556 123.366 259.88 123.149C259.172 122.924 258.238 122.525 257.327 121.826C256.721 121.359 256.124 120.758 255.62 119.988C254.949 118.96 254.45 117.639 254.292 115.972L254.233 115.348H274.695C275.13 115.348 275.524 115.175 275.813 114.892C276.102 114.608 276.278 114.225 276.278 113.797L276.28 113.772ZM254.11 111.813L254.185 111.175C254.345 109.838 254.691 108.724 255.163 107.806C255.634 106.888 256.229 106.166 256.866 105.608C258.147 104.492 259.584 104.03 260.604 103.834C261.288 103.704 261.791 103.692 261.957 103.692C261.991 103.692 262.01 103.692 262.016 103.692H262.021H262.023C263.436 103.752 264.613 104.048 265.586 104.501C266.558 104.954 267.321 105.562 267.909 106.223C269.087 107.551 269.567 109.073 269.775 110.079C269.911 110.751 269.925 111.202 269.925 111.227L269.941 111.813H254.11Z" fill="#0D2137"/>
<path d="M200.619 98.8737C192.061 98.4796 185 105.302 185 113.773C185 114.08 185.009 114.383 185.03 114.686C185.055 115.078 185.036 115.467 185.007 115.859C185.002 115.912 185 115.966 185 116.021V138.692V139.4V142.653C185 144.042 186.127 145.17 187.517 145.17C188.67 145.17 189.603 144.236 189.603 143.083V139.4V138.692V124.544C192.282 127.109 195.913 128.69 199.915 128.69C208.386 128.69 215.208 121.629 214.814 113.069C214.463 105.427 208.261 99.2267 200.619 98.8737ZM200.856 124.043C194.432 124.615 189.073 119.255 189.644 112.832C190.084 107.907 194.05 103.942 198.974 103.502C205.398 102.93 210.757 108.288 210.185 114.713C209.746 119.638 205.78 123.604 200.856 124.043Z" fill="#0D2137"/>
<path d="M305.937 96.8542C305.77 96.8542 305.645 96.8177 305.565 96.7471C305.483 96.6765 305.445 96.5672 305.445 96.4237C305.445 96.2802 305.486 96.1708 305.57 96.0957C305.654 96.0205 305.777 95.9863 305.939 95.9863H308.998C309.162 95.9863 309.285 96.0228 309.369 96.0957C309.454 96.1685 309.492 96.2779 309.492 96.4237C309.492 96.5672 309.451 96.6742 309.369 96.7448C309.287 96.8154 309.164 96.8542 308.998 96.8542H307.973V100.414C307.973 100.594 307.932 100.729 307.848 100.818C307.763 100.906 307.638 100.952 307.47 100.952C307.301 100.952 307.174 100.906 307.089 100.818C307.005 100.726 306.962 100.594 306.962 100.417V96.8564H305.937V96.8542Z" fill="#0D2137"/>
<path d="M311.012 100.353C311.012 100.56 310.973 100.711 310.898 100.809C310.823 100.907 310.704 100.954 310.54 100.954C310.374 100.954 310.253 100.907 310.176 100.813C310.1 100.72 310.062 100.565 310.062 100.355V96.6859C310.062 96.3875 310.107 96.1848 310.196 96.0777C310.285 95.9707 310.444 95.916 310.677 95.916H311.03C311.23 95.916 311.376 95.9547 311.465 96.0322C311.556 96.1096 311.643 96.3146 311.727 96.6472L312.533 99.7245L313.31 96.711C313.399 96.3716 313.488 96.1529 313.579 96.0595C313.67 95.9661 313.802 95.9183 313.982 95.9183H314.385C314.617 95.9183 314.777 95.973 314.866 96.0823C314.954 96.1916 315 96.3943 315 96.6905V100.36C315 100.567 314.961 100.718 314.884 100.816C314.806 100.913 314.688 100.961 314.528 100.961C314.362 100.961 314.242 100.913 314.164 100.818C314.087 100.722 314.05 100.57 314.05 100.36V96.9365L313.203 100.287C313.137 100.538 313.053 100.713 312.955 100.813C312.857 100.911 312.715 100.961 312.533 100.961C312.355 100.961 312.214 100.909 312.109 100.806C312.005 100.704 311.92 100.531 311.857 100.287L311.012 96.9296V100.353Z" fill="#0D2137"/>
</g>
<defs>
<linearGradient id="paint0_linear_10496_26837" x1="277.739" y1="567.705" x2="270.485" y2="581.739" gradientUnits="userSpaceOnUse">
<stop stop-color="#0E3049"/>
<stop offset="1"/>
</linearGradient>
<linearGradient id="paint1_linear_10496_26837" x1="277.739" y1="567.705" x2="270.485" y2="581.739" gradientUnits="userSpaceOnUse">
<stop stop-color="#0E3049"/>
<stop offset="1"/>
</linearGradient>
<linearGradient id="paint2_linear_10496_26837" x1="274.805" y1="570.658" x2="271.178" y2="577.675" gradientUnits="userSpaceOnUse">
<stop stop-color="#0E3049"/>
<stop offset="1"/>
</linearGradient>
<linearGradient id="paint3_linear_10496_26837" x1="215.077" y1="567.705" x2="207.823" y2="581.739" gradientUnits="userSpaceOnUse">
<stop stop-color="#0E3049"/>
<stop offset="1"/>
</linearGradient>
<linearGradient id="paint4_linear_10496_26837" x1="215.077" y1="567.705" x2="207.823" y2="581.739" gradientUnits="userSpaceOnUse">
<stop stop-color="#0E3049"/>
<stop offset="1"/>
</linearGradient>
<linearGradient id="paint5_linear_10496_26837" x1="212.143" y1="570.658" x2="208.516" y2="577.675" gradientUnits="userSpaceOnUse">
<stop stop-color="#0E3049"/>
<stop offset="1"/>
</linearGradient>
<linearGradient id="paint6_linear_10496_26837" x1="194.516" y1="567.705" x2="187.262" y2="581.739" gradientUnits="userSpaceOnUse">
<stop stop-color="#0E3049"/>
<stop offset="1"/>
</linearGradient>
<linearGradient id="paint7_linear_10496_26837" x1="194.516" y1="567.705" x2="187.262" y2="581.739" gradientUnits="userSpaceOnUse">
<stop stop-color="#0E3049"/>
<stop offset="1"/>
</linearGradient>
<linearGradient id="paint8_linear_10496_26837" x1="191.692" y1="570.658" x2="188.065" y2="577.675" gradientUnits="userSpaceOnUse">
<stop stop-color="#0E3049"/>
<stop offset="1"/>
</linearGradient>
<linearGradient id="paint9_linear_10496_26837" x1="230.485" y1="503.619" x2="198.978" y2="515.516" gradientUnits="userSpaceOnUse">
<stop stop-color="#0E3049"/>
<stop offset="1"/>
</linearGradient>
<linearGradient id="paint10_linear_10496_26837" x1="230.485" y1="503.619" x2="198.978" y2="515.516" gradientUnits="userSpaceOnUse">
<stop stop-color="#0E3049"/>
<stop offset="1"/>
</linearGradient>
<linearGradient id="paint11_linear_10496_26837" x1="215.547" y1="566.951" x2="248.555" y2="539.939" gradientUnits="userSpaceOnUse">
<stop stop-color="#0E3049"/>
<stop offset="1"/>
</linearGradient>
<linearGradient id="paint12_linear_10496_26837" x1="215.547" y1="566.951" x2="248.555" y2="539.939" gradientUnits="userSpaceOnUse">
<stop stop-color="#0E3049"/>
<stop offset="1"/>
</linearGradient>
<linearGradient id="paint13_linear_10496_26837" x1="252.824" y1="459" x2="227.337" y2="482.149" gradientUnits="userSpaceOnUse">
<stop stop-color="#0E3049"/>
<stop offset="1"/>
</linearGradient>
<linearGradient id="paint14_linear_10496_26837" x1="252.824" y1="459" x2="227.337" y2="482.149" gradientUnits="userSpaceOnUse">
<stop stop-color="#0E3049"/>
<stop offset="1"/>
</linearGradient>
<linearGradient id="paint15_linear_10496_26837" x1="284.829" y1="376.65" x2="234.83" y2="475.079" gradientUnits="userSpaceOnUse">
<stop stop-color="#0E3049"/>
<stop offset="1"/>
</linearGradient>
<linearGradient id="paint16_linear_10496_26837" x1="260.677" y1="505.807" x2="252.412" y2="529.986" gradientUnits="userSpaceOnUse">
<stop stop-color="#0E3049"/>
<stop offset="1"/>
</linearGradient>
<linearGradient id="paint17_linear_10496_26837" x1="267.947" y1="520.521" x2="262.413" y2="532.36" gradientUnits="userSpaceOnUse">
<stop stop-color="#0E3049"/>
<stop offset="1"/>
</linearGradient>
<linearGradient id="paint18_linear_10496_26837" x1="282.171" y1="489.402" x2="279.736" y2="518.509" gradientUnits="userSpaceOnUse">
<stop stop-color="#0E3049"/>
<stop offset="1"/>
</linearGradient>
<linearGradient id="paint19_linear_10496_26837" x1="235.476" y1="489.512" x2="231.488" y2="518.269" gradientUnits="userSpaceOnUse">
<stop stop-color="#0E3049"/>
<stop offset="1"/>
</linearGradient>
<linearGradient id="paint20_linear_10496_26837" x1="275.79" y1="565.189" x2="275.569" y2="573.087" gradientUnits="userSpaceOnUse">
<stop stop-color="#0E3049"/>
<stop offset="1"/>
</linearGradient>
<linearGradient id="paint21_linear_10496_26837" x1="275.79" y1="565.189" x2="275.569" y2="573.087" gradientUnits="userSpaceOnUse">
<stop stop-color="#0E3049"/>
<stop offset="1"/>
</linearGradient>
<linearGradient id="paint22_linear_10496_26837" x1="229.195" y1="565.189" x2="228.519" y2="573.035" gradientUnits="userSpaceOnUse">
<stop stop-color="#0E3049"/>
<stop offset="1"/>
</linearGradient>
<linearGradient id="paint23_linear_10496_26837" x1="229.195" y1="565.189" x2="228.519" y2="573.035" gradientUnits="userSpaceOnUse">
<stop stop-color="#0E3049"/>
<stop offset="1"/>
</linearGradient>
<linearGradient id="paint24_linear_10496_26837" x1="262.099" y1="444.943" x2="194.343" y2="596.942" gradientUnits="userSpaceOnUse">
<stop stop-color="#0E3049"/>
<stop offset="1"/>
</linearGradient>
<linearGradient id="paint25_linear_10496_26837" x1="262.099" y1="444.943" x2="194.343" y2="596.942" gradientUnits="userSpaceOnUse">
<stop stop-color="#0E3049"/>
<stop offset="1"/>
</linearGradient>
<linearGradient id="paint26_linear_10496_26837" x1="249.787" y1="462.717" x2="179.035" y2="575.096" gradientUnits="userSpaceOnUse">
<stop stop-color="#0E3049"/>
<stop offset="1"/>
</linearGradient>
<linearGradient id="paint27_linear_10496_26837" x1="249.787" y1="462.717" x2="179.035" y2="575.096" gradientUnits="userSpaceOnUse">
<stop stop-color="#0E3049"/>
<stop offset="1"/>
</linearGradient>
<linearGradient id="paint28_linear_10496_26837" x1="311.843" y1="350.795" x2="288.09" y2="458.247" gradientUnits="userSpaceOnUse">
<stop stop-color="#0E3049"/>
<stop offset="1"/>
</linearGradient>
<linearGradient id="paint29_linear_10496_26837" x1="293.835" y1="364.742" x2="273.839" y2="451.854" gradientUnits="userSpaceOnUse">
<stop stop-color="#0E3049"/>
<stop offset="1"/>
</linearGradient>
<linearGradient id="paint30_linear_10496_26837" x1="263.585" y1="389.227" x2="226.564" y2="472.739" gradientUnits="userSpaceOnUse">
<stop stop-color="#0E3049"/>
<stop offset="1"/>
</linearGradient>
<linearGradient id="paint31_linear_10496_26837" x1="246.251" y1="364.633" x2="240.917" y2="386.181" gradientUnits="userSpaceOnUse">
<stop stop-color="#0E3049"/>
<stop offset="1"/>
</linearGradient>
<linearGradient id="paint32_linear_10496_26837" x1="241.967" y1="356.09" x2="230.278" y2="381.158" gradientUnits="userSpaceOnUse">
<stop stop-color="#0E3049"/>
<stop offset="1"/>
</linearGradient>
<linearGradient id="paint33_linear_10496_26837" x1="255.271" y1="306.877" x2="225.759" y2="365.003" gradientUnits="userSpaceOnUse">
<stop stop-color="#0E3049"/>
<stop offset="1"/>
</linearGradient>
<linearGradient id="paint34_linear_10496_26837" x1="255.271" y1="306.877" x2="225.759" y2="365.003" gradientUnits="userSpaceOnUse">
<stop stop-color="#0E3049"/>
<stop offset="1"/>
</linearGradient>
<linearGradient id="paint35_linear_10496_26837" x1="217.052" y1="337.068" x2="207.951" y2="344.173" gradientUnits="userSpaceOnUse">
<stop stop-color="#0E3049"/>
<stop offset="1"/>
</linearGradient>
<linearGradient id="paint36_linear_10496_26837" x1="249.808" y1="337.068" x2="240.707" y2="344.173" gradientUnits="userSpaceOnUse">
<stop stop-color="#0E3049"/>
<stop offset="1"/>
</linearGradient>
<linearGradient id="paint37_linear_10496_26837" x1="246.109" y1="321.213" x2="214.35" y2="364.465" gradientUnits="userSpaceOnUse">
<stop stop-color="#0E3049"/>
<stop offset="1"/>
</linearGradient>
<linearGradient id="paint38_linear_10496_26837" x1="227.742" y1="336.186" x2="224.675" y2="339.933" gradientUnits="userSpaceOnUse">
<stop stop-color="#0E3049"/>
<stop offset="1"/>
</linearGradient>
<linearGradient id="paint39_linear_10496_26837" x1="238.021" y1="336.178" x2="234.947" y2="339.927" gradientUnits="userSpaceOnUse">
<stop stop-color="#0E3049"/>
<stop offset="1"/>
</linearGradient>
<linearGradient id="paint40_linear_10496_26837" x1="233.099" y1="348.215" x2="230.032" y2="351.962" gradientUnits="userSpaceOnUse">
<stop stop-color="#0E3049"/>
<stop offset="1"/>
</linearGradient>
<linearGradient id="paint41_linear_10496_26837" x1="234.724" y1="340.889" x2="232.644" y2="346.624" gradientUnits="userSpaceOnUse">
<stop stop-color="#0E3049"/>
<stop offset="1"/>
</linearGradient>
<linearGradient id="paint42_linear_10496_26837" x1="228.956" y1="331.461" x2="228.485" y2="334.55" gradientUnits="userSpaceOnUse">
<stop stop-color="#0E3049"/>
<stop offset="1"/>
</linearGradient>
<linearGradient id="paint43_linear_10496_26837" x1="241.221" y1="331.592" x2="240.537" y2="335.082" gradientUnits="userSpaceOnUse">
<stop stop-color="#0E3049"/>
<stop offset="1"/>
</linearGradient>
<linearGradient id="paint44_linear_10496_26837" x1="136.319" y1="564.533" x2="131.41" y2="585.629" gradientUnits="userSpaceOnUse">
<stop stop-color="#0E3049"/>
<stop offset="1" stop-color="#09335C"/>
</linearGradient>
<linearGradient id="paint45_linear_10496_26837" x1="136.319" y1="564.533" x2="131.41" y2="585.629" gradientUnits="userSpaceOnUse">
<stop stop-color="#0E3049"/>
<stop offset="1"/>
</linearGradient>
<linearGradient id="paint46_linear_10496_26837" x1="134.821" y1="569.564" x2="132.558" y2="583.744" gradientUnits="userSpaceOnUse">
<stop stop-color="#0E3049"/>
<stop offset="1"/>
</linearGradient>
<linearGradient id="paint47_linear_10496_26837" x1="192.25" y1="565.953" x2="188.133" y2="585.532" gradientUnits="userSpaceOnUse">
<stop stop-color="#0E3049"/>
<stop offset="1" stop-color="#09335C"/>
</linearGradient>
<linearGradient id="paint48_linear_10496_26837" x1="192.25" y1="565.953" x2="188.133" y2="585.532" gradientUnits="userSpaceOnUse">
<stop stop-color="#0E3049"/>
<stop offset="1"/>
</linearGradient>
<linearGradient id="paint49_linear_10496_26837" x1="192.299" y1="576.889" x2="192.137" y2="580.86" gradientUnits="userSpaceOnUse">
<stop stop-color="#0E3049"/>
<stop offset="1"/>
</linearGradient>
<linearGradient id="paint50_linear_10496_26837" x1="94.3771" y1="426.893" x2="94.4815" y2="421.955" gradientUnits="userSpaceOnUse">
<stop stop-color="#0E3049"/>
<stop offset="1"/>
</linearGradient>
<linearGradient id="paint51_linear_10496_26837" x1="71.7931" y1="426.893" x2="71.8975" y2="421.955" gradientUnits="userSpaceOnUse">
<stop stop-color="#0E3049"/>
<stop offset="1"/>
</linearGradient>
<linearGradient id="paint52_linear_10496_26837" x1="144.176" y1="366.807" x2="119.851" y2="435.031" gradientUnits="userSpaceOnUse">
<stop stop-color="#0E3049"/>
<stop offset="1"/>
</linearGradient>
<linearGradient id="paint53_linear_10496_26837" x1="141.442" y1="366.807" x2="117.117" y2="435.031" gradientUnits="userSpaceOnUse">
<stop stop-color="#0E3049"/>
<stop offset="1"/>
</linearGradient>
<linearGradient id="paint54_linear_10496_26837" x1="141.442" y1="366.807" x2="117.117" y2="435.031" gradientUnits="userSpaceOnUse">
<stop stop-color="#0E3049"/>
<stop offset="1"/>
</linearGradient>
<linearGradient id="paint55_linear_10496_26837" x1="113.33" y1="394.146" x2="90.1013" y2="426.913" gradientUnits="userSpaceOnUse">
<stop stop-color="#0E3049"/>
<stop offset="1"/>
</linearGradient>
<linearGradient id="paint56_linear_10496_26837" x1="227.876" y1="445.436" x2="195.028" y2="450.936" gradientUnits="userSpaceOnUse">
<stop stop-color="#0E3049"/>
<stop offset="1"/>
</linearGradient>
<linearGradient id="paint57_linear_10496_26837" x1="185.664" y1="445.328" x2="152.814" y2="450.823" gradientUnits="userSpaceOnUse">
<stop stop-color="#0E3049"/>
<stop offset="1"/>
</linearGradient>
<linearGradient id="paint58_linear_10496_26837" x1="81.0034" y1="445.328" x2="48.1535" y2="450.823" gradientUnits="userSpaceOnUse">
<stop stop-color="#0E3049"/>
<stop offset="1"/>
</linearGradient>
<linearGradient id="paint59_linear_10496_26837" x1="38.7905" y1="445.328" x2="5.94063" y2="450.823" gradientUnits="userSpaceOnUse">
<stop stop-color="#0E3049"/>
<stop offset="1"/>
</linearGradient>
<linearGradient id="paint60_linear_10496_26837" x1="28.0748" y1="446.879" x2="28.9851" y2="423.367" gradientUnits="userSpaceOnUse">
<stop stop-color="#0E3049"/>
<stop offset="1"/>
</linearGradient>
<linearGradient id="paint61_linear_10496_26837" x1="175.233" y1="446.879" x2="178.436" y2="423.776" gradientUnits="userSpaceOnUse">
<stop stop-color="#0E3049"/>
<stop offset="1"/>
</linearGradient>
<linearGradient id="paint62_linear_10496_26837" x1="28.0748" y1="439.045" x2="28.3058" y2="427.194" gradientUnits="userSpaceOnUse">
<stop stop-color="#0E3049"/>
<stop offset="1"/>
</linearGradient>
<linearGradient id="paint63_linear_10496_26837" x1="28.0748" y1="439.045" x2="28.3058" y2="427.194" gradientUnits="userSpaceOnUse">
<stop stop-color="#0E3049"/>
<stop offset="1"/>
</linearGradient>
<linearGradient id="paint64_linear_10496_26837" x1="24.9338" y1="434.412" x2="25.2037" y2="421.409" gradientUnits="userSpaceOnUse">
<stop stop-color="#0E3049"/>
<stop offset="1"/>
</linearGradient>
<linearGradient id="paint65_linear_10496_26837" x1="23.5053" y1="434.412" x2="23.8927" y2="421.415" gradientUnits="userSpaceOnUse">
<stop stop-color="#0E3049"/>
<stop offset="1"/>
</linearGradient>
<clipPath id="clip0_10496_26837">
<rect width="500" height="390" fill="white" transform="translate(0 202)"/>
</clipPath>
<clipPath id="clip1_10496_26837">
<rect width="130" height="146" fill="white" transform="translate(185)"/>
</clipPath>
</defs>
</svg>
