<svg width="20" height="20" viewBox="0 0 20 20" fill="none" xmlns="http://www.w3.org/2000/svg">
<path d="M14.4373 0.553711H5.56178C3.37799 0.553711 1.60181 2.32989 1.60181 4.51368V15.4704C1.60181 17.6542 3.37799 19.4304 5.56178 19.4304H14.44C16.6238 19.4304 18.4 17.6542 18.4 15.4704V4.51098C18.3973 2.32989 16.6211 0.553711 14.4373 0.553711ZM2.95149 15.4677V4.51098C2.95149 3.07222 4.12301 1.90069 5.56178 1.90069H14.44C15.8787 1.90069 17.0503 3.07222 17.0503 4.51098V13.373H12.0376V18.0753H5.55908C4.12301 18.078 2.95149 16.9065 2.95149 15.4677ZM14.4373 18.078H13.3872V14.7254H17.0476V15.4704C17.0476 16.9065 15.8761 18.078 14.4373 18.078Z" fill="black"/>
<path d="M10.6744 12.5926V10.3062H12.9607V8.95651H10.6744V6.67285H9.32469V8.95651H7.03833V10.3062H9.32469V12.5926H10.6744Z" fill="black"/>
</svg>
