<svg width="24" height="24" viewBox="0 0 24 24" fill="none" xmlns="http://www.w3.org/2000/svg">
<path d="M3.60516 12.2939L4.35725 11.9039L3.65235 11.434C2.66883 10.7783 2 9.58571 2 8.25C2 6.05114 3.80114 4.25 6 4.25C8.19886 4.25 10 6.05114 10 8.25C10 9.58406 9.33064 10.7936 8.39109 11.5318L7.7517 12.0342L8.48856 12.3781C9.50794 12.8538 10.3352 13.6756 10.8909 14.6481L11.325 15.4078L11.7591 14.6481C12.3148 13.6756 13.1421 12.8538 14.1614 12.3781L14.9671 12.0021L14.2274 11.509C13.2438 10.8533 12.575 9.66071 12.575 8.325C12.575 6.12614 14.3761 4.325 16.575 4.325C18.7739 4.325 20.575 6.12614 20.575 8.325V8.62614C20.54 8.69862 20.5213 8.76834 20.5113 8.82869C20.4372 8.96952 20.4265 9.10264 20.4251 9.18043C20.4223 9.18924 20.4185 9.20082 20.4132 9.21688L20.4118 9.22088C20.4059 9.23877 20.3975 9.26394 20.3892 9.29117C20.3722 9.31455 20.3538 9.3431 20.3372 9.37641C20.2988 9.45321 20.2842 9.52488 20.2787 9.58073C20.2756 9.61135 20.2751 9.64224 20.275 9.66048C20.2355 9.70404 20.2071 9.74902 20.1872 9.78889C20.1672 9.82882 20.1541 9.86659 20.1454 9.89901C19.5359 11.272 18.1502 12.25 16.5 12.25H16.35H16.3422L16.3344 12.2502C13.8314 12.3285 11.7752 14.3065 11.5255 16.75H10.975C10.7223 14.2315 8.58245 12.25 6 12.25C3.41755 12.25 1.27767 14.2315 1.02496 16.75H0.522964C0.699468 14.8376 1.88016 13.1883 3.60516 12.2939ZM21.2036 15.9536L21.975 15.1821L22.3179 15.525L21.5464 16.2964L21.2916 16.5513L21.4528 16.8736C21.6862 17.3404 21.8715 17.7205 21.9318 18.0822L22.0014 18.5H22.425H23.5V19H22.275H21.8414L21.78 19.4293C21.7124 19.9028 21.5843 20.2567 21.3596 20.5377L21.08 20.8871L21.3964 21.2036L22.1679 21.975L21.825 22.3179L21.0536 21.5464L20.7775 21.2704L20.4428 21.4713C20.0832 21.687 19.6984 21.8725 19.3428 21.9318L18.925 22.0014V22.425V23.5H18.425V22.425V22.0014L18.0072 21.9318C17.6516 21.8725 17.2668 21.687 16.9072 21.4713L16.5725 21.2704L16.2964 21.5464L15.525 22.3179L15.1821 21.975L15.9536 21.2036L16.2084 20.9487L16.0472 20.6264C15.8138 20.1596 15.6285 19.7795 15.5682 19.4178L15.4986 19H15.075H14V18.5H15.225H15.6586L15.72 18.0707C15.7876 17.5972 15.9157 17.2433 16.1404 16.9623L16.42 16.6129L16.1036 16.2964L15.3321 15.525L15.675 15.1821L16.4464 15.9536L16.7225 16.2296L17.0572 16.0287C17.4168 15.813 17.8016 15.6275 18.1572 15.5682L18.575 15.4986V15.075V14H19.075V15.075V15.4986L19.4928 15.5682C19.8484 15.6275 20.2332 15.813 20.5928 16.0287L20.9275 16.2296L21.2036 15.9536ZM18.6894 18.5161L18.6913 18.5152C18.7104 18.506 18.7312 18.5008 18.7523 18.5001C18.7789 18.5011 18.8437 18.5196 18.9121 18.5879C18.9825 18.6584 19 18.7251 19 18.75C19 18.7749 18.9825 18.8416 18.9121 18.9121C18.8437 18.9804 18.7789 18.9989 18.7523 18.9999C18.7312 18.9992 18.7104 18.994 18.6913 18.9848L18.6914 18.9848L18.6875 18.983C18.654 18.9673 18.6195 18.9433 18.5902 18.9136L18.5902 18.9136L18.5864 18.9098C18.5567 18.8805 18.5327 18.846 18.517 18.8125C18.5039 18.7847 18.5005 18.7642 18.5 18.7526C18.5008 18.7313 18.5059 18.7105 18.5152 18.6913L18.5161 18.6894C18.5337 18.6524 18.5575 18.6188 18.5866 18.59L18.59 18.5866C18.6188 18.5575 18.6524 18.5337 18.6894 18.5161ZM9.5 8.25C9.5 6.32386 7.92614 4.75 6 4.75C4.07386 4.75 2.5 6.32386 2.5 8.25C2.5 10.1761 4.07386 11.75 6 11.75C7.92614 11.75 9.5 10.1761 9.5 8.25ZM20 8.25C20 6.32386 18.4261 4.75 16.5 4.75C14.5739 4.75 13 6.32386 13 8.25C13 10.1761 14.5739 11.75 16.5 11.75C18.4261 11.75 20 10.1761 20 8.25ZM21.5 18.75C21.5 17.1989 20.3011 16 18.75 16C17.1989 16 16 17.1989 16 18.75C16 20.3011 17.1989 21.5 18.75 21.5C20.3011 21.5 21.5 20.3011 21.5 18.75Z" fill="black" stroke="black"/>
</svg>
