<svg width="26" height="30" viewBox="0 0 26 30" fill="none" xmlns="http://www.w3.org/2000/svg">
<path d="M16.2014 3.57017L17.2341 1.36591C17.2473 1.33767 17.2557 1.30662 17.2587 1.27455C17.2618 1.24247 17.2595 1.21 17.252 1.17898C17.2444 1.14795 17.2318 1.11899 17.2148 1.09375C17.1978 1.0685 17.1767 1.04746 17.1529 1.03184C17.129 1.01621 17.1027 1.0063 17.0756 1.00267C17.0485 0.999044 17.0211 1.00177 16.9949 1.01069C16.9686 1.01961 16.9442 1.03456 16.9228 1.05467C16.9015 1.07479 16.8837 1.09968 16.8705 1.12792L15.827 3.35509C14.9363 2.89305 13.9742 2.6545 13.0016 2.6545C12.029 2.6545 11.067 2.89305 10.1762 3.35509L9.13275 1.12792C9.10607 1.07054 9.06122 1.02805 9.00806 1.00979C8.9549 0.991533 8.89779 0.999006 8.84929 1.03056C8.80079 1.06212 8.76487 1.11519 8.74944 1.17808C8.734 1.24097 8.74032 1.30853 8.767 1.36591L9.7997 3.57017C8.81711 4.1435 7.98694 5.02585 7.40022 6.12048C6.8135 7.21511 6.49289 8.47975 6.47354 9.77571H19.5297C19.5101 8.47948 19.1892 7.21466 18.6021 6.12001C18.015 5.02535 17.1844 4.14315 16.2014 3.57017ZM9.98903 6.94911C9.88111 6.94911 9.77562 6.91123 9.68591 6.84028C9.5962 6.76932 9.52629 6.66847 9.48504 6.5505C9.4438 6.43252 9.43306 6.30272 9.45419 6.17752C9.47532 6.05232 9.52737 5.93735 9.60376 5.84716C9.68014 5.75697 9.77742 5.69562 9.88329 5.67087C9.98915 5.64611 10.0988 5.65907 10.1985 5.70811C10.2981 5.75714 10.3832 5.84004 10.443 5.94632C10.5028 6.05259 10.5346 6.17747 10.5344 6.30514C10.5341 6.47605 10.4766 6.63984 10.3743 6.76057C10.2721 6.8813 10.1335 6.94911 9.98903 6.94911ZM16.0153 6.94911C15.9074 6.94911 15.8019 6.91123 15.7122 6.84028C15.6224 6.76932 15.5525 6.66847 15.5113 6.5505C15.47 6.43252 15.4593 6.30272 15.4804 6.17752C15.5016 6.05232 15.5536 5.93735 15.63 5.84716C15.7064 5.75697 15.8037 5.69562 15.9095 5.67087C16.0154 5.64611 16.1251 5.65907 16.2247 5.70811C16.3244 5.75714 16.4095 5.84004 16.4693 5.94632C16.5291 6.05259 16.5609 6.17747 16.5607 6.30514C16.5604 6.47605 16.5028 6.63984 16.4005 6.76057C16.2983 6.8813 16.1597 6.94911 16.0153 6.94911ZM6.47139 21.581C6.4711 21.8267 6.51182 22.0701 6.5912 22.2971C6.67058 22.5242 6.78707 22.7305 6.93398 22.9042C7.08089 23.0778 7.25533 23.2155 7.44731 23.3093C7.63929 23.403 7.84502 23.451 8.05271 23.4505H9.0994V27.2685C9.0994 27.7277 9.25359 28.1682 9.52806 28.4929C9.80252 28.8176 10.1748 29 10.5629 29C10.9511 29 11.3233 28.8176 11.5978 28.4929C11.8723 28.1682 12.0265 27.7277 12.0265 27.2685V23.4505H13.9778V27.2685C13.9778 27.7276 14.132 28.1678 14.4063 28.4924C14.6807 28.817 15.0528 28.9994 15.4408 28.9994C15.8288 28.9994 16.201 28.817 16.4753 28.4924C16.7497 28.1678 16.9038 27.7276 16.9038 27.2685V23.4505H17.9516C18.159 23.4507 18.3644 23.4025 18.5561 23.3087C18.7477 23.2148 18.9219 23.0772 19.0686 22.9037C19.2152 22.7302 19.3315 22.5242 19.4108 22.2974C19.4902 22.0707 19.5309 21.8276 19.5308 21.5823V10.3866H6.47139V21.581ZM4.463 10.0888C4.07497 10.0895 3.70302 10.2722 3.42875 10.5969C3.15448 10.9216 3.00028 11.3618 3 11.8209V19.0356C3 19.2629 3.03784 19.488 3.11136 19.698C3.18489 19.908 3.29265 20.0988 3.4285 20.2595C3.56435 20.4202 3.72563 20.5477 3.90313 20.6347C4.08063 20.7217 4.27087 20.7665 4.463 20.7665C4.65512 20.7665 4.84536 20.7217 5.02286 20.6347C5.20036 20.5477 5.36164 20.4202 5.49749 20.2595C5.63334 20.0988 5.7411 19.908 5.81463 19.698C5.88815 19.488 5.92599 19.2629 5.92599 19.0356V11.8209C5.92542 11.362 5.7711 10.9222 5.49686 10.5977C5.22262 10.2733 4.85083 10.0907 4.463 10.0901V10.0888ZM21.537 10.0888C21.149 10.0895 20.777 10.2722 20.5028 10.5969C20.2285 10.9216 20.0743 11.3618 20.074 11.8209V19.0356C20.074 19.2629 20.1119 19.488 20.1854 19.698C20.2589 19.908 20.3667 20.0988 20.5025 20.2595C20.6384 20.4202 20.7996 20.5477 20.9771 20.6347C21.1546 20.7217 21.3449 20.7665 21.537 20.7665C21.7291 20.7665 21.9194 20.7217 22.0969 20.6347C22.2744 20.5477 22.4356 20.4202 22.5715 20.2595C22.7073 20.0988 22.8151 19.908 22.8886 19.698C22.9622 19.488 23 19.2629 23 19.0356V11.8209C22.9994 11.362 22.8451 10.9222 22.5709 10.5977C22.2966 10.2733 21.9248 10.0907 21.537 10.0901V10.0888Z" fill="#A4C639"/>
</svg>
