<svg width="150" height="45" viewBox="0 0 150 45" fill="none" xmlns="http://www.w3.org/2000/svg">
<path d="M149.006 39.6878C149.006 40.2542 148.895 40.815 148.681 41.3382C148.467 41.8614 148.153 42.3367 147.757 42.737C147.361 43.1373 146.891 43.4547 146.374 43.671C145.857 43.8873 145.303 43.9984 144.743 43.9978H5.25809C4.12756 43.999 3.04284 43.5456 2.2425 42.7374C1.44215 41.9291 0.991708 40.8322 0.990234 39.6878V5.31751C0.991707 4.17263 1.44197 3.07514 2.24216 2.26601C3.04234 1.45688 4.12705 1.00225 5.25809 1.00195H144.742C145.302 1.00195 145.856 1.11359 146.374 1.33048C146.891 1.54737 147.361 1.86527 147.757 2.26602C148.152 2.66677 148.466 3.14252 148.68 3.66611C148.895 4.18969 149.005 4.75084 149.005 5.31751L149.006 39.6878Z" fill="white"/>
<path d="M144.743 45H5.25728C3.86459 44.9997 2.5289 44.4402 1.54329 43.4442C0.557675 42.4482 0.00264991 41.0971 0 39.6874L0 5.31821C0.00206028 3.90779 0.556719 2.55578 1.5423 1.55878C2.52788 0.561775 3.8639 0.00119045 5.25728 0L144.741 0C146.135 0.00178446 147.47 0.56256 148.456 1.55944C149.441 2.55631 149.996 3.90797 149.999 5.31821V39.6874C150.001 42.6177 147.639 45 144.743 45Z" fill="#A6A6A6"/>
<path d="M149.006 39.6878C149.006 40.2542 148.895 40.815 148.681 41.3382C148.467 41.8614 148.153 42.3367 147.757 42.737C147.361 43.1373 146.891 43.4547 146.374 43.671C145.857 43.8873 145.303 43.9984 144.743 43.9978H5.25809C4.12756 43.999 3.04284 43.5456 2.2425 42.7374C1.44215 41.9291 0.991708 40.8322 0.990234 39.6878V5.31751C0.991707 4.17263 1.44197 3.07514 2.24216 2.26601C3.04234 1.45688 4.12705 1.00225 5.25809 1.00195H144.742C145.302 1.00195 145.856 1.11359 146.374 1.33048C146.891 1.54737 147.361 1.86527 147.757 2.26602C148.152 2.66677 148.466 3.14252 148.68 3.66611C148.895 4.18969 149.005 4.75084 149.005 5.31751L149.006 39.6878Z" fill="black"/>
<path d="M33.4934 22.2632C33.4612 18.6363 36.4272 16.8718 36.5629 16.7897C34.8831 14.3106 32.2794 13.9719 31.3645 13.9449C29.1778 13.7119 27.0566 15.2694 25.9427 15.2694C24.8065 15.2694 23.0912 13.9674 21.2424 14.0056C18.8633 14.0428 16.6377 15.437 15.417 17.6021C12.8979 22.0167 14.7767 28.5041 17.1902 32.0725C18.3975 33.8212 19.8083 35.7714 21.6548 35.7027C23.4614 35.6285 24.1362 34.538 26.3162 34.538C28.4763 34.538 29.11 35.7027 30.9932 35.6589C32.932 35.6285 34.1527 33.9034 35.3178 32.14C36.713 30.1381 37.2733 28.1643 37.2955 28.063C37.251 28.0473 33.5312 26.6091 33.4934 22.2632ZM29.936 11.5975C30.9076 10.3675 31.5724 8.69419 31.3879 6.99609C29.9815 7.05911 28.2228 7.98074 27.21 9.1837C26.314 10.2437 25.5136 11.9812 25.7204 13.6152C27.3001 13.7344 28.9221 12.8083 29.936 11.5975Z" fill="white"/>
<path d="M144.742 0H70.0293L99.2929 45H144.742C146.135 44.9988 147.471 44.4385 148.456 43.442C149.442 42.4455 149.996 41.0941 149.999 39.684V5.31821C149.997 3.90788 149.442 2.55605 148.457 1.55911C147.471 0.562168 146.135 0.00148757 144.742 0Z" fill="url(#paint0_linear_9509_96923)"/>
<path d="M59.66 35.4532H57.1353L55.7523 31.0543H50.9453L49.6279 35.4532H47.1699L51.9336 20.4775H54.8752L59.66 35.4532ZM55.3354 29.2088L54.0848 25.2984C53.9525 24.8989 53.7034 23.9581 53.3388 22.4772H53.2943C53.1476 23.1141 52.913 24.0549 52.5917 25.2984L51.3622 29.2088H55.3354ZM71.8866 29.9211C71.8866 31.7576 71.3941 33.2093 70.408 34.275C69.5253 35.2236 68.4281 35.6974 67.1196 35.6974C65.7066 35.6974 64.6905 35.1876 64.0735 34.1658V39.8317H61.7033V28.2039C61.7033 27.0505 61.6733 25.8678 61.6155 24.6547H63.7L63.8323 26.3663H63.8767C64.6671 25.0767 65.8667 24.4319 67.4764 24.4319C68.7349 24.4319 69.7855 24.9349 70.6259 25.942C71.4653 26.9515 71.8866 28.2771 71.8866 29.9211ZM69.472 30.0089C69.472 28.9579 69.2385 28.0914 68.7694 27.4083C68.2569 26.6983 67.5687 26.3427 66.706 26.3427C66.1213 26.3427 65.5899 26.5407 65.1152 26.9312C64.6394 27.3251 64.3281 27.8393 64.1824 28.4762C64.1174 28.7144 64.0805 28.9596 64.0724 29.2066V31.0082C64.0724 31.7925 64.3103 32.4553 64.7861 32.9977C65.2619 33.5379 65.88 33.8091 66.6404 33.8091C67.5331 33.8091 68.228 33.4591 68.7249 32.7648C69.2229 32.0682 69.472 31.15 69.472 30.0089ZM84.1566 29.9211C84.1566 31.7576 83.6641 33.2093 82.678 34.275C81.7942 35.2236 80.698 35.6974 79.3884 35.6974C77.9754 35.6974 76.9593 35.1876 76.3423 34.1658V39.8317H73.9722V28.2039C73.9722 27.0505 73.9422 25.8678 73.8843 24.6547H75.9688L76.1011 26.3663H76.1456C76.9349 25.0767 78.1344 24.4319 79.7453 24.4319C81.0026 24.4319 82.0532 24.9349 82.8959 25.942C83.7341 26.9515 84.1566 28.2771 84.1566 29.9211ZM81.7408 30.0089C81.7408 28.9579 81.5062 28.0914 81.0371 27.4083C80.5246 26.6983 79.8387 26.3427 78.976 26.3427C78.3912 26.3427 77.8598 26.5407 77.3829 26.9312C76.9071 27.3251 76.5969 27.8393 76.4513 28.4762C76.379 28.7733 76.3401 29.0153 76.3401 29.2066V31.0082C76.3401 31.7925 76.5791 32.4553 77.0527 32.9977C77.5285 33.5368 78.1467 33.8091 78.9093 33.8091C79.8031 33.8091 80.4979 33.4591 80.9937 32.7648C81.4918 32.0682 81.7408 31.15 81.7408 30.0089ZM97.8751 31.2524C97.8751 32.5274 97.4348 33.5638 96.5599 34.3639C95.5972 35.2371 94.2531 35.6748 92.53 35.6748C90.938 35.6748 89.6618 35.3643 88.699 34.742L89.2471 32.7423C90.2865 33.3657 91.4283 33.6763 92.6712 33.6763C93.565 33.6763 94.2598 33.4715 94.7556 33.0653C95.2526 32.6579 95.5038 32.1132 95.5038 31.4336C95.5038 30.8248 95.2959 30.315 94.8879 29.8998C94.4777 29.4856 93.7995 29.0997 92.8468 28.7452C90.2565 27.7673 88.9603 26.337 88.9603 24.4555C88.9603 23.2267 89.4183 22.2206 90.3321 21.4341C91.2459 20.6486 92.4577 20.2559 93.9652 20.2559C95.3115 20.2559 96.4332 20.4933 97.3237 20.9671L96.7289 22.9228C95.8907 22.4637 94.9446 22.2342 93.8863 22.2342C93.0503 22.2342 92.3943 22.4423 91.9252 22.8564C91.5305 23.2267 91.3304 23.6779 91.3304 24.2136C91.3304 24.8044 91.5583 25.295 92.0119 25.6799C92.4055 26.0343 93.1236 26.4203 94.162 26.8344C95.436 27.3543 96.372 27.9597 96.9713 28.6552C97.5749 29.3506 97.8751 30.2182 97.8751 31.2524ZM105.732 26.4552H103.119V31.698C103.119 33.0315 103.579 33.6966 104.502 33.6966C104.926 33.6966 105.277 33.6605 105.555 33.5851L105.62 35.407C105.153 35.5837 104.539 35.6726 103.777 35.6726C102.841 35.6726 102.11 35.3834 101.582 34.805C101.056 34.2266 100.791 33.2577 100.791 31.8938V26.4507H99.2347V24.6502H100.791V22.673L103.119 21.9618V24.6502H105.732V26.4552ZM117.496 29.965C117.496 31.6249 117.027 32.9876 116.09 34.0533C115.111 35.1505 113.808 35.6974 112.184 35.6974C110.616 35.6974 109.37 35.1718 108.441 34.1219C107.511 33.0698 107.047 31.7441 107.047 30.1451C107.047 28.4717 107.527 27.1011 108.484 26.0354C109.444 24.9687 110.735 24.4353 112.36 24.4353C113.925 24.4353 115.182 24.9619 116.134 26.0129C117.043 27.0325 117.496 28.3491 117.496 29.965ZM115.039 30.0202C115.039 29.031 114.828 28.1825 114.404 27.4725C113.907 26.615 113.196 26.1862 112.274 26.1862C111.325 26.1862 110.596 26.615 110.101 27.4725C109.676 28.1825 109.465 29.0457 109.465 30.0652C109.465 31.0555 109.676 31.9062 110.101 32.614C110.613 33.4715 111.328 33.9002 112.254 33.9002C113.16 33.9002 113.87 33.4625 114.384 32.5926C114.82 31.8657 115.039 31.0116 115.039 30.0202ZM125.203 26.7646C124.957 26.7196 124.707 26.6974 124.456 26.6983C123.622 26.6983 122.978 27.0156 122.524 27.6548C122.13 28.2174 121.933 28.9286 121.933 29.7872V35.4532H119.562V28.0554C119.564 26.9218 119.541 25.7883 119.493 24.6558H121.558L121.645 26.7219H121.71C121.961 26.0118 122.355 25.439 122.895 25.0103C123.39 24.6357 123.991 24.4328 124.608 24.4319C124.827 24.4319 125.025 24.4476 125.201 24.4758L125.203 26.7646ZM135.803 29.543C135.809 29.9078 135.78 30.2722 135.717 30.6312H128.606C128.633 31.698 128.977 32.515 129.638 33.0776C130.237 33.5795 131.012 33.8316 131.963 33.8316C133.016 33.8316 133.977 33.6628 134.841 33.3218L135.212 34.9862C134.202 35.4318 133.011 35.6535 131.636 35.6535C129.981 35.6535 128.683 35.1606 127.738 34.1771C126.795 33.1924 126.323 31.8691 126.323 30.2115C126.323 28.5843 126.762 27.2283 127.641 26.1469C128.562 24.9923 129.806 24.415 131.371 24.415C132.908 24.415 134.072 24.9923 134.863 26.1469C135.489 27.0617 135.803 28.196 135.803 29.543ZM133.543 28.9207C133.56 28.2084 133.404 27.5951 133.083 27.0764C132.673 26.4079 132.041 26.0748 131.195 26.0748C130.42 26.0748 129.789 26.4 129.309 27.0527C128.914 27.5715 128.679 28.1949 128.607 28.9185L133.543 28.9207Z" fill="white"/>
<path d="M50.2628 15.1824C49.6036 15.1824 49.0333 15.1498 48.5586 15.0946V7.85438C49.2225 7.75057 49.8934 7.6994 50.5652 7.70134C53.2834 7.70134 54.5352 9.05509 54.5352 11.2618C54.5352 13.8073 53.0566 15.1824 50.2628 15.1824ZM50.6608 8.62972C50.294 8.62972 49.9816 8.65223 49.7226 8.70624V14.2101C49.8626 14.2326 50.1317 14.2428 50.5096 14.2428C52.2906 14.2428 53.3045 13.2165 53.3045 11.2945C53.3045 9.58061 52.3873 8.62972 50.6608 8.62972ZM58.4361 15.2375C56.9042 15.2375 55.9114 14.0796 55.9114 12.5075C55.9114 10.8691 56.9253 9.70101 58.5229 9.70101C60.0326 9.70101 61.0476 10.8038 61.0476 12.4209C61.0476 14.0796 60.0014 15.2375 58.4361 15.2375ZM58.4806 10.563C57.639 10.563 57.0999 11.3597 57.0999 12.4738C57.0999 13.5665 57.6502 14.3632 58.4695 14.3632C59.2888 14.3632 59.8391 13.5113 59.8391 12.4513C59.8391 11.371 59.2999 10.563 58.4806 10.563ZM69.7834 9.81017L68.1436 15.1171H67.0753L66.396 12.8125C66.2271 12.2488 66.0865 11.6768 65.9747 11.0986H65.9524C65.8668 11.6771 65.7045 12.2566 65.5322 12.8125L64.8096 15.1171H63.7301L62.1871 9.81017H63.3844L63.978 12.3331C64.1181 12.934 64.2359 13.5012 64.3338 14.0368H64.356C64.4416 13.5901 64.5817 13.0319 64.7874 12.3444L65.5322 9.8113H66.4816L67.1942 12.2904C67.3665 12.8913 67.5066 13.4809 67.6155 14.038H67.6467C67.7223 13.4922 67.8412 12.9126 68.0024 12.2904L68.6394 9.8113L69.7834 9.81017ZM75.82 15.1171H74.6549V12.0698C74.6549 11.1313 74.2991 10.6609 73.5977 10.6609C72.9073 10.6609 72.4326 11.2618 72.4326 11.9606V15.1171H71.2675V11.3271C71.2675 10.8578 71.2564 10.3548 71.2242 9.80904H72.2492L72.3036 10.6283H72.3359C72.6494 10.0611 73.2853 9.70101 73.9979 9.70101C75.0985 9.70101 75.8211 10.5529 75.8211 11.9393L75.82 15.1171ZM79.0328 15.1171H77.8666V7.375H79.0328V15.1171ZM83.2807 15.2375C81.7498 15.2375 80.756 14.0796 80.756 12.5075C80.756 10.8691 81.7698 9.70101 83.3663 9.70101C84.8771 9.70101 85.891 10.8038 85.891 12.4209C85.8921 14.0796 84.8448 15.2375 83.2807 15.2375ZM83.324 10.563C82.4825 10.563 81.9433 11.3597 81.9433 12.4738C81.9433 13.5665 82.4947 14.3632 83.3118 14.3632C84.1322 14.3632 84.6814 13.5113 84.6814 12.4513C84.6825 11.371 84.1445 10.563 83.324 10.563ZM90.4846 15.1171L90.4001 14.5061H90.3689C90.0132 14.9978 89.494 15.2375 88.8359 15.2375C87.8965 15.2375 87.2295 14.5714 87.2295 13.6756C87.2295 12.3657 88.3512 11.6883 90.2933 11.6883V11.5904C90.2933 10.8916 89.9276 10.5416 89.205 10.5416C88.688 10.5416 88.2345 10.6733 87.8354 10.9355L87.5986 10.1601C88.0833 9.85406 88.688 9.70101 89.3984 9.70101C90.768 9.70101 91.4595 10.4325 91.4595 11.8965V13.8512C91.4595 14.3868 91.4829 14.802 91.5351 15.1183L90.4846 15.1171ZM90.3245 12.4738C89.0304 12.4738 88.3812 12.7911 88.3812 13.5439C88.3812 14.101 88.7158 14.3733 89.1805 14.3733C89.7731 14.3733 90.3245 13.9153 90.3245 13.293V12.4738ZM97.117 15.1171L97.0625 14.2653H97.0303C96.6957 14.9089 96.1332 15.2375 95.3472 15.2375C94.0832 15.2375 93.1471 14.1122 93.1471 12.5289C93.1471 10.8691 94.1176 9.69989 95.4428 9.69989C96.1443 9.69989 96.6412 9.93958 96.9214 10.4212H96.9447V7.375H98.1109V13.6869C98.1109 14.2 98.1231 14.6805 98.1543 15.1171H97.117ZM96.9447 11.9944C96.9447 11.2517 96.4589 10.6181 95.7174 10.6181C94.8536 10.6181 94.3255 11.3935 94.3255 12.485C94.3255 13.5552 94.8736 14.2878 95.694 14.2878C96.4267 14.2878 96.9447 13.643 96.9447 12.8789V11.9944ZM105.505 15.2375C103.974 15.2375 102.981 14.0796 102.981 12.5075C102.981 10.8691 103.995 9.70101 105.592 9.70101C107.102 9.70101 108.116 10.8038 108.116 12.4209C108.117 14.0796 107.071 15.2375 105.505 15.2375ZM105.548 10.563C104.708 10.563 104.169 11.3597 104.169 12.4738C104.169 13.5665 104.719 14.3632 105.537 14.3632C106.358 14.3632 106.907 13.5113 106.907 12.4513C106.909 11.371 106.37 10.563 105.548 10.563ZM114.382 15.1171H113.216V12.0698C113.216 11.1313 112.86 10.6609 112.158 10.6609C111.468 10.6609 110.995 11.2618 110.995 11.9606V15.1171H109.828V11.3271C109.828 10.8578 109.817 10.3548 109.785 9.80904H110.81L110.864 10.6283H110.897C111.209 10.0611 111.846 9.69989 112.558 9.69989C113.658 9.69989 114.382 10.5517 114.382 11.9381V15.1171ZM122.221 10.6947H120.939V13.2716C120.939 13.9277 121.163 14.2551 121.617 14.2551C121.823 14.2551 121.995 14.2326 122.134 14.2L122.166 15.0957C121.94 15.1835 121.638 15.2274 121.262 15.2274C120.344 15.2274 119.795 14.7143 119.795 13.3706V10.6947H119.03V9.81017H119.795V8.8379L120.939 8.48793V9.80904H122.221V10.6947ZM128.388 15.1171H127.224V12.0923C127.224 11.1425 126.87 10.662 126.167 10.662C125.563 10.662 125.001 11.0773 125.001 11.9179V15.1171H123.837V7.375H125.001V10.563H125.024C125.391 9.98459 125.923 9.69989 126.601 9.69989C127.71 9.69989 128.388 10.5731 128.388 11.9606V15.1171ZM134.707 12.7472H131.211C131.233 13.7521 131.89 14.3193 132.863 14.3193C133.38 14.3193 133.856 14.2315 134.276 14.0683L134.457 14.8876C133.961 15.1059 133.378 15.215 132.698 15.215C131.059 15.215 130.088 14.1662 130.088 12.5402C130.088 10.913 131.082 9.68976 132.567 9.68976C133.907 9.68976 134.747 10.6947 134.747 12.2127C134.755 12.3919 134.741 12.5713 134.707 12.7472ZM133.639 11.9066C133.639 11.0874 133.231 10.509 132.486 10.509C131.817 10.509 131.288 11.0986 131.212 11.9066H133.639Z" fill="white"/>
<defs>
<linearGradient id="paint0_linear_9509_96923" x1="110.013" y1="45.1195" x2="110.013" y2="-117.172" gradientUnits="userSpaceOnUse">
<stop stop-color="#1A1A1A" stop-opacity="0.1"/>
<stop offset="0.123" stop-color="#212121" stop-opacity="0.151"/>
<stop offset="0.308" stop-color="#353535" stop-opacity="0.227"/>
<stop offset="0.532" stop-color="#575757" stop-opacity="0.318"/>
<stop offset="0.783" stop-color="#858585" stop-opacity="0.421"/>
<stop offset="1" stop-color="#B3B3B3" stop-opacity="0.51"/>
</linearGradient>
</defs>
</svg>
