<svg width="26" height="30" viewBox="0 0 26 30" fill="none" xmlns="http://www.w3.org/2000/svg">
<path d="M22.5808 21.1447C22.2218 21.9133 21.7967 22.6208 21.3043 23.2713C20.633 24.158 20.0834 24.7719 19.6598 25.1127C19.0032 25.6722 18.2997 25.9587 17.5464 25.975C17.0056 25.975 16.3534 25.8324 15.5942 25.5432C14.8325 25.2553 14.1325 25.1127 13.4925 25.1127C12.8212 25.1127 12.1013 25.2553 11.3312 25.5432C10.56 25.8324 9.93874 25.9832 9.46373 25.9981C8.74132 26.0266 8.02125 25.7319 7.30251 25.1127C6.84376 24.742 6.26997 24.1064 5.58259 23.2061C4.84508 22.2446 4.23875 21.1297 3.76374 19.8587C3.25502 18.4857 3 17.1563 3 15.8692C3 14.3948 3.34384 13.1232 4.03254 12.0576C4.57379 11.2017 5.29386 10.5265 6.19508 10.0308C7.09629 9.53514 8.07006 9.28256 9.11872 9.2664C9.69251 9.2664 10.445 9.43085 11.38 9.75405C12.3125 10.0783 12.9112 10.2428 13.1737 10.2428C13.3699 10.2428 14.035 10.0505 15.1625 9.66714C16.2288 9.31162 17.1287 9.16441 17.8659 9.2224C19.8636 9.37178 21.3644 10.1014 22.3625 11.416C20.5758 12.419 19.6921 13.8238 19.7097 15.626C19.7258 17.0297 20.2754 18.1979 21.3556 19.1254C21.8451 19.5558 22.3918 19.8885 23 20.1248C22.8681 20.4793 22.7289 20.8188 22.5808 21.1447V21.1447ZM17.9993 4.44013C17.9993 5.54038 17.5654 6.56768 16.7007 7.51854C15.6572 8.64892 14.395 9.30211 13.0262 9.19904C13.0088 9.06705 12.9987 8.92812 12.9987 8.78214C12.9987 7.7259 13.4949 6.59552 14.3762 5.67127C14.8162 5.20331 15.3758 4.81421 16.0544 4.50381C16.7315 4.19805 17.372 4.02896 17.9744 4C17.9919 4.14709 17.9993 4.29418 17.9993 4.44011V4.44013Z" fill="white"/>
</svg>
