<svg width="31" height="31" viewBox="0 0 31 31" fill="none" xmlns="http://www.w3.org/2000/svg">
<path d="M28.1998 23.6799C27.7285 24.728 27.1707 25.6928 26.5243 26.5798C25.6433 27.789 24.922 28.626 24.366 29.0908C23.5042 29.8538 22.5809 30.2445 21.5921 30.2667C20.8823 30.2667 20.0263 30.0723 19.0298 29.6779C18.0301 29.2853 17.1114 29.0908 16.2713 29.0908C15.3903 29.0908 14.4454 29.2853 13.4347 29.6779C12.4225 30.0723 11.6071 30.2778 10.9836 30.2982C10.0355 30.3371 9.09039 29.9353 8.14704 29.0908C7.54494 28.5853 6.79184 27.7187 5.88965 26.4909C4.92167 25.1798 4.12586 23.6595 3.50241 21.9262C2.83471 20.0541 2.5 18.2412 2.5 16.486C2.5 14.4755 2.95129 12.7415 3.8552 11.2884C4.56561 10.1212 5.51069 9.20051 6.69354 8.52461C7.87638 7.8487 9.15445 7.50427 10.5308 7.48223C11.2839 7.48223 12.2715 7.70649 13.4988 8.14721C14.7226 8.58942 15.5084 8.81367 15.853 8.81367C16.1105 8.81367 16.9835 8.55146 18.4633 8.0287C19.8628 7.5439 21.0439 7.34316 22.0115 7.42224C24.6334 7.62593 26.6032 8.6209 27.9132 10.4134C25.5683 11.7812 24.4083 13.6969 24.4314 16.1544C24.4526 18.0686 25.174 19.6615 26.5917 20.9263C27.2342 21.5133 27.9517 21.967 28.75 22.2892C28.5769 22.7725 28.3941 23.2355 28.1998 23.6799ZM22.1865 0.900952C22.1865 2.40129 21.6171 3.80216 20.4822 5.09879C19.1126 6.64022 17.4559 7.53094 15.6594 7.39038C15.6365 7.21039 15.6233 7.02095 15.6233 6.82188C15.6233 5.38156 16.2746 3.84012 17.4313 2.57979C18.0088 1.94166 18.7432 1.41107 19.6339 0.9878C20.5226 0.57085 21.3632 0.340268 22.1538 0.300781C22.1769 0.501354 22.1865 0.701939 22.1865 0.900933V0.900952Z" fill="#252A36"/>
</svg>
