<svg width="25" height="24" viewBox="0 0 25 24" fill="none" xmlns="http://www.w3.org/2000/svg">
<path d="M21.45 8.72578L13.05 17.1508C12.95 17.2508 12.8417 17.3214 12.725 17.3628C12.6083 17.4048 12.4833 17.4258 12.35 17.4258C12.2167 17.4258 12.0917 17.4048 11.975 17.3628C11.8583 17.3214 11.75 17.2508 11.65 17.1508L3.225 8.72578C2.99167 8.49245 2.875 8.20078 2.875 7.85078C2.875 7.50078 3 7.20078 3.25 6.95078C3.5 6.70078 3.79167 6.57578 4.125 6.57578C4.45833 6.57578 4.75 6.70078 5 6.95078L12.35 14.3008L19.7 6.95078C19.9333 6.71745 20.2207 6.60078 20.562 6.60078C20.904 6.60078 21.2 6.72578 21.45 6.97578C21.7 7.22578 21.825 7.51745 21.825 7.85078C21.825 8.18411 21.7 8.47578 21.45 8.72578Z" fill="#FFDF6E"/>
</svg>
