<svg width="12" height="12" viewBox="0 0 12 12" fill="none" xmlns="http://www.w3.org/2000/svg">
<path d="M10.3536 3.64639C10.4397 3.73249 10.4914 3.84704 10.499 3.96855C10.5067 4.09007 10.4697 4.21019 10.3951 4.30639L10.3536 4.35339L6.35357 8.35339C6.26747 8.43948 6.15292 8.4912 6.03141 8.49884C5.9099 8.50648 5.78977 8.46952 5.69357 8.39489L5.64657 8.35339L1.64657 4.35339C1.5569 4.26341 1.50483 4.14268 1.50096 4.0157C1.49708 3.88873 1.54168 3.76504 1.62569 3.66975C1.70971 3.57447 1.82685 3.51474 1.95331 3.50269C2.07977 3.49065 2.20607 3.52719 2.30657 3.60489L2.35357 3.64639L6.00007 7.29289L9.64657 3.64639C9.74033 3.55266 9.86749 3.5 10.0001 3.5C10.1327 3.5 10.2598 3.55266 10.3536 3.64639Z" fill="white"/>
</svg>
