<svg width="26" height="27" viewBox="0 0 26 27" fill="none" xmlns="http://www.w3.org/2000/svg">
<path d="M3.92982 18.9563C3.74329 18.7697 3.63124 18.5215 3.61469 18.2582C3.59813 17.995 3.67821 17.7347 3.8399 17.5263L3.92982 17.4244L12.5965 8.75775C12.783 8.57123 13.0312 8.45918 13.2945 8.44262C13.5578 8.42607 13.818 8.50614 14.0265 8.66783L14.1283 8.75775L22.795 17.4244C22.9893 17.6194 23.1021 17.881 23.1105 18.1561C23.1189 18.4312 23.0222 18.6992 22.8402 18.9056C22.6582 19.1121 22.4044 19.2415 22.1304 19.2676C21.8564 19.2937 21.5827 19.2145 21.365 19.0462L21.2631 18.9563L13.3624 11.0555L5.46165 18.9563C5.25849 19.1593 4.98299 19.2734 4.69573 19.2734C4.40847 19.2734 4.13297 19.1593 3.92982 18.9563Z" fill="black"/>
</svg>
