<svg width="38" height="38" viewBox="0 0 38 38" fill="none" xmlns="http://www.w3.org/2000/svg">
<rect width="38" height="38" rx="19" fill="white"/>
<path d="M5.93333 13.4C5.6858 13.4 5.4484 13.4983 5.27337 13.6734C5.09833 13.8484 5 14.0858 5 14.3333V23.6667C5 23.9142 5.09833 24.1516 5.27337 24.3266C5.4484 24.5017 5.6858 24.6 5.93333 24.6C6.18087 24.6 6.41827 24.5017 6.5933 24.3266C6.76833 24.1516 6.86667 23.9142 6.86667 23.6667V14.3333C6.86667 14.0858 6.76833 13.8484 6.5933 13.6734C6.41827 13.4983 6.18087 13.4 5.93333 13.4ZM9.66667 8.73333C9.41913 8.73333 9.18173 8.83167 9.0067 9.0067C8.83167 9.18173 8.73333 9.41913 8.73333 9.66667V28.3333C8.73333 28.5809 8.83167 28.8183 9.0067 28.9933C9.18173 29.1683 9.41913 29.2667 9.66667 29.2667C9.9142 29.2667 10.1516 29.1683 10.3266 28.9933C10.5017 28.8183 10.6 28.5809 10.6 28.3333V9.66667C10.6 9.41913 10.5017 9.18173 10.3266 9.0067C10.1516 8.83167 9.9142 8.73333 9.66667 8.73333ZM20.8667 13.4C20.6191 13.4 20.3817 13.4983 20.2067 13.6734C20.0317 13.8484 19.9333 14.0858 19.9333 14.3333V23.6667C19.9333 23.9142 20.0317 24.1516 20.2067 24.3266C20.3817 24.5017 20.6191 24.6 20.8667 24.6C21.1142 24.6 21.3516 24.5017 21.5266 24.3266C21.7017 24.1516 21.8 23.9142 21.8 23.6667V14.3333C21.8 14.0858 21.7017 13.8484 21.5266 13.6734C21.3516 13.4983 21.1142 13.4 20.8667 13.4ZM17.1333 8.73333C16.8858 8.73333 16.6484 8.83167 16.4734 9.0067C16.2983 9.18173 16.2 9.41913 16.2 9.66667V28.3333C16.2 28.5809 16.2983 28.8183 16.4734 28.9933C16.6484 29.1683 16.8858 29.2667 17.1333 29.2667C17.3809 29.2667 17.6183 29.1683 17.7933 28.9933C17.9683 28.8183 18.0667 28.5809 18.0667 28.3333V9.66667C18.0667 9.41913 17.9683 9.18173 17.7933 9.0067C17.6183 8.83167 17.3809 8.73333 17.1333 8.73333ZM13.4 5C13.1525 5 12.9151 5.09833 12.74 5.27337C12.565 5.4484 12.4667 5.6858 12.4667 5.93333V32.0667C12.4667 32.3142 12.565 32.5516 12.74 32.7266C12.9151 32.9017 13.1525 33 13.4 33C13.6475 33 13.8849 32.9017 14.06 32.7266C14.235 32.5516 14.3333 32.3142 14.3333 32.0667V5.93333C14.3333 5.6858 14.235 5.4484 14.06 5.27337C13.8849 5.09833 13.6475 5 13.4 5ZM32.0667 13.4C31.8191 13.4 31.5817 13.4983 31.4067 13.6734C31.2317 13.8484 31.1333 14.0858 31.1333 14.3333V23.6667C31.1333 23.9142 31.2317 24.1516 31.4067 24.3266C31.5817 24.5017 31.8191 24.6 32.0667 24.6C32.3142 24.6 32.5516 24.5017 32.7266 24.3266C32.9017 24.1516 33 23.9142 33 23.6667V14.3333C33 14.0858 32.9017 13.8484 32.7266 13.6734C32.5516 13.4983 32.3142 13.4 32.0667 13.4ZM28.3333 8.73333C28.0858 8.73333 27.8484 8.83167 27.6734 9.0067C27.4983 9.18173 27.4 9.41913 27.4 9.66667V28.3333C27.4 28.5809 27.4983 28.8183 27.6734 28.9933C27.8484 29.1683 28.0858 29.2667 28.3333 29.2667C28.5809 29.2667 28.8183 29.1683 28.9933 28.9933C29.1683 28.8183 29.2667 28.5809 29.2667 28.3333V9.66667C29.2667 9.41913 29.1683 9.18173 28.9933 9.0067C28.8183 8.83167 28.5809 8.73333 28.3333 8.73333ZM24.6 5C24.3525 5 24.1151 5.09833 23.94 5.27337C23.765 5.4484 23.6667 5.6858 23.6667 5.93333V32.0667C23.6667 32.3142 23.765 32.5516 23.94 32.7266C24.1151 32.9017 24.3525 33 24.6 33C24.8475 33 25.0849 32.9017 25.26 32.7266C25.435 32.5516 25.5333 32.3142 25.5333 32.0667V5.93333C25.5333 5.6858 25.435 5.4484 25.26 5.27337C25.0849 5.09833 24.8475 5 24.6 5Z" fill="#E2A12D"/>
</svg>
