<svg width="24" height="24" viewBox="0 0 24 24" fill="none" xmlns="http://www.w3.org/2000/svg">
<path d="M18.5 21.3875V21.3881C18.5 21.4015 18.4963 21.4163 18.487 21.4312C18.4776 21.4463 18.462 21.4618 18.4395 21.4733L18.4394 21.4733L18.4339 21.4762C18.4089 21.4895 18.379 21.497 18.3474 21.4965C18.317 21.496 18.2885 21.4882 18.2648 21.4752L11.7557 17.6008L11.5 17.4486L11.2443 17.6008L4.7336 21.4761C4.70727 21.4909 4.67542 21.4997 4.64153 21.4998L4.64153 21.4996L4.62847 21.5C4.61377 21.5004 4.60096 21.4964 4.59205 21.491L4.57661 21.4816L4.56054 21.4733C4.538 21.4618 4.52242 21.4463 4.51298 21.4312C4.50368 21.4163 4.49998 21.4015 4.5 21.3881V21.3875V3.42855C4.5 3.19038 4.59912 2.95672 4.78417 2.78048C4.97004 2.60346 5.22712 2.5 5.5 2.5H17.5C17.7729 2.5 18.03 2.60346 18.2158 2.78048C18.4009 2.95672 18.5 3.19038 18.5 3.42855V21.3875Z" stroke="#7C7F86"/>
</svg>
