<svg width="24" height="24" viewBox="0 0 24 24" fill="none" xmlns="http://www.w3.org/2000/svg">
<path d="M20 13.4245V3.69047C19.9995 3.24242 19.8212 2.81287 19.5044 2.49605C19.1876 2.17923 18.7581 2.001 18.31 2.00047H16.91C16.8082 1.7082 16.6179 1.45486 16.3656 1.27559C16.1133 1.09632 15.8115 1 15.502 1C15.1925 1 14.8907 1.09632 14.6384 1.27559C14.3861 1.45486 14.1958 1.7082 14.094 2.00047H6.908C6.80618 1.7082 6.61592 1.45486 6.36363 1.27559C6.11133 1.09632 5.8095 1 5.5 1C5.1905 1 4.88867 1.09632 4.63637 1.27559C4.38408 1.45486 4.19382 1.7082 4.092 2.00047H2.69C2.24195 2.001 1.8124 2.17923 1.49557 2.49605C1.17875 2.81287 1.00053 3.24242 1 3.69047V18.3105C1.00053 18.7585 1.17875 19.1881 1.49557 19.5049C1.8124 19.8217 2.24195 19.9999 2.69 20.0005H13.424C13.7483 20.7486 14.2505 21.4061 14.8871 21.9156C15.5237 22.4251 16.2752 22.7713 17.0761 22.9238C17.8771 23.0764 18.7032 23.0307 19.4825 22.7909C20.2618 22.551 20.9706 22.1242 21.5472 21.5476C22.1237 20.9711 22.5505 20.2623 22.7904 19.483C23.0303 18.7037 23.0759 17.8776 22.9233 17.0766C22.7708 16.2756 22.4247 15.5241 21.9151 14.8876C21.4056 14.251 20.7481 13.7487 20 13.4245ZM15 2.50047C15 2.36786 15.0527 2.24069 15.1464 2.14692C15.2402 2.05315 15.3674 2.00047 15.5 2.00047C15.6326 2.00047 15.7598 2.05315 15.8536 2.14692C15.9473 2.24069 16 2.36786 16 2.50047V3.50047C16 3.63308 15.9473 3.76026 15.8536 3.85403C15.7598 3.94779 15.6326 4.00047 15.5 4.00047C15.3674 4.00047 15.2402 3.94779 15.1464 3.85403C15.0527 3.76026 15 3.63308 15 3.50047V2.50047ZM5 2.50047C5 2.36786 5.05268 2.24069 5.14645 2.14692C5.24022 2.05315 5.36739 2.00047 5.5 2.00047C5.63261 2.00047 5.75979 2.05315 5.85355 2.14692C5.94732 2.24069 6 2.36786 6 2.50047V3.50047C6 3.63308 5.94732 3.76026 5.85355 3.85403C5.75979 3.94779 5.63261 4.00047 5.5 4.00047C5.36739 4.00047 5.24022 3.94779 5.14645 3.85403C5.05268 3.76026 5 3.63308 5 3.50047V2.50047ZM2.69 3.00047H4V3.50047C4 3.8983 4.15804 4.27983 4.43934 4.56113C4.72064 4.84244 5.10218 5.00047 5.5 5.00047C5.89783 5.00047 6.27936 4.84244 6.56066 4.56113C6.84197 4.27983 7 3.8983 7 3.50047V3.00047H14V3.50047C14 3.8983 14.158 4.27983 14.4393 4.56113C14.7206 4.84244 15.1022 5.00047 15.5 5.00047C15.8978 5.00047 16.2794 4.84244 16.5607 4.56113C16.842 4.27983 17 3.8983 17 3.50047V3.00047H18.31C18.4929 3.00074 18.6683 3.07352 18.7976 3.20286C18.927 3.3322 18.9997 3.50756 19 3.69047V6.00047H2V3.69047C2.00026 3.50756 2.07305 3.3322 2.20239 3.20286C2.33173 3.07352 2.50708 3.00074 2.69 3.00047ZM2.69 19.0005C2.50708 19.0002 2.33173 18.9274 2.20239 18.7981C2.07305 18.6687 2.00026 18.4934 2 18.3105V7.00047H19V13.1005C18.19 12.9349 17.3517 12.9728 16.5599 13.2107C15.7682 13.4486 15.0478 13.8791 14.4632 14.4637C13.8786 15.0482 13.4481 15.7686 13.2102 16.5604C12.9723 17.3521 12.9344 18.1905 13.1 19.0005H2.69ZM18 22.0005C17.2089 22.0005 16.4355 21.7659 15.7777 21.3264C15.1199 20.8868 14.6072 20.2621 14.3045 19.5312C14.0017 18.8003 13.9225 17.996 14.0769 17.2201C14.2312 16.4442 14.6122 15.7315 15.1716 15.172C15.731 14.6126 16.4437 14.2317 17.2196 14.0773C17.9956 13.923 18.7998 14.0022 19.5307 14.305C20.2616 14.6077 20.8864 15.1204 21.3259 15.7782C21.7654 16.436 22 17.2094 22 18.0005C22 19.0613 21.5786 20.0788 20.8284 20.8289C20.0783 21.579 19.0609 22.0005 18 22.0005Z" fill="white"/>
<path d="M18.5 17.793V16C18.5 15.8674 18.4473 15.7402 18.3536 15.6464C18.2598 15.5527 18.1326 15.5 18 15.5C17.8674 15.5 17.7402 15.5527 17.6464 15.6464C17.5527 15.7402 17.5 15.8674 17.5 16V18C17.4999 18.0657 17.5127 18.1308 17.5378 18.1915C17.5628 18.2523 17.5996 18.3075 17.646 18.354L18.646 19.354C18.7399 19.4479 18.8672 19.5006 19 19.5006C19.1328 19.5006 19.2601 19.4479 19.354 19.354C19.4479 19.2601 19.5006 19.1328 19.5006 19C19.5006 18.8672 19.4479 18.7399 19.354 18.646L18.5 17.793Z" fill="white"/>
<path d="M11.5 14H9.5C9.36739 14 9.24021 14.0527 9.14645 14.1464C9.05268 14.2402 9 14.3674 9 14.5V16.5C9 16.6326 9.05268 16.7598 9.14645 16.8536C9.24021 16.9473 9.36739 17 9.5 17H11.5C11.6326 17 11.7598 16.9473 11.8536 16.8536C11.9473 16.7598 12 16.6326 12 16.5V14.5C12 14.3674 11.9473 14.2402 11.8536 14.1464C11.7598 14.0527 11.6326 14 11.5 14ZM11 16H10V15H11V16Z" fill="white"/>
<path d="M6.5 14H4.5C4.36739 14 4.24021 14.0527 4.14645 14.1464C4.05268 14.2402 4 14.3674 4 14.5V16.5C4 16.6326 4.05268 16.7598 4.14645 16.8536C4.24021 16.9473 4.36739 17 4.5 17H6.5C6.63261 17 6.75979 16.9473 6.85355 16.8536C6.94732 16.7598 7 16.6326 7 16.5V14.5C7 14.3674 6.94732 14.2402 6.85355 14.1464C6.75979 14.0527 6.63261 14 6.5 14ZM6 16H5V15H6V16Z" fill="white"/>
<path d="M14.5 12H16.5C16.6326 12 16.7598 11.9473 16.8536 11.8536C16.9473 11.7598 17 11.6326 17 11.5V9.5C17 9.36739 16.9473 9.24021 16.8536 9.14645C16.7598 9.05268 16.6326 9 16.5 9H14.5C14.3674 9 14.2402 9.05268 14.1464 9.14645C14.0527 9.24021 14 9.36739 14 9.5V11.5C14 11.6326 14.0527 11.7598 14.1464 11.8536C14.2402 11.9473 14.3674 12 14.5 12ZM15 10H16V11H15V10Z" fill="white"/>
<path d="M11.5 9H9.5C9.36739 9 9.24021 9.05268 9.14645 9.14645C9.05268 9.24021 9 9.36739 9 9.5V11.5C9 11.6326 9.05268 11.7598 9.14645 11.8536C9.24021 11.9473 9.36739 12 9.5 12H11.5C11.6326 12 11.7598 11.9473 11.8536 11.8536C11.9473 11.7598 12 11.6326 12 11.5V9.5C12 9.36739 11.9473 9.24021 11.8536 9.14645C11.7598 9.05268 11.6326 9 11.5 9ZM11 11H10V10H11V11Z" fill="white"/>
<path d="M6.5 9H4.5C4.36739 9 4.24021 9.05268 4.14645 9.14645C4.05268 9.24021 4 9.36739 4 9.5V11.5C4 11.6326 4.05268 11.7598 4.14645 11.8536C4.24021 11.9473 4.36739 12 4.5 12H6.5C6.63261 12 6.75979 11.9473 6.85355 11.8536C6.94732 11.7598 7 11.6326 7 11.5V9.5C7 9.36739 6.94732 9.24021 6.85355 9.14645C6.75979 9.05268 6.63261 9 6.5 9ZM6 11H5V10H6V11Z" fill="white"/>
</svg>
