<svg width="14" height="14" viewBox="0 0 14 14" fill="none" xmlns="http://www.w3.org/2000/svg">
<path d="M11.0827 2.33317H9.91602V1.74984C9.91602 1.59513 9.85456 1.44675 9.74516 1.33736C9.63577 1.22796 9.48739 1.1665 9.33268 1.1665C9.17797 1.1665 9.0296 1.22796 8.9202 1.33736C8.81081 1.44675 8.74935 1.59513 8.74935 1.74984V2.33317H5.24935V1.74984C5.24935 1.59513 5.18789 1.44675 5.07849 1.33736C4.9691 1.22796 4.82073 1.1665 4.66602 1.1665C4.51131 1.1665 4.36293 1.22796 4.25354 1.33736C4.14414 1.44675 4.08268 1.59513 4.08268 1.74984V2.33317H2.91602C2.45189 2.33317 2.00677 2.51755 1.67858 2.84573C1.35039 3.17392 1.16602 3.61904 1.16602 4.08317V11.0832C1.16602 11.5473 1.35039 11.9924 1.67858 12.3206C2.00677 12.6488 2.45189 12.8332 2.91602 12.8332H11.0827C11.5468 12.8332 11.9919 12.6488 12.3201 12.3206C12.6483 11.9924 12.8327 11.5473 12.8327 11.0832V4.08317C12.8327 3.61904 12.6483 3.17392 12.3201 2.84573C11.9919 2.51755 11.5468 2.33317 11.0827 2.33317ZM11.666 11.0832C11.666 11.2379 11.6046 11.3863 11.4952 11.4957C11.3858 11.605 11.2374 11.6665 11.0827 11.6665H2.91602C2.76131 11.6665 2.61293 11.605 2.50354 11.4957C2.39414 11.3863 2.33268 11.2379 2.33268 11.0832V6.99984H11.666V11.0832ZM11.666 5.83317H2.33268V4.08317C2.33268 3.92846 2.39414 3.78009 2.50354 3.67069C2.61293 3.5613 2.76131 3.49984 2.91602 3.49984H4.08268V4.08317C4.08268 4.23788 4.14414 4.38625 4.25354 4.49565C4.36293 4.60505 4.51131 4.6665 4.66602 4.6665C4.82073 4.6665 4.9691 4.60505 5.07849 4.49565C5.18789 4.38625 5.24935 4.23788 5.24935 4.08317V3.49984H8.74935V4.08317C8.74935 4.23788 8.81081 4.38625 8.9202 4.49565C9.0296 4.60505 9.17797 4.6665 9.33268 4.6665C9.48739 4.6665 9.63577 4.60505 9.74516 4.49565C9.85456 4.38625 9.91602 4.23788 9.91602 4.08317V3.49984H11.0827C11.2374 3.49984 11.3858 3.5613 11.4952 3.67069C11.6046 3.78009 11.666 3.92846 11.666 4.08317V5.83317Z" fill="#7C7F86"/>
</svg>
