<svg width="25" height="26" viewBox="0 0 25 26" fill="none" xmlns="http://www.w3.org/2000/svg">
<path d="M9.30037 8.05612C10.6391 6.53885 9.21111 4.48606 8.3186 3.05804C7.78309 2.25478 7.06909 1.0945 5.99808 1.00524C5.01631 0.915993 4.1238 1.98702 3.49904 2.61178C1.89252 4.0398 1.08925 5.91409 1 8.05612C1 8.32387 1 8.68086 1 8.32386C1.1785 9.57338 1.26776 10.8229 1.71401 11.9832C2.16027 13.1434 2.69577 14.2145 3.32053 15.1962C4.74855 17.3382 6.35507 19.391 8.3186 21.0868C10.1929 22.7826 12.3349 24.2106 14.8339 24.8353C17.1545 25.2816 19.475 24.8353 21.3493 23.3181C22.0633 22.7826 23.2236 21.9793 23.3128 20.9976C23.4021 20.0158 22.5988 19.3018 21.974 18.677C20.546 17.4275 18.4932 15.3747 16.619 16.892C15.905 17.5167 15.1017 18.5878 14.1199 18.7663C13.1382 18.9448 12.1564 18.2307 11.4424 17.606C9.83587 16.2672 8.31861 14.5714 7.33685 12.6972C6.97984 11.8939 6.62282 10.8229 7.15833 10.0196C7.60459 9.21637 8.58636 8.85938 9.30037 8.05612Z" stroke="#666566" stroke-width="1.4619" stroke-miterlimit="10"/>
</svg>
