<svg width="16" height="21" viewBox="0 0 16 21" fill="none" xmlns="http://www.w3.org/2000/svg">
<g clip-path="url(#clip0_2780_25623)">
<g clip-path="url(#clip1_2780_25623)">
<path d="M7.97779 5.45559C9.0701 5.45559 9.95559 4.5701 9.95559 3.47779C9.95559 2.38549 9.0701 1.5 7.97779 1.5C6.88549 1.5 6 2.38549 6 3.47779C6 4.5701 6.88549 5.45559 7.97779 5.45559Z" fill="#BEBEBE"/>
<path d="M7.97779 12.4126C9.0701 12.4126 9.95559 11.5271 9.95559 10.4348C9.95559 9.34252 9.0701 8.45703 7.97779 8.45703C6.88549 8.45703 6 9.34252 6 10.4348C6 11.5271 6.88549 12.4126 7.97779 12.4126Z" fill="#BEBEBE"/>
<path d="M7.97779 19.3657C9.0701 19.3657 9.95559 18.4803 9.95559 17.388C9.95559 16.2956 9.0701 15.4102 7.97779 15.4102C6.88549 15.4102 6 16.2956 6 17.388C6 18.4803 6.88549 19.3657 7.97779 19.3657Z" fill="#BEBEBE"/>
</g>
</g>
<defs>
<clipPath id="clip0_2780_25623">
<rect width="16" height="20" fill="white" transform="translate(0 0.5)"/>
</clipPath>
<clipPath id="clip1_2780_25623">
<rect width="15.9556" height="17.8668" fill="white" transform="translate(0 1.5)"/>
</clipPath>
</defs>
</svg>
