<svg width="100" height="100" viewBox="0 0 100 100" fill="none" xmlns="http://www.w3.org/2000/svg">
<g clip-path="url(#clip0_691_4608)">
<path d="M50 93.75C38.3968 93.75 27.2688 89.1406 19.0641 80.9359C10.8594 72.7312 6.25 61.6032 6.25 50C6.25 38.3968 10.8594 27.2688 19.0641 19.0641C27.2688 10.8594 38.3968 6.25 50 6.25C61.6032 6.25 72.7312 10.8594 80.9359 19.0641C89.1406 27.2688 93.75 38.3968 93.75 50C93.75 61.6032 89.1406 72.7312 80.9359 80.9359C72.7312 89.1406 61.6032 93.75 50 93.75ZM50 100C63.2608 100 75.9785 94.7322 85.3553 85.3553C94.7322 75.9785 100 63.2608 100 50C100 36.7392 94.7322 24.0215 85.3553 14.6447C75.9785 5.26784 63.2608 0 50 0C36.7392 0 24.0215 5.26784 14.6447 14.6447C5.26784 24.0215 0 36.7392 0 50C0 63.2608 5.26784 75.9785 14.6447 85.3553C24.0215 94.7322 36.7392 100 50 100Z" fill="#E3A130"/>
<path d="M68.5632 31.0616C68.5186 31.1047 68.4769 31.1506 68.4381 31.1991L46.7319 58.8553L33.6507 45.7678C32.7621 44.9398 31.5868 44.489 30.3724 44.5105C29.158 44.5319 27.9993 45.0239 27.1405 45.8827C26.2817 46.7415 25.7897 47.9002 25.7683 49.1146C25.7469 50.3289 26.1977 51.5042 27.0257 52.3928L43.5632 68.9366C44.0087 69.3813 44.5392 69.7317 45.1231 69.9669C45.7069 70.2021 46.3322 70.3173 46.9616 70.3057C47.5909 70.294 48.2115 70.1557 48.7863 69.899C49.361 69.6423 49.8782 69.2725 50.3069 68.8116L75.2569 37.6241C76.1065 36.7324 76.571 35.5422 76.55 34.3107C76.529 33.0793 76.0242 31.9056 75.1447 31.0434C74.2653 30.1812 73.0818 29.6997 71.8502 29.7031C70.6186 29.7065 69.4378 30.1945 68.5632 31.0616Z" fill="#E3A130"/>
</g>
<defs>
<clipPath id="clip0_691_4608">
<rect width="100" height="100" fill="white"/>
</clipPath>
</defs>
</svg>
