<svg width="20" height="20" viewBox="0 0 20 20" fill="none" xmlns="http://www.w3.org/2000/svg">
<rect x="0.5" y="0.5" width="19" height="19" rx="9.5" fill="#11D147"/>
<path d="M8.40933 13.75C8.32297 13.75 8.242 13.7359 8.16644 13.7077C8.09087 13.6795 8.0207 13.6321 7.95592 13.5654L5.17068 10.6795C5.05193 10.5565 4.99514 10.397 5.00032 10.201C5.00551 10.005 5.06769 9.84574 5.18687 9.72315C5.30562 9.60011 5.45676 9.53859 5.64028 9.53859C5.82381 9.53859 5.97494 9.60011 6.0937 9.72315L8.40933 12.1225L13.8989 6.43456C14.0176 6.31152 14.1716 6.25 14.3607 6.25C14.5498 6.25 14.7036 6.31152 14.8219 6.43456C14.9406 6.55761 15 6.71711 15 6.91309C15 7.10906 14.9406 7.26834 14.8219 7.39094L8.86275 13.5654C8.79797 13.6325 8.7278 13.6802 8.65223 13.7084C8.57666 13.7366 8.4957 13.7504 8.40933 13.75Z" fill="white"/>
<rect x="0.5" y="0.5" width="19" height="19" rx="9.5" stroke="#11D147"/>
</svg>
