<svg width="24" height="24" viewBox="0 0 24 24" fill="none" xmlns="http://www.w3.org/2000/svg">
<path d="M12.8582 0C12.8582 0.0966767 12.7615 0 12.7615 0C12.7615 0 12.7615 0 12.8582 0Z" fill="#29BA0F"/>
<path d="M23.8792 10.3826C23.4924 7.37454 22.0423 4.85166 19.722 2.81396C18.1752 1.45549 16.3384 0.582211 14.3082 0.194078C13.8248 0.0970451 13.3414 0.0970332 12.858 0H12.7613H12.6647H12.568H12.4713H12.3746C12.0846 0 11.7945 0 11.5045 0H11.4079H11.3112H11.2145H11.1178C11.0211 0 11.0212 0 10.9245 0C10.7311 0 10.5378 5.92099e-06 10.3444 0.0970391C8.31421 0.388139 6.38065 1.1644 4.73715 2.42583C3.48035 3.29913 2.51361 4.46352 1.7402 5.72495C0.966784 6.98639 0.386713 8.4419 0.0966826 9.8974C5.89924e-06 10.2855 0 10.6736 0 11.0618C0 11.1588 0 11.1588 0 11.2559V11.3529V11.4499V11.5469V11.644C0 11.741 0 11.838 0 11.9351C0 12.0321 0 12.0321 0 12.1292C0 12.2262 0 12.3232 0 12.4202V12.5173V12.6143V12.7114C0 12.8084 0 12.8084 0 12.9054V13.0024C0 13.6817 0.0966944 14.3609 0.290048 15.0401C0.966784 17.466 2.22358 19.4067 4.06043 21.0562C5.22055 22.0266 6.57403 22.8028 8.02418 23.385C9.66769 23.9672 11.4079 24.0643 13.148 23.9672C14.9849 23.7732 16.6284 23.1909 18.2719 22.2206C19.3353 21.5414 20.2054 20.7651 21.0755 19.7948C21.9456 18.7274 22.6223 17.563 23.2024 16.3016C23.6858 15.1372 23.9758 13.9728 23.9758 12.8084C23.9758 12.0321 24.0725 11.1588 23.8792 10.3826ZM18.1752 9.3152C18.0786 9.41223 18.0785 9.41221 17.9819 9.50924C15.9517 11.5469 13.8248 13.6817 11.7946 15.7194C11.2145 16.3016 10.7311 16.3016 10.1511 15.7194C9.08761 14.652 8.12086 13.6817 7.05742 12.6143C6.47736 12.0321 6.6707 11.1588 7.44412 10.9647C7.54079 10.9647 7.63746 10.9648 7.73413 10.8677C8.02416 10.8677 8.31421 11.0618 8.50757 11.2559C9.28098 12.0321 10.0544 12.8084 10.8278 13.5847C10.9245 13.6817 11.0211 13.6817 11.1178 13.5847C12.9547 11.741 14.7915 9.8974 16.6284 7.95674C16.9184 7.66564 17.2085 7.56858 17.5952 7.56858C18.2719 7.85968 18.6586 8.733 18.1752 9.3152Z" fill="#29BA0F"/>
</svg>
