<svg width="24" height="24" viewBox="0 0 24 24" fill="none" xmlns="http://www.w3.org/2000/svg">
<g clip-path="url(#clip0_3032_36210)">
<path d="M7.15104 8.67889V6.28581H6.73403C6.62433 6.28563 6.51542 6.26719 6.41176 6.23125C5.94301 6.442 5.58301 6.92937 5.58301 7.46553C5.58301 8.23231 6.29369 8.86133 7.15324 8.76697C7.1524 8.73763 7.15104 8.70833 7.15104 8.67889ZM14.5558 6.15625C14.4489 6.23711 14.3165 6.28581 14.1728 6.28581C14.0883 6.28579 14.004 6.27693 13.9214 6.25938V8.67889C13.9214 8.70861 13.9199 8.73796 13.9191 8.76744C14.7779 8.85876 15.4895 8.22988 15.4895 7.46103C15.4895 6.87818 15.1099 6.33156 14.5558 6.15625Z" stroke="black" stroke-width="1.1" stroke-miterlimit="10" stroke-linecap="round" stroke-linejoin="round"/>
<path d="M4.75391 23.5225V17.5595M12.9561 5.071C12.9561 5.0058 12.8688 4.9833 12.838 5.04082C12.4413 5.78285 11.6594 6.28789 10.7592 6.28789H7.15121V8.68097C7.15121 10.425 8.51767 12.0178 10.5847 12.0178C12.4247 12.0178 13.9216 10.5209 13.9216 8.68097V6.26145C13.3719 6.14482 12.9561 5.65418 12.9561 5.071Z" stroke="black" stroke-width="1.1" stroke-miterlimit="10" stroke-linecap="round" stroke-linejoin="round"/>
<path d="M9.88087 15.7325C9.88952 15.6331 9.86108 15.5341 9.80104 15.4545L8.00098 13.06L8.51895 12.8577C8.59611 12.8053 8.66314 12.7232 8.66314 12.5838V11.4688C9.19335 11.8116 9.84355 12.0171 10.5844 12.0171C11.2563 12.0171 11.882 11.8168 12.4062 11.4737L12.4071 12.5858C12.4073 12.654 12.428 12.7204 12.4666 12.7766C12.5052 12.8327 12.5598 12.8759 12.6234 12.9005L13.0631 13.0708L11.2712 15.4545C11.2112 15.5341 11.1828 15.6331 11.1914 15.7325M9.88087 15.7325H11.1914M9.88087 15.7325C9.87554 15.7967 9.85496 15.8587 9.82083 15.9134C9.7867 15.968 9.74001 16.0137 9.68465 16.0467L9.66805 16.0566V19.1402C9.66805 19.4328 9.90524 19.67 10.1978 19.67H10.8663C11.1589 19.67 11.3961 19.4328 11.3961 19.1402V16.0517L11.3876 16.0467C11.3323 16.0137 11.2856 15.968 11.2515 15.9134C11.2173 15.8587 11.1967 15.7967 11.1914 15.7325" stroke="black" stroke-width="1.1" stroke-miterlimit="10" stroke-linecap="round" stroke-linejoin="round"/>
<path d="M13.0638 13.0721L11.2719 15.4558C11.127 15.6485 11.1812 15.9244 11.3882 16.048L12.2579 16.5671C12.3452 16.6192 12.4488 16.6366 12.5483 16.616C12.6478 16.5953 12.7359 16.5381 12.7952 16.4556L14.7571 13.7279L13.0638 13.0721ZM9.80168 15.4558L8.00162 13.0612L6.31167 13.7213L8.27828 16.4556C8.33762 16.5381 8.42575 16.5953 8.52524 16.6159C8.62474 16.6366 8.72835 16.6191 8.81561 16.567L9.68529 16.048C9.89238 15.9244 9.94662 15.6485 9.80168 15.4558ZM1.8916 18.9135H4.75428V20.601H1.8916V18.9135ZM20.1088 12.3125H16.7946C16.7429 12.3125 16.6916 12.3227 16.6438 12.3425C16.596 12.3623 16.5526 12.3913 16.516 12.4279C16.4794 12.4645 16.4504 12.5079 16.4306 12.5557C16.4108 12.6035 16.4006 12.6548 16.4007 12.7065V13.3918C16.4007 13.4963 16.4422 13.5965 16.516 13.6704C16.5899 13.7442 16.6901 13.7857 16.7946 13.7857H20.1088C20.2133 13.7857 20.3135 13.7442 20.3874 13.6703C20.4612 13.5965 20.5027 13.4963 20.5028 13.3918V12.7065C20.5028 12.602 20.4613 12.5018 20.3874 12.4279C20.3135 12.354 20.2133 12.3125 20.1088 12.3125Z" stroke="black" stroke-width="1.1" stroke-miterlimit="10" stroke-linecap="round" stroke-linejoin="round"/>
<path d="M16.9395 13.8301V14.3796C16.9395 14.8538 17.324 15.2383 17.7983 15.2383H19.1045C19.5787 15.2383 19.9632 14.8538 19.9632 14.3796V13.8301M14.7937 22.9449V13.7491C14.7937 13.746 14.7942 13.743 14.7942 13.7399L14.7568 13.7254L12.7949 16.453C12.7355 16.5355 12.6474 16.5927 12.5479 16.6134C12.4484 16.634 12.3448 16.6166 12.2576 16.5645L11.3879 16.0454C11.3325 16.0124 11.2858 15.9667 11.2517 15.9121C11.2176 15.8574 11.197 15.7954 11.1917 15.7312H9.88111C9.87577 15.7954 9.85518 15.8574 9.82105 15.9121C9.78692 15.9667 9.74024 16.0124 9.68489 16.0454L8.81521 16.5645C8.72795 16.6166 8.62433 16.634 8.52483 16.6134C8.42533 16.5927 8.33719 16.5355 8.27783 16.453L6.31123 13.7188L3.72108 14.7304C2.93873 15.0524 1.89111 16.0654 1.89111 17.5687V23.0377C1.89111 23.3745 2.16416 23.6475 2.50091 23.6475H15.4962C15.1083 23.6475 14.7937 23.3329 14.7937 22.9449Z" stroke="black" stroke-width="1.1" stroke-miterlimit="10" stroke-linecap="round" stroke-linejoin="round"/>
<path d="M19.2719 23.6484H21.4067C21.7947 23.6484 22.1092 23.3339 22.1092 22.9459V13.75C22.1092 13.3621 21.7947 13.0475 21.4067 13.0475H20.5027V13.3902C20.5027 13.4947 20.4612 13.5949 20.3873 13.6687C20.3134 13.7426 20.2132 13.7841 20.1087 13.7841H16.7945C16.69 13.7841 16.5898 13.7426 16.516 13.6687C16.4421 13.5949 16.4006 13.4947 16.4006 13.3902V13.0475H15.4965C15.1085 13.0475 14.794 13.3621 14.794 13.75V22.9459C14.794 23.3339 15.1085 23.6484 15.4965 23.6484H17.6313M14.8112 3.3192V2.94996C14.8112 2.31409 14.2564 1.85195 13.705 1.89432C13.3862 1.91884 13.0937 1.71835 13.0323 1.40452C12.929 0.876051 12.6673 0.351562 11.6452 0.351562H8.09885C6.79731 0.351562 5.74219 1.40668 5.74219 2.70817V5.29457C5.74219 5.84259 6.18643 6.28683 6.73445 6.28683H10.7594C11.6596 6.28683 12.4415 5.78179 12.8383 5.03976C12.869 4.98224 12.9564 5.00469 12.9564 5.06994C12.9564 5.73928 13.504 6.28687 14.1733 6.28687C14.5241 6.28687 14.8112 5.99981 14.8112 5.64899V4.95988" stroke="black" stroke-width="1.1" stroke-miterlimit="10" stroke-linecap="round" stroke-linejoin="round"/>
</g>
<defs>
<clipPath id="clip0_3032_36210">
<rect width="24" height="24" fill="white"/>
</clipPath>
</defs>
</svg>
