<svg width="24" height="24" viewBox="0 0 24 24" fill="none" xmlns="http://www.w3.org/2000/svg">
<g clip-path="url(#clip0_2574_7872)">
<path fill-rule="evenodd" clip-rule="evenodd" d="M14.0323 12.5025H4.65771C4.50853 12.5025 4.36546 12.4433 4.25997 12.3378C4.15448 12.2323 4.09521 12.0892 4.09521 11.94C4.09521 11.7908 4.15448 11.6478 4.25997 11.5423C4.36546 11.4368 4.50853 11.3775 4.65771 11.3775H14.0323C14.1815 11.3775 14.3246 11.4368 14.4301 11.5423C14.5356 11.6478 14.5948 11.7908 14.5948 11.94C14.5948 12.0892 14.5356 12.2323 14.4301 12.3378C14.3246 12.4433 14.1815 12.5025 14.0323 12.5025ZM4.09484 9.11673C4.09491 8.96757 4.1542 8.82454 4.25967 8.71907C4.36515 8.6136 4.50818 8.55431 4.65734 8.55423H11.4683C11.6175 8.55423 11.7605 8.6135 11.866 8.71899C11.9715 8.82448 12.0308 8.96755 12.0308 9.11673C12.0308 9.26592 11.9715 9.40899 11.866 9.51448C11.7605 9.61997 11.6175 9.67923 11.4683 9.67923H4.65729C4.50815 9.67908 4.36517 9.61977 4.25971 9.51432C4.15425 9.40886 4.09499 9.26587 4.09484 9.11673ZM19.1937 20.5388L22.6411 21.4627L21.7189 18.0145C21.6993 17.9432 21.694 17.8687 21.7035 17.7954C21.713 17.7221 21.7371 17.6514 21.7743 17.5875C22.3789 16.5385 22.7447 15.3689 22.8453 14.1623C22.946 12.9557 22.7792 11.7417 22.3567 10.607C21.9343 9.47227 21.2666 8.44477 20.4013 7.59777C19.5361 6.75078 18.4946 6.10517 17.3511 5.707C19.5135 9.29856 19.048 14.0414 15.9532 17.136C14.2359 18.8522 11.9183 19.8332 9.49067 19.8713C10.7832 20.9137 12.3608 21.5408 14.0163 21.6699C15.6718 21.7991 17.3276 21.4244 18.7662 20.595C18.8303 20.558 18.901 20.5339 18.9743 20.5243C19.0477 20.5146 19.1222 20.5195 19.1937 20.5387V20.5388ZM4.95162 17.5725C5.05056 17.5724 5.14776 17.5984 5.23339 17.648C6.80109 18.5517 8.62301 18.9134 10.4171 18.6771C12.2111 18.4407 13.8772 17.6195 15.1573 16.3406C18.3626 13.1358 18.3626 7.92091 15.1573 4.71559C11.9521 1.51028 6.73761 1.5108 3.53234 4.71559C2.25343 5.99585 1.43228 7.66204 1.19604 9.45616C0.959801 11.2503 1.32165 13.0722 2.22556 14.6399C2.3002 14.7694 2.32043 14.9231 2.28181 15.0675L1.35785 18.5156L4.80598 17.5912C4.85355 17.5787 4.90253 17.5724 4.95171 17.5725H4.95162ZM22.8645 17.9447C23.5726 16.6432 23.9611 15.1919 23.9981 13.7107C24.0351 12.2295 23.7194 10.7607 23.0772 9.42545C22.435 8.09019 21.4846 6.92671 20.3043 6.03096C19.124 5.13521 17.7478 4.53284 16.2889 4.27352C16.1806 4.15352 16.0687 4.03572 15.9532 3.92012C12.3092 0.276625 6.38046 0.276625 2.73687 3.92012C1.31165 5.34723 0.385774 7.19669 0.0972457 9.19284C-0.191283 11.189 0.172988 13.2249 1.13576 14.9972L0.0189642 19.1653C-0.00322724 19.2487 -0.0059831 19.336 0.0109091 19.4206C0.0278013 19.5052 0.0638904 19.5848 0.116394 19.6532C0.168898 19.7216 0.236415 19.7771 0.31374 19.8153C0.391065 19.8535 0.476133 19.8735 0.562386 19.8736C0.61159 19.8735 0.660571 19.867 0.70812 19.8543L4.87582 18.7373C5.76091 19.2202 6.71877 19.5557 7.71176 19.7306C7.82037 19.8511 7.93245 19.9697 8.04682 20.0836C9.47371 21.5092 11.3232 22.4353 13.3195 22.7239C15.3158 23.0125 17.3518 22.648 19.124 21.6848L23.2912 22.8014C23.3866 22.827 23.4871 22.827 23.5826 22.8015C23.678 22.776 23.765 22.7258 23.835 22.6561C23.9045 22.5861 23.9546 22.4991 23.9802 22.4039C24.0059 22.3086 24.0062 22.2083 23.9811 22.1128L22.8645 17.9447Z" fill="#7C7F86"/>
</g>
<defs>
<clipPath id="clip0_2574_7872">
<rect width="24" height="24" fill="white"/>
</clipPath>
</defs>
</svg>
