<svg width="22" height="22" viewBox="0 0 22 22" fill="none" xmlns="http://www.w3.org/2000/svg">
<path d="M22 11C22 4.90096 17.0355 0 11.0001 0C4.96465 0 0 4.90096 0 11C0 17.099 4.96465 22 11.0001 22C13.239 22 15.3805 21.3465 17.1327 20.1485L21.9027 21.891L20.3452 16.6633C21.3186 15.1386 22 13.1782 22 11ZM20.3452 20.2574L16.9381 18.9504L16.5487 19.1683C14.8938 20.2574 12.947 20.9109 10.9027 20.9109C5.35406 20.9109 0.876131 16.4455 0.876131 11C0.876131 5.55443 5.35406 1.08911 10.9027 1.08911C16.4514 1.08911 20.9292 5.55443 20.9292 11C20.9292 12.8515 20.4425 14.594 19.469 16.1188L19.1771 16.5545L20.3452 20.2574Z" fill="#BABABA"/>
</svg>
