<svg width="26" height="26" viewBox="0 0 26 26" fill="none" xmlns="http://www.w3.org/2000/svg">
<g clip-path="url(#clip0_7773_103040)">
<path d="M21.3572 17.6406H23.2143C23.7068 17.6406 24.1792 17.445 24.5275 17.0967C24.8758 16.7484 25.0714 16.276 25.0714 15.7835V12.9978C25.0714 12.5052 24.8758 12.0329 24.5275 11.6846C24.1792 11.3363 23.7068 11.1406 23.2143 11.1406H21.3572C21.1109 11.1406 20.8747 11.2385 20.7006 11.4126C20.5264 11.5867 20.4286 11.8229 20.4286 12.0692V16.7121C20.4286 16.9583 20.5264 17.1945 20.7006 17.3687C20.8747 17.5428 21.1109 17.6406 21.3572 17.6406ZM21.3572 17.6406V19.0335C21.3572 20.0186 20.9658 20.9633 20.2693 21.6599C19.5727 22.3564 18.628 22.7478 17.6429 22.7478M2.78573 11.1406H4.64287C4.88915 11.1406 5.12533 11.2385 5.29947 11.4126C5.47361 11.5867 5.57145 11.8229 5.57145 12.0692V16.7121C5.57145 16.9583 5.47361 17.1945 5.29947 17.3687C5.12533 17.5428 4.88915 17.6406 4.64287 17.6406H2.78573C2.29319 17.6406 1.82082 17.445 1.47253 17.0967C1.12425 16.7484 0.928589 16.276 0.928589 15.7835V12.9978C0.928589 12.5052 1.12425 12.0329 1.47253 11.6846C1.82082 11.3363 2.29319 11.1406 2.78573 11.1406Z" stroke="#252A36" stroke-width="1.5" stroke-linecap="round" stroke-linejoin="round"/>
<path d="M4.64282 11.144V9.28683C4.64282 7.07038 5.5233 4.94471 7.09057 3.37744C8.65784 1.81017 10.7835 0.929687 13 0.929688C15.2164 0.929688 17.3421 1.81017 18.9094 3.37744C20.4766 4.94471 21.3571 7.07038 21.3571 9.28683V11.144M10.2143 7.42969V10.2154M15.7857 7.42969V10.2154M10.2143 13.9297C10.2143 16.3997 15.7857 16.3997 15.7857 13.9297M15.3214 20.4297C15.9371 20.4297 16.5275 20.6743 16.9629 21.1096C17.3982 21.545 17.6428 22.1354 17.6428 22.7511C17.6428 23.3668 17.3982 23.9573 16.9629 24.3926C16.5275 24.828 15.9371 25.0725 15.3214 25.0725H12.5357C11.92 25.0725 11.3295 24.828 10.8942 24.3926C10.4588 23.9573 10.2143 23.3668 10.2143 22.7511C10.2143 22.1354 10.4588 21.545 10.8942 21.1096C11.3295 20.6743 11.92 20.4297 12.5357 20.4297H15.3214Z" stroke="#252A36" stroke-width="1.5" stroke-linecap="round" stroke-linejoin="round"/>
</g>
<defs>
<clipPath id="clip0_7773_103040">
<rect width="26" height="26" fill="white"/>
</clipPath>
</defs>
</svg>
