<svg width="30" height="24" viewBox="0 0 30 24" fill="none" xmlns="http://www.w3.org/2000/svg">
<g clip-path="url(#clip0_7015_101402)">
<path d="M27.6903 5.09664L28.9092 4.48416C29.335 4.27008 29.6 3.83904 29.6 3.36C29.6 2.88096 29.335 2.44992 28.9092 2.23584L24.4611 0H2.3871C1.07085 0 0 1.07664 0 2.4V4.32C0.000893472 4.87295 0.191292 5.4087 0.539129 5.83702C0.886966 6.26533 1.37099 6.56005 1.90968 6.67152V21.12H0V22.56C0 23.3539 0.642606 24 1.43226 24H14.3226H28.1677C28.9574 24 29.6 23.3539 29.6 22.56V21.12H27.6903V5.09664ZM28.6452 3.36C28.6453 3.41516 28.6301 3.46927 28.6013 3.51619C28.5724 3.56311 28.531 3.60095 28.4819 3.62544L24.8258 5.46336V1.25664L28.4819 3.09456C28.531 3.11905 28.5724 3.1569 28.6013 3.20381C28.6301 3.25073 28.6453 3.30484 28.6452 3.36ZM23.871 2.88H7.63871V0.96H23.871V2.88ZM6.68387 5.76H5.72903V0.96H6.68387V5.76ZM7.63871 3.84H23.871V5.76H7.63871V3.84ZM0.954839 4.32V2.4C0.954839 1.60608 1.59744 0.96 2.3871 0.96H4.77419V5.76H2.3871C1.59744 5.76 0.954839 5.11392 0.954839 4.32ZM2.86452 6.72H24.4611L26.7355 5.57664V21.12H2.86452V6.72ZM28.6452 22.56C28.6452 22.8245 28.4313 23.04 28.1677 23.04H1.43226C1.16872 23.04 0.954839 22.8245 0.954839 22.56V22.08H28.6452V22.56Z" fill="black"/>
<path d="M19.5744 10.5625C17.732 10.5625 16.2324 12.0697 16.2324 13.9225C16.2324 15.7753 17.732 17.2825 19.5744 17.2825C21.4167 17.2825 22.9163 15.7753 22.9163 13.9225C22.9163 12.0697 21.4167 10.5625 19.5744 10.5625ZM19.5744 16.3225C18.2581 16.3225 17.1873 15.2459 17.1873 13.9225C17.1873 12.5991 18.2581 11.5225 19.5744 11.5225C20.8906 11.5225 21.9615 12.5991 21.9615 13.9225C21.9615 15.2459 20.8906 16.3225 19.5744 16.3225Z" fill="black"/>
<path d="M19.5743 12.4766C18.7847 12.4766 18.1421 13.1226 18.1421 13.9166C18.1421 14.7105 18.7847 15.3566 19.5743 15.3566C20.364 15.3566 21.0066 14.7105 21.0066 13.9166C21.0066 13.1226 20.364 12.4766 19.5743 12.4766ZM19.5743 14.3966C19.4514 14.391 19.3354 14.338 19.2503 14.2486C19.1653 14.1592 19.1178 14.0403 19.1178 13.9166C19.1178 13.7928 19.1653 13.6739 19.2503 13.5845C19.3354 13.4951 19.4514 13.4421 19.5743 13.4366C19.6973 13.4421 19.8133 13.4951 19.8984 13.5845C19.9834 13.6739 20.0309 13.7928 20.0309 13.9166C20.0309 14.0403 19.9834 14.1592 19.8984 14.2486C19.8133 14.338 19.6973 14.391 19.5743 14.3966Z" fill="black"/>
<path d="M24.7704 12.2786C24.701 12.2568 24.6372 12.2197 24.5838 12.17C24.5304 12.1204 24.4886 12.0594 24.4615 11.9915C24.4372 11.9286 24.4119 11.8667 24.3851 11.8048C24.3574 11.7379 24.3447 11.6657 24.3478 11.5933C24.3509 11.5208 24.3699 11.45 24.4033 11.3858C24.5432 11.1084 24.5923 10.7937 24.5435 10.4865C24.4947 10.1794 24.3506 9.89571 24.1316 9.67601L23.795 9.33809C23.5767 9.11786 23.2946 8.97278 22.9892 8.92363C22.6838 8.87448 22.3708 8.92379 22.0949 9.06449C21.9613 9.13361 21.8085 9.13985 21.6777 9.08273C21.6159 9.05578 21.5537 9.03001 21.491 9.00545C21.4237 8.97802 21.3633 8.93594 21.3141 8.88225C21.2649 8.82855 21.2281 8.76457 21.2065 8.69489C21.1104 8.39931 20.9237 8.1419 20.6732 7.95953C20.4227 7.77717 20.1212 7.67921 19.8119 7.67969H19.3364C19.0271 7.67931 18.7256 7.77737 18.4751 7.95982C18.2246 8.14227 18.0379 8.39974 17.9419 8.69537C17.8941 8.84033 17.791 8.95361 17.6583 9.00545C17.595 9.02988 17.5323 9.05581 17.4702 9.08321C17.4036 9.11107 17.3318 9.12388 17.2598 9.12073C17.1877 9.11758 17.1173 9.09854 17.0534 9.06497C16.7775 8.92442 16.4645 8.87519 16.1592 8.92433C15.8538 8.97348 15.5717 9.11847 15.3533 9.33857L15.0162 9.67697C14.7975 9.89662 14.6535 10.1802 14.6048 10.4871C14.5561 10.794 14.6052 11.1086 14.7451 11.3858C14.8133 11.5216 14.8196 11.6742 14.7627 11.8058C14.7365 11.8672 14.7112 11.9291 14.6864 11.993C14.6343 12.1274 14.5216 12.2315 14.377 12.279C14.0831 12.3756 13.8272 12.5633 13.6459 12.815C13.4646 13.0668 13.3672 13.3698 13.3677 13.6806V14.1587C13.3674 14.4697 13.465 14.7728 13.6464 15.0247C13.8279 15.2765 14.0839 15.4642 14.3779 15.5608C14.5221 15.6083 14.6343 15.7125 14.6868 15.8478C14.7112 15.9107 14.7365 15.9726 14.7632 16.0346C14.7909 16.1015 14.8037 16.1737 14.8005 16.2461C14.7974 16.3185 14.7785 16.3894 14.7451 16.4536C14.6051 16.7309 14.5561 17.0456 14.6049 17.3526C14.6537 17.6596 14.7978 17.9433 15.0167 18.1629L15.3533 18.5008C15.5717 18.721 15.8538 18.866 16.1592 18.9152C16.4645 18.9643 16.7776 18.915 17.0534 18.7744C17.188 18.7058 17.3403 18.6995 17.4707 18.7562C17.5322 18.783 17.5948 18.809 17.6573 18.8334C17.7905 18.8853 17.8941 18.999 17.9419 19.144C18.0378 19.4397 18.2244 19.6973 18.4749 19.8797C18.7255 20.0622 19.0271 20.1602 19.3364 20.1597H19.8119C20.1213 20.1601 20.4228 20.062 20.6733 19.8796C20.9238 19.6971 21.1104 19.4396 21.2065 19.144C21.2542 18.999 21.3573 18.8858 21.4901 18.8339C21.5535 18.8094 21.6161 18.7835 21.6782 18.7562C21.8085 18.699 21.9598 18.7058 22.0949 18.7744C22.3708 18.915 22.6838 18.9642 22.9892 18.915C23.2945 18.8659 23.5766 18.7209 23.795 18.5008L24.1316 18.1624C24.3505 17.9429 24.4946 17.6593 24.5434 17.3524C24.5922 17.0454 24.5432 16.7308 24.4033 16.4536C24.3697 16.3892 24.3507 16.3182 24.3477 16.2456C24.3446 16.173 24.3576 16.1006 24.3856 16.0336C24.4119 15.9722 24.4372 15.9102 24.462 15.8464C24.514 15.712 24.6267 15.6078 24.7714 15.5603C25.0652 15.4637 25.3211 15.2761 25.5024 15.0243C25.6837 14.7726 25.7811 14.4696 25.7806 14.1587V13.6806C25.7809 13.3697 25.6834 13.0666 25.5019 12.8147C25.3204 12.5629 25.0644 12.3752 24.7704 12.2786ZM24.8258 14.1587C24.8258 14.3819 24.6835 14.5787 24.473 14.6488C24.2696 14.7143 24.0834 14.8245 23.9276 14.9714C23.7719 15.1183 23.6506 15.2981 23.5726 15.4979C23.552 15.5498 23.531 15.6016 23.5091 15.6525C23.4252 15.8487 23.3855 16.061 23.3926 16.2744C23.3998 16.4878 23.4538 16.697 23.5506 16.887C23.6509 17.0862 23.6127 17.3267 23.4561 17.4842L23.1195 17.8226C23.0432 17.8995 22.9447 17.9502 22.838 17.9674C22.7313 17.9846 22.6219 17.9673 22.5256 17.9181C22.3367 17.8207 22.1287 17.7665 21.9165 17.7592C21.7043 17.752 21.4932 17.792 21.2981 17.8763C21.248 17.8979 21.1974 17.919 21.1454 17.9397C20.9465 18.0182 20.7674 18.1403 20.6212 18.2969C20.475 18.4535 20.3652 18.6409 20.2998 18.8454C20.266 18.9487 20.2006 19.0385 20.113 19.1021C20.0254 19.1657 19.92 19.1999 19.8119 19.1997H19.3364C19.1139 19.1997 18.9187 19.0571 18.849 18.844C18.7833 18.6395 18.6734 18.4522 18.527 18.2957C18.3806 18.1391 18.2015 18.0172 18.0025 17.9387C17.9517 17.9188 17.9013 17.898 17.8512 17.8763C17.6724 17.7979 17.4795 17.7576 17.2845 17.7578C17.0586 17.7578 16.8324 17.8115 16.6228 17.9176C16.4242 18.0184 16.1859 17.9795 16.0289 17.8216L15.6923 17.4837C15.6159 17.4068 15.5656 17.3076 15.5486 17.2003C15.5316 17.093 15.5488 16.983 15.5977 16.8861C15.6945 16.6961 15.7485 16.4871 15.7557 16.2738C15.763 16.0605 15.7234 15.8482 15.6398 15.652C15.6175 15.6011 15.5963 15.5497 15.5763 15.4979C15.4981 15.298 15.3767 15.118 15.2209 14.971C15.0651 14.824 14.8788 14.7136 14.6754 14.6478C14.5726 14.6144 14.4831 14.549 14.4197 14.4611C14.3563 14.3732 14.3223 14.2673 14.3226 14.1587V13.6806C14.3226 13.4574 14.4648 13.2606 14.6754 13.1906C14.8787 13.125 15.065 13.0148 15.2207 12.868C15.3764 12.7211 15.4977 12.5413 15.5758 12.3414C15.5963 12.2896 15.6173 12.2378 15.6393 12.1869C15.7231 11.9907 15.7629 11.7783 15.7557 11.5649C15.7485 11.3515 15.6946 11.1424 15.5977 10.9523C15.4975 10.7531 15.5357 10.5126 15.6923 10.3552L16.0289 10.0168C16.105 9.93964 16.2036 9.8888 16.3103 9.87163C16.4171 9.85446 16.5265 9.87185 16.6228 9.92129C16.8116 10.0189 17.0196 10.0732 17.2318 10.0804C17.444 10.0877 17.6552 10.0476 17.8502 9.96305C17.9003 9.94145 17.9509 9.92033 18.003 9.89969C18.2019 9.82114 18.3809 9.69913 18.5271 9.54248C18.6734 9.38583 18.7831 9.19846 18.8485 8.99393C18.8823 8.89072 18.9477 8.80088 19.0353 8.73727C19.1229 8.67365 19.2283 8.6395 19.3364 8.63969H19.8119C20.0344 8.63969 20.2297 8.78225 20.2994 8.99537C20.365 9.19986 20.475 9.38715 20.6214 9.54371C20.7677 9.70026 20.9469 9.82218 21.1458 9.90065C21.1969 9.92081 21.2475 9.94145 21.2972 9.96305C21.4923 10.0474 21.7035 10.0875 21.9158 10.0803C22.1281 10.073 22.3361 10.0188 22.5251 9.92129C22.6215 9.87206 22.7309 9.85483 22.8376 9.87208C22.9443 9.88933 23.0428 9.94017 23.119 10.0173L23.4551 10.3547C23.6122 10.5131 23.6504 10.7531 23.5501 10.9528C23.4533 11.1428 23.3994 11.3518 23.3921 11.5651C23.3849 11.7784 23.4245 11.9907 23.5081 12.1869C23.5305 12.2378 23.5515 12.2896 23.5716 12.341C23.6498 12.5409 23.7712 12.7209 23.927 12.8679C24.0828 13.0149 24.2691 13.1253 24.4725 13.191C24.684 13.2602 24.8258 13.4574 24.8258 13.6806V14.1587ZM3.81934 13.4397H12.4129V7.67969H3.81934V13.4397ZM4.77417 8.63969H11.458V12.4797H4.77417V8.63969ZM3.81934 20.1597H12.4129V14.3997H3.81934V20.1597ZM4.77417 15.3597H11.458V19.1997H4.77417V15.3597Z" fill="black"/>
</g>
<defs>
<clipPath id="clip0_7015_101402">
<rect width="29.6" height="24" fill="white"/>
</clipPath>
</defs>
</svg>
