<svg width="24" height="24" viewBox="0 0 24 24" fill="none" xmlns="http://www.w3.org/2000/svg">
<path d="M9.42913 16.6252L16.6291 11.9967L9.42913 7.36808V16.6252ZM12.0006 22.2824C10.5777 22.2824 9.24056 22.0122 7.98913 21.4719C6.7377 20.9322 5.64913 20.1995 4.72342 19.2738C3.7977 18.3481 3.06502 17.2595 2.52536 16.0081C1.98502 14.7567 1.71484 13.4195 1.71484 11.9967C1.71484 10.5738 1.98502 9.23665 2.52536 7.98522C3.06502 6.73379 3.7977 5.64522 4.72342 4.71951C5.64913 3.79379 6.7377 3.06077 7.98913 2.52042C9.24056 1.98077 10.5777 1.71094 12.0006 1.71094C13.4234 1.71094 14.7606 1.98077 16.012 2.52042C17.2634 3.06077 18.352 3.79379 19.2777 4.71951C20.2034 5.64522 20.9361 6.73379 21.4758 7.98522C22.0161 9.23665 22.2863 10.5738 22.2863 11.9967C22.2863 13.4195 22.0161 14.7567 21.4758 16.0081C20.9361 17.2595 20.2034 18.3481 19.2777 19.2738C18.352 20.1995 17.2634 20.9322 16.012 21.4719C14.7606 22.0122 13.4234 22.2824 12.0006 22.2824Z" fill="white"/>
</svg>
