<svg width="24" height="24" viewBox="0 0 24 24" fill="none" xmlns="http://www.w3.org/2000/svg">
<rect width="24" height="24" rx="12" fill="#CC4141"/>
<path d="M15.7117 15.7127C15.9395 15.4849 15.9395 15.1155 15.7117 14.8877L12.8247 12.0008L15.7125 9.113C15.9403 8.8852 15.9403 8.51585 15.7125 8.28804C15.4847 8.06024 15.1153 8.06024 14.8875 8.28804L11.9998 11.1758L9.11202 8.28804C8.88422 8.06024 8.51487 8.06024 8.28707 8.28804C8.05926 8.51585 8.05926 8.88519 8.28707 9.113L11.1748 12.0007L8.28786 14.8877C8.06005 15.1155 8.06005 15.4849 8.28786 15.7127C8.51566 15.9405 8.88501 15.9405 9.11282 15.7127L11.9998 12.8257L14.8867 15.7127C15.1145 15.9405 15.4839 15.9405 15.7117 15.7127Z" fill="white"/>
</svg>
