<svg width="18" height="18" viewBox="0 0 18 18" fill="none" xmlns="http://www.w3.org/2000/svg">
<circle cx="9" cy="9" r="8.4" fill="#E3A130" stroke="white" stroke-width="1.2"/>
<g clip-path="url(#clip0_5933_81908)">
<path d="M15.1084 7.67195C14.4852 7.17738 14.1674 6.41025 14.2584 5.61969C14.3179 5.10257 14.141 4.59491 13.773 4.22702C13.4049 3.85895 12.8973 3.68203 12.3803 3.74161C11.5894 3.8325 10.8226 3.5149 10.3281 2.89165C10.0046 2.48385 9.52051 2.25 9.00005 2.25C8.47953 2.25 7.9955 2.48385 7.67195 2.8916C7.17738 3.51481 6.41053 3.8325 5.61987 3.74166C5.10275 3.68193 4.5951 3.85895 4.22707 4.22698C3.85899 4.59491 3.68207 5.10257 3.74156 5.61978C3.83259 6.41021 3.51485 7.17734 2.89146 7.67199C2.48385 7.99554 2.25 8.47958 2.25 9C2.25 9.52042 2.4838 10.0045 2.89156 10.3281C3.51485 10.8227 3.83259 11.5898 3.74156 12.3804C3.68207 12.8975 3.85899 13.4051 4.22698 13.773C4.5951 14.1411 5.10312 14.3181 5.61974 14.2584C6.41025 14.1675 7.17738 14.4851 7.67195 15.1084C7.99545 15.5162 8.47949 15.75 9.00005 15.75C9.52051 15.75 10.0046 15.5162 10.3281 15.1084C10.8227 14.4852 11.5896 14.1676 12.3802 14.2584C12.8973 14.3178 13.405 14.1411 13.773 13.7731C14.1411 13.4051 14.318 12.8975 14.2585 12.3803C14.1675 11.5898 14.4852 10.8227 15.1086 10.3281C15.5162 10.0045 15.75 9.52047 15.75 9C15.75 8.47953 15.5162 7.99554 15.1084 7.67195Z" fill="white"/>
<path d="M13.1911 8.30645L12.3979 11.8114C12.3822 11.8847 12.3414 11.9503 12.2826 11.9968C12.2237 12.0433 12.1505 12.0678 12.0755 12.0661H5.89755C5.82256 12.0678 5.74934 12.0433 5.69049 11.9968C5.63164 11.9503 5.59084 11.8847 5.57511 11.8114L4.8077 8.30645C4.79478 8.24723 4.79882 8.18557 4.81935 8.12854C4.83988 8.0715 4.87608 8.02141 4.92378 7.98401C4.97161 7.94648 5.02908 7.92323 5.08955 7.91696C5.15003 7.91068 5.21104 7.92163 5.26556 7.94854L7.14861 8.86105L8.70923 6.10096C8.73735 6.05134 8.77813 6.01006 8.82741 5.98135C8.87669 5.95263 8.93271 5.9375 8.98975 5.9375C9.04679 5.9375 9.1028 5.95263 9.15209 5.98135C9.20137 6.01006 9.24215 6.05134 9.27027 6.10096L10.8309 8.86428L12.7268 7.94532C12.7817 7.91621 12.8439 7.90359 12.9058 7.90898C12.9677 7.91437 13.0268 7.93754 13.0758 7.97569C13.1249 8.01384 13.1619 8.06536 13.1823 8.12404C13.2028 8.18272 13.2058 8.24607 13.1911 8.30645Z" fill="#131A2C"/>
</g>
<defs>
<clipPath id="clip0_5933_81908">
<rect width="13.5" height="13.5" fill="white" transform="translate(2.25 2.25)"/>
</clipPath>
</defs>
</svg>
