<svg width="24" height="24" viewBox="0 0 24 24" fill="none" xmlns="http://www.w3.org/2000/svg">
<path d="M12.0001 10.478L4.05762 6.388L12.0001 2.25L19.9426 6.388L12.0001 10.478Z" stroke="black" stroke-width="1.5" stroke-linecap="round" stroke-linejoin="round"/>
<path d="M8.62332 8.71875C8.57582 9.00375 8.52832 9.24175 8.52832 9.52725C8.52832 11.4773 10.0983 12.9992 12.0003 12.9992C13.9023 12.9992 15.4723 11.4293 15.4723 9.52725C15.4723 9.24175 15.4248 9.00375 15.3773 8.71875" stroke="black" stroke-width="1.5" stroke-linecap="round" stroke-linejoin="round"/>
<path d="M11.9996 21.7508C15.9134 21.7508 19.0861 20.2601 19.0861 18.4213C19.0861 16.5825 15.9134 15.0918 11.9996 15.0918C8.08582 15.0918 4.91309 16.5825 4.91309 18.4213C4.91309 20.2601 8.08582 21.7508 11.9996 21.7508Z" stroke="black" stroke-width="1.5" stroke-linecap="round" stroke-linejoin="round"/>
<path d="M4.05762 6.3877V10.9532" stroke="black" stroke-width="1.5" stroke-linecap="round" stroke-linejoin="round"/>
</svg>
