<svg width="21" height="20" viewBox="0 0 21 20" fill="none" xmlns="http://www.w3.org/2000/svg">
<g clip-path="url(#clip0_8564_118430)">
<path d="M17.1667 4.16406C17.3877 4.16406 17.5996 4.25186 17.7559 4.40814C17.9122 4.56442 18 4.77638 18 4.9974C18 5.21841 17.9122 5.43037 17.7559 5.58665C17.5996 5.74293 17.3877 5.83073 17.1667 5.83073H16.3333L16.3308 5.8899L15.5533 16.7824C15.5234 17.2029 15.3352 17.5964 15.0268 17.8837C14.7183 18.171 14.3124 18.3307 13.8908 18.3307H7.10833C6.68678 18.3307 6.28089 18.171 5.9724 17.8837C5.66392 17.5964 5.47576 17.2029 5.44583 16.7824L4.66833 5.89073C4.66707 5.87076 4.66651 5.85074 4.66667 5.83073H3.83333C3.61232 5.83073 3.40036 5.74293 3.24408 5.58665C3.0878 5.43037 3 5.21841 3 4.9974C3 4.77638 3.0878 4.56442 3.24408 4.40814C3.40036 4.25186 3.61232 4.16406 3.83333 4.16406H17.1667ZM12.1667 1.66406C12.3877 1.66406 12.5996 1.75186 12.7559 1.90814C12.9122 2.06442 13 2.27638 13 2.4974C13 2.71841 12.9122 2.93037 12.7559 3.08665C12.5996 3.24293 12.3877 3.33073 12.1667 3.33073H8.83333C8.61232 3.33073 8.40036 3.24293 8.24408 3.08665C8.0878 2.93037 8 2.71841 8 2.4974C8 2.27638 8.0878 2.06442 8.24408 1.90814C8.40036 1.75186 8.61232 1.66406 8.83333 1.66406H12.1667Z" fill="#CC4141"/>
</g>
<defs>
<clipPath id="clip0_8564_118430">
<rect width="20" height="20" fill="white" transform="translate(0.5)"/>
</clipPath>
</defs>
</svg>
