<svg width="4" height="18" viewBox="0 0 4 18" fill="none" xmlns="http://www.w3.org/2000/svg">
<g clip-path="url(#clip0_2661_18626)">
<path d="M2 4C3.10456 4 4 3.10457 4 2C4 0.895428 3.10456 0 2 0C0.895438 0 0 0.895428 0 2C0 3.10457 0.895438 4 2 4Z" fill="#252A36"/>
<path d="M2 11C3.10456 11 4 10.1046 4 9C4 7.89543 3.10456 7 2 7C0.895438 7 0 7.89543 0 9C0 10.1046 0.895438 11 2 11Z" fill="#252A36"/>
<path d="M2 18C3.10456 18 4 17.1046 4 16C4 14.8954 3.10456 14 2 14C0.895438 14 0 14.8954 0 16C0 17.1046 0.895438 18 2 18Z" fill="#252A36"/>
<g filter="url(#filter0_d_2661_18626)">
<rect x="-80" y="25" width="320" height="168" rx="20" fill="white"/>
</g>
</g>
<defs>
<filter id="filter0_d_2661_18626" x="-88" y="17" width="336" height="184" filterUnits="userSpaceOnUse" color-interpolation-filters="sRGB">
<feFlood flood-opacity="0" result="BackgroundImageFix"/>
<feColorMatrix in="SourceAlpha" type="matrix" values="0 0 0 0 0 0 0 0 0 0 0 0 0 0 0 0 0 0 127 0" result="hardAlpha"/>
<feOffset/>
<feGaussianBlur stdDeviation="4"/>
<feComposite in2="hardAlpha" operator="out"/>
<feColorMatrix type="matrix" values="0 0 0 0 0 0 0 0 0 0 0 0 0 0 0 0 0 0 0.15 0"/>
<feBlend mode="normal" in2="BackgroundImageFix" result="effect1_dropShadow_2661_18626"/>
<feBlend mode="normal" in="SourceGraphic" in2="effect1_dropShadow_2661_18626" result="shape"/>
</filter>
<clipPath id="clip0_2661_18626">
<rect width="4" height="18" fill="white"/>
</clipPath>
</defs>
</svg>
