<svg width="7" height="28" viewBox="0 0 7 28" fill="none" xmlns="http://www.w3.org/2000/svg">
<path d="M3.60022 6.79999C5.47799 6.79999 7.00024 5.27776 7.00024 3.39999C7.00024 1.52223 5.47799 0 3.60022 0C1.72245 0 0.200195 1.52223 0.200195 3.39999C0.200195 5.27776 1.72245 6.79999 3.60022 6.79999Z" fill="url(#paint0_linear_1996_5890)"/>
<path d="M3.60022 17.4016C5.47799 17.4016 7.00024 15.8793 7.00024 14.0016C7.00024 12.1238 5.47799 10.6016 3.60022 10.6016C1.72245 10.6016 0.200195 12.1238 0.200195 14.0016C0.200195 15.8793 1.72245 17.4016 3.60022 17.4016Z" fill="url(#paint1_linear_1996_5890)"/>
<path d="M3.60022 27.9992C5.47799 27.9992 7.00024 26.477 7.00024 24.5992C7.00024 22.7215 5.47799 21.1992 3.60022 21.1992C1.72245 21.1992 0.200195 22.7215 0.200195 24.5992C0.200195 26.477 1.72245 27.9992 3.60022 27.9992Z" fill="url(#paint2_linear_1996_5890)"/>
<defs>
<linearGradient id="paint0_linear_1996_5890" x1="0.225295" y1="3.37349" x2="6.93364" y2="3.37349" gradientUnits="userSpaceOnUse">
<stop stop-color="#0E3049"/>
<stop offset="1" stop-color="#01152B"/>
</linearGradient>
<linearGradient id="paint1_linear_1996_5890" x1="0.225295" y1="13.9799" x2="6.93364" y2="13.9799" gradientUnits="userSpaceOnUse">
<stop stop-color="#0E3049"/>
<stop offset="1" stop-color="#01152B"/>
</linearGradient>
<linearGradient id="paint2_linear_1996_5890" x1="0.225295" y1="24.5822" x2="6.93364" y2="24.5822" gradientUnits="userSpaceOnUse">
<stop stop-color="#0E3049"/>
<stop offset="1" stop-color="#01152B"/>
</linearGradient>
</defs>
</svg>
