<svg width="24" height="24" viewBox="0 0 24 24" fill="none" xmlns="http://www.w3.org/2000/svg">
<path fill-rule="evenodd" clip-rule="evenodd" d="M12.25 2.834C11.79 2.756 11.162 2.75 10.03 2.75C8.113 2.75 6.75 2.752 5.718 2.89C4.706 3.025 4.125 3.28 3.702 3.702C3.279 4.125 3.025 4.705 2.89 5.711C2.752 6.739 2.75 8.093 2.75 10.001V14.001C2.75 15.907 2.752 17.261 2.89 18.289C3.025 19.295 3.279 19.875 3.702 20.299C4.125 20.721 4.705 20.975 5.711 21.11C6.739 21.249 8.093 21.25 10 21.25H14C15.907 21.25 17.262 21.248 18.29 21.11C19.295 20.975 19.875 20.721 20.298 20.298C20.721 19.875 20.975 19.295 21.11 18.289C21.248 17.262 21.25 15.907 21.25 14V13.563C21.25 12.027 21.24 11.299 21.076 10.75H17.946C16.813 10.75 15.888 10.75 15.156 10.652C14.393 10.549 13.731 10.327 13.202 9.798C12.673 9.269 12.451 8.608 12.348 7.843C12.25 7.113 12.25 6.187 12.25 5.053V2.834ZM13.75 3.61V5C13.75 6.2 13.752 7.024 13.835 7.643C13.915 8.241 14.059 8.534 14.263 8.737C14.466 8.941 14.759 9.085 15.357 9.165C15.976 9.248 16.8 9.25 18 9.25H20.02C19.6363 8.88459 19.2462 8.52587 18.85 8.174L14.891 4.611C14.5175 4.26961 14.1371 3.93587 13.75 3.61ZM10.175 1.25C11.56 1.25 12.455 1.25 13.278 1.565C14.101 1.881 14.763 2.477 15.788 3.4L15.895 3.496L19.853 7.059L19.978 7.171C21.162 8.236 21.928 8.925 22.339 9.849C22.751 10.773 22.751 11.803 22.75 13.395V14.056C22.75 15.894 22.75 17.35 22.597 18.489C22.439 19.661 22.107 20.61 21.359 21.359C20.61 22.107 19.661 22.439 18.489 22.597C17.349 22.75 15.894 22.75 14.056 22.75H9.944C8.106 22.75 6.65 22.75 5.511 22.597C4.339 22.439 3.39 22.107 2.641 21.359C1.893 20.61 1.561 19.661 1.403 18.489C1.25 17.349 1.25 15.894 1.25 14.056V9.944C1.25 8.106 1.25 6.65 1.403 5.511C1.561 4.339 1.893 3.39 2.641 2.641C3.391 1.892 4.342 1.561 5.519 1.403C6.663 1.25 8.126 1.25 9.974 1.25H10.175Z" fill="#252A36"/>
<path fill-rule="evenodd" clip-rule="evenodd" d="M7.98724 19.047C8.12626 19.1773 8.30968 19.2499 8.50024 19.2499C8.69081 19.2499 8.87423 19.1773 9.01324 19.047L11.0132 17.172C11.1549 17.0351 11.2371 16.848 11.242 16.6511C11.2468 16.4541 11.174 16.2632 11.0392 16.1195C10.9045 15.9758 10.7186 15.8909 10.5218 15.8831C10.3249 15.8754 10.1329 15.9454 9.98724 16.078L9.25024 16.768V13.5C9.25024 13.3011 9.17123 13.1103 9.03057 12.9697C8.88992 12.829 8.69916 12.75 8.50024 12.75C8.30133 12.75 8.11057 12.829 7.96991 12.9697C7.82926 13.1103 7.75024 13.3011 7.75024 13.5V16.769L7.01324 16.078C6.94174 16.0089 6.85721 15.9548 6.76457 15.9187C6.67194 15.8825 6.57305 15.8652 6.47366 15.8677C6.37427 15.8701 6.27636 15.8923 6.18563 15.933C6.09489 15.9736 6.01314 16.0319 5.94513 16.1044C5.87712 16.1769 5.8242 16.2622 5.78946 16.3554C5.75472 16.4485 5.73885 16.5477 5.74277 16.647C5.74669 16.7464 5.77032 16.8439 5.81229 16.9341C5.85426 17.0242 5.91373 17.1051 5.98724 17.172L7.98724 19.047Z" fill="#252A36"/>
</svg>
