<svg width="21" height="20" viewBox="0 0 21 20" fill="none" xmlns="http://www.w3.org/2000/svg">
<g clip-path="url(#clip0_1462_11613)">
<path d="M20.0376 12.12C19.7481 12.12 19.5134 12.3546 19.5134 12.6442V17.2987C19.5124 18.1667 18.809 18.8702 17.9408 18.8713H3.23233C2.36409 18.8702 1.66078 18.1667 1.65973 17.2987V3.63858C1.66078 2.77034 2.36415 2.06703 3.23233 2.06598H7.88669C8.17621 2.06598 8.41089 1.83129 8.41089 1.54178C8.41089 1.25226 8.17621 1.01758 7.88669 1.01758H3.23233C1.78543 1.0192 0.612953 2.19168 0.611328 3.63858V17.2987C0.612953 18.7455 1.78543 19.9181 3.23233 19.9197H17.9408C19.3877 19.9181 20.5602 18.7455 20.5618 17.2987V12.6443C20.5618 12.3548 20.3272 12.12 20.0376 12.12Z" fill="black"/>
<path d="M8.80794 9.36205L16.4619 1.7079L18.9304 4.17636L11.2764 11.8305L8.80794 9.36205ZM7.55908 13.0794L10.287 12.3238L8.31466 10.3515L7.55908 13.0794ZM19.6128 0.410508C19.1006 -0.100378 18.2716 -0.100378 17.7595 0.410508L17.2035 0.966474L19.672 3.43493L20.2279 2.87896C20.739 2.36682 20.739 1.53775 20.2279 1.02566L19.6128 0.410508Z" fill="black"/>
</g>
<defs>
<clipPath id="clip0_1462_11613">
<rect width="20" height="20" fill="white" transform="translate(0.611328)"/>
</clipPath>
</defs>
</svg>
