<svg width="25" height="25" viewBox="0 0 25 25" fill="none" xmlns="http://www.w3.org/2000/svg">
<path d="M9.06507 9.07115C10.1489 9.07115 11.0276 8.19171 11.0276 7.10686C11.0276 6.02202 10.1489 5.14258 9.06507 5.14258C7.9812 5.14258 7.10254 6.02202 7.10254 7.10686C7.10254 8.19171 7.9812 9.07115 9.06507 9.07115Z" fill="white"/>
<path d="M14.3243 9.30603C14.0103 8.99174 13.5393 8.99174 13.2253 9.30603L9.06471 13.4703L7.25918 11.6632C6.94518 11.3489 6.47417 11.3489 6.16017 11.6632L5.13965 12.6846V17.7132H9.69273L9.77123 17.6346L16.2083 11.1917L14.3243 9.30603Z" fill="white"/>
<path d="M3.57003 18.5V4.35714C3.57003 3.96429 3.96253 3.57143 4.35504 3.57143H18.4853C18.8778 3.57143 19.2703 3.96429 19.2703 4.35714V8.67857C19.7413 8.52143 20.2908 8.36429 20.8403 8.36429V4.35714C20.8403 3.02143 19.8198 2 18.4853 2H4.35504C3.02052 2 2 3.02143 2 4.35714V18.5C2 19.8357 3.02052 20.8571 4.35504 20.8571H8.67261L8.98662 19.2857H4.35504C3.88403 19.2857 3.57003 18.9714 3.57003 18.5Z" fill="white"/>
<path d="M23.1169 10.7218C21.9394 9.54325 20.0554 9.54325 18.8779 10.7218L18.4854 11.1147L22.7244 15.3575L23.1169 14.9647C24.2945 13.7861 24.2945 11.9004 23.1169 10.7218Z" fill="white"/>
<path d="M10.8703 18.7363C10.7918 18.8148 10.7133 18.972 10.6348 19.1291L9.84975 23.0577C9.77125 23.2934 9.84975 23.6077 10.0853 23.7648C10.2423 23.922 10.5563 24.0006 10.7918 24.0006L14.7168 23.2148C14.8738 23.2148 15.0308 23.1363 15.1093 22.9791L21.625 16.4577L17.3859 12.2148L10.8703 18.7363Z" fill="white"/>
</svg>
