<svg width="20" height="20" viewBox="0 0 20 20" fill="none" xmlns="http://www.w3.org/2000/svg">
<path d="M16.9979 4.17997L13.8439 1.75497C13.4225 1.43332 12.891 1.2912 12.3653 1.35956C11.8395 1.42792 11.3621 1.70123 11.0369 2.11997L2.63694 13.017C2.31474 13.4375 2.17225 13.9685 2.24065 14.4938C2.30906 15.0192 2.58279 15.496 3.00194 15.82L6.15494 18.245C6.57638 18.5666 7.10784 18.7087 7.63358 18.6404C8.15932 18.572 8.63676 18.2987 8.96194 17.88L17.3629 6.98297C17.6851 6.56245 17.8276 6.03142 17.7592 5.5061C17.6908 4.98078 17.4171 4.50395 16.9979 4.17997ZM8.54794 16.467L8.01094 17.148C7.93548 17.2454 7.83856 17.324 7.72772 17.3778C7.61688 17.4315 7.49513 17.459 7.37194 17.458C7.19658 17.4584 7.02602 17.4008 6.88694 17.294L3.73394 14.869C3.65088 14.8051 3.58133 14.7253 3.52932 14.6343C3.47731 14.5434 3.44387 14.443 3.43094 14.339C3.41668 14.2353 3.42322 14.1298 3.45018 14.0287C3.47713 13.9275 3.52396 13.8328 3.58794 13.75L4.12494 13.069C4.20044 12.9713 4.29749 12.8924 4.40851 12.8385C4.51952 12.7846 4.64151 12.757 4.76494 12.758C4.88894 12.758 5.07394 12.787 5.24994 12.922L8.40394 15.347C8.57076 15.477 8.67949 15.6676 8.70646 15.8773C8.73343 16.0871 8.67645 16.299 8.54794 16.467Z" fill="black"/>
</svg>
