<svg width="26" height="26" viewBox="0 0 26 26" fill="none" xmlns="http://www.w3.org/2000/svg">
<g clip-path="url(#clip0_94_4018)">
<path d="M12.1182 8.01292C11.9202 8.21147 11.9202 8.53282 12.1182 8.73097C12.2135 8.82625 12.3427 8.87977 12.4775 8.87977C12.6122 8.87977 12.7415 8.82625 12.8367 8.73097C13.0348 8.53282 13.0348 8.21147 12.8367 8.01292C12.7414 7.91773 12.6122 7.86426 12.4775 7.86426C12.3427 7.86426 12.2135 7.91773 12.1182 8.01292Z" fill="#E2A12D"/>
<path d="M25.2555 5.8947L20.1053 0.744579C19.1133 -0.248193 17.5074 -0.248193 16.5143 0.744579L0.744617 16.5143C-0.247799 17.5067 -0.248612 19.1127 0.744617 20.1053L5.89474 25.2554C6.36467 25.7254 6.99405 25.9997 7.73911 25.9997H17.6718C17.9521 25.9997 18.1796 25.7724 18.1796 25.4919C18.1796 25.2115 17.9521 24.984 17.6718 24.984H9.7567C9.79519 24.9458 25.2342 9.50671 25.2555 9.48549C26.2477 8.49307 26.2485 6.88712 25.2555 5.8947ZM10.2176 23.0869C9.6238 23.6808 8.65754 23.6808 8.06365 23.0869L2.91292 17.9362C2.6253 17.6486 2.46681 17.2661 2.46681 16.8593C2.46681 16.4526 2.6253 16.07 2.91292 15.7824L8.88727 9.80805L16.192 17.1132L10.2176 23.0869ZM1.46246 19.3868C0.866999 18.7917 0.866796 17.8285 1.46271 17.2326L1.47658 17.2187C1.55295 17.7604 1.80107 18.2607 2.19488 18.6545L7.34561 23.805C7.74927 24.2088 8.25647 24.4477 8.78251 24.522L8.76743 24.5371C8.17334 25.1311 7.20672 25.1313 6.61279 24.5371L1.46246 19.3868ZM24.5372 8.76744L16.9101 16.3948L9.60532 9.08995L17.2326 1.46262C17.8281 0.867164 18.7914 0.866555 19.387 1.46262L24.5374 6.61305C25.1331 7.20831 25.1333 8.17137 24.5372 8.76744H24.5372Z" fill="#E2A12D"/>
<path d="M17.2331 2.89852L13.5551 6.57661C13.3566 6.77496 13.3566 7.0965 13.5551 7.29465C13.6022 7.34182 13.6582 7.37923 13.7198 7.40475C13.7814 7.43028 13.8474 7.44342 13.9141 7.44342C13.9808 7.44342 14.0468 7.43028 14.1084 7.40475C14.17 7.37923 14.226 7.34182 14.2731 7.29465L17.9512 3.61657C18.1495 3.41822 18.1495 3.09667 17.9512 2.89852C17.904 2.85136 17.8481 2.81395 17.7865 2.78842C17.7249 2.76289 17.6588 2.74976 17.5922 2.74976C17.5255 2.74976 17.4595 2.76289 17.3978 2.78842C17.3362 2.81395 17.2803 2.85136 17.2331 2.89852ZM19.7031 24.984C19.4227 24.984 19.1953 25.2115 19.1953 25.4918C19.1953 25.7723 19.4227 25.9996 19.7031 25.9996H20.7188C20.9991 25.9996 21.2266 25.7723 21.2266 25.4918C21.2266 25.2115 20.9991 24.984 20.7188 24.984H19.7031ZM22.75 24.984C22.4695 24.984 22.2422 25.2115 22.2422 25.4918C22.2422 25.7723 22.4695 25.9996 22.75 25.9996H23.7654C24.046 25.9996 24.2732 25.7723 24.2732 25.4918C24.2732 25.2115 24.046 24.984 23.7654 24.984H22.75Z" fill="#E2A12D"/>
</g>
<defs>
<clipPath id="clip0_94_4018">
<rect width="26" height="26" fill="white"/>
</clipPath>
</defs>
</svg>
