<svg width="22" height="22" viewBox="0 0 22 22" fill="none" xmlns="http://www.w3.org/2000/svg">
<path d="M10.9998 6.64453C8.59841 6.64453 6.64453 8.59841 6.64453 10.9998C6.64453 13.4013 8.59841 15.3552 10.9998 15.3552C13.4013 15.3552 15.3552 13.4013 15.3552 10.9998C15.3552 8.59841 13.4013 6.64453 10.9998 6.64453ZM10.9998 13.8887C9.40691 13.8887 8.11097 12.5928 8.11097 10.9998C8.11097 9.40691 9.40691 8.11097 10.9998 8.11097C12.5928 8.11097 13.8887 9.40691 13.8887 10.9998C13.8887 12.5928 12.5928 13.8887 10.9998 13.8887Z" fill="#252A36"/>
<path d="M10.9998 3.78125C6.35233 3.78125 2.06233 6.49206 0.0706406 10.6886C-0.0235469 10.8879 -0.0235469 11.1196 0.0706406 11.319C2.0692 15.51 6.3592 18.2188 10.9998 18.2188C15.6405 18.2188 19.9305 15.51 21.9283 11.319C22.0232 11.1196 22.0232 10.8886 21.9283 10.6886C19.9373 6.49275 15.6473 3.78125 10.9998 3.78125ZM10.9998 16.7523C7.03914 16.7523 3.36858 14.5069 1.55152 11.0034C3.36308 7.49512 7.03295 5.24769 10.9998 5.24769C14.9667 5.24769 18.6366 7.49581 20.4481 11.0034C18.6311 14.5062 14.9598 16.7523 10.9998 16.7523Z" fill="#252A36"/>
</svg>
