<svg width="31" height="31" viewBox="0 0 31 31" fill="none" xmlns="http://www.w3.org/2000/svg">
<g clip-path="url(#clip0_675_3031)">
<path d="M30.5 15.3008C30.5 7.01656 23.7842 0.300781 15.5 0.300781C7.21578 0.300781 0.5 7.01645 0.5 15.3008C0.5 22.7877 5.98531 28.9933 13.1562 30.1186V19.6367H9.34766V15.3008H13.1562V11.9961C13.1562 8.23672 15.3957 6.16016 18.8219 6.16016C20.4631 6.16016 22.1797 6.45312 22.1797 6.45312V10.1445H20.2883C18.4248 10.1445 17.8438 11.3008 17.8438 12.4871V15.3008H22.0039L21.3389 19.6367H17.8438V30.1186C25.0147 28.9933 30.5 22.7878 30.5 15.3008Z" fill="#1877F2"/>
<path d="M21.3389 19.6367L22.0039 15.3008H17.8438V12.4871C17.8438 11.3007 18.4249 10.1445 20.2883 10.1445H22.1797V6.45312C22.1797 6.45312 20.4631 6.16016 18.8219 6.16016C15.3957 6.16016 13.1562 8.23672 13.1562 11.9961V15.3008H9.34766V19.6367H13.1562V30.1186C13.9316 30.2401 14.7152 30.301 15.5 30.3008C16.2848 30.301 17.0684 30.2401 17.8438 30.1186V19.6367H21.3389Z" fill="white"/>
</g>
<defs>
<clipPath id="clip0_675_3031">
<rect width="30" height="30" fill="white" transform="translate(0.5 0.300781)"/>
</clipPath>
</defs>
</svg>
