<svg width="24" height="24" viewBox="0 0 24 24" fill="none" xmlns="http://www.w3.org/2000/svg">
<g clip-path="url(#clip0_9136_121881)">
<path d="M22 11.8229H19.0312V13.3854H20.4375V16.5104H12.7812V15.0625L17.4687 13.0573V8.32813L19.0312 7.64583V10.2604H20.5937V6.96354L21.9896 6.35417L12 2L2.01042 6.35417L6.53125 8.32813V13.0573L11.2187 15.0625V16.5104H3.5625V13.3854H4.96875V11.8229H2V18.0729H11.2187C11.2187 18.9323 10.5156 19.6354 9.65625 19.6354V21.1979C10.5885 21.1979 11.4271 20.7865 12 20.1354C12.5729 20.7865 13.4115 21.1979 14.3437 21.1979V19.6354C13.4844 19.6354 12.7812 18.9323 12.7812 18.0729H22V11.8229ZM12 3.70313L18.0833 6.35417L12 9.01042L5.91667 6.35417L12 3.70313ZM8.09375 9.01042L12 10.7135L15.9062 9.01042V12.026L12 13.6979L8.09375 12.026V9.01042Z" fill="black"/>
</g>
<defs>
<clipPath id="clip0_9136_121881">
<rect width="20" height="19.1979" fill="white" transform="translate(2 2)"/>
</clipPath>
</defs>
</svg>
