<svg width="24" height="24" viewBox="0 0 24 24" fill="none" xmlns="http://www.w3.org/2000/svg">
<g clip-path="url(#clip0_9136_121882)">
<path d="M22 2H2V16.0625H6.53125V22H8.09375V16.0625H15.9062V22H17.4687V16.0625H22V2ZM20.4375 14.5H3.5625V3.5625H6.53125V5.125H8.09375V3.5625H15.9062V5.125H17.4687V3.5625H20.4375V14.5Z" fill="black"/>
<path d="M13.3805 7.52669L12.0003 5.11523L10.6201 7.52669L7.90137 8.0944L9.77116 10.1517L9.46908 12.9121L12.0003 11.7715L14.5316 12.9121L14.2295 10.1517L16.0993 8.0944L13.3805 7.52669ZM12.6826 10.36L12.0003 10.0527L11.318 10.36L11.4014 9.61523L10.8962 9.06315L11.6305 8.91211L12.0003 8.26107L12.3701 8.91211L13.1045 9.06315L12.5993 9.61523L12.6826 10.36Z" fill="black"/>
</g>
<defs>
<clipPath id="clip0_9136_121882">
<rect width="20" height="20" fill="white" transform="translate(2 2)"/>
</clipPath>
</defs>
</svg>
