<svg width="24" height="24" viewBox="0 0 24 24" fill="none" xmlns="http://www.w3.org/2000/svg">
<g clip-path="url(#clip0_9136_121875)">
<path d="M18.3636 1.81818V0H16.5455V1.81818H12.9091V0H11.0909V1.81818H7.45455V0H5.63636V1.81818H2V23.2727H17.4545C19.9636 23.2727 22 21.2364 22 18.7273V1.81818H18.3636ZM20.1818 3.63636V5.45455H3.81818V3.63636H20.1818ZM18.2485 21.3394C18.3273 21.0909 18.3636 20.8242 18.3636 20.5455V19.6364H19.2727C19.5455 19.6364 19.8121 19.5939 20.0667 19.5212C19.8 20.3879 19.1152 21.0727 18.2485 21.3394ZM19.2727 17.8182H16.5455V20.5455C16.5455 21.0485 16.1394 21.4545 15.6364 21.4545H3.81818V7.27273H20.1818V16.9091C20.1818 17.4121 19.7758 17.8182 19.2727 17.8182Z" fill="black"/>
<path d="M12.0002 8.89648L10.3941 11.7025L7.23047 12.3632L9.40623 14.7571L9.05471 17.9692L12.0002 16.6419L14.9456 17.9692L14.5941 14.7571L16.7699 12.3632L13.6062 11.7025L12.0002 8.89648ZM12.7941 14.9995L12.0002 14.6419L11.2062 14.9995L11.3032 14.1328L10.7153 13.4904L11.5699 13.3147L12.0002 12.5571L12.4305 13.3147L13.285 13.4904L12.6971 14.1328L12.7941 14.9995Z" fill="black"/>
</g>
<defs>
<clipPath id="clip0_9136_121875">
<rect width="20" height="23.2727" fill="white" transform="translate(2)"/>
</clipPath>
</defs>
</svg>
