<svg width="68" height="68" viewBox="0 0 68 68" fill="none" xmlns="http://www.w3.org/2000/svg">
<path d="M31.3333 56.3333H18.5833C14.2861 56.3333 10.6141 54.8458 7.56734 51.8708C4.52056 48.8958 2.99811 45.2597 3 40.9625C3 37.2792 4.10972 33.9972 6.32917 31.1167C8.54861 28.2361 11.4528 26.3944 15.0417 25.5917C16.2222 21.2472 18.5833 17.7292 22.125 15.0375C25.6667 12.3458 29.6806 11 34.1667 11C39.6917 11 44.3789 12.9248 48.2285 16.7743C52.0781 20.6239 54.0019 25.3102 54 30.8333C57.2583 31.2111 59.9623 32.6164 62.1118 35.0493C64.2614 37.4822 65.3352 40.3269 65.3333 43.5833C65.3333 47.125 64.0933 50.1359 61.6132 52.616C59.1331 55.0961 56.1231 56.3352 52.5833 56.3333H37V36.075L41.5333 40.4667L45.5 36.5L34.1667 25.1667L22.8333 36.5L26.8 40.4667L31.3333 36.075V56.3333Z" fill="#7C7F86"/>
</svg>
