<svg width="25" height="24" viewBox="0 0 25 24" fill="none" xmlns="http://www.w3.org/2000/svg">
<path d="M20.5 13.4245V3.69047C20.4995 3.24242 20.3212 2.81287 20.0044 2.49605C19.6876 2.17923 19.2581 2.001 18.81 2.00047H17.41C17.3082 1.7082 17.1179 1.45486 16.8656 1.27559C16.6133 1.09632 16.3115 1 16.002 1C15.6925 1 15.3907 1.09632 15.1384 1.27559C14.8861 1.45486 14.6958 1.7082 14.594 2.00047H7.408C7.30618 1.7082 7.11592 1.45486 6.86363 1.27559C6.61133 1.09632 6.3095 1 6 1C5.6905 1 5.38867 1.09632 5.13637 1.27559C4.88408 1.45486 4.69382 1.7082 4.592 2.00047H3.19C2.74195 2.001 2.3124 2.17923 1.99557 2.49605C1.67875 2.81287 1.50053 3.24242 1.5 3.69047V18.3105C1.50053 18.7585 1.67875 19.1881 1.99557 19.5049C2.3124 19.8217 2.74195 19.9999 3.19 20.0005H13.924C14.2483 20.7486 14.7505 21.4061 15.3871 21.9156C16.0237 22.4251 16.7752 22.7713 17.5761 22.9238C18.3771 23.0764 19.2032 23.0307 19.9825 22.7909C20.7618 22.551 21.4706 22.1242 22.0472 21.5476C22.6237 20.9711 23.0505 20.2623 23.2904 19.483C23.5303 18.7037 23.5759 17.8776 23.4233 17.0766C23.2708 16.2756 22.9247 15.5241 22.4151 14.8876C21.9056 14.251 21.2481 13.7487 20.5 13.4245ZM15.5 2.50047C15.5 2.36786 15.5527 2.24069 15.6464 2.14692C15.7402 2.05315 15.8674 2.00047 16 2.00047C16.1326 2.00047 16.2598 2.05315 16.3536 2.14692C16.4473 2.24069 16.5 2.36786 16.5 2.50047V3.50047C16.5 3.63308 16.4473 3.76026 16.3536 3.85403C16.2598 3.94779 16.1326 4.00047 16 4.00047C15.8674 4.00047 15.7402 3.94779 15.6464 3.85403C15.5527 3.76026 15.5 3.63308 15.5 3.50047V2.50047ZM5.5 2.50047C5.5 2.36786 5.55268 2.24069 5.64645 2.14692C5.74022 2.05315 5.86739 2.00047 6 2.00047C6.13261 2.00047 6.25979 2.05315 6.35355 2.14692C6.44732 2.24069 6.5 2.36786 6.5 2.50047V3.50047C6.5 3.63308 6.44732 3.76026 6.35355 3.85403C6.25979 3.94779 6.13261 4.00047 6 4.00047C5.86739 4.00047 5.74022 3.94779 5.64645 3.85403C5.55268 3.76026 5.5 3.63308 5.5 3.50047V2.50047ZM3.19 3.00047H4.5V3.50047C4.5 3.8983 4.65804 4.27983 4.93934 4.56113C5.22064 4.84244 5.60218 5.00047 6 5.00047C6.39783 5.00047 6.77936 4.84244 7.06066 4.56113C7.34197 4.27983 7.5 3.8983 7.5 3.50047V3.00047H14.5V3.50047C14.5 3.8983 14.658 4.27983 14.9393 4.56113C15.2206 4.84244 15.6022 5.00047 16 5.00047C16.3978 5.00047 16.7794 4.84244 17.0607 4.56113C17.342 4.27983 17.5 3.8983 17.5 3.50047V3.00047H18.81C18.9929 3.00074 19.1683 3.07352 19.2976 3.20286C19.427 3.3322 19.4997 3.50756 19.5 3.69047V6.00047H2.5V3.69047C2.50026 3.50756 2.57305 3.3322 2.70239 3.20286C2.83173 3.07352 3.00708 3.00074 3.19 3.00047ZM3.19 19.0005C3.00708 19.0002 2.83173 18.9274 2.70239 18.7981C2.57305 18.6687 2.50026 18.4934 2.5 18.3105V7.00047H19.5V13.1005C18.69 12.9349 17.8517 12.9728 17.0599 13.2107C16.2682 13.4486 15.5478 13.8791 14.9632 14.4637C14.3786 15.0482 13.9481 15.7686 13.7102 16.5604C13.4723 17.3521 13.4344 18.1905 13.6 19.0005H3.19ZM18.5 22.0005C17.7089 22.0005 16.9355 21.7659 16.2777 21.3264C15.6199 20.8868 15.1072 20.2621 14.8045 19.5312C14.5017 18.8003 14.4225 17.996 14.5769 17.2201C14.7312 16.4442 15.1122 15.7315 15.6716 15.172C16.231 14.6126 16.9437 14.2317 17.7196 14.0773C18.4956 13.923 19.2998 14.0022 20.0307 14.305C20.7616 14.6077 21.3864 15.1204 21.8259 15.7782C22.2654 16.436 22.5 17.2094 22.5 18.0005C22.5 19.0613 22.0786 20.0788 21.3284 20.8289C20.5783 21.579 19.5609 22.0005 18.5 22.0005Z" fill="white"/>
<path d="M19 17.793V16C19 15.8674 18.9473 15.7402 18.8536 15.6464C18.7598 15.5527 18.6326 15.5 18.5 15.5C18.3674 15.5 18.2402 15.5527 18.1464 15.6464C18.0527 15.7402 18 15.8674 18 16V18C17.9999 18.0657 18.0127 18.1308 18.0378 18.1915C18.0628 18.2523 18.0996 18.3075 18.146 18.354L19.146 19.354C19.2399 19.4479 19.3672 19.5006 19.5 19.5006C19.6328 19.5006 19.7601 19.4479 19.854 19.354C19.9479 19.2601 20.0006 19.1328 20.0006 19C20.0006 18.8672 19.9479 18.7399 19.854 18.646L19 17.793Z" fill="white"/>
<path d="M12 14H10C9.86739 14 9.74021 14.0527 9.64645 14.1464C9.55268 14.2402 9.5 14.3674 9.5 14.5V16.5C9.5 16.6326 9.55268 16.7598 9.64645 16.8536C9.74021 16.9473 9.86739 17 10 17H12C12.1326 17 12.2598 16.9473 12.3536 16.8536C12.4473 16.7598 12.5 16.6326 12.5 16.5V14.5C12.5 14.3674 12.4473 14.2402 12.3536 14.1464C12.2598 14.0527 12.1326 14 12 14ZM11.5 16H10.5V15H11.5V16Z" fill="white"/>
<path d="M7 14H5C4.86739 14 4.74021 14.0527 4.64645 14.1464C4.55268 14.2402 4.5 14.3674 4.5 14.5V16.5C4.5 16.6326 4.55268 16.7598 4.64645 16.8536C4.74021 16.9473 4.86739 17 5 17H7C7.13261 17 7.25979 16.9473 7.35355 16.8536C7.44732 16.7598 7.5 16.6326 7.5 16.5V14.5C7.5 14.3674 7.44732 14.2402 7.35355 14.1464C7.25979 14.0527 7.13261 14 7 14ZM6.5 16H5.5V15H6.5V16Z" fill="white"/>
<path d="M15 12H17C17.1326 12 17.2598 11.9473 17.3536 11.8536C17.4473 11.7598 17.5 11.6326 17.5 11.5V9.5C17.5 9.36739 17.4473 9.24021 17.3536 9.14645C17.2598 9.05268 17.1326 9 17 9H15C14.8674 9 14.7402 9.05268 14.6464 9.14645C14.5527 9.24021 14.5 9.36739 14.5 9.5V11.5C14.5 11.6326 14.5527 11.7598 14.6464 11.8536C14.7402 11.9473 14.8674 12 15 12ZM15.5 10H16.5V11H15.5V10Z" fill="white"/>
<path d="M12 9H10C9.86739 9 9.74021 9.05268 9.64645 9.14645C9.55268 9.24021 9.5 9.36739 9.5 9.5V11.5C9.5 11.6326 9.55268 11.7598 9.64645 11.8536C9.74021 11.9473 9.86739 12 10 12H12C12.1326 12 12.2598 11.9473 12.3536 11.8536C12.4473 11.7598 12.5 11.6326 12.5 11.5V9.5C12.5 9.36739 12.4473 9.24021 12.3536 9.14645C12.2598 9.05268 12.1326 9 12 9ZM11.5 11H10.5V10H11.5V11Z" fill="white"/>
<path d="M7 9H5C4.86739 9 4.74021 9.05268 4.64645 9.14645C4.55268 9.24021 4.5 9.36739 4.5 9.5V11.5C4.5 11.6326 4.55268 11.7598 4.64645 11.8536C4.74021 11.9473 4.86739 12 5 12H7C7.13261 12 7.25979 11.9473 7.35355 11.8536C7.44732 11.7598 7.5 11.6326 7.5 11.5V9.5C7.5 9.36739 7.44732 9.24021 7.35355 9.14645C7.25979 9.05268 7.13261 9 7 9ZM6.5 11H5.5V10H6.5V11Z" fill="white"/>
</svg>
