<svg width="26" height="27" viewBox="0 0 26 27" fill="none" xmlns="http://www.w3.org/2000/svg">
<path d="M2.16659 6.21177L3.55325 4.83594L21.6666 22.9493L20.2908 24.3359L16.9541 20.9993C15.7083 21.4109 14.3866 21.6276 12.9999 21.6276C7.58325 21.6276 2.95742 18.2584 1.08325 13.5026C1.83075 11.5959 3.02242 9.91677 4.53909 8.58427L2.16659 6.21177ZM12.9999 10.2526C13.8619 10.2526 14.6885 10.595 15.298 11.2045C15.9075 11.814 16.2499 12.6407 16.2499 13.5026C16.2505 13.8716 16.1882 14.2379 16.0658 14.5859L11.9166 10.4368C12.2646 10.3143 12.631 10.2521 12.9999 10.2526ZM12.9999 5.3776C18.4166 5.3776 23.0424 8.74677 24.9166 13.5026C24.0324 15.7486 22.5299 17.698 20.5833 19.1251L19.0449 17.5759C20.543 16.5396 21.7513 15.1374 22.5549 13.5026C21.6791 11.715 20.3194 10.209 18.6303 9.15573C16.9412 8.10245 14.9905 7.54414 12.9999 7.54427C11.8191 7.54427 10.6599 7.73927 9.57658 8.08594L7.90825 6.42844C9.46825 5.75677 11.1908 5.3776 12.9999 5.3776ZM3.44492 13.5026C4.32073 15.2902 5.68045 16.7962 7.36954 17.8495C9.05863 18.9028 11.0093 19.4611 12.9999 19.4609C13.7474 19.4609 14.4841 19.3851 15.1666 19.2334L12.6966 16.7526C11.9428 16.6718 11.2393 16.3354 10.7032 15.7993C10.1671 15.2632 9.83072 14.5598 9.74992 13.8059L6.06658 10.1118C4.99408 11.0326 4.09492 12.1809 3.44492 13.5026Z" fill="#F2F2F2"/>
</svg>
