<svg width="36" height="34" viewBox="0 0 36 34" fill="none" xmlns="http://www.w3.org/2000/svg">
<g clip-path="url(#clip0_7759_106232)">
<path d="M8.19987 0.813434C8.71395 0.807656 9.22798 0.828685 9.73987 0.876434C13.6249 0.876434 17.5169 0.876434 21.4019 0.876434H21.8499C21.893 0.923029 21.9254 0.97852 21.9447 1.03899C21.9641 1.09947 21.9699 1.16345 21.9619 1.22643C21.9619 2.97643 21.9619 4.72643 21.9619 6.48343C21.8768 6.77422 21.8577 7.08032 21.9059 7.37943C22.0459 7.44243 22.1229 7.33043 22.2069 7.27443C22.6549 6.97343 23.1099 6.68643 23.5579 6.37843C23.6433 6.30408 23.7527 6.26312 23.8659 6.26312C23.9791 6.26312 24.0885 6.30408 24.1739 6.37843C24.6079 6.67943 25.0629 6.93843 25.5039 7.23243C25.5949 7.29543 25.6789 7.44243 25.8259 7.33743C25.8259 5.38443 25.8259 3.43843 25.8259 1.48543C25.7823 1.28317 25.8044 1.0723 25.8889 0.883434C26.2669 0.883434 26.6449 0.883434 27.0159 0.883434C27.2876 0.868573 27.5595 0.910684 27.8141 1.00707C28.0686 1.10345 28.3002 1.25197 28.494 1.44311C28.6878 1.63426 28.8395 1.86379 28.9393 2.11699C29.0392 2.3702 29.085 2.64148 29.0739 2.91343V30.9694C29.1197 31.4274 29.0052 31.8871 28.7499 32.2701C28.4945 32.653 28.1143 32.9356 27.6739 33.0694C27.3552 33.1442 27.0281 33.1772 26.7009 33.1674H8.19987C8.09659 32.9371 8.06489 32.681 8.10887 32.4324C8.10887 24.9658 8.10887 17.4991 8.10887 10.0324C8.10887 7.17643 8.10887 4.3181 8.10887 1.45743C8.06774 1.2386 8.09972 1.01231 8.19987 0.813434Z" fill="#FFDF6E"/>
<path d="M8.19999 0.813472C8.23418 0.967936 8.23418 1.12801 8.19999 1.28247V32.7335C8.19999 32.8805 8.19999 33.0345 8.16499 33.1815H4.42699C4.26791 33.2097 4.10397 33.1877 3.95799 33.1185C4.0073 33.0687 4.06884 33.0328 4.13642 33.0144C4.20401 32.996 4.27525 32.9956 4.34299 33.0135C4.00505 32.8369 3.72388 32.5684 3.53191 32.239C3.33995 31.9095 3.24499 31.5325 3.25799 31.1515C3.25799 30.3045 3.25799 29.4505 3.25799 28.5965C3.23309 28.4281 3.27042 28.2563 3.36299 28.1135C3.70106 28.011 4.05889 27.9918 4.40599 28.0575C4.55999 28.0575 4.65799 28.2185 4.79099 28.2815C4.93376 28.3612 5.09488 28.4022 5.25838 28.4004C5.42188 28.3987 5.58207 28.3542 5.72308 28.2714C5.86409 28.1886 5.98102 28.0704 6.06226 27.9285C6.14351 27.7866 6.18625 27.626 6.18625 27.4625C6.18625 27.299 6.14351 27.1383 6.06226 26.9964C5.98102 26.8545 5.86409 26.7363 5.72308 26.6535C5.58207 26.5708 5.42188 26.5263 5.25838 26.5245C5.09488 26.5228 4.93376 26.5638 4.79099 26.6435C4.65799 26.7135 4.55999 26.8395 4.40599 26.8745C4.0378 26.9651 3.65027 26.9357 3.29999 26.7905C3.23435 26.6657 3.20523 26.525 3.21599 26.3845V23.3045C3.20839 23.1642 3.23733 23.0243 3.29999 22.8985C3.61499 22.6675 3.99999 22.7795 4.30799 22.7935C4.46923 22.8618 4.62194 22.9487 4.76299 23.0525C4.95574 23.1562 5.17715 23.1938 5.39334 23.1597C5.60953 23.1256 5.80857 23.0215 5.95999 22.8635C6.11202 22.6929 6.19602 22.4724 6.19602 22.244C6.19602 22.0155 6.11202 21.795 5.95999 21.6245C5.81413 21.4675 5.62084 21.3626 5.4097 21.326C5.19857 21.2893 4.98124 21.3228 4.79099 21.4215C4.64657 21.5239 4.49171 21.6107 4.32899 21.6805C3.98589 21.7713 3.62183 21.7391 3.29999 21.5895C3.23302 21.4678 3.20378 21.3289 3.21599 21.1905V18.1035C3.20897 17.9654 3.23791 17.828 3.29999 17.7045C3.63599 17.4665 3.99999 17.5925 4.37099 17.5995C4.48957 17.6376 4.59913 17.6996 4.69299 17.7815C4.88885 17.9294 5.13487 17.9946 5.37828 17.9632C5.62169 17.9318 5.84309 17.8062 5.99499 17.6135C6.13693 17.4345 6.20699 17.2091 6.19145 16.9812C6.17591 16.7533 6.0759 16.5395 5.91099 16.3815C5.7498 16.2096 5.5278 16.1075 5.29239 16.097C5.05697 16.0866 4.8268 16.1686 4.65099 16.3255C4.58394 16.3807 4.51383 16.4321 4.44099 16.4795C3.79951 16.5797 3.14772 16.5962 2.50199 16.5285C2.41099 16.5285 2.29199 16.5285 2.30599 16.3535C2.42595 16.2553 2.5782 16.2054 2.73299 16.2135C3.23699 16.2135 3.24399 16.2135 3.24399 15.6675C3.24399 14.7645 3.24399 13.8685 3.24399 12.9655C3.21066 12.7818 3.23008 12.5925 3.29999 12.4195C3.61502 12.2816 3.96627 12.2497 4.30099 12.3285C4.46223 12.3968 4.61494 12.4837 4.75599 12.5875C4.9464 12.6861 5.16345 12.7209 5.37516 12.6869C5.58688 12.6529 5.78207 12.5518 5.93199 12.3985C6.08402 12.2279 6.16802 12.0074 6.16802 11.779C6.16802 11.5505 6.08402 11.33 5.93199 11.1595C5.78613 11.0025 5.59284 10.8976 5.3817 10.861C5.17057 10.8243 4.95324 10.8578 4.76299 10.9565C4.61857 11.0589 4.46371 11.1457 4.30099 11.2155C3.96667 11.2996 3.61366 11.2675 3.29999 11.1245C3.23302 11.0028 3.20378 10.8639 3.21599 10.7255V7.63847C3.20897 7.50044 3.23791 7.36295 3.29999 7.23947C3.63599 7.00147 3.99999 7.12747 4.37099 7.13447C4.49138 7.17334 4.6031 7.23514 4.69999 7.31647C4.89962 7.45842 5.14684 7.51665 5.38884 7.47872C5.63083 7.44078 5.84838 7.3097 5.99499 7.11347C6.13845 6.93071 6.20898 6.7012 6.19291 6.46941C6.17683 6.23763 6.07531 6.02005 5.90799 5.85884C5.74068 5.69762 5.51948 5.60424 5.28726 5.59679C5.05503 5.58933 4.82831 5.66832 4.65099 5.81847C4.58581 5.87815 4.51554 5.93202 4.44099 5.97947C3.78776 6.07976 3.1244 6.09623 2.46699 6.02847C2.42937 6.02454 2.39343 6.01085 2.36273 5.98875C2.33204 5.96665 2.30765 5.9369 2.29199 5.90247C2.38999 5.72047 2.57199 5.76247 2.72599 5.75547C3.25099 5.75547 3.25099 5.75547 3.25799 5.19547C3.25799 4.38347 3.25799 3.57147 3.25799 2.75947C3.2565 2.43857 3.33354 2.12218 3.48239 1.83789C3.63125 1.5536 3.8474 1.31005 4.11199 1.12847C4.23045 1.02355 4.38097 0.961864 4.53899 0.953472C4.33599 0.953472 4.13299 1.06547 3.95799 0.883472C4.27292 0.800745 4.60043 0.777012 4.92399 0.813472H8.19999Z" fill="#FBB63E"/>
<path d="M33.1548 11.6765C33.411 11.9075 33.6081 12.1964 33.7299 12.519C33.8517 12.8417 33.8945 13.1889 33.8548 13.5315C33.9163 13.6379 33.9486 13.7586 33.9486 13.8815C33.9486 14.0043 33.9163 14.1251 33.8548 14.2315C33.8548 16.2335 33.7848 18.2425 33.8548 20.2445C33.8806 20.3564 33.8631 20.4739 33.8058 20.5735C33.732 20.4731 33.6328 20.3942 33.5184 20.345C33.4039 20.2958 33.2784 20.278 33.1548 20.2935C32.7418 20.2935 32.3218 20.2935 31.9088 20.2935C31.2088 20.2935 30.9638 19.9995 30.9638 19.3065C30.9638 17.5775 30.9638 15.8555 30.9638 14.1265C30.9043 13.4394 30.9043 12.7485 30.9638 12.0615C30.9768 11.8867 31.0145 11.7147 31.0758 11.5505C31.2228 11.2775 31.5098 11.2635 31.7758 11.2425C32.0234 11.1825 32.2827 11.1912 32.5257 11.2677C32.7687 11.3442 32.9862 11.4855 33.1548 11.6765Z" fill="#FFDF6E"/>
<path d="M21.8358 6.61871C21.8358 4.70071 21.7938 2.77571 21.8358 0.857715C23.1868 0.857715 24.5308 0.808715 25.8748 0.857715C25.8748 2.65671 25.8748 4.46271 25.8748 6.26871C25.8748 6.67471 25.8748 7.08771 25.8748 7.50071H25.8398C25.7994 7.44479 25.771 7.38105 25.7565 7.31356C25.7421 7.24607 25.7418 7.1763 25.7558 7.10871C25.7689 6.96436 25.7369 6.81949 25.6642 6.6941C25.5915 6.56871 25.4816 6.469 25.3498 6.40871C24.9438 6.16371 24.5518 5.89771 24.1668 5.61771C24.0783 5.53851 23.9636 5.49472 23.8448 5.49472C23.726 5.49472 23.6114 5.53851 23.5228 5.61771C23.1028 5.91171 22.6758 6.19171 22.2418 6.47171C22.1228 6.56971 22.0108 6.68871 21.8358 6.61871Z" fill="url(#paint0_linear_7759_106232)"/>
<path d="M33.4558 21.8969V29.8069C32.8512 30.0209 32.1914 30.0209 31.5868 29.8069C31.4524 29.7488 31.3395 29.65 31.2642 29.5244C31.1888 29.3989 31.1548 29.2528 31.1668 29.1069C31.1668 28.8339 31.1668 28.5539 31.1668 28.2809V22.7509C31.1492 22.5904 31.1492 22.4284 31.1668 22.2679C31.1811 22.1533 31.2327 22.0467 31.3137 21.9644C31.3946 21.8822 31.5005 21.8289 31.6148 21.8129C32.1777 21.7499 32.7459 21.7499 33.3088 21.8129C33.3656 21.8241 33.4172 21.8536 33.4558 21.8969Z" fill="url(#paint1_linear_7759_106232)"/>
<path d="M31.2018 11.5115C31.0701 12.1183 31.0394 12.7427 31.1108 13.3595C31.1354 13.6834 31.1354 14.0086 31.1108 14.3325V19.3655C31.1108 19.9535 31.2998 20.1495 31.8948 20.1635C32.4898 20.1775 32.8958 20.1635 33.3998 20.1635C33.7148 20.1635 33.8758 20.2335 33.8408 20.5695C33.8058 20.9055 33.6378 20.9545 33.4488 21.0875C33.339 21.1717 33.2017 21.2116 33.0638 21.1995C32.3405 21.1995 31.6195 21.1995 30.9008 21.1995C30.833 21.2066 30.7645 21.1998 30.6995 21.1793C30.6344 21.1588 30.5743 21.1252 30.5228 21.0805C30.3868 21.0037 30.2769 20.8881 30.207 20.7484C30.1372 20.6087 30.1107 20.4513 30.1308 20.2965C30.1308 18.0005 30.1308 15.7115 30.1308 13.4225C30.1105 13.0982 30.1628 12.7734 30.2839 12.4719C30.405 12.1704 30.5918 11.8997 30.8308 11.6795C30.9428 11.5605 31.0128 11.4065 31.2018 11.5115Z" fill="#E3A130"/>
<path d="M30.5368 21.0703H33.4628V21.8893H31.8318C31.4258 21.8893 31.2788 22.0293 31.2788 22.4213V29.0363C31.2788 29.5193 31.5448 29.7783 32.0628 29.7853C32.5808 29.7923 32.9938 29.7853 33.4628 29.7853C33.4957 29.928 33.4755 30.0778 33.4059 30.2066C33.3363 30.3355 33.2222 30.4346 33.0848 30.4853C33.0348 30.5504 32.9679 30.6005 32.8913 30.6301C32.8148 30.6597 32.7316 30.6677 32.6508 30.6533C32.3288 30.6533 32.0068 30.6533 31.6848 30.6533C31.3628 30.6533 31.1248 30.7443 30.9148 30.4783C30.7983 30.4196 30.7005 30.3295 30.6325 30.2182C30.5645 30.1069 30.5289 29.9788 30.5298 29.8483C30.5345 26.927 30.5368 24.001 30.5368 21.0703Z" fill="url(#paint2_linear_7759_106232)"/>
<path d="M4.46192 28.1137H3.36292C3.29379 28.1663 3.21482 28.2046 3.13066 28.2263C3.04651 28.2479 2.95887 28.2525 2.87292 28.2397C2.45992 28.2397 2.43192 28.2817 2.43192 28.7017C2.43192 29.4017 2.43192 30.1017 2.43192 30.8017C2.43192 30.9837 2.43192 31.1867 2.29192 31.3267C2.22368 31.0213 2.20711 30.7066 2.24292 30.3957C2.24292 29.6957 2.24292 29.0657 2.24292 28.4077C2.24292 28.1627 2.17292 28.0717 1.92092 28.0787C1.59736 28.115 1.26987 28.0913 0.954923 28.0087C0.833086 27.9785 0.723728 27.911 0.642145 27.8156C0.560563 27.7203 0.510837 27.6017 0.499923 27.4767C0.491619 27.3445 0.528735 27.2134 0.605121 27.1052C0.681508 26.997 0.792577 26.9182 0.919923 26.8817C1.14654 26.813 1.38347 26.7845 1.61992 26.7977C2.31992 26.7977 2.20792 26.8817 2.20792 26.1887C2.20792 25.0897 2.20792 23.9837 2.20792 22.8847C2.22487 22.8685 2.24744 22.8594 2.27092 22.8594C2.29441 22.8594 2.31698 22.8685 2.33392 22.8847C2.40205 23.0606 2.42609 23.2504 2.40392 23.4377V26.1467C2.40392 26.6157 2.40392 26.6297 2.88692 26.6507C3.04925 26.6314 3.21266 26.6766 3.34192 26.7767H4.46192C4.60497 26.6957 4.76655 26.6532 4.93092 26.6532C5.0953 26.6532 5.25688 26.6957 5.39992 26.7767C5.54258 26.821 5.66733 26.9098 5.75592 27.0301C5.84451 27.1504 5.8923 27.2958 5.8923 27.4452C5.8923 27.5946 5.84451 27.7401 5.75592 27.8603C5.66733 27.9806 5.54258 28.0694 5.39992 28.1137C5.25645 28.1934 5.09504 28.2352 4.93092 28.2352C4.76681 28.2352 4.6054 28.1934 4.46192 28.1137Z" fill="url(#paint3_linear_7759_106232)"/>
<path d="M2.32688 16.3263C3.02429 16.4115 3.72948 16.4115 4.42688 16.3263C4.65684 16.2773 4.89318 16.2655 5.12688 16.2913C5.27656 16.3027 5.41859 16.362 5.53203 16.4603C5.64547 16.5586 5.7243 16.6908 5.75688 16.8373C5.80213 16.994 5.79122 17.1616 5.72603 17.3112C5.66085 17.4607 5.54549 17.5828 5.39988 17.6563C5.25684 17.7373 5.09526 17.7799 4.93088 17.7799C4.76651 17.7799 4.60493 17.7373 4.46188 17.6563H3.36288C3.23362 17.7564 3.07021 17.8016 2.90788 17.7823C2.44588 17.7823 2.43188 17.7823 2.42488 18.2863V20.9953C2.44763 21.1803 2.42357 21.368 2.35488 21.5413C2.34905 21.552 2.34113 21.5615 2.33158 21.5691C2.32203 21.5766 2.31105 21.5822 2.2993 21.5855C2.28755 21.5888 2.27525 21.5896 2.26316 21.5881C2.25106 21.5865 2.2394 21.5825 2.22888 21.5763C2.22888 20.3863 2.22888 19.1963 2.22888 18.0063C2.22888 17.7473 2.16588 17.6493 1.89288 17.6563C1.58538 17.7078 1.27045 17.6935 0.968884 17.6143C0.815553 17.5806 0.681173 17.4889 0.593786 17.3585C0.506399 17.2281 0.472758 17.0689 0.499884 16.9143C0.506888 16.8388 0.528788 16.7654 0.564317 16.6984C0.599846 16.6314 0.6483 16.5721 0.70688 16.524C0.765459 16.4758 0.833003 16.4397 0.905608 16.4178C0.978213 16.3959 1.05444 16.3886 1.12988 16.3963C1.38188 16.3963 1.63388 16.3963 1.87888 16.3963C2.12388 16.3963 2.22888 16.3123 2.22188 16.0533C2.22188 14.8353 2.22188 13.6173 2.22188 12.4063C2.23208 12.399 2.24379 12.3941 2.25614 12.3919C2.26849 12.3897 2.28117 12.3903 2.29325 12.3937C2.30534 12.397 2.31651 12.4031 2.32597 12.4113C2.33542 12.4195 2.34291 12.4298 2.34788 12.4413C2.41252 12.5911 2.43666 12.7553 2.41788 12.9173C2.41788 13.8833 2.41788 14.8493 2.41788 15.8083C2.45181 15.9863 2.41945 16.1706 2.32688 16.3263Z" fill="url(#paint4_linear_7759_106232)"/>
<path d="M2.32678 5.85819C3.02418 5.94338 3.72937 5.94338 4.42678 5.85819C4.65674 5.80915 4.89307 5.79734 5.12678 5.82319C5.27645 5.83462 5.41849 5.89386 5.53192 5.99217C5.64536 6.09048 5.72419 6.22266 5.75678 6.36918C5.80202 6.52591 5.79111 6.69351 5.72593 6.84304C5.66075 6.99258 5.54539 7.11465 5.39978 7.18818C5.25673 7.26916 5.09515 7.31173 4.93078 7.31173C4.7664 7.31173 4.60482 7.26916 4.46178 7.18818H3.36278C3.23351 7.28825 3.0701 7.3335 2.90778 7.31418C2.44578 7.31418 2.43178 7.31418 2.42478 7.81818V10.5272C2.44693 10.7122 2.42288 10.8998 2.35478 11.0732C2.34895 11.0839 2.34102 11.0933 2.33147 11.1009C2.32193 11.1085 2.31095 11.1141 2.29919 11.1174C2.28744 11.1206 2.27515 11.1215 2.26305 11.1199C2.25095 11.1184 2.2393 11.1144 2.22878 11.1082C2.22878 9.93218 2.22878 8.75618 2.22878 7.60818C2.22878 7.28618 2.12378 7.19518 1.81578 7.21618C1.51994 7.24568 1.22124 7.20984 0.940777 7.11118C0.801998 7.07501 0.680955 6.98993 0.599924 6.8716C0.518894 6.75327 0.483329 6.60965 0.499777 6.46718C0.503036 6.38975 0.522334 6.31383 0.556452 6.24423C0.590569 6.17464 0.638762 6.11288 0.69798 6.06287C0.757199 6.01287 0.826153 5.9757 0.900479 5.95372C0.974806 5.93174 1.05289 5.92543 1.12978 5.93519C1.38878 5.93519 1.65478 5.93519 1.91378 5.93519C2.17278 5.93519 2.24278 5.85119 2.23578 5.60619C2.23578 4.74519 2.23578 3.88419 2.23578 3.01619C2.23578 2.88319 2.19378 2.74319 2.28478 2.61719C2.43178 2.72219 2.42478 2.87619 2.42478 3.03019C2.42478 3.84219 2.42478 4.65419 2.42478 5.46619C2.44006 5.60437 2.40529 5.74345 2.32678 5.85819Z" fill="url(#paint5_linear_7759_106232)"/>
<path d="M2.229 11.1341H2.306C2.4698 11.0511 2.65086 11.0078 2.8345 11.0078C3.01814 11.0078 3.1992 11.0511 3.363 11.1341H4.448C4.66675 11.0334 4.91163 11.004 5.148 11.0501C5.32549 11.0747 5.48809 11.1626 5.60579 11.2977C5.72348 11.4328 5.78832 11.6059 5.78832 11.7851C5.78832 11.9643 5.72348 12.1374 5.60579 12.2725C5.48809 12.4076 5.32549 12.4955 5.148 12.5201C4.91171 12.5682 4.66621 12.5387 4.448 12.4361H3.363C3.1992 12.5191 3.01814 12.5624 2.8345 12.5624C2.65086 12.5624 2.4698 12.5191 2.306 12.4361H1.2C1.0214 12.4364 0.849434 12.3685 0.719302 12.2461C0.58917 12.1238 0.510716 11.9564 0.5 11.7781C0.520633 11.6074 0.603397 11.4502 0.732504 11.3366C0.861612 11.223 1.02803 11.1609 1.2 11.1621L2.229 11.1341Z" fill="url(#paint6_linear_7759_106232)"/>
<path d="M2.22899 21.595H2.30599C2.46979 21.512 2.65085 21.4688 2.83449 21.4688C3.01813 21.4688 3.19919 21.512 3.36299 21.595H4.44799C4.66674 21.4943 4.91162 21.4649 5.14799 21.511C5.32548 21.5356 5.48808 21.6235 5.60578 21.7586C5.72347 21.8937 5.78831 22.0669 5.78831 22.246C5.78831 22.4252 5.72347 22.5983 5.60578 22.7334C5.48808 22.8685 5.32548 22.9565 5.14799 22.981C4.9117 23.0291 4.6662 22.9997 4.44799 22.897H3.36299C3.19919 22.9801 3.01813 23.0233 2.83449 23.0233C2.65085 23.0233 2.46979 22.9801 2.30599 22.897H1.19999C1.02826 22.897 0.863568 22.8288 0.742139 22.7074C0.620709 22.586 0.55249 22.4213 0.55249 22.2495C0.55249 22.0778 0.620709 21.9131 0.742139 21.7917C0.863568 21.6703 1.02826 21.602 1.19999 21.602L2.22899 21.595Z" fill="url(#paint7_linear_7759_106232)"/>
<path d="M2.28491 31.39C2.28491 30.417 2.28491 29.437 2.28491 28.464C2.28491 28.219 2.34091 28.093 2.61391 28.121C2.88691 28.149 3.11791 28.121 3.36291 28.121C3.36291 29.073 3.36291 30.025 3.36291 30.977C3.33714 31.4315 3.45973 31.8821 3.71224 32.2608C3.96474 32.6396 4.33348 32.926 4.76291 33.077H3.95791C3.52911 33.0271 3.12998 32.833 2.826 32.5265C2.52201 32.22 2.33122 31.8192 2.28491 31.39Z" fill="#FC982E"/>
<path d="M2.32695 5.85981C2.24995 4.93581 2.32695 4.00481 2.32695 3.05981C2.32695 2.91281 2.32695 2.75881 2.32695 2.61181C2.36484 2.18221 2.54641 1.77792 2.84234 1.46421C3.13827 1.1505 3.53129 0.945677 3.95795 0.882812H4.73495C4.39466 1.02998 4.08754 1.24425 3.83195 1.51281C3.54397 1.82747 3.37767 2.23452 3.36295 2.66081C3.36295 3.57081 3.36295 4.48781 3.36295 5.39781C3.36295 5.79681 3.23695 5.90181 2.87295 5.85981C2.69119 5.84648 2.5087 5.84648 2.32695 5.85981Z" fill="#FC982E"/>
<path d="M33.876 14.2188C33.876 13.9878 33.876 13.7638 33.876 13.5188C34.1754 13.489 34.4778 13.5199 34.765 13.6098C34.9891 13.7065 35.179 13.8684 35.3101 14.0743C35.4412 14.2803 35.5073 14.5208 35.5 14.7648C35.5 16.2582 35.5 17.7492 35.5 19.2378C35.5007 19.4599 35.4543 19.6795 35.3638 19.8822C35.2733 20.085 35.1408 20.2662 34.975 20.4138C34.9451 20.4545 34.9069 20.4884 34.863 20.5133C34.819 20.5381 34.7703 20.5534 34.72 20.558C34.6697 20.5626 34.619 20.5565 34.5713 20.5401C34.5235 20.5237 34.4798 20.4974 34.443 20.4628C34.254 20.2878 34.31 20.0988 34.443 19.9448C34.5648 19.8236 34.6596 19.678 34.7211 19.5175C34.7826 19.3571 34.8095 19.1854 34.8 19.0138C34.8 17.7328 34.8 16.4588 34.8 15.1778C34.8 14.3168 34.716 14.2258 33.876 14.2188Z" fill="#FBB63E"/>
<path d="M31.6498 30.563C32.1172 30.5655 32.5845 30.5445 33.0498 30.5C33.0498 30.724 33.0498 30.948 33.0498 31.2C33.0498 31.452 33.0078 31.578 32.8608 31.627C32.4338 31.767 32.5038 32.096 32.5038 32.411C32.5038 32.495 32.5038 32.579 32.5038 32.663C32.2658 32.453 32.4478 32.145 32.3148 31.914C32.283 31.8762 32.242 31.8473 32.1958 31.83C31.5728 31.613 31.3768 31.193 31.6498 30.563Z" fill="#FFDF6E"/>
<path d="M31.2018 11.5057L30.8518 11.6667C30.8744 11.3768 31.0056 11.1061 31.219 10.9087C31.4325 10.7112 31.7125 10.6016 32.0033 10.6016C32.2941 10.6016 32.5742 10.7112 32.7876 10.9087C33.0011 11.1061 33.1322 11.3768 33.1548 11.6667C32.8757 11.4625 32.5456 11.3394 32.201 11.3109C31.8563 11.2825 31.5106 11.3499 31.2018 11.5057Z" fill="#FBB73F"/>
<path d="M32.462 31.7484C32.462 32.0424 32.462 32.3434 32.511 32.6374C32.56 32.9314 32.287 33.1764 31.937 33.1414C31.587 33.1064 31.475 32.8474 31.482 32.5254C31.489 32.2034 31.482 32.0214 31.482 31.7694C31.804 31.5734 32.14 31.7974 32.462 31.7484Z" fill="#312E4B"/>
<path d="M32.462 31.7444H31.482C31.013 31.6324 30.908 31.5064 30.908 31.0444C30.908 30.8624 30.908 30.6734 30.908 30.4844C31.1519 30.5354 31.4008 30.5589 31.65 30.5544C31.6532 30.5916 31.6532 30.6291 31.65 30.6664C31.664 31.5484 31.664 31.5484 32.462 31.7444Z" fill="#FFDF6E"/>
<path d="M18.462 22.2781H12.547C11.889 22.2781 11.602 21.9981 11.595 21.3471V14.6481C11.595 13.9901 11.882 13.7031 12.533 13.7031H24.433C25.049 13.7031 25.315 13.9621 25.315 14.5641V21.4101C25.315 22.0261 25.063 22.2781 24.447 22.2781H18.462Z" fill="url(#paint8_linear_7759_106232)"/>
<path d="M9.24978 17.0448V32.6618C9.24978 32.8088 9.34078 33.0468 9.13778 33.0888C8.87208 33.1622 8.59148 33.1622 8.32578 33.0888C8.32578 33.0888 8.27678 32.9838 8.26978 32.9208C8.2628 32.8346 8.2628 32.748 8.26978 32.6618C8.26978 22.2318 8.26978 11.8042 8.26978 1.37885C8.26978 1.23185 8.17178 1.00085 8.36078 0.937851C8.63015 0.874883 8.91041 0.874883 9.17978 0.937851C9.17978 0.937851 9.24278 1.04285 9.24278 1.09885C9.24977 1.21074 9.24977 1.32296 9.24278 1.43485L9.24978 17.0448Z" fill="#E3A130"/>
<path d="M21.8359 6.61408C22.3819 6.26408 22.9419 5.91408 23.4669 5.55008C23.5704 5.44791 23.7099 5.39062 23.8554 5.39062C24.0008 5.39062 24.1404 5.44791 24.2439 5.55008C24.629 5.86228 25.0335 6.14985 25.4549 6.41108C25.5896 6.46704 25.7018 6.56616 25.774 6.69287C25.8463 6.81957 25.8743 6.96668 25.8539 7.11108C25.8433 7.24854 25.8433 7.38662 25.8539 7.52408C25.2995 7.21085 24.7642 6.86491 24.2509 6.48808C24.1496 6.39259 24.0156 6.3394 23.8764 6.3394C23.7372 6.3394 23.6032 6.39259 23.5019 6.48808C22.9839 6.88008 22.4239 7.18808 21.8359 7.60108C21.7761 7.2748 21.7761 6.94036 21.8359 6.61408Z" fill="url(#paint9_linear_7759_106232)"/>
<path d="M3.36291 11.121H2.30591C2.30591 9.90304 2.30591 8.67804 2.30591 7.45304C2.30591 7.27104 2.34791 7.17304 2.55791 7.18004C2.76791 7.18704 3.10391 7.18004 3.37691 7.18004L3.36291 11.121Z" fill="#FC982E"/>
<path d="M2.30588 12.4141H3.36288C3.36288 13.5761 3.36288 14.7381 3.36288 15.9141C3.36288 16.2361 3.29988 16.3831 2.95688 16.3411C2.74478 16.3271 2.53198 16.3271 2.31988 16.3411C2.26388 15.0251 2.29188 13.7231 2.30588 12.4141Z" fill="#FC982E"/>
<path d="M3.36291 21.5898H2.30591C2.30591 20.3718 2.30591 19.1468 2.30591 17.9218C2.30591 17.7398 2.34791 17.6418 2.55791 17.6488C2.76791 17.6558 3.10391 17.6488 3.37691 17.6488L3.36291 21.5898Z" fill="#FC982E"/>
<path d="M2.30581 22.875H3.36281V26.788C3.10381 26.788 2.83781 26.788 2.57881 26.788C2.31981 26.788 2.28481 26.746 2.29181 26.522C2.30581 25.311 2.30581 24.1 2.30581 22.875Z" fill="#FC982E"/>
<path d="M4.46183 7.20766H5.09883C5.18249 7.20675 5.26514 7.18936 5.34208 7.1565C5.41901 7.12364 5.48872 7.07595 5.54722 7.01615C5.60572 6.95635 5.65187 6.88561 5.68303 6.80797C5.7142 6.73033 5.72976 6.64732 5.72883 6.56366C5.72983 6.47946 5.71374 6.39594 5.68155 6.31813C5.64936 6.24032 5.60173 6.16985 5.54154 6.11097C5.48135 6.05208 5.40984 6.00601 5.33135 5.97554C5.25285 5.94506 5.16899 5.93082 5.08483 5.93366C4.87603 5.96534 4.66364 5.96534 4.45483 5.93366C4.54204 5.81714 4.65267 5.72017 4.7796 5.64897C4.90653 5.57776 5.04696 5.53392 5.19185 5.52024C5.33675 5.50656 5.4829 5.52336 5.62091 5.56956C5.75892 5.61575 5.88574 5.69032 5.99321 5.78846C6.10067 5.8866 6.18641 6.00615 6.24491 6.13942C6.3034 6.27268 6.33336 6.41671 6.33285 6.56225C6.33235 6.70779 6.30139 6.85161 6.24197 6.98446C6.18255 7.11732 6.09598 7.23627 5.98783 7.33366C5.88387 7.43491 5.75941 7.51269 5.62284 7.56175C5.48627 7.61081 5.34077 7.63002 5.19615 7.61808C5.05152 7.60614 4.91114 7.56333 4.78447 7.49253C4.6578 7.42173 4.54778 7.32459 4.46183 7.20766Z" fill="#33304C"/>
<path d="M4.462 17.6769C4.7 17.6769 4.938 17.6769 5.162 17.6349C5.31695 17.6135 5.45841 17.5353 5.55886 17.4154C5.6593 17.2955 5.71155 17.1425 5.70544 16.9862C5.69933 16.8299 5.63529 16.6815 5.52579 16.5698C5.41628 16.4581 5.26914 16.3911 5.113 16.3819C4.89046 16.3923 4.66745 16.3783 4.448 16.3399C4.5352 16.2234 4.64583 16.1264 4.77276 16.0552C4.89969 15.984 5.04012 15.9402 5.18502 15.9265C5.32991 15.9128 5.47606 15.9296 5.61407 15.9758C5.75209 16.022 5.8789 16.0966 5.98637 16.1947C6.09384 16.2929 6.17958 16.4124 6.23807 16.5457C6.29657 16.6789 6.32652 16.823 6.32602 16.9685C6.32551 17.114 6.29455 17.2579 6.23513 17.3907C6.17571 17.5236 6.08914 17.6425 5.981 17.7399C5.88138 17.8435 5.76089 17.9248 5.62752 17.9783C5.49414 18.0319 5.35091 18.0565 5.20731 18.0505C5.06371 18.0446 4.92301 18.0082 4.79452 17.9438C4.66604 17.8794 4.5527 17.7884 4.462 17.6769Z" fill="#33304C"/>
<path d="M4.45483 12.4238C4.66483 12.4238 4.87483 12.4238 5.09183 12.4238C5.26078 12.4238 5.4228 12.3567 5.54226 12.2372C5.66172 12.1178 5.72883 11.9558 5.72883 11.7868C5.72883 11.6179 5.66172 11.4558 5.54226 11.3364C5.4228 11.2169 5.26078 11.1498 5.09183 11.1498C4.88183 11.1498 4.66483 11.1498 4.45483 11.1498C4.58977 10.9809 4.77386 10.8581 4.98163 10.7984C5.18941 10.7387 5.4106 10.745 5.61463 10.8165C5.81865 10.888 5.99542 11.0211 6.12048 11.1974C6.24555 11.3738 6.31272 11.5846 6.31272 11.8008C6.31272 12.017 6.24555 12.2278 6.12048 12.4042C5.99542 12.5805 5.81865 12.7136 5.61463 12.7851C5.4106 12.8566 5.18941 12.8629 4.98163 12.8032C4.77386 12.7435 4.58977 12.6207 4.45483 12.4518V12.4238Z" fill="#322F4B"/>
<path d="M4.45483 22.8926C4.67883 22.8926 4.90283 22.8926 5.15483 22.8926C5.32378 22.8926 5.4858 22.8254 5.60526 22.706C5.72472 22.5865 5.79183 22.4245 5.79183 22.2556C5.79183 22.0866 5.72472 21.9246 5.60526 21.8051C5.4858 21.6857 5.32378 21.6186 5.15483 21.6186C4.93083 21.6186 4.70683 21.6186 4.45483 21.6186C4.58977 21.4497 4.77386 21.3269 4.98163 21.2671C5.18941 21.2074 5.4106 21.2138 5.61463 21.2852C5.81865 21.3567 5.99542 21.4899 6.12048 21.6662C6.24555 21.8425 6.31272 22.0534 6.31272 22.2696C6.31272 22.4857 6.24555 22.6966 6.12048 22.8729C5.99542 23.0493 5.81865 23.1824 5.61463 23.2539C5.4106 23.3254 5.18941 23.3317 4.98163 23.272C4.77386 23.2123 4.58977 23.0895 4.45483 22.9206V22.8926Z" fill="#322F4B"/>
<path d="M4.46191 28.1107C4.69991 28.1107 4.93791 28.1107 5.16191 28.0617C5.3111 28.0393 5.44728 27.9641 5.5457 27.8498C5.64413 27.7355 5.69826 27.5896 5.69826 27.4388C5.69826 27.2879 5.64413 27.142 5.5457 27.0277C5.44728 26.9134 5.3111 26.8382 5.16191 26.8158C4.92391 26.8158 4.68591 26.8157 4.46191 26.7737C4.59892 26.6115 4.78245 26.4954 4.98767 26.4409C5.19289 26.3864 5.40989 26.3964 5.60928 26.4693C5.80868 26.5422 5.98085 26.6747 6.10249 26.8487C6.22414 27.0227 6.28937 27.2299 6.28937 27.4422C6.28937 27.6546 6.22414 27.8618 6.10249 28.0358C5.98085 28.2098 5.80868 28.3423 5.60928 28.4152C5.40989 28.4881 5.19289 28.4981 4.98767 28.4436C4.78245 28.3891 4.59892 28.273 4.46191 28.1107Z" fill="#332F4B"/>
<path d="M18.2308 17.4574H22.1998C22.3248 17.4536 22.4498 17.4678 22.5708 17.4994C22.6647 17.5211 22.7473 17.5766 22.8028 17.6554C22.8583 17.7342 22.8829 17.8306 22.8718 17.9264C22.8737 18.0146 22.8446 18.1007 22.7896 18.1697C22.7346 18.2388 22.6572 18.2864 22.5708 18.3044C22.4383 18.3397 22.3019 18.3585 22.1648 18.3604H14.1218C13.9827 18.3726 13.8428 18.3485 13.7158 18.2904C13.6405 18.2589 13.5766 18.2052 13.5328 18.1363C13.489 18.0675 13.4674 17.9869 13.4708 17.9054C13.4684 17.824 13.4904 17.7438 13.5341 17.6752C13.5778 17.6065 13.6411 17.5526 13.7158 17.5204C13.8558 17.4648 14.0069 17.4432 14.1568 17.4574H18.2308Z" fill="white"/>
<path d="M18.1889 20.4666H13.9889C13.7719 20.4666 13.5479 20.4666 13.4639 20.2076C13.3799 19.9486 13.5269 19.6406 13.8909 19.6406H22.3889C22.6829 19.6406 22.8999 19.7596 22.8929 20.0676C22.8859 20.3756 22.6689 20.4806 22.3749 20.4736L18.1889 20.4666Z" fill="white"/>
<path d="M16.5298 16.3289C15.6618 16.3289 14.7938 16.3289 13.9328 16.3289C13.6738 16.3289 13.4778 16.2659 13.4708 15.9649C13.4604 15.9022 13.4648 15.8379 13.4838 15.7772C13.5027 15.7165 13.5357 15.6611 13.5799 15.6155C13.6242 15.5699 13.6786 15.5353 13.7386 15.5145C13.7987 15.4937 13.8628 15.4873 13.9258 15.4959H19.2038C19.5328 15.4959 19.7708 15.6989 19.7288 15.9509C19.6868 16.2029 19.4768 16.3289 19.2038 16.3219C18.3148 16.3219 17.4188 16.3289 16.5298 16.3289Z" fill="white"/>
</g>
<defs>
<linearGradient id="paint0_linear_7759_106232" x1="25.7869" y1="0.835937" x2="20.8359" y2="6.6677" gradientUnits="userSpaceOnUse">
<stop stop-color="#0E3049"/>
<stop offset="1" stop-color="#09335C"/>
</linearGradient>
<linearGradient id="paint1_linear_7759_106232" x1="33.4059" y1="21.7656" x2="28.2269" y2="24.5782" gradientUnits="userSpaceOnUse">
<stop stop-color="#0E3049"/>
<stop offset="1" stop-color="#09335C"/>
</linearGradient>
<linearGradient id="paint2_linear_7759_106232" x1="30.5298" y1="21.0703" x2="33.5736" y2="21.0889" gradientUnits="userSpaceOnUse">
<stop stop-color="#E3A130"/>
<stop offset="1" stop-color="#E3A130"/>
<stop offset="1" stop-color="#E3A130"/>
</linearGradient>
<linearGradient id="paint3_linear_7759_106232" x1="5.7755" y1="22.8594" x2="-0.462382" y2="30.5468" gradientUnits="userSpaceOnUse">
<stop stop-color="#0E3049"/>
<stop offset="1" stop-color="#09335C"/>
</linearGradient>
<linearGradient id="paint4_linear_7759_106232" x1="5.66971" y1="12.3906" x2="-1.21528" y2="20.0566" gradientUnits="userSpaceOnUse">
<stop stop-color="#0E3049"/>
<stop offset="1" stop-color="#09335C"/>
</linearGradient>
<linearGradient id="paint5_linear_7759_106232" x1="5.66971" y1="2.61719" x2="-0.624061" y2="10.1899" gradientUnits="userSpaceOnUse">
<stop stop-color="#0E3049"/>
<stop offset="1" stop-color="#09335C"/>
</linearGradient>
<linearGradient id="paint6_linear_7759_106232" x1="5.67379" y1="11.0078" x2="5.32617" y2="13.2957" gradientUnits="userSpaceOnUse">
<stop stop-color="#0E3049"/>
<stop offset="1" stop-color="#09335C"/>
</linearGradient>
<linearGradient id="paint7_linear_7759_106232" x1="5.67492" y1="21.4687" x2="5.32397" y2="23.7556" gradientUnits="userSpaceOnUse">
<stop stop-color="#0E3049"/>
<stop offset="1" stop-color="#09335C"/>
</linearGradient>
<linearGradient id="paint8_linear_7759_106232" x1="25.0178" y1="13.7031" x2="21.2411" y2="25.3942" gradientUnits="userSpaceOnUse">
<stop stop-color="#0E3049"/>
<stop offset="1" stop-color="#09335C"/>
</linearGradient>
<linearGradient id="paint9_linear_7759_106232" x1="21.791" y1="5.39062" x2="25.9866" y2="5.54397" gradientUnits="userSpaceOnUse">
<stop stop-color="#E3A130"/>
<stop offset="1" stop-color="#E3A130"/>
<stop offset="1" stop-color="#E3A130"/>
</linearGradient>
<clipPath id="clip0_7759_106232">
<rect width="35" height="32.382" fill="white" transform="translate(0.5 0.8125)"/>
</clipPath>
</defs>
</svg>
