<svg width="25" height="25" viewBox="0 0 25 25" fill="none" xmlns="http://www.w3.org/2000/svg">
<path d="M21.8054 0H3.19458C1.43306 0 0 1.43311 0 3.19463V21.8054C0 23.5669 1.43306 25 3.19458 25H21.8054C23.5669 25 25 23.5669 25 21.8054V3.19463C25 1.43311 23.5669 0 21.8054 0ZM23.5274 21.8054C23.5274 22.755 22.7549 23.5274 21.8054 23.5274H3.19458C2.24502 23.5274 1.47251 22.7549 1.47251 21.8054V19.1195L6.31895 14.9959C6.4958 14.8455 6.75381 14.844 6.93232 14.9923L9.96816 17.5132C10.2609 17.7562 10.6906 17.7363 10.9596 17.467L18.1729 10.2427C18.3033 10.1121 18.4553 10.0994 18.5346 10.1034C18.6137 10.1075 18.7639 10.1357 18.8802 10.279L23.5275 16.0012V21.8054H23.5274ZM23.5274 13.6653L20.0232 9.35054C19.6757 8.92261 19.1606 8.66099 18.6101 8.63272C18.0599 8.60488 17.5204 8.81201 17.1309 9.20215L10.3922 15.9512L7.87314 13.8595C7.14272 13.2529 6.08784 13.2592 5.3647 13.8745L1.47251 17.1861V3.19463C1.47251 2.24507 2.24502 1.47256 3.19458 1.47256H21.8054C22.755 1.47256 23.5274 2.24507 23.5274 3.19463V13.6653Z" fill="#252A36"/>
<path d="M7.86978 3.07422C5.91201 3.07422 4.31934 4.66699 4.31934 6.62466C4.31934 8.58237 5.91206 10.1751 7.86978 10.1751C9.82749 10.1751 11.4202 8.58237 11.4202 6.62466C11.4202 4.66694 9.82754 3.07422 7.86978 3.07422ZM7.86978 8.70259C6.72397 8.70259 5.79185 7.77041 5.79185 6.62466C5.79185 5.47886 6.72397 4.54673 7.86978 4.54673C9.01558 4.54673 9.9477 5.47891 9.9477 6.62466C9.9477 7.77041 9.01558 8.70259 7.86978 8.70259Z" fill="#252A36"/>
</svg>
