<svg width="24" height="24" viewBox="0 0 24 24" fill="none" xmlns="http://www.w3.org/2000/svg">
<g clip-path="url(#clip0_1676_2937)">
<path d="M6.94143 7.81842C7.4594 7.81923 7.96596 7.66176 8.39706 7.36591C8.82816 7.07006 9.16443 6.64913 9.36334 6.15636C9.56225 5.66358 9.61487 5.1211 9.51455 4.59751C9.41422 4.07392 9.16545 3.59274 8.7997 3.21484C8.43395 2.83693 7.96766 2.57927 7.45978 2.47444C6.9519 2.36961 6.42526 2.42232 5.94646 2.6259C5.46766 2.82948 5.05821 3.17479 4.76988 3.61816C4.48156 4.06153 4.32732 4.58304 4.32666 5.11674C4.32736 5.83175 4.60283 6.51739 5.09284 7.02368C5.58284 7.52997 6.2475 7.81572 6.94143 7.81842ZM6.94143 3.87705C7.18051 3.87624 7.41444 3.9486 7.61356 4.08496C7.81268 4.22131 7.96801 4.41552 8.05987 4.64296C8.15173 4.8704 8.17597 5.12082 8.12952 5.36247C8.08307 5.60412 7.96802 5.82612 7.79896 6.00031C7.6299 6.1745 7.41445 6.29305 7.17992 6.34091C6.94539 6.38877 6.70235 6.36379 6.48162 6.26915C6.26088 6.1745 6.0724 6.01445 5.94006 5.80928C5.80772 5.60412 5.73749 5.36308 5.73828 5.11674C5.73915 4.78804 5.86613 4.47303 6.09152 4.24041C6.31691 4.00779 6.62242 3.87644 6.94143 3.875V3.87705Z" fill="black"/>
<path d="M18.963 15.6348C18.901 15.5251 18.8123 15.4341 18.7056 15.3706C18.5989 15.3072 18.4779 15.2737 18.3548 15.2734C18.2483 15.2735 18.1432 15.2984 18.0474 15.3462C17.9516 15.3941 17.8675 15.4636 17.8015 15.5496L15.5679 17.851C15.5024 17.9186 15.4504 17.9988 15.415 18.087C15.3795 18.1753 15.3613 18.2699 15.3613 18.3654C15.3614 18.4609 15.3796 18.5555 15.4152 18.6437C15.4507 18.732 15.5027 18.8121 15.5683 18.8797C15.6338 18.9472 15.7117 19.0007 15.7973 19.0373C15.883 19.0738 15.9748 19.0926 16.0675 19.0925C16.1602 19.0925 16.252 19.0737 16.3376 19.0371C16.4232 19.0005 16.501 18.9469 16.5666 18.8793L17.6473 17.7665L17.642 20.3652C17.6418 20.4607 17.6599 20.5553 17.6953 20.6436C17.7306 20.7319 17.7825 20.8122 17.8479 20.8798C17.9134 20.9475 17.9911 21.0011 18.0767 21.0378C18.1623 21.0744 18.2541 21.0934 18.3468 21.0934C18.4397 21.0935 18.5316 21.0748 18.6174 21.0382C18.7032 21.0016 18.7811 20.948 18.8468 20.8803C18.9124 20.8127 18.9645 20.7324 19 20.644C19.0355 20.5556 19.0537 20.4608 19.0536 20.3652L19.0569 17.7883L20.1105 18.8732C20.176 18.9407 20.2538 18.9943 20.3395 19.0308C20.4251 19.0673 20.5168 19.0862 20.6095 19.0862C20.7022 19.0862 20.7939 19.0673 20.8796 19.0308C20.9652 18.9943 21.043 18.9407 21.1085 18.8732C21.174 18.8057 21.226 18.7255 21.2615 18.6373C21.2969 18.5491 21.3152 18.4545 21.3152 18.359C21.3152 18.2635 21.2969 18.169 21.2615 18.0808C21.226 17.9926 21.174 17.9124 21.1085 17.8449L18.963 15.6348Z" fill="black"/>
<path d="M22.347 14.0696C21.5999 13.2994 20.6581 12.7607 19.6285 12.5148C18.599 12.2689 17.5232 12.3256 16.5234 12.6784C15.5236 13.0313 14.64 13.6662 13.9731 14.5109C13.3062 15.3556 12.8827 16.3762 12.7509 17.4566H2.55521C2.25213 17.4563 1.96156 17.3321 1.74719 17.1113C1.53282 16.8906 1.41214 16.5913 1.41162 16.279V16.1044L5.89531 11.5357C6.23085 11.2025 6.67143 11.0047 7.1367 10.9783C7.60198 10.9519 8.06098 11.0986 8.43001 11.3918L9.56168 12.5394L9.64573 12.6131C10.1163 12.9595 10.7979 12.9438 11.2248 12.5879L14.8852 8.87765C15.3322 8.42602 15.8905 8.10894 16.4997 7.96075C17.109 7.81255 17.746 7.83887 18.3418 8.03687C18.721 8.16299 19.0745 8.35967 19.3848 8.61716L19.7653 9.0038V9.4559C19.7653 9.64886 19.8397 9.83393 19.9721 9.97038C20.1046 10.1068 20.2842 10.1835 20.4715 10.1835C20.6587 10.1835 20.8383 10.1068 20.9708 9.97038C21.1032 9.83393 21.1776 9.64886 21.1776 9.4559V2.63281C21.1767 1.93471 20.9071 1.26546 20.428 0.771889C19.9488 0.278316 19.2993 0.000721721 18.6217 0H2.55521C1.87774 0.000722053 1.22822 0.278338 0.749178 0.77193C0.270135 1.26552 0.00070077 1.93477 0 2.63281V16.279C0.000875905 16.9769 0.270387 17.646 0.749411 18.1394C1.22843 18.6329 1.87786 18.9104 2.55521 18.9111H12.7516C12.8642 19.8296 13.1878 20.7071 13.6957 21.4708C14.2036 22.2345 14.8811 22.8622 15.6717 23.3019C16.4624 23.7416 17.3435 23.9805 18.2418 23.9989C19.1401 24.0172 20.0297 23.8143 20.8366 23.4072C21.6436 23.0001 22.3446 22.4004 22.8814 21.6581C23.4182 20.9157 23.7753 20.052 23.9231 19.1389C24.0709 18.2257 24.005 17.2894 23.731 16.4077C23.457 15.5261 22.9827 14.7245 22.3477 14.0696H22.347ZM2.55521 1.45449H18.6217C18.9249 1.45485 19.2156 1.57911 19.43 1.80001C19.6444 2.02091 19.765 2.32041 19.7653 2.63281V7.12039C19.4539 6.92301 19.1206 6.76482 18.7726 6.6492C17.9319 6.36986 17.0329 6.33307 16.1733 6.54284C15.3137 6.7526 14.5263 7.20091 13.8965 7.83911L10.4187 11.3652L10.0878 11.0243L10.0997 11.0127L9.57889 10.4883C8.95151 9.86529 8.11392 9.51753 7.2426 9.51829C6.37128 9.51906 5.53426 9.86828 4.90791 10.4924L1.41162 14.058V2.63281C1.41197 2.32041 1.53257 2.02091 1.74696 1.80001C1.96134 1.57911 2.25202 1.45485 2.55521 1.45449ZM21.3503 21.2705C20.6578 21.9848 19.7463 22.4297 18.7712 22.5292C17.796 22.6287 16.8175 22.3767 16.0025 21.8162C15.1874 21.2557 14.5862 20.4214 14.3012 19.4553C14.0163 18.4893 14.0652 17.4513 14.4398 16.5183C14.8143 15.5852 15.4912 14.8149 16.3552 14.3385C17.2192 13.8621 18.2168 13.7091 19.1779 13.9056C20.1391 14.102 21.0045 14.6359 21.6265 15.4161C22.2485 16.1962 22.5888 17.1745 22.5892 18.1842C22.5887 19.3416 22.1427 20.4515 21.349 21.2705H21.3503Z" fill="black"/>
</g>
<defs>
<clipPath id="clip0_1676_2937">
<rect width="24" height="24" fill="white"/>
</clipPath>
</defs>
</svg>
