<svg width="18" height="18" viewBox="0 0 18 18" fill="none" xmlns="http://www.w3.org/2000/svg">
<g clip-path="url(#clip0_4538_78958)">
<rect width="18" height="18" rx="9" fill="white"/>
<path d="M9 0C11.3869 0 13.6761 0.948212 15.364 2.63604C17.0518 4.32387 18 6.61305 18 9C18 11.3869 17.0518 13.6761 15.364 15.364C13.6761 17.0518 11.3869 18 9 18C6.61305 18 4.32387 17.0518 2.63604 15.364C0.948211 13.6761 0 11.3869 0 9C0 6.61305 0.948211 4.32387 2.63604 2.63604C4.32387 0.948212 6.61305 0 9 0ZM10.3499 5.52561C11.0184 5.52561 11.561 5.0615 11.561 4.37369C11.561 3.68588 11.0171 3.22177 10.3499 3.22177C9.68138 3.22177 9.14142 3.68588 9.14142 4.37369C9.14142 5.0615 9.68138 5.52561 10.3499 5.52561ZM10.5852 12.7598C10.5852 12.6222 10.6327 12.2648 10.6057 12.0617L9.54896 13.2779C9.33041 13.508 9.05657 13.6675 8.92801 13.625C8.86968 13.6036 8.82093 13.562 8.79053 13.5078C8.76013 13.4536 8.75007 13.3903 8.76216 13.3293L10.5235 7.76516C10.6675 7.05935 10.2715 6.41526 9.43197 6.33298C8.54618 6.33298 7.24255 7.23163 6.44933 8.37197C6.44933 8.50825 6.42361 8.84765 6.45061 9.05078L7.50611 7.8333C7.72466 7.60574 7.97922 7.44504 8.10778 7.48875C8.17112 7.51149 8.22302 7.55815 8.25235 7.61872C8.28167 7.67929 8.28608 7.74894 8.26462 7.81273L6.51875 13.3499C6.31691 13.9979 6.69874 14.633 7.62438 14.7769C8.98714 14.7769 9.79194 13.9002 10.5865 12.7598H10.5852Z" fill="#252A36"/>
</g>
<defs>
<clipPath id="clip0_4538_78958">
<rect width="18" height="18" rx="9" fill="white"/>
</clipPath>
</defs>
</svg>
