<svg width="24" height="24" viewBox="0 0 24 24" fill="none" xmlns="http://www.w3.org/2000/svg">
<path d="M12.3047 0.547471C16.293 0.598146 19.5107 3.84717 19.5107 7.84756C19.5107 10.7387 17.83 13.2384 15.3902 14.4209C15.0858 14.5687 14.8951 14.8769 14.8951 15.2119V16.0714H9.52451V15.2119C9.52451 14.88 9.33703 14.57 9.03053 14.4216C6.58452 13.2362 4.90145 10.7273 4.90921 7.82739C4.92004 3.78402 8.26105 0.495988 12.3047 0.547471Z" stroke="#7C7F86"/>
<path d="M15.2 22.5345C15.2 23.234 14.5286 23.8008 13.7 23.8008H10.7001C9.87163 23.8008 9.19995 23.2339 9.19995 22.5345V21.8008H15.2V22.5345Z" fill="#7C7F86"/>
<path d="M14.0565 8.64453C13.317 8.64453 12.7154 9.2624 12.7154 10.0219V10.5407H11.705V10.0219C11.705 9.2624 11.1037 8.64453 10.3642 8.64453C9.62472 8.64453 9.02344 9.2624 9.02344 10.0219C9.02344 10.7812 9.62501 11.3991 10.3642 11.3991H10.8693V15.7103C10.8687 15.7672 10.879 15.8234 10.8997 15.8761C10.9204 15.9287 10.9512 15.9767 10.99 16.017C11.0289 16.0574 11.0751 16.0895 11.1262 16.1114C11.1772 16.1332 11.232 16.1445 11.2872 16.1445C11.3425 16.1445 11.3973 16.1332 11.4482 16.1114C11.4993 16.0895 11.5455 16.0574 11.5845 16.017C11.6233 15.9767 11.6539 15.9287 11.6747 15.8761C11.6954 15.8234 11.7058 15.7672 11.7051 15.7103V11.3991H12.7154V15.7103C12.7155 15.8242 12.7595 15.9333 12.8379 16.0139C12.9162 16.0943 13.0226 16.1396 13.1334 16.1396C13.2443 16.1396 13.3505 16.0943 13.429 16.0139C13.5073 15.9333 13.5514 15.8242 13.5514 15.7103V11.3991H14.0565C14.7959 11.3991 15.3973 10.7812 15.3973 10.0219C15.3973 9.2624 14.7957 8.64453 14.0565 8.64453ZM10.3642 10.5406C10.0856 10.5406 9.85894 10.308 9.85894 10.0219C9.85894 9.7358 10.0857 9.50297 10.3642 9.50297C10.6426 9.50297 10.8693 9.7358 10.8693 10.0219V10.5407L10.3642 10.5406ZM14.0565 10.5406H13.5515V10.0219C13.5515 9.7358 13.7779 9.50297 14.0566 9.50297C14.3351 9.50297 14.5615 9.7358 14.5615 10.0219C14.5615 10.308 14.3351 10.5406 14.0565 10.5406Z" fill="#7C7F86"/>
<path d="M8.97887 18.3358H15.4403C15.6712 18.3358 15.8582 18.1486 15.8582 17.9178C15.8582 17.6871 15.6712 17.5 15.4403 17.5H8.97887C8.92358 17.4994 8.86872 17.5097 8.81747 17.5305C8.76621 17.5512 8.71957 17.5818 8.68025 17.6207C8.64094 17.6596 8.60973 17.7059 8.58842 17.7569C8.56713 17.8079 8.55615 17.8626 8.55615 17.918C8.55615 17.9733 8.56713 18.0279 8.58842 18.079C8.60973 18.13 8.64094 18.1763 8.68025 18.2151C8.71957 18.254 8.76621 18.2847 8.81747 18.3054C8.86872 18.3262 8.92358 18.3364 8.97887 18.3358ZM15.4403 20.2692H8.97887C8.92358 20.2686 8.86872 20.2789 8.81747 20.2996C8.76621 20.3204 8.71957 20.351 8.68025 20.39C8.64094 20.4288 8.60973 20.475 8.58842 20.5261C8.56713 20.5772 8.55615 20.6318 8.55615 20.6871C8.55615 20.7424 8.56713 20.7972 8.58842 20.8481C8.60973 20.8992 8.64094 20.9454 8.68025 20.9843C8.71957 21.0232 8.76621 21.0539 8.81747 21.0746C8.86872 21.0953 8.92358 21.1057 8.97887 21.105H15.4403C15.4955 21.1057 15.5503 21.0953 15.6016 21.0746C15.6529 21.0539 15.6995 21.0232 15.7389 20.9843C15.7781 20.9454 15.8093 20.8992 15.8307 20.8481C15.852 20.7972 15.8629 20.7424 15.8629 20.6871C15.8629 20.6318 15.852 20.5772 15.8307 20.5261C15.8093 20.475 15.7781 20.4288 15.7389 20.39C15.6995 20.351 15.6529 20.3204 15.6016 20.2996C15.5503 20.2789 15.4955 20.2686 15.4403 20.2692ZM15.4403 18.8846H8.97887C8.92358 18.884 8.86872 18.8943 8.81747 18.915C8.76621 18.9358 8.71957 18.9664 8.68025 19.0054C8.64094 19.0442 8.60973 19.0905 8.58842 19.1415C8.56713 19.1925 8.55615 19.2472 8.55615 19.3025C8.55615 19.3578 8.56713 19.4125 8.58842 19.4636C8.60973 19.5146 8.64094 19.5609 8.68025 19.5997C8.71957 19.6386 8.76621 19.6693 8.81747 19.69C8.86872 19.7108 8.92358 19.721 8.97887 19.7205H15.4403C15.4951 19.7205 15.5495 19.7097 15.6002 19.6887C15.6508 19.6677 15.697 19.6369 15.7358 19.5981C15.7745 19.5593 15.8054 19.5132 15.8263 19.4626C15.8474 19.4118 15.8582 19.3575 15.8582 19.3026C15.8582 19.1918 15.8141 19.0854 15.7358 19.007C15.6574 18.9287 15.5511 18.8846 15.4403 18.8846Z" fill="#7C7F86"/>
<path d="M15.8685 15.8008H8.48366C8.374 15.8026 8.26944 15.8474 8.19253 15.9256C8.11562 16.0038 8.07251 16.109 8.07251 16.2187C8.07251 16.3284 8.11562 16.4336 8.19253 16.5118C8.26944 16.59 8.374 16.6348 8.48366 16.6366H15.8683C15.9783 16.6353 16.0833 16.5908 16.1607 16.5126C16.2381 16.4344 16.2815 16.3288 16.2815 16.2188C16.2815 16.1088 16.2382 16.0032 16.1609 15.9249C16.0835 15.8467 15.9785 15.8021 15.8685 15.8008V15.8008Z" fill="#7C7F86"/>
</svg>
