<svg width="24" height="24" viewBox="0 0 24 24" fill="none" xmlns="http://www.w3.org/2000/svg">
<g clip-path="url(#clip0_861_11794)">
<path d="M16.2188 2.85938C15.8301 2.85938 15.5156 3.17386 15.5156 3.5625C15.5156 3.95114 15.8301 4.26562 16.2188 4.26562C17.3819 4.26562 18.3281 5.21184 18.3281 6.375C18.3281 6.76364 18.6426 7.07812 19.0312 7.07812C19.4199 7.07812 19.7344 6.76364 19.7344 6.375C19.7344 5.21184 20.6806 4.26562 21.8438 4.26562C22.2324 4.26562 22.5469 3.95114 22.5469 3.5625C22.5469 3.17386 22.2324 2.85938 21.8438 2.85938C20.6806 2.85938 19.7344 1.86628 19.7344 0.703125C19.7344 0.314484 19.4199 0 19.0312 0C18.6426 0 18.3281 0.314484 18.3281 0.703125C18.3281 1.86628 17.3819 2.85938 16.2188 2.85938ZM8.48438 9.1875C8.48438 9.57614 8.79886 9.89062 9.1875 9.89062C11.1259 9.89062 12.7031 11.4678 12.7031 13.4062C12.7031 13.7949 13.0176 14.1094 13.4062 14.1094C13.7949 14.1094 14.1094 13.7949 14.1094 13.4062C14.1094 11.4678 15.6866 9.89062 17.625 9.89062C18.0136 9.89062 18.3281 9.57614 18.3281 9.1875C18.3281 8.79886 18.0136 8.48438 17.625 8.48438C15.6866 8.48438 14.1094 6.90717 14.1094 4.96875C14.1094 4.58011 13.7949 4.26562 13.4062 4.26562C13.0176 4.26562 12.7031 4.58011 12.7031 4.96875C12.7031 6.90717 11.1259 8.48438 9.1875 8.48438C8.79886 8.48438 8.48438 8.79886 8.48438 9.1875Z" fill="#E3A130"/>
<path d="M12 24C17.9408 24 23.1895 19.5132 23.9936 13.6266C24.015 13.4689 23.9823 13.3085 23.9009 13.1718C23.8195 13.035 23.6941 12.9298 23.5453 12.8734C23.2376 12.7573 22.8916 12.8686 22.711 13.1426C21.1392 15.5088 18.348 16.9219 15.5156 16.9219C10.8629 16.9219 7.07812 13.1371 7.07812 8.48435C7.07812 5.65193 8.49122 2.85996 10.8574 1.28824C10.9901 1.20026 11.0891 1.06979 11.138 0.918214C11.1869 0.766641 11.1829 0.602949 11.1266 0.45396C11.0105 0.147726 10.6974 -0.034946 10.3733 0.00560092C4.48673 0.809648 0 6.05913 0 12C0 18.5911 5.40891 24 12 24Z" fill="#E3A130"/>
</g>
<defs>
<clipPath id="clip0_861_11794">
<rect width="24" height="24" fill="white"/>
</clipPath>
</defs>
</svg>
