<svg width="22" height="22" viewBox="0 0 22 22" fill="none" xmlns="http://www.w3.org/2000/svg">
<path d="M10.5392 4.15692L10.9999 5.25042L11.4607 4.15692C12.2647 2.24879 14.1365 0.898438 16.2566 0.898438C19.1795 0.898438 21.5 3.33422 21.5 6.23998V6.24056V6.24114V6.24171V6.24228V6.24285V6.24342V6.24399V6.24455V6.24511V6.24567V6.24623V6.24678V6.24734V6.24789V6.24844V6.24898V6.24953V6.25007V6.25061V6.25115V6.25169V6.25222V6.25275V6.25328V6.25381V6.25434V6.25486V6.25539V6.25591V6.25643V6.25694V6.25746V6.25797V6.25848V6.25899V6.2595V6.26001V6.26051V6.26102V6.26152V6.26202V6.26251V6.26301V6.2635V6.264V6.26449V6.26498V6.26546V6.26595V6.26643V6.26692V6.2674V6.26788V6.26836V6.26883V6.26931V6.26978V6.27025V6.27072V6.27119V6.27166V6.27212V6.27259V6.27305V6.27351V6.27397V6.27443V6.27489V6.27535V6.2758V6.27625V6.27671V6.27716V6.27761V6.27806V6.2785V6.27895V6.27939V6.27984V6.28028V6.28072V6.28116V6.2816V6.28203V6.28247V6.2829V6.28334V6.28377V6.2842V6.28463V6.28506V6.28549V6.28592V6.28635V6.28677V6.2872V6.28762V6.28804V6.28846V6.28888V6.2893V6.28972V6.29014V6.29056V6.29097V6.29139V6.2918V6.29221V6.29263V6.29304V6.29345V6.29386V6.29427V6.29468V6.29508V6.29549V6.2959V6.2963V6.29671V6.29711V6.29752V6.29792V6.29832V6.29872V6.29912V6.29952V6.29992V6.30032V6.30072V6.30112V6.30152V6.30192V6.30231V6.30271V6.3031V6.3035V6.30389V6.30429V6.30468V6.30507V6.30547V6.30586V6.30625V6.30664V6.30703V6.30743V6.30782V6.30821V6.3086V6.30899V6.30938V6.30977V6.31015V6.31054V6.31093V6.31132V6.31171V6.3121V6.31249V6.31287V6.31326V6.31365V6.31403V6.31442V6.31481V6.3152V6.31558V6.31597V6.31636V6.31674V6.31713V6.31752V6.3179V6.31829V6.31868V6.31907V6.31945V6.31984V6.32023V6.32061V6.321V6.32139V6.32178V6.32217V6.32255V6.32294V6.32333V6.32372V6.32411V6.3245V6.32489V6.32528V6.32567V6.32606V6.32645V6.32684V6.32723V6.32762V6.32801V6.32841V6.3288V6.32919V6.32959V6.32998V6.33037V6.33077V6.33117V6.33156V6.33196V6.33235V6.33275V6.33315V6.33355V6.33395V6.33435V6.33475V6.33515V6.33555V6.33595V6.33635V6.33676V6.33716V6.33757V6.33797V6.33838V6.33879V6.33919V6.3396V6.34001V6.34042V6.34083V6.34124V6.34165V6.34207V6.34248V6.3429V6.34331V6.34373V6.34415V6.34456V6.34498V6.3454V6.34582V6.34625V6.34667V6.34709V6.34752V6.34795V6.34837V6.3488V6.34923V6.34966V6.35009V6.35052V6.35096V6.35139V6.35183V6.35226V6.3527V6.35314V6.35358V6.35402V6.35447V6.35491V6.35536V6.3558V6.35625V6.3567V6.35715V6.3576V6.35806V6.35851V6.35897V6.35942V6.35988V6.36034V6.3608V6.36127V6.36173V6.3622V6.36266V6.36313V6.3636V6.36407V6.36454V6.36502V6.3655V6.36597V6.36645V6.36693V6.36741V6.3679V6.36838V6.36887V6.36936V6.36985V6.37034V6.37084V6.37133V6.37183V6.37233V6.37283V6.37333V6.37383V6.37434V6.37485V6.37536V6.37587V6.37638V6.3769V6.37741V6.37793V6.37845V6.37897V6.3795V6.38002V6.38055V6.38108V6.38161V6.38215V6.38268V6.38322V6.38376V6.3843V6.38485V6.38539V6.38594V6.38649V6.38704V6.3876V6.38816V6.38871V6.38928V6.38984V6.3904V6.39097V6.39154V6.39211V6.39269V6.39326V6.39384V6.39442V6.395V6.39559V6.39618V6.39677V6.39736V6.39795V6.39855V6.39915V6.39975V6.40035V6.40096V6.40157V6.40218V6.40279V6.40341V6.40403V6.40465V6.40527V6.4059V6.40653V6.40716V6.40779V6.40843V6.40907V6.40971V6.41035V6.411V6.41165V6.4123V6.41296V6.41361V6.41427V6.41494V6.4156V6.41627V6.41694V6.41761V6.41829V6.41897V6.41965V6.42034V6.42103V6.42172V6.42241V6.4231V6.4238V6.42451V6.42521V6.42592V6.42663V6.42734V6.42806V6.42878V6.4295V6.43023V6.43095V6.43169V6.43242V6.43316V6.4339V6.43464V6.43539V6.43614V6.43689V6.43765V6.43841V6.43917V6.43994V6.4407V6.44148V6.44225V6.44303V6.44381V6.4446V6.44538V6.44618V6.44697V6.44777V6.44857V6.44937V6.45018V6.45099V6.45181V6.45263V6.45345V6.45427V6.4551V6.45593V6.45677V6.45761V6.45845V6.45929V6.46014V6.46099V6.46185V6.46271V6.46357V6.46444V6.46531V6.46618V6.46706V6.46794V6.46883V6.46971V6.47061V6.4715V6.4724V6.4733V6.47421V6.47512V6.47604V6.47695V6.47788V6.4788V6.47973V6.48066V6.4816V6.48254V6.48349V6.48443V6.48539V6.48634V6.4873V6.48827V6.48923V6.49021V6.49118V6.49216V6.49314V6.49413V6.49512V6.49612V6.49712V6.49812V6.49913V6.50014V6.50116V6.50218V6.5032V6.50423V6.50526V6.5063V6.50734V6.50839V6.50943V6.51049V6.51155V6.51261V6.51367V6.51474V6.51582V6.5169V6.51798V6.51907V6.52016V6.52125V6.52235V6.52346V6.52457V6.52568V6.5268V6.52792V6.52905V6.53018V6.53131V6.53245V6.5336V6.53475V6.5359V6.53706C21.5 10.7255 18.8831 14.0644 16.174 16.393C14.8269 17.551 13.4774 18.441 12.4638 19.0416C11.9575 19.3416 11.5365 19.5686 11.2432 19.72C11.1472 19.7695 11.065 19.811 10.998 19.8442C10.9312 19.8116 10.8493 19.7711 10.7537 19.7225C10.4607 19.5737 10.0398 19.3502 9.53369 19.0541C8.52046 18.4613 7.17149 17.5808 5.82492 16.4293C3.11806 14.1147 0.5 10.7759 0.5 6.53706V6.53648V6.5359V6.53532V6.53474V6.53416V6.53358V6.533V6.53242V6.53184V6.53126V6.53068V6.5301V6.52952V6.52894V6.52836V6.52778V6.5272V6.52662V6.52604V6.52546V6.52488V6.5243V6.52372V6.52314V6.52256V6.52198V6.5214V6.52082V6.52024V6.51966V6.51907V6.5185V6.51791V6.51733V6.51675V6.51617V6.51559V6.51501V6.51443V6.51385V6.51327V6.51269V6.51211V6.51153V6.51095V6.51037V6.50979V6.50921V6.50863V6.50805V6.50747V6.50689V6.50631V6.50573V6.50515V6.50457V6.50399V6.50341V6.50283V6.50225V6.50167V6.50109V6.50051V6.49993V6.49935V6.49877V6.49819V6.49761V6.49703V6.49645V6.49587V6.49529V6.49471V6.49413V6.49355V6.49297V6.49239V6.49181V6.49123V6.49065V6.49007V6.48949V6.4889V6.48832V6.48774V6.48716V6.48658V6.486V6.48542V6.48484V6.48426V6.48368V6.4831V6.48252V6.48194V6.48136V6.48078V6.4802V6.47962V6.47904V6.47846V6.47788V6.4773V6.47672V6.47614V6.47556V6.47498V6.4744V6.47382V6.47324V6.47266V6.47208V6.4715V6.47092V6.47034V6.46976V6.46918V6.4686V6.46802V6.46744V6.46686V6.46628V6.4657V6.46512V6.46454V6.46396V6.46338V6.46279V6.46221V6.46163V6.46105V6.46047V6.45989V6.45931V6.45873V6.45815V6.45757V6.45699V6.45641V6.45583V6.45525V6.45467V6.45409V6.45351V6.45293V6.45235V6.45177V6.45119V6.45061V6.45003V6.44945V6.44887V6.44829V6.44771V6.44713V6.44655V6.44597V6.44539V6.44481V6.44423V6.44365V6.44307V6.44249V6.44191V6.44133V6.44075V6.44017V6.43958V6.439V6.43842V6.43784V6.43726V6.43668V6.4361V6.43552V6.43494V6.43436V6.43378V6.4332V6.43262V6.43204V6.43146V6.43088V6.4303V6.42972V6.42914V6.42856V6.42798V6.4274V6.42682V6.42624V6.42566V6.42508V6.4245V6.42392V6.42334V6.42276V6.42218V6.4216V6.42102V6.42044V6.41986V6.41928V6.41869V6.41811V6.41753V6.41695V6.41637V6.41579V6.41521V6.41463V6.41405V6.41347V6.41289V6.41231V6.41173V6.41115V6.41057V6.40999V6.40941V6.40883V6.40825V6.40767V6.40709V6.40651V6.40593V6.40535V6.40477V6.40419V6.40361V6.40303V6.40245V6.40187V6.40129V6.40071V6.40013V6.39955V6.39897V6.39839V6.39781V6.39722V6.39664V6.39606V6.39548V6.3949V6.39432V6.39374V6.39316V6.39258V6.392V6.39142V6.39084V6.39026V6.38968V6.3891V6.38852V6.38794V6.38736V6.38678V6.3862V6.38562V6.38504V6.38446V6.38388V6.3833V6.38272V6.38214V6.38156V6.38098V6.3804V6.37982V6.37924V6.37866V6.37808V6.3775V6.37692V6.37634V6.37575V6.37517V6.37459V6.37401V6.37343V6.37285V6.37227V6.37169V6.37111V6.37053V6.36995V6.36937V6.36879V6.36821V6.36763V6.36705V6.36647V6.36589V6.36531V6.36473V6.36415V6.36357V6.36299V6.36241V6.36183V6.36125V6.36067V6.36009V6.35951V6.35893V6.35835V6.35777V6.35719V6.35661V6.35603V6.35544V6.35487V6.35428V6.3537V6.35312V6.35254V6.35196V6.35138V6.3508V6.35022V6.34964V6.34906V6.34848V6.3479V6.34732V6.34674V6.34616V6.34558V6.345V6.34442V6.34384V6.34326V6.34268V6.3421V6.34152V6.34094V6.34036V6.33978V6.3392V6.33862V6.33804V6.33746V6.33688V6.3363V6.33572V6.33514V6.33456V6.33398V6.3334V6.33281V6.33223V6.33165V6.33107V6.33049V6.32991V6.32933V6.32875V6.32817V6.32759V6.32701V6.32643V6.32585V6.32527V6.32469V6.32411V6.32353V6.32295V6.32237V6.32179V6.32121V6.32063V6.32005V6.31947V6.31889V6.31831V6.31773V6.31715V6.31657V6.31599V6.31541V6.31483V6.31425V6.31367V6.31309V6.31251V6.31193V6.31135V6.31077V6.31019V6.30961V6.30902V6.30844V6.30786V6.30728V6.3067V6.30612V6.30554V6.30496V6.30438V6.3038V6.30322V6.30264V6.30206V6.30148V6.3009V6.30032V6.29974V6.29916V6.29858V6.298V6.29742V6.29684V6.29626V6.29568V6.2951V6.29452V6.29394V6.29336V6.29278V6.2922V6.29162V6.29104V6.29046V6.28988V6.2893V6.28872V6.28814V6.28756V6.28698V6.2864V6.28582V6.28524V6.28466V6.28408V6.28349V6.28291V6.28233V6.28175V6.28117V6.28059V6.28001V6.27943V6.27885V6.27827V6.27769V6.27711V6.27653V6.27595V6.27537V6.27479V6.27421V6.27363V6.27305V6.27247V6.27189V6.27131V6.27073V6.27015V6.26957V6.26899V6.26841V6.26783V6.26725V6.26667V6.26609V6.26551V6.26493V6.26435V6.26377V6.26319V6.26261V6.26203V6.26145V6.26087V6.26029V6.25971V6.25913V6.25855V6.25797V6.25739V6.25681V6.25623V6.25565V6.25507V6.25449V6.25391V6.25333V6.25275V6.25217V6.25159V6.251V6.25042V6.24984V6.24926V6.24868V6.2481V6.24752V6.24694V6.24636V6.24578V6.2452V6.24462V6.24404V6.24346V6.24288V6.2423V6.24172V6.24114V6.24056V6.23998C0.5 3.24631 2.90685 0.898438 5.74327 0.898438C7.86339 0.898438 9.73515 2.24879 10.5392 4.15692Z" stroke="#BEBEBE"/>
</svg>
