<svg width="24" height="24" viewBox="0 0 24 24" fill="none" xmlns="http://www.w3.org/2000/svg">
<path d="M10.5895 13.4105C10.9995 13.8005 10.9995 14.4405 10.5895 14.8305C10.1995 15.2205 9.55953 15.2205 9.16953 14.8305C8.23291 13.8925 7.70684 12.6211 7.70684 11.2955C7.70684 9.96993 8.23291 8.69853 9.16953 7.7605L12.7095 4.2205C13.6476 3.28388 14.919 2.75781 16.2445 2.75781C17.5701 2.75781 18.8415 3.28388 19.7795 4.2205C20.7161 5.15853 21.2422 6.42993 21.2422 7.7555C21.2422 9.08108 20.7161 10.3525 19.7795 11.2905L18.2895 12.7805C18.2995 11.9605 18.1695 11.1405 17.8895 10.3605L18.3595 9.8805C18.6399 9.60319 18.8624 9.27303 19.0143 8.90913C19.1662 8.54524 19.2444 8.15483 19.2444 7.7605C19.2444 7.36618 19.1662 6.97577 19.0143 6.61187C18.8624 6.24798 18.6399 5.91782 18.3595 5.6405C18.0822 5.36017 17.7521 5.13761 17.3882 4.98572C17.0243 4.83383 16.6339 4.75563 16.2395 4.75563C15.8452 4.75563 15.4548 4.83383 15.0909 4.98572C14.727 5.13761 14.3968 5.36017 14.1195 5.6405L10.5895 9.1705C10.3092 9.44782 10.0866 9.77798 9.93475 10.1419C9.78286 10.5058 9.70465 10.8962 9.70465 11.2905C9.70465 11.6848 9.78286 12.0752 9.93475 12.4391C10.0866 12.803 10.3092 13.1332 10.5895 13.4105ZM13.4095 9.1705C13.7995 8.7805 14.4395 8.7805 14.8295 9.1705C15.7661 10.1085 16.2922 11.3799 16.2922 12.7055C16.2922 14.0311 15.7661 15.3025 14.8295 16.2405L11.2895 19.7805C10.3515 20.7171 9.0801 21.2432 7.75453 21.2432C6.42895 21.2432 5.15756 20.7171 4.21953 19.7805C3.28291 18.8425 2.75684 17.5711 2.75684 16.2455C2.75684 14.9199 3.28291 13.6485 4.21953 12.7105L5.70953 11.2205C5.69953 12.0405 5.82953 12.8605 6.10953 13.6505L5.63953 14.1205C5.35919 14.3978 5.13664 14.728 4.98475 15.0919C4.83286 15.4558 4.75465 15.8462 4.75465 16.2405C4.75465 16.6348 4.83286 17.0252 4.98475 17.3891C5.13664 17.753 5.35919 18.0832 5.63953 18.3605C5.91684 18.6408 6.247 18.8634 6.6109 19.0153C6.97479 19.1672 7.3652 19.2454 7.75953 19.2454C8.15385 19.2454 8.54426 19.1672 8.90816 19.0153C9.27206 18.8634 9.60221 18.6408 9.87953 18.3605L13.4095 14.8305C13.6899 14.5532 13.9124 14.223 14.0643 13.8591C14.2162 13.4952 14.2944 13.1048 14.2944 12.7105C14.2944 12.3162 14.2162 11.9258 14.0643 11.5619C13.9124 11.198 13.6899 10.8678 13.4095 10.5905C13.3124 10.4995 13.235 10.3895 13.1821 10.2674C13.1291 10.1453 13.1018 10.0136 13.1018 9.8805C13.1018 9.74741 13.1291 9.61572 13.1821 9.4936C13.235 9.37148 13.3124 9.26151 13.4095 9.1705Z" fill="#BEBEBE"/>
</svg>
