<svg width="24" height="24" viewBox="0 0 24 24" fill="none" xmlns="http://www.w3.org/2000/svg">
<path d="M10.59 13.4105C11 13.8005 11 14.4405 10.59 14.8305C10.2 15.2205 9.56002 15.2205 9.17002 14.8305C8.23339 13.8925 7.70732 12.6211 7.70732 11.2955C7.70732 9.96993 8.23339 8.69853 9.17002 7.7605L12.71 4.2205C13.648 3.28388 14.9194 2.75781 16.245 2.75781C17.5706 2.75781 18.842 3.28388 19.78 4.2205C20.7166 5.15853 21.2427 6.42993 21.2427 7.7555C21.2427 9.08108 20.7166 10.3525 19.78 11.2905L18.29 12.7805C18.3 11.9605 18.17 11.1405 17.89 10.3605L18.36 9.8805C18.6404 9.60319 18.8629 9.27303 19.0148 8.90913C19.1667 8.54524 19.2449 8.15483 19.2449 7.7605C19.2449 7.36618 19.1667 6.97577 19.0148 6.61187C18.8629 6.24798 18.6404 5.91782 18.36 5.6405C18.0827 5.36017 17.7525 5.13761 17.3886 4.98572C17.0247 4.83383 16.6343 4.75563 16.24 4.75563C15.8457 4.75563 15.4553 4.83383 15.0914 4.98572C14.7275 5.13761 14.3973 5.36017 14.12 5.6405L10.59 9.1705C10.3097 9.44782 10.0871 9.77798 9.93524 10.1419C9.78335 10.5058 9.70514 10.8962 9.70514 11.2905C9.70514 11.6848 9.78335 12.0752 9.93524 12.4391C10.0871 12.803 10.3097 13.1332 10.59 13.4105ZM13.41 9.1705C13.8 8.7805 14.44 8.7805 14.83 9.1705C15.7666 10.1085 16.2927 11.3799 16.2927 12.7055C16.2927 14.0311 15.7666 15.3025 14.83 16.2405L11.29 19.7805C10.352 20.7171 9.08059 21.2432 7.75502 21.2432C6.42944 21.2432 5.15804 20.7171 4.22002 19.7805C3.28339 18.8425 2.75732 17.5711 2.75732 16.2455C2.75732 14.9199 3.28339 13.6485 4.22002 12.7105L5.71002 11.2205C5.70002 12.0405 5.83002 12.8605 6.11002 13.6505L5.64002 14.1205C5.35968 14.3978 5.13712 14.728 4.98524 15.0919C4.83335 15.4558 4.75514 15.8462 4.75514 16.2405C4.75514 16.6348 4.83335 17.0252 4.98524 17.3891C5.13712 17.753 5.35968 18.0832 5.64002 18.3605C5.91733 18.6408 6.24749 18.8634 6.61139 19.0153C6.97528 19.1672 7.36569 19.2454 7.76002 19.2454C8.15434 19.2454 8.54475 19.1672 8.90865 19.0153C9.27254 18.8634 9.6027 18.6408 9.88002 18.3605L13.41 14.8305C13.6904 14.5532 13.9129 14.223 14.0648 13.8591C14.2167 13.4952 14.2949 13.1048 14.2949 12.7105C14.2949 12.3162 14.2167 11.9258 14.0648 11.5619C13.9129 11.198 13.6904 10.8678 13.41 10.5905C13.3129 10.4995 13.2355 10.3895 13.1826 10.2674C13.1296 10.1453 13.1023 10.0136 13.1023 9.8805C13.1023 9.74741 13.1296 9.61572 13.1826 9.4936C13.2355 9.37148 13.3129 9.26151 13.41 9.1705Z" fill="#E3A130"/>
</svg>
