<svg width="31" height="31" viewBox="0 0 31 31" fill="none" xmlns="http://www.w3.org/2000/svg">
<g clip-path="url(#clip0_675_3044)">
<path d="M26.0614 25.8626H21.6164V18.9013C21.6164 17.2414 21.5867 15.1044 19.3045 15.1044C16.9893 15.1044 16.6351 16.9131 16.6351 18.7805V25.8621H12.1902V11.547H16.4573V13.5033H16.5171C16.9441 12.7731 17.5612 12.1724 18.3026 11.7652C19.0441 11.358 19.8821 11.1595 20.7274 11.1909C25.2327 11.1909 26.0633 14.1543 26.0633 18.0095L26.0614 25.8626ZM7.17453 9.59031C5.74988 9.59054 4.59477 8.43578 4.59453 7.01113C4.5943 5.58648 5.74895 4.43136 7.17359 4.43113C8.59824 4.43078 9.75336 5.58554 9.75359 7.01019C9.75372 7.69434 9.48207 8.35051 8.9984 8.83437C8.51474 9.31824 7.85868 9.59015 7.17453 9.59031ZM9.39711 25.8627H4.94738V11.547H9.39699V25.8626L9.39711 25.8627ZM28.2774 0.302965H2.71379C1.50559 0.289371 0.514766 1.25722 0.5 2.46543V28.1357C0.514297 29.3445 1.505 30.3133 2.71367 30.3006H28.2774C29.4887 30.3156 30.4832 29.3468 30.5 28.1357V2.46343C30.4828 1.25289 29.4881 0.285152 28.2774 0.300972" fill="#0A66C2"/>
</g>
<defs>
<clipPath id="clip0_675_3044">
<rect width="30" height="30" fill="white" transform="translate(0.5 0.300781)"/>
</clipPath>
</defs>
</svg>
