<svg width="24" height="24" viewBox="0 0 24 24" fill="none" xmlns="http://www.w3.org/2000/svg">
<path d="M22.35 7.38727C22.3506 8.09839 22.2104 8.80259 21.9374 9.45922C21.6644 10.1158 21.264 10.7119 20.7594 11.213L17.8174 14.155C16.8037 15.1676 15.4296 15.7364 13.9968 15.7364C12.5641 15.7364 11.19 15.1676 10.1763 14.155C10.0928 14.0794 10.0256 13.9876 9.97865 13.8851C9.93173 13.7827 9.9061 13.6718 9.90333 13.5592C9.90055 13.4466 9.92069 13.3346 9.96252 13.2299C10.0044 13.1253 10.067 13.0303 10.1467 12.9506C10.2263 12.871 10.3214 12.8083 10.426 12.7665C10.5306 12.7247 10.6426 12.7045 10.7552 12.7073C10.8679 12.7101 10.9787 12.7357 11.0812 12.7826C11.1836 12.8296 11.2754 12.8968 11.3511 12.9803C12.0542 13.6793 13.0054 14.0716 13.9968 14.0716C14.9883 14.0716 15.9395 13.6793 16.6426 12.9803L19.5847 10.0382C19.9444 9.69357 20.2318 9.28054 20.4298 8.82336C20.6278 8.36618 20.7326 7.87406 20.7379 7.37586C20.7433 6.87766 20.6491 6.38341 20.4609 5.9221C20.2727 5.46078 19.9943 5.04168 19.642 4.68938C19.2897 4.33708 18.8706 4.05867 18.4093 3.87048C17.948 3.68228 17.4537 3.58809 16.9555 3.59343C16.4573 3.59877 15.9652 3.70353 15.508 3.90156C15.0508 4.0996 14.6378 4.38693 14.2931 4.74669L12.2347 6.8051C12.0765 6.94844 11.8692 7.02546 11.6558 7.02021C11.4424 7.01495 11.2392 6.92783 11.0882 6.77687C10.9372 6.62591 10.8501 6.42268 10.8449 6.20925C10.8396 5.99583 10.9166 5.78856 11.06 5.63035L13.1184 3.57195C13.8757 2.82031 14.8382 2.3091 15.8851 2.1025C16.9319 1.8959 18.0164 2.0031 19.0026 2.41066C19.9887 2.81821 20.8325 3.50796 21.428 4.39333C22.0235 5.27871 22.3443 6.32026 22.35 7.38727ZM12.2347 17.3882L10.1763 19.4466C9.46961 20.1236 8.52579 20.4969 7.54715 20.4864C6.56851 20.476 5.63291 20.0825 4.94087 19.3905C4.24882 18.6985 3.8554 17.7629 3.84492 16.7842C3.83443 15.8056 4.20772 14.8618 4.88477 14.155L7.82683 11.213C8.52999 10.514 9.48116 10.1217 10.4726 10.1217C11.4641 10.1217 12.4152 10.514 13.1184 11.213C13.2766 11.3563 13.4839 11.4334 13.6973 11.4281C13.9107 11.4228 14.1139 11.3357 14.2649 11.1848C14.4159 11.0338 14.503 10.8306 14.5082 10.6171C14.5135 10.4037 14.4365 10.1964 14.2931 10.0382C13.2795 9.02568 11.9053 8.45692 10.4726 8.45692C9.03987 8.45692 7.66573 9.02568 6.65209 10.0382L3.71003 12.9803C3.18111 13.4758 2.75723 14.0726 2.46359 14.7352C2.16995 15.3978 2.01254 16.1127 2.00072 16.8373C1.9889 17.562 2.12292 18.2816 2.3948 18.9534C2.66668 19.6252 3.07088 20.2355 3.58335 20.748C4.09583 21.2605 4.70612 21.6647 5.37794 21.9366C6.04976 22.2084 6.7694 22.3425 7.49405 22.3306C8.21871 22.3188 8.93359 22.1614 9.59618 21.8678C10.2588 21.5741 10.8556 21.1502 11.3511 20.6213L13.4095 18.5629C13.5528 18.4047 13.6298 18.1975 13.6246 17.984C13.6193 17.7706 13.5322 17.5674 13.3812 17.4164C13.2303 17.2655 13.027 17.1783 12.8136 17.1731C12.6002 17.1678 12.3929 17.2448 12.2347 17.3882Z" fill="white"/>
</svg>
