<svg width="24" height="24" viewBox="0 0 24 24" fill="none" xmlns="http://www.w3.org/2000/svg">
<path d="M8.78579 18C8.49114 18 8.23882 17.888 8.02882 17.664C7.81882 17.44 7.714 17.171 7.71436 16.8571V11.1429C7.71436 10.8286 7.81936 10.5594 8.02936 10.3354C8.23936 10.1114 8.4915 9.99962 8.78579 10H9.3215V8.85714C9.3215 8.06667 9.58275 7.39276 10.1052 6.83543C10.6277 6.2781 11.2594 5.99962 12.0001 6C12.7411 6 13.3729 6.27867 13.8954 6.836C14.4179 7.39333 14.679 8.06705 14.6786 8.85714V10H15.2144C15.509 10 15.7613 10.112 15.9713 10.336C16.1813 10.56 16.2861 10.829 16.2858 11.1429V16.8571C16.2858 17.1714 16.1808 17.4406 15.9708 17.6646C15.7608 17.8886 15.5086 18.0004 15.2144 18H8.78579ZM12.0001 15.1429C12.2947 15.1429 12.547 15.0309 12.757 14.8069C12.967 14.5829 13.0719 14.3139 13.0715 14C13.0715 13.6857 12.9665 13.4166 12.7565 13.1926C12.5465 12.9686 12.2944 12.8568 12.0001 12.8571C11.7054 12.8571 11.4531 12.9691 11.2431 13.1931C11.0331 13.4171 10.9283 13.6861 10.9286 14C10.9286 14.3143 11.0336 14.5834 11.2436 14.8074C11.4536 15.0314 11.7058 15.1432 12.0001 15.1429ZM10.3929 10H13.6072V8.85714C13.6072 8.38095 13.451 7.97619 13.1385 7.64286C12.826 7.30952 12.4465 7.14286 12.0001 7.14286C11.5536 7.14286 11.1742 7.30952 10.8617 7.64286C10.5492 7.97619 10.3929 8.38095 10.3929 8.85714V10Z" fill="white"/>
<rect x="0.5" y="0.5" width="23" height="23" rx="11.5" stroke="white"/>
</svg>
