<svg width="18" height="24" viewBox="0 0 18 24" fill="none" xmlns="http://www.w3.org/2000/svg">
<g clip-path="url(#clip0_647_3037)">
<path d="M17.9965 11.9758C17.9965 10.7017 17.2002 9.82574 15.9261 9.74611C15.7669 9.74611 15.7669 9.66646 15.7669 9.5072C15.7669 8.63126 15.7669 7.75534 15.7669 6.8794C15.7669 6.32198 15.7669 5.8442 15.6076 5.28678C14.8113 1.86266 11.865 -0.28737 8.36122 0.0311532C5.57415 0.349676 3.66301 1.86266 2.70744 4.49048C2.38892 5.28678 2.30929 6.08309 2.30929 6.8794C2.30929 7.75534 2.30929 8.63126 2.30929 9.5072C2.30929 9.58683 2.38892 9.66648 2.15003 9.74611C0.716674 9.90537 0 10.7813 0 12.2147C0 15.3203 0 18.4258 0 21.5314C0 21.7703 -7.2916e-06 22.0092 0.0796234 22.2481C0.318516 23.2833 1.19446 24 2.30929 24C4.53895 24 6.7686 24 8.99826 24C11.2279 24 13.4576 24 15.6076 24C16.0058 24 16.3243 23.9204 16.7224 23.7611C17.5984 23.2833 17.9965 22.5666 17.9965 21.6111C17.9965 18.7444 17.9965 15.8777 17.9965 12.9313C17.9965 12.5332 17.9965 12.2147 17.9965 11.9758ZM3.82226 6.72013C3.82226 4.17195 5.49452 2.10155 7.96307 1.54413C10.9094 0.907086 13.8557 2.89787 14.2539 5.84421C14.3335 6.64052 14.3335 7.43682 14.3335 8.23313C14.3335 8.63128 14.3335 9.02944 14.3335 9.42759C14.3335 9.58685 14.2539 9.66647 14.0946 9.66647C12.4224 9.66647 10.7501 9.66647 9.0779 9.66647C7.40565 9.66647 5.7334 9.66647 4.06116 9.66647C3.82227 9.66647 3.82226 9.58685 3.82226 9.42759C3.82226 8.47202 3.82226 7.59607 3.82226 6.72013ZM15.6076 22.4074C11.2279 22.4074 6.84823 22.4074 2.46854 22.4074C1.8315 22.4074 1.59261 22.1685 1.59261 21.5314C1.59261 18.4258 1.59261 15.2406 1.59261 12.135C1.59261 11.4184 1.8315 11.1795 2.54818 11.1795C4.69821 11.1795 6.92787 11.1795 9.0779 11.1795C11.3076 11.1795 13.4576 11.1795 15.6872 11.1795C16.3243 11.1795 16.5632 11.4183 16.5632 12.0554C16.5632 15.161 16.5632 18.3462 16.5632 21.4518C16.5632 22.1685 16.2447 22.4074 15.6076 22.4074Z" fill="#666566" stroke="white" stroke-width="0.6685" stroke-miterlimit="10"/>
<path d="M11.2278 15.3209C11.0686 14.2857 10.3519 13.5691 9.3167 13.4098C8.36113 13.2505 7.32593 13.8079 6.92778 14.7635C6.52963 15.7191 6.84815 16.9136 7.72409 17.3913C8.20187 17.6302 8.36113 17.9488 8.2815 18.4265C8.2815 18.5062 8.2815 18.5062 8.2815 18.5858C8.2815 18.8247 8.2815 19.0636 8.2815 19.3025C8.2815 19.7803 8.60002 20.0988 8.99817 20.0988C9.47596 20.0988 9.71485 19.7803 9.71485 19.3025C9.71485 18.8247 9.71485 18.3469 9.71485 17.8691C9.71485 17.7895 9.71485 17.7099 9.87411 17.6302C10.9093 17.2321 11.3871 16.3561 11.2278 15.3209ZM8.99817 16.3561C8.52039 16.3561 8.2815 16.0376 8.2815 15.6395C8.2815 15.1617 8.60002 14.9228 8.99817 14.9228C9.47596 14.9228 9.71485 15.2413 9.71485 15.7191C9.79449 16.1172 9.47596 16.3561 8.99817 16.3561Z" fill="#666566" stroke="white" stroke-width="0.6685" stroke-miterlimit="10"/>
</g>
<defs>
<clipPath id="clip0_647_3037">
<rect width="17.9965" height="24" fill="white"/>
</clipPath>
</defs>
</svg>
