<svg width="20" height="20" viewBox="0 0 20 20" fill="none" xmlns="http://www.w3.org/2000/svg">
<path d="M7.32157 15C7.07603 15 6.86577 14.9067 6.69077 14.72C6.51577 14.5333 6.42841 14.3092 6.42871 14.0476V9.28571C6.42871 9.02381 6.51621 8.79952 6.69121 8.61286C6.86621 8.42619 7.07633 8.33302 7.32157 8.33333H7.768V7.38095C7.768 6.72222 7.98571 6.16064 8.42112 5.69619C8.85654 5.23175 9.38288 4.99968 10.0001 5C10.6177 5 11.1442 5.23222 11.5796 5.69667C12.015 6.16111 12.2326 6.72254 12.2323 7.38095V8.33333H12.6787C12.9242 8.33333 13.1345 8.42667 13.3095 8.61333C13.4845 8.8 13.5719 9.02413 13.5716 9.28571V14.0476C13.5716 14.3095 13.4841 14.5338 13.3091 14.7205C13.1341 14.9071 12.9239 15.0003 12.6787 15H7.32157ZM10.0001 12.619C10.2457 12.619 10.4559 12.5257 10.6309 12.339C10.8059 12.1524 10.8933 11.9283 10.893 11.6667C10.893 11.4048 10.8055 11.1805 10.6305 10.9938C10.4555 10.8071 10.2454 10.714 10.0001 10.7143C9.7546 10.7143 9.54434 10.8076 9.36934 10.9943C9.19434 11.181 9.10699 11.4051 9.10728 11.6667C9.10728 11.9286 9.19478 12.1529 9.36978 12.3395C9.54478 12.5262 9.7549 12.6194 10.0001 12.619ZM8.66085 8.33333H11.3394V7.38095C11.3394 6.98413 11.2092 6.64683 10.9488 6.36905C10.6884 6.09127 10.3722 5.95238 10.0001 5.95238C9.62812 5.95238 9.3119 6.09127 9.05148 6.36905C8.79106 6.64683 8.66085 6.98413 8.66085 7.38095V8.33333Z" fill="#252A36"/>
<rect x="0.5" y="0.5" width="19" height="19" rx="9.5" stroke="#252A36"/>
</svg>
