<svg width="14" height="13" viewBox="0 0 14 13" fill="none" xmlns="http://www.w3.org/2000/svg">
<path d="M3.50065 11.916C3.17982 11.916 2.90526 11.81 2.67698 11.5981C2.44832 11.3857 2.33398 11.1306 2.33398 10.8327V5.41602C2.33398 5.1181 2.44832 4.86297 2.67698 4.65064C2.90526 4.43867 3.17982 4.33268 3.50065 4.33268H4.08398V3.24935C4.08398 2.50004 4.36846 1.86124 4.9374 1.33293C5.50596 0.804988 6.19371 0.541016 7.00065 0.541016C7.8076 0.541016 8.49554 0.804988 9.06448 1.33293C9.63304 1.86124 9.91732 2.50004 9.91732 3.24935V4.33268H10.5007C10.8215 4.33268 11.0962 4.43867 11.3249 4.65064C11.5532 4.86297 11.6673 5.1181 11.6673 5.41602V10.8327C11.6673 11.1306 11.5532 11.3857 11.3249 11.5981C11.0962 11.81 10.8215 11.916 10.5007 11.916H3.50065ZM7.00065 9.20768C7.32148 9.20768 7.59623 9.1017 7.8249 8.88972C8.05318 8.67739 8.16732 8.42227 8.16732 8.12435C8.16732 7.82643 8.05318 7.57131 7.8249 7.35897C7.59623 7.147 7.32148 7.04102 7.00065 7.04102C6.67982 7.04102 6.40526 7.147 6.17698 7.35897C5.94832 7.57131 5.83398 7.82643 5.83398 8.12435C5.83398 8.42227 5.94832 8.67739 6.17698 8.88972C6.40526 9.1017 6.67982 9.20768 7.00065 9.20768ZM5.25065 4.33268H8.75065V3.24935C8.75065 2.79796 8.58051 2.41428 8.24023 2.09831C7.89996 1.78234 7.48676 1.62435 7.00065 1.62435C6.51454 1.62435 6.10135 1.78234 5.76107 2.09831C5.42079 2.41428 5.25065 2.79796 5.25065 3.24935V4.33268Z" fill="#7C7F86"/>
</svg>
