<svg width="25" height="25" viewBox="0 0 25 25" fill="none" xmlns="http://www.w3.org/2000/svg">
<path d="M6.90211 21.0713C6.45544 21.0713 6.07444 20.914 5.75911 20.5993C5.44444 20.2846 5.28711 19.9036 5.28711 19.4563V10.6863C5.28711 10.2396 5.44444 9.85862 5.75911 9.54329C6.07378 9.22862 6.45478 9.07129 6.90211 9.07129H8.28711V7.07129C8.28711 5.95729 8.67511 5.01196 9.45111 4.23529C10.2271 3.45862 11.1724 3.07062 12.2871 3.07129C13.4011 3.07129 14.3464 3.45929 15.1231 4.23529C15.8998 5.01129 16.2878 5.95662 16.2871 7.07129V9.07129H17.6721C18.1188 9.07129 18.4998 9.22862 18.8151 9.54329C19.1298 9.85796 19.2871 10.239 19.2871 10.6863V19.4563C19.2871 19.903 19.1298 20.284 18.8151 20.5993C18.5004 20.914 18.1194 21.0713 17.6721 21.0713H6.90211ZM6.90211 20.0713H17.6721C17.8514 20.0713 17.9988 20.0136 18.1141 19.8983C18.2294 19.783 18.2871 19.6356 18.2871 19.4563V10.6863C18.2871 10.507 18.2294 10.3596 18.1141 10.2443C17.9988 10.129 17.8514 10.0713 17.6721 10.0713H6.90211C6.72278 10.0713 6.57544 10.129 6.46011 10.2443C6.34478 10.3596 6.28711 10.507 6.28711 10.6863V19.4563C6.28711 19.6356 6.34478 19.783 6.46011 19.8983C6.57544 20.0136 6.72278 20.0713 6.90211 20.0713ZM12.2871 16.5713C12.7091 16.5713 13.0644 16.4266 13.3531 16.1373C13.6424 15.8486 13.7871 15.4933 13.7871 15.0713C13.7871 14.6493 13.6424 14.294 13.3531 14.0053C13.0644 13.716 12.7091 13.5713 12.2871 13.5713C11.8651 13.5713 11.5098 13.716 11.2211 14.0053C10.9318 14.294 10.7871 14.6493 10.7871 15.0713C10.7871 15.4933 10.9318 15.8486 11.2211 16.1373C11.5098 16.4266 11.8651 16.5713 12.2871 16.5713ZM9.28711 9.07129H15.2871V7.07129C15.2871 6.23796 14.9954 5.52962 14.4121 4.94629C13.8288 4.36296 13.1204 4.07129 12.2871 4.07129C11.4538 4.07129 10.7454 4.36296 10.1621 4.94629C9.57878 5.52962 9.28711 6.23796 9.28711 7.07129V9.07129Z" fill="white"/>
</svg>
