<svg width="24" height="24" viewBox="0 0 24 24" fill="none" xmlns="http://www.w3.org/2000/svg">
<g clip-path="url(#clip0_3049_36960)">
<path d="M23.2493 11.25H13.7495C13.3355 11.25 12.9995 10.914 12.9995 10.5C12.9995 10.086 13.3355 9.75 13.7495 9.75H23.2493C23.6632 9.75 23.9992 10.086 23.9992 10.5C23.9992 10.914 23.6632 11.25 23.2493 11.25Z" fill="black"/>
<path d="M19.4994 14.9995C19.4009 14.9997 19.3033 14.9804 19.2123 14.9427C19.1213 14.9049 19.0387 14.8495 18.9693 14.7796C18.6763 14.4865 18.6763 14.0115 18.9693 13.7186L22.1893 10.4987L18.9693 7.27876C18.6763 6.9858 18.6763 6.51083 18.9693 6.21787C19.2624 5.92472 19.7374 5.92472 20.0304 6.21787L23.7803 9.96775C24.0732 10.2607 24.0732 10.7357 23.7803 11.0286L20.0304 14.7785C19.9609 14.8487 19.8782 14.9044 19.7871 14.9423C19.6959 14.9803 19.5981 14.9997 19.4994 14.9995ZM7.99981 23.9993C7.78579 23.9993 7.58273 23.9693 7.37981 23.9062L1.36191 21.9013C0.54303 21.6153 0 20.8523 0 19.9994V2C0 0.897019 0.897019 0 2 0C2.21384 0 2.41694 0.0299991 2.62 0.0929971L8.63771 2.09797C9.45673 2.38394 9.99962 3.14695 9.99962 3.99981V21.9993C9.99962 23.1022 9.10279 23.9993 7.99981 23.9993ZM2 1.49995C1.72499 1.49995 1.49995 1.72495 1.49995 2V19.9994C1.49995 20.2124 1.64292 20.4103 1.84691 20.4813L7.83664 22.4773C7.87967 22.4912 7.93574 22.4993 7.99981 22.4993C8.27482 22.4993 8.49967 22.2743 8.49967 21.9993V3.99981C8.49967 3.78687 8.35671 3.58892 8.15271 3.51791L2.16298 1.52194C2.11995 1.50802 2.06389 1.49995 2 1.49995Z" fill="black"/>
<path d="M15.2494 7.99981C14.8355 7.99981 14.4995 7.66382 14.4995 7.24984V2.74998C14.4995 2.06094 13.9386 1.49995 13.2496 1.49995H1.99998C1.58599 1.49995 1.25 1.16396 1.25 0.749977C1.25 0.335989 1.58599 0 1.99998 0H13.2496C14.7666 0 15.9994 1.23301 15.9994 2.74998V7.24984C15.9994 7.66382 15.6634 7.99981 15.2494 7.99981ZM13.2496 20.9993H9.24963C8.83564 20.9993 8.49965 20.6634 8.49965 20.2494C8.49965 19.8354 8.83564 19.4994 9.24963 19.4994H13.2496C13.9387 19.4994 14.4995 18.9384 14.4995 18.2494V13.7495C14.4995 13.3355 14.8355 12.9995 15.2494 12.9995C15.6634 12.9995 15.9994 13.3355 15.9994 13.7495V18.2494C15.9994 19.7663 14.7666 20.9993 13.2496 20.9993Z" fill="black"/>
</g>
<defs>
<clipPath id="clip0_3049_36960">
<rect width="24" height="24" fill="white"/>
</clipPath>
</defs>
</svg>
