<svg width="1083" height="358" viewBox="0 0 1083 358" fill="none" xmlns="http://www.w3.org/2000/svg">
<path d="M968.04 203.06C950.54 220.97 947.76 246.19 960.52 266.05C971.86 283.7 992.67 291.94 1012.89 287.5C1014.01 287.25 1015.13 286.97 1016.26 286.79C1021.27 285.99 1025.92 288.97 1027.29 293.81C1028.67 298.68 1026.18 303.9 1021.33 305.59C1015 307.79 1008.39 308.45 1001.72 308.39C987.91 308.27 975.15 304.48 963.71 296.74C947.2 285.57 937.12 270.06 933.84 250.38C930.84 232.37 934.23 215.4 944.72 200.47C961.03 177.26 983.69 167.31 1011.92 170.62C1024.43 172.09 1035.63 177.09 1045.38 184.98C1060.3 197.05 1068.82 212.78 1071.01 231.87C1071.97 240.26 1071.28 248.56 1069.17 256.73C1067.27 264.09 1059.37 267.04 1053.42 262.5C1050.4 260.2 1049.24 256.98 1049.81 253.19C1050.42 249.1 1051.43 245.02 1051.59 240.91C1052.11 226.68 1047.29 214.32 1037.33 204.19C1020.89 187.48 994.38 184.75 974.97 197.62C972.12 199.52 969.56 201.86 968.04 203.06Z" fill="#fff" stroke="#fff" stroke-width="5.6368" stroke-miterlimit="10"/>
<path d="M1052.82 275.79C1060.58 283.55 1068.35 291.29 1076.09 299.07C1079.69 302.69 1080.62 307.13 1078.67 311.08C1075.51 317.49 1067.58 318.5 1062.15 313.12C1054.85 305.89 1047.62 298.61 1040.36 291.34C1032.02 283 1023.66 274.66 1015.33 266.3C1011.66 262.62 1010.77 258.14 1012.83 254.11C1016.03 247.84 1023.89 246.91 1029.27 252.24C1037.15 260.07 1044.97 267.95 1052.82 275.79Z" fill="#E3A22A" stroke="#E3A22A" stroke-width="5.6368" stroke-miterlimit="10"/>
<path d="M573.9 308.3C563.9 308.3 555.19 306.08 547.78 301.65C540.36 297.22 534.55 291.21 530.36 283.63V357.41H497.95V179.14H526.25V200.91C530.93 193.5 536.97 187.65 544.39 183.37C551.81 179.1 560.35 176.96 570.03 176.96C578.58 176.96 586.48 178.7 593.74 182.16C601 185.63 607.24 190.3 612.49 196.19C617.73 202.08 621.84 209.01 624.83 216.99C627.81 224.97 629.3 233.4 629.3 242.27C629.3 251.46 627.93 260.09 625.19 268.15C622.45 276.22 618.62 283.23 613.7 289.19C608.78 295.16 602.94 299.83 596.16 303.22C589.39 306.61 581.97 308.3 573.9 308.3ZM563.02 280.73C567.86 280.73 572.33 279.68 576.44 277.59C580.55 275.5 584.06 272.67 586.96 269.12C589.86 265.57 592.12 261.46 593.73 256.78C595.34 252.1 596.15 247.27 596.15 242.27C596.15 236.95 595.26 231.99 593.49 227.39C591.71 222.79 589.26 218.8 586.11 215.42C582.97 212.03 579.25 209.37 574.98 207.44C570.71 205.5 566.07 204.54 561.07 204.54C558 204.54 554.86 205.06 551.64 206.11C548.41 207.16 545.43 208.65 542.69 210.58C539.95 212.52 537.49 214.78 535.31 217.35C533.13 219.93 531.48 222.75 530.35 225.82V255.57C533.25 262.83 537.69 268.84 543.65 273.59C549.63 278.35 556.08 280.73 563.02 280.73Z" fill="#fff"/>
<path d="M710.09 308.3C699.93 308.3 690.74 306.57 682.51 303.1C674.29 299.63 667.27 294.92 661.47 288.95C655.66 282.99 651.19 276.05 648.05 268.15C644.91 260.25 643.33 251.94 643.33 243.24C643.33 234.21 644.86 225.7 647.93 217.72C650.99 209.74 655.43 202.72 661.23 196.68C667.04 190.63 674.09 185.84 682.4 182.29C690.7 178.75 700.02 176.97 710.34 176.97C720.66 176.97 729.89 178.75 738.04 182.29C746.18 185.84 753.12 190.6 758.84 196.56C764.56 202.53 768.92 209.46 771.9 217.36C774.88 225.26 776.37 233.49 776.37 242.03C776.37 244.13 776.33 246.14 776.25 248.08C776.17 250.02 775.97 251.63 775.65 252.92H677.68C678.16 257.92 679.37 262.35 681.31 266.22C683.24 270.09 685.74 273.4 688.81 276.14C691.87 278.88 695.34 280.98 699.21 282.43C703.08 283.88 707.11 284.61 711.3 284.61C717.75 284.61 723.84 283.04 729.56 279.89C735.28 276.74 739.19 272.6 741.29 267.43L769.11 275.17C764.43 284.84 756.97 292.79 746.73 299C736.49 305.2 724.27 308.3 710.09 308.3ZM742.98 231.87C742.17 222.36 738.66 214.74 732.46 209.01C726.25 203.29 718.71 200.42 709.84 200.42C705.49 200.42 701.41 201.19 697.62 202.72C693.83 204.25 690.48 206.39 687.58 209.13C684.68 211.87 682.3 215.18 680.44 219.05C678.58 222.92 677.5 227.2 677.17 231.87H742.98Z" fill="#fff"/>
<path d="M854.98 308.3C844.82 308.3 835.63 306.57 827.4 303.1C819.18 299.63 812.16 294.92 806.36 288.95C800.55 282.99 796.08 276.05 792.94 268.15C789.8 260.25 788.22 251.94 788.22 243.24C788.22 234.21 789.75 225.7 792.82 217.72C795.88 209.74 800.32 202.72 806.12 196.68C811.93 190.63 818.98 185.84 827.29 182.29C835.59 178.75 844.91 176.97 855.23 176.97C865.55 176.97 874.78 178.75 882.93 182.29C891.07 185.84 898.01 190.6 903.73 196.56C909.45 202.53 913.81 209.46 916.79 217.36C919.77 225.26 921.26 233.49 921.26 242.03C921.26 244.13 921.22 246.14 921.14 248.08C921.06 250.02 920.86 251.63 920.54 252.92H822.57C823.05 257.92 824.26 262.35 826.2 266.22C828.13 270.09 830.63 273.4 833.7 276.14C836.76 278.88 840.23 280.98 844.1 282.43C847.97 283.88 852 284.61 856.19 284.61C862.64 284.61 868.73 283.04 874.45 279.89C880.17 276.74 884.08 272.6 886.18 267.43L914 275.17C909.32 284.84 901.86 292.79 891.62 299C881.38 305.2 869.16 308.3 854.98 308.3ZM887.87 231.87C887.06 222.36 883.55 214.74 877.35 209.01C871.14 203.29 863.6 200.42 854.73 200.42C850.38 200.42 846.3 201.19 842.51 202.72C838.72 204.25 835.37 206.39 832.47 209.13C829.57 211.87 827.19 215.18 825.33 219.05C823.47 222.92 822.39 227.2 822.06 231.87H887.87Z" fill="#fff"/>
<path d="M0 356.32L137.71 120.38L193.57 214.75L275.42 74.15L237.86 53.93L344.28 0L351.98 117.49L315.87 99.19L192.12 308.65L138.67 214.27L55.86 356.32H0Z" fill="#E3A22A"/>
<path d="M137.71 310.81L111.71 357.41H164.92L137.71 310.81Z" fill="#E3A22A"/>
<path d="M219.31 354.75L345.47 148.31L466.39 356.4L388.21 275.98L352.22 290.04L333.66 234.92L219.31 354.75Z" fill="#fff"/>
<path d="M219.31 354.75L333.66 234.92L345.47 148.31L219.31 354.75Z" fill="#E3A22A"/>
</svg>
