<svg width="130" height="152" viewBox="0 0 130 152" fill="none" xmlns="http://www.w3.org/2000/svg">
<path class="a1" d="M129.904 120.973C129.881 121.854 129.666 122.712 129.404 123.545C128.952 124.974 127.404 125.689 125.998 125.189C125.593 125.046 125.26 124.76 125.069 124.379C124.664 123.593 124.45 122.807 124.712 121.878C126.498 115.376 122.187 108.754 115.518 107.706C109.325 106.73 103.49 110.969 102.49 117.162C101.513 123.331 105.777 129.19 111.922 130.143C112.803 130.286 113.66 130.31 114.542 130.262C115.685 130.19 116.924 131.096 117.209 132.191C117.567 133.477 116.685 134.859 115.304 135.169C114.446 135.359 113.565 135.311 112.684 135.24C108.397 134.93 104.729 133.239 101.799 130.095C98.6787 126.761 97.2496 122.783 97.3925 118.21C97.6545 110.969 102.942 104.276 110.802 102.823C119.734 101.18 128.38 107.254 129.857 116.209C129.881 116.424 129.881 116.638 129.904 116.828C129.857 117.114 129.881 117.376 130 117.638C130 118.472 130 119.306 130 120.163C129.881 120.425 129.857 120.711 129.904 120.973Z" fill="#102338"/>
<path d="M2.16797 96.4877C14.6249 75.1704 27.0342 53.9245 39.4911 32.5834C44.5406 41.1341 49.5663 49.5896 54.5681 58.045C54.8301 57.9498 54.8777 57.7116 54.973 57.5449C58.4028 51.6856 61.8088 45.8025 65.2387 39.9194C68.9781 33.4884 72.7414 27.0575 76.4809 20.6266C76.862 19.9835 76.862 20.0788 76.2427 19.7691C73.2178 18.1495 70.2167 16.5299 67.1918 14.8864C67.0488 14.8149 66.8583 14.7673 66.7392 14.5291C76.2903 9.69402 85.8414 4.85892 95.4402 0C95.4878 0.40491 95.5355 0.714547 95.5593 1.048C95.7022 3.12019 95.8213 5.19238 95.9404 7.26456C96.1071 9.83693 96.2976 12.3855 96.4644 14.9579C96.5596 16.2917 96.6311 17.6255 96.7264 18.9355C96.8693 21.103 97.0122 23.2704 97.1551 25.4379C97.2504 26.7955 97.3456 28.177 97.4171 29.5346C97.4409 30.2492 97.5838 30.9637 97.5362 31.7021C97.298 31.7497 97.1313 31.6068 96.9407 31.5115C94.1302 30.0824 91.2958 28.6533 88.4853 27.2242C88.3662 27.1528 88.2471 27.1052 88.128 27.0337C87.8898 26.867 87.7231 26.9146 87.5802 27.1766C87.1038 28.0102 86.6036 28.8201 86.1273 29.6299C77.6003 44.0637 69.0496 58.4976 60.5226 72.9553C58.5457 76.3136 56.545 79.672 54.5681 83.0304C54.4728 83.1971 54.4252 83.3876 54.187 83.5067C49.3995 75.0513 44.6121 66.5958 39.8008 58.1165C39.5864 58.2594 39.515 58.45 39.4197 58.6167C36.7759 63.1422 34.132 67.6676 31.512 72.1931C27.3438 79.3385 23.1757 86.4602 19.0313 93.6057C18.5311 94.4393 18.0547 95.2729 17.5784 96.1304C17.4116 96.4162 17.2449 96.5353 16.9115 96.5353C12.1002 96.5115 7.31271 96.5353 2.50142 96.5353C2.40615 96.5115 2.35851 96.5115 2.16797 96.4877Z" fill="#E3A130"/>
<path class="a1" d="M0.0714547 149.556C0.0952729 149.437 0.0714547 149.318 0 149.199C0 149.008 0.0238182 148.818 0.0238182 148.627C0.0238182 139.624 0.0238182 130.644 0.0238182 121.641C0.0238182 121.45 0 121.26 0 121.069C0.0952729 120.855 0.0952729 120.617 0.0952729 120.402C0.0476365 119.402 0.0476365 118.402 0.0952729 117.401C0.738365 110.446 5.93074 104.635 12.7428 103.253C19.6977 101.872 26.6526 105.135 30.011 111.375C33.3217 117.568 32.2023 125.166 27.2242 130.12C25.819 131.526 24.1755 132.645 22.3415 133.455C20.4837 134.265 18.5544 134.717 16.5299 134.789C14.5291 134.86 12.576 134.574 10.6944 133.907C8.81275 133.241 7.12165 132.264 5.50201 130.906C5.50201 131.24 5.50201 131.43 5.50201 131.645C5.50201 137.552 5.50201 143.459 5.50201 149.365C5.50201 150.128 5.28765 150.795 4.73983 151.319C4.43019 151.628 4.07292 151.819 3.66801 151.938C3.21546 151.938 2.7391 151.938 2.28655 151.938C1.07182 151.604 0.309637 150.818 0.0714547 149.556ZM15.982 108.446C10.2418 108.446 5.52583 113.138 5.52583 118.878C5.52583 124.642 10.1942 129.334 15.9344 129.334C21.6984 129.358 26.4144 124.69 26.4144 118.95C26.4382 113.162 21.746 108.446 15.982 108.446Z" fill="#0F2238"/>
<path class="a1" d="M95.7253 40.3482C95.7729 40.2768 95.8682 40.2529 95.9158 40.3244C96.0111 40.4435 96.0826 40.5864 96.154 40.7055C106.801 59.0217 117.424 77.3141 128.07 95.6303C128.094 95.678 128.118 95.7256 128.166 95.7732C128.094 95.7971 127.999 95.8209 127.928 95.8209C121.258 88.9612 114.566 82.1016 107.896 75.2181C107.825 75.1467 107.753 75.099 107.706 75.0037C107.515 74.7417 107.301 74.7417 107.015 74.8608C104.919 75.6945 102.799 76.5043 100.703 77.3379C99.8458 77.6714 99.0122 78.0048 98.1547 78.3383C97.6784 78.5288 97.6546 78.5288 97.4878 78.0287C96.1778 74.1463 94.8678 70.2401 93.5578 66.3577C93.2482 65.4526 92.9385 64.5714 92.6289 63.6663C92.748 62.7374 92.8671 61.8084 93.01 60.9033C93.2482 59.0693 93.5102 57.2592 93.7722 55.4252C94.058 53.3768 94.32 51.3284 94.6058 49.2562C94.8916 47.1364 95.2013 44.9928 95.4633 42.8729C95.5347 42.0393 95.7253 41.2057 95.7253 40.3482Z" fill="#0F2238"/>
<path class="a1" d="M40.7289 120.591C40.8004 122.139 41.1339 123.64 41.9199 124.997C43.2299 127.236 45.2068 128.499 47.7077 128.951C50.161 129.404 52.3761 128.808 54.4244 127.427C54.7102 127.236 54.9722 126.998 55.2104 126.784C56.1155 125.974 57.1635 125.569 58.4021 125.759C59.3548 125.902 60.0932 126.617 60.2599 127.522C60.3552 128.07 60.2361 128.522 59.855 128.927C57.4732 131.476 54.5912 133.095 51.1375 133.667C44.516 134.763 37.9898 131.333 35.1317 125.259C30.8682 116.113 36.5608 105.919 45.9213 104.156C53.9481 102.656 61.6175 107.753 63.3801 115.708C63.5945 116.661 63.6897 117.614 63.7135 118.59C63.7612 119.829 63.0943 120.519 61.8557 120.519C55.0437 120.519 48.2079 120.519 41.3959 120.519C41.2053 120.543 40.9909 120.496 40.7289 120.591ZM40.6099 116.78C40.7528 116.851 40.8719 116.851 40.9671 116.851C46.2071 116.851 51.4472 116.851 56.6872 116.851C57.1397 116.851 57.1397 116.851 57.1159 116.423C56.9968 112.278 54.2577 109.182 50.161 108.515C46.1833 107.872 42.5391 109.992 41.2053 113.755C40.8719 114.732 40.6575 115.732 40.6099 116.78Z" fill="#0F2238"/>
<path class="a1" d="M72.813 120.591C72.7891 124.926 75.7664 128.403 80.0775 128.999C82.8166 129.38 85.2223 128.594 87.3183 126.783C88.2472 125.974 89.2952 125.593 90.5337 125.783C91.6056 125.95 92.3916 126.831 92.4154 127.831C92.4392 128.236 92.3201 128.57 92.0343 128.879C89.8668 131.261 87.2468 132.857 84.079 133.548C76.0999 135.287 68.3113 130.475 66.2868 122.591C64.1908 114.541 69.3117 106.133 77.4337 104.299C85.5557 102.465 93.5348 107.419 95.4403 115.541C95.6785 116.589 95.7737 117.637 95.8214 118.709C95.869 119.852 94.9877 120.591 93.9874 120.567C90.9863 120.519 88.009 120.543 85.0079 120.543C81.1493 120.543 77.267 120.543 73.4084 120.543C73.2179 120.543 73.0035 120.472 72.813 120.591ZM72.6462 116.78C72.7891 116.875 72.9082 116.851 73.0035 116.851C78.2435 116.851 83.4835 116.851 88.6997 116.851C89.1761 116.851 89.1761 116.851 89.1523 116.375C89.0094 114.231 88.3186 112.326 86.8181 110.754C85.5319 109.42 83.9361 108.777 82.1497 108.467C79.1486 107.943 75.0042 109.325 73.4084 113.374C72.9797 114.469 72.7653 115.589 72.6462 116.78Z" fill="#0F2238"/>
<path d="M95.7262 40.3477C95.7262 41.2051 95.5357 42.0388 95.4404 42.8962C95.1546 45.016 94.8688 47.1597 94.583 49.2795C94.2972 51.3279 94.0352 53.3762 93.7493 55.4484C93.5111 57.2824 93.2491 59.0926 92.9871 60.9266C92.8681 61.8555 92.749 62.7606 92.6061 63.6895C91.8439 64.3803 91.1531 65.1424 90.4386 65.8808C87.3899 69.0486 84.3649 72.2403 81.34 75.4319C76.4335 80.5767 71.5269 85.6976 66.6204 90.8423C65.2627 92.2714 63.8813 93.7005 62.5236 95.1296C62.4045 95.2725 62.2854 95.4392 62.0949 95.5107C62.0711 95.4869 62.0473 95.4631 62.0234 95.4392C62.3569 94.7247 62.8094 94.0816 63.2143 93.4147C70.3122 81.7914 77.41 70.1919 84.5079 58.5924C88.152 52.6379 91.7962 46.6833 95.4404 40.7049C95.5357 40.5858 95.5833 40.4429 95.7262 40.3477Z" fill="#E3A130"/>
<path d="M39.5373 84.2461C41.9668 88.4143 44.3963 92.5587 46.8495 96.7745C42.0144 96.7745 37.2746 96.7745 32.5586 96.7745C32.6539 96.3458 39.1086 84.7463 39.5373 84.2461Z" fill="#E3A130"/>
<path d="M123.451 134.121C122.927 134.097 122.236 133.764 121.712 133.12C119.902 130.858 118.092 128.595 116.282 126.356C115.305 125.118 114.305 123.903 113.328 122.664C112.352 121.426 112.661 119.711 113.947 118.877C115.067 118.163 116.52 118.401 117.377 119.473C118.902 121.378 120.426 123.284 121.95 125.165C123.118 126.642 124.308 128.095 125.476 129.572C125.785 129.976 126.119 130.381 126.238 130.882C126.69 132.549 125.476 134.121 123.451 134.121Z" fill="#E3A130"/>
<path d="M62.1186 95.5109C62.0948 95.5824 62.071 95.63 61.9757 95.6062C61.9519 95.5347 61.9757 95.4871 62.0472 95.4395C62.071 95.4633 62.0948 95.4871 62.1186 95.5109Z" fill="#E3A130"/>
<path d="M61.9744 95.6055C61.9982 95.6531 61.9505 95.7007 61.9267 95.7007C61.8553 95.6055 61.9267 95.6055 61.9744 95.6055Z" fill="#E3A130"/>
</svg>
