<svg width="677" height="725" viewBox="0 0 677 725" fill="none" xmlns="http://www.w3.org/2000/svg">
<path d="M541.402 459.331C566.202 473.495 591.003 487.658 615.804 501.821C616.622 500.187 617.439 498.825 618.257 497.191C593.184 484.117 567.838 471.043 542.764 457.969C518.236 438.903 489.348 428.553 460.459 418.747C487.44 432.366 514.421 445.712 541.402 459.331ZM359.894 242.794H363.982C362.346 184.778 371.067 126.49 359.894 65.7508V242.794ZM417.944 259.409C419.306 260.226 420.669 261.043 422.304 261.86C452.283 208.475 482.262 155.089 512.241 101.704C510.878 100.887 509.515 100.07 507.88 99.2528C477.901 152.91 447.922 206.296 417.944 259.409ZM628.068 203.844L625.615 200.031C570.563 233.261 515.784 266.49 460.731 299.992C461.549 301.354 462.367 302.444 462.912 303.806C518.236 270.304 573.288 237.074 628.068 203.844ZM423.122 457.969C421.759 458.786 420.396 459.876 419.034 460.693C448.468 511.899 477.629 563.106 507.062 614.312C508.425 613.495 509.788 612.678 511.15 611.86C481.717 560.927 452.283 509.448 423.122 457.969ZM364.799 478.942C363.709 479.214 362.346 479.214 361.256 479.487V659.798C362.346 659.798 363.709 659.798 364.799 659.798V478.942ZM223.354 595.246C224.716 596.063 226.079 596.88 227.714 597.969C253.332 553.028 279.223 508.358 304.842 463.417C303.479 462.6 302.116 462.055 300.754 461.238C274.863 505.635 249.244 550.304 223.354 595.246ZM303.751 258.319C305.114 257.502 306.749 256.685 308.112 256.14C284.129 216.374 260.146 176.607 236.163 136.84C234.8 137.658 233.437 138.475 232.075 139.292C256.058 178.786 280.041 218.553 303.751 258.319ZM256.876 301.082C257.421 299.72 258.238 298.358 258.783 297.269L127.966 224.817C127.421 226.179 126.604 227.269 126.059 228.63C169.664 252.872 213.27 277.113 256.876 301.082ZM280.858 583.806C282.494 584.351 284.129 584.896 285.764 585.44C298.573 547.036 311.655 508.903 324.464 470.498C323.101 469.954 321.466 469.409 320.104 469.137C307.022 507.269 293.94 545.674 280.858 583.806ZM346.267 248.514C347.902 248.241 349.537 247.697 350.9 247.424C340.816 207.658 331.005 168.163 320.921 128.397L316.288 129.486C326.099 168.981 336.183 208.747 346.267 248.514ZM317.378 591.977C319.013 592.25 320.921 592.25 322.556 592.522C329.642 553.572 336.456 514.623 343.541 475.674C341.906 475.401 340.544 475.129 338.908 474.856C331.55 514.078 324.464 553.028 317.378 591.977ZM277.043 431.277C275.953 429.915 274.863 428.825 273.5 427.463C241.886 454.973 210.544 482.483 178.93 509.72C179.748 510.81 180.838 511.627 181.656 512.716C213.542 485.751 245.156 458.514 277.043 431.277ZM379.516 244.7C381.151 244.973 382.786 244.973 384.422 245.245C390.69 207.113 396.958 168.708 403.227 130.576C401.591 130.303 400.229 130.031 398.594 129.759C392.598 168.163 386.057 206.568 379.516 244.7ZM211.09 537.775C212.452 538.864 213.542 539.681 214.905 540.771C239.978 511.082 265.324 481.666 290.397 451.977C289.307 450.888 288.217 450.07 286.854 449.253C261.509 478.67 236.163 508.358 211.09 537.775ZM400.501 581.355C402.137 581.082 403.772 580.81 405.407 580.537C398.321 546.218 390.963 511.899 383.877 477.58C382.242 477.853 380.879 478.125 379.243 478.67C386.329 512.716 393.415 547.036 400.501 581.355ZM144.318 278.747C143.773 280.109 143.501 281.199 142.956 282.56C180.293 295.09 217.358 307.346 254.695 319.876C255.24 318.514 255.513 317.152 256.058 315.518C218.721 303.261 181.383 291.004 144.318 278.747ZM140.503 438.358C141.048 439.72 141.593 440.81 142.138 442.172C179.748 426.919 217.63 411.666 255.24 396.413C254.695 395.051 254.15 393.689 253.605 392.6C215.995 407.852 178.385 423.105 140.503 438.358ZM470.27 397.23C469.725 398.592 469.18 399.954 468.908 401.315C506.517 414.934 544.127 428.553 581.737 442.172C582.282 440.81 582.555 439.72 583.1 438.358C545.49 424.74 507.88 411.121 470.27 397.23ZM538.404 212.016C511.15 223.455 453.918 271.938 451.193 282.288C479.536 259.409 508.97 235.712 538.404 212.016ZM95.8071 357.191C95.8071 358.28 95.8074 359.37 96.0799 360.459H241.613C241.613 359.37 241.613 358.28 241.613 357.191H95.8071ZM158.763 474.039C159.581 475.129 160.398 476.491 161.216 477.58C193.102 459.059 224.716 440.81 256.603 422.288C255.785 420.926 254.968 419.565 254.15 418.203C222.264 436.996 190.65 455.518 158.763 474.039ZM578.739 282.833C578.194 281.471 577.649 280.381 577.104 279.02C541.402 292.366 505.972 305.985 470.27 319.331C470.815 320.693 471.36 322.055 471.905 323.417C507.607 309.798 543.037 296.451 578.739 282.833ZM194.737 218.825C193.647 220.187 192.83 221.549 191.74 222.638L272.137 290.459C272.955 289.37 273.773 288.28 274.863 287.191C248.154 264.584 221.446 241.704 194.737 218.825ZM532.681 505.09C533.771 504.001 534.861 502.911 535.951 501.821C508.152 479.214 480.082 456.607 452.283 434C451.465 435.09 450.375 436.179 449.558 437.269C477.084 459.876 504.882 482.483 532.681 505.09ZM225.806 127.307C227.169 126.49 228.532 125.401 229.895 124.584C212.725 98.1633 195.828 71.743 178.658 45.3228C177.295 46.1399 175.932 46.957 174.57 47.7741C191.74 74.4668 208.637 100.887 225.806 127.307ZM434.296 550.304C432.933 551.121 431.57 551.666 430.208 552.483C441.927 582.172 453.646 612.133 465.365 641.822C466.727 641.277 468.363 640.732 469.725 640.187C458.006 610.226 446.287 580.265 434.296 550.304ZM290.397 158.358C289.034 159.175 287.399 159.72 286.037 160.537C297.756 190.226 309.475 219.642 321.194 249.331C322.556 248.786 324.192 248.241 325.554 247.424C313.835 217.735 302.116 188.047 290.397 158.358ZM497.796 513.534C496.433 514.623 495.344 515.44 493.981 516.53C513.058 542.405 532.136 568.281 550.94 593.884C552.031 593.067 553.393 591.977 554.484 591.16C535.679 565.285 516.874 539.409 497.796 513.534ZM433.478 270.304C434.568 271.121 435.931 271.938 437.021 272.755C455.826 249.603 474.903 226.724 493.708 203.572C492.345 202.483 491.256 201.665 489.893 200.576C471.088 224 452.283 247.152 433.478 270.304ZM430.753 174.973C429.117 174.428 427.482 173.883 426.12 173.339C417.944 198.669 409.495 224 401.319 249.058C402.682 249.603 404.317 250.148 405.68 250.42C413.856 225.362 422.304 200.031 430.753 174.973ZM464.275 78.0076C462.639 77.7353 461.004 77.1905 459.369 76.9182C450.92 102.249 442.472 127.852 434.296 153.183C435.658 153.728 437.293 154.272 438.929 154.545C447.105 128.942 455.826 103.611 464.275 78.0076ZM250.062 659.526C251.697 660.071 253.06 660.888 254.695 661.433C263.689 638.825 272.41 616.491 281.404 593.884C280.041 593.339 278.406 592.794 277.043 592.25C268.049 614.857 259.056 637.191 250.062 659.526ZM486.895 509.448C487.985 508.358 489.348 507.269 490.438 505.907C472.451 485.207 454.736 464.506 436.749 443.806C435.658 444.623 434.568 445.712 433.478 446.53C451.193 467.775 468.907 488.747 486.895 509.448ZM553.939 129.759C552.848 128.942 551.486 127.852 550.396 127.035C533.226 148.008 515.784 168.981 498.614 189.953C499.704 191.043 501.067 191.86 502.157 192.949C519.327 171.704 536.496 150.731 553.939 129.759ZM159.035 324.506L159.308 320.148C129.874 316.062 100.713 311.977 71.279 307.619C71.0065 308.708 71.0066 310.07 70.7341 311.16C100.168 315.518 129.602 319.876 159.035 324.506ZM269.685 257.502C270.775 256.413 271.865 255.323 272.955 254.506C255.785 233.533 238.343 212.56 221.173 191.588C220.083 192.677 218.993 193.494 217.63 194.584C235.073 215.284 252.515 236.529 269.685 257.502ZM115.702 220.732C116.52 219.642 117.065 218.28 117.883 217.191C94.7173 204.662 71.5518 192.132 48.3863 179.875C47.8413 181.237 47.0235 182.599 46.4784 183.689C69.6439 195.673 92.5369 208.202 115.702 220.732ZM557.481 327.774C556.936 326.413 556.664 325.051 556.119 323.689C529.41 328.319 502.702 332.95 475.993 337.308C476.266 338.669 476.539 339.759 476.539 341.121C503.52 336.763 530.5 332.132 557.481 327.774ZM117.61 504.545C116.792 503.456 115.702 502.094 114.885 501.004C92.5367 515.713 69.9165 530.148 47.5686 544.857C48.3862 545.946 49.2039 547.308 49.749 548.397C72.3694 533.689 94.9895 518.981 117.61 504.545ZM259.873 81.5485C258.511 82.3656 257.148 83.1827 255.785 83.9998C264.506 104.7 273.228 125.673 281.676 146.374C283.311 145.829 284.674 145.012 286.309 144.467C277.588 123.494 268.594 102.521 259.873 81.5485ZM221.991 608.592C220.356 608.047 218.993 607.503 217.358 606.685C206.729 628.475 196.373 650.265 185.744 672.327L190.104 674.234C200.733 652.444 211.362 630.382 221.991 608.592ZM169.664 394.234C169.937 395.596 170.209 396.958 170.482 398.319C195.01 393.961 219.538 389.331 244.066 384.973C243.794 383.611 243.521 382.249 243.249 380.887C218.721 385.245 194.193 389.876 169.664 394.234ZM555.301 395.051C555.574 393.689 555.846 392.327 556.119 390.965C530.228 386.335 504.337 381.705 478.446 377.347C478.174 378.436 478.174 379.798 477.901 380.887C503.52 385.518 529.41 390.421 555.301 395.051ZM422.032 535.051C423.394 534.506 424.757 533.962 426.12 533.417C417.944 511.627 409.768 490.109 401.592 468.319C400.229 468.864 398.594 469.409 397.231 469.954C405.407 491.744 413.583 513.534 422.032 535.051ZM149.769 404.039C149.497 402.677 149.497 401.315 149.224 400.226C124.151 403.494 99.0776 406.763 73.7319 409.759C74.0044 411.121 74.0046 412.483 74.2772 413.572C99.6229 410.304 124.696 407.308 149.769 404.039ZM169.119 127.58C168.029 128.669 166.939 129.486 165.576 130.576C180.566 148.825 195.555 167.074 210.545 185.051C211.635 184.233 212.725 183.144 213.815 182.327C199.098 164.078 184.109 145.829 169.119 127.58ZM359.349 52.9492C360.166 52.9492 360.984 52.9492 362.074 52.9492V0.925781C361.256 0.925781 360.166 0.925781 359.349 0.925781V52.9492ZM174.297 326.14C174.025 327.502 173.752 328.864 173.752 330.226C195.828 334.039 217.63 337.852 239.706 341.666L240.251 337.852C218.175 333.767 196.373 329.954 174.297 326.14ZM70.1891 360.732C70.1891 359.37 70.1891 358.008 70.1891 356.919C47.0237 358.553 23.8579 360.187 0.419922 362.094C0.419922 363.183 0.692723 364.545 0.692723 365.635C23.8582 364 47.0237 362.366 70.1891 360.732ZM673.854 535.051C674.672 533.962 675.489 532.6 676.579 531.51C660.227 522.522 644.148 513.533 627.796 504.818C627.25 505.907 626.433 507.269 625.888 508.358C641.695 517.074 657.774 526.063 673.854 535.051ZM363.982 724.079L365.344 723.806V675.596C363.709 675.596 362.346 675.868 360.711 675.868C361.801 691.938 362.891 708.008 363.982 724.079ZM541.947 676.413C543.31 675.596 544.672 675.051 546.035 674.234C537.314 658.709 528.32 642.911 519.599 627.386C518.236 628.203 517.146 628.748 515.784 629.565C524.505 645.09 533.226 660.615 541.947 676.413ZM544.945 48.3189C543.855 47.5018 542.764 46.6846 541.402 45.8675L512.786 88.0854L516.329 90.5369C525.867 76.6458 535.406 62.4824 544.945 48.3189ZM205.911 547.035C204.821 546.218 203.459 545.401 202.369 544.584C191.74 559.02 181.111 573.728 170.482 588.164C171.572 588.981 172.935 589.798 174.025 590.615C184.654 576.179 195.282 561.744 205.911 547.035Z" fill="#E2A12B"/>
<path d="M359.84 242.725V66.0039C371.798 126.633 362.403 184.815 364.111 242.725H359.84Z" fill="#E2A12B"/>
<path d="M417.684 259.346C447.679 205.932 477.674 152.518 507.669 99.1035C509.033 99.9211 510.396 100.739 512.032 101.556C482.037 154.97 452.042 208.385 422.047 261.799C420.684 260.981 419.048 260.164 417.684 259.346Z" fill="#E2A12B"/>
<path d="M628.282 203.902C573.134 237.136 518.259 270.642 463.111 303.876C462.292 302.514 461.473 301.425 460.927 300.063C516.075 266.828 570.95 233.594 626.098 200.088L628.282 203.902Z" fill="#E2A12B"/>
<path d="M422.92 458.156C452.528 509.605 481.862 560.782 511.471 612.231C510.1 613.047 508.729 613.864 507.358 614.68C477.75 563.504 448.416 512.327 418.808 461.151C420.178 460.062 421.549 459.245 422.92 458.156Z" fill="#E2A12B"/>
<path d="M364.895 478.914V659.562C363.685 659.562 362.173 659.562 360.963 659.562V479.458C362.475 479.458 363.685 479.186 364.895 478.914Z" fill="#E2A12B"/>
<path d="M223.373 595.395C249.246 550.675 274.846 505.954 300.719 460.961C302.081 461.779 303.442 462.324 304.804 463.142C279.204 508.136 253.331 552.856 227.73 597.849C226.369 597.031 225.007 596.213 223.373 595.395Z" fill="#E2A12B"/>
<path d="M303.554 258.432C279.913 218.669 256.271 178.906 232.358 139.143C233.717 138.325 235.076 137.508 236.434 136.691C260.348 176.455 284.26 216.218 308.173 255.981C306.543 257.071 304.913 257.615 303.554 258.432Z" fill="#E2A12B"/>
<path d="M256.559 301.07C213.015 276.818 169.471 252.838 125.655 228.586C126.2 227.224 127.016 226.134 127.561 224.771L258.192 297.255C257.92 298.618 257.103 299.98 256.559 301.07Z" fill="#E2A12B"/>
<path d="M281.217 583.876C294.19 545.8 307.163 507.453 320.136 469.377C321.487 469.921 323.108 470.465 324.46 470.737C311.757 509.084 298.785 547.16 286.082 585.508C284.19 584.964 282.568 584.42 281.217 583.876Z" fill="#E2A12B"/>
<path d="M346.194 248.335C336.05 208.588 326.18 169.113 316.036 129.366L320.697 128.277C330.841 168.024 340.711 207.499 350.855 247.246C349.21 247.519 347.839 247.791 346.194 248.335Z" fill="#E2A12B"/>
<path d="M317.159 592.255C324.229 553.256 331.3 514.258 338.37 474.986C340.001 475.259 341.361 475.532 342.992 475.805C335.922 514.803 329.124 553.802 322.054 592.8C320.422 592.527 318.791 592.527 317.159 592.255Z" fill="#E2A12B"/>
<path d="M276.724 431.403C245.15 458.647 213.303 485.892 181.729 513.136C180.912 512.046 179.823 511.229 179.007 510.139C210.581 482.623 241.884 455.106 273.458 427.861C274.547 428.951 275.635 430.041 276.724 431.403Z" fill="#E2A12B"/>
<path d="M379.496 244.427C386.082 206.181 392.394 168.207 398.98 129.961C400.626 130.232 401.998 130.503 403.645 130.775C397.333 168.749 391.021 206.995 384.71 244.97C383.063 244.698 381.417 244.698 379.496 244.427Z" fill="#E2A12B"/>
<path d="M211.018 537.632C236.324 508.239 261.631 478.573 286.665 449.18C287.754 450.268 288.842 451.085 290.202 451.901C265.168 481.567 239.862 510.96 214.827 540.626C213.467 539.537 212.106 538.721 211.018 537.632Z" fill="#E2A12B"/>
<path d="M400.485 581.58C393.489 547.161 386.492 512.742 379.496 478.323C381.111 478.05 382.456 477.777 384.071 477.23C391.067 511.649 398.333 546.068 405.329 580.487C403.715 581.033 402.1 581.307 400.485 581.58Z" fill="#E2A12B"/>
<path d="M144.425 278.631C181.689 290.922 218.681 303.212 255.945 315.776C255.401 317.142 255.129 318.507 254.585 320.146C217.321 307.582 180.329 295.292 143.065 282.728C143.337 281.089 143.881 279.996 144.425 278.631Z" fill="#E2A12B"/>
<path d="M140.257 438.628C178.178 423.349 215.826 408.07 253.747 392.518C254.292 393.882 254.838 395.246 255.384 396.61C217.736 411.89 179.815 427.169 142.167 442.448C141.348 441.084 140.802 439.993 140.257 438.628Z" fill="#E2A12B"/>
<path d="M470.422 397.004C507.97 410.774 545.518 424.82 582.793 438.591C582.249 439.968 581.977 441.069 581.433 442.446C543.885 428.676 506.337 414.905 468.79 401.135C469.606 399.758 469.878 398.381 470.422 397.004Z" fill="#E2A12B"/>
<path d="M538.427 211.869C509.049 235.706 479.67 259.543 451.38 282.557C454.372 272.146 511.225 223.377 538.427 211.869Z" fill="#E2A12B"/>
<path d="M95.8909 357.172H241.344C241.344 358.294 241.344 359.416 241.344 360.538H95.8909C95.8909 359.416 95.8909 358.294 95.8909 357.172Z" fill="#E2A12B"/>
<path d="M158.789 474.246C190.548 455.696 222.306 437.147 254.064 418.324C254.878 419.688 255.693 421.052 256.507 422.416C224.749 440.966 193.262 459.243 161.504 477.792C160.418 476.701 159.604 475.337 158.789 474.246Z" fill="#E2A12B"/>
<path d="M578.862 282.726C543.187 296.321 507.783 309.917 472.108 323.512C471.563 322.152 471.019 320.793 470.474 319.433C506.15 306.11 541.553 292.515 577.228 279.191C577.773 280.279 578.317 281.367 578.862 282.726Z" fill="#E2A12B"/>
<path d="M194.38 218.602C221.266 241.629 248.153 264.656 275.039 287.683C274.216 288.78 273.393 289.876 272.296 290.973L191.362 222.714C192.459 221.343 193.282 219.972 194.38 218.602Z" fill="#E2A12B"/>
<path d="M532.907 505.281C505.079 482.623 477.251 459.965 449.695 437.307C450.514 436.215 451.605 435.123 452.424 434.031C480.252 456.689 508.353 479.347 536.181 502.005C535.09 503.097 533.998 504.189 532.907 505.281Z" fill="#E2A12B"/>
<path d="M225.484 127.154C208.675 100.852 191.594 74.5495 174.514 48.2471C175.87 47.4336 177.225 46.6201 178.581 45.8066C195.661 72.1091 212.47 98.4114 229.55 124.714C228.195 125.527 226.839 126.341 225.484 127.154Z" fill="#E2A12B"/>
<path d="M434.377 550.162C446.035 580.1 457.693 610.038 469.351 639.975C467.996 640.52 466.369 641.064 465.013 641.608C453.355 611.943 441.697 582.005 430.04 552.339C431.666 551.523 433.022 550.706 434.377 550.162Z" fill="#E2A12B"/>
<path d="M290.11 158.572C301.934 188.232 313.759 217.892 325.583 247.552C324.208 248.097 322.558 248.641 321.183 249.457C309.359 219.797 297.534 190.409 285.71 160.749C287.085 159.933 288.735 159.389 290.11 158.572Z" fill="#E2A12B"/>
<path d="M497.613 513.697C516.737 539.533 535.589 565.368 554.713 591.203C553.621 592.019 552.255 593.107 551.162 593.923C532.037 568.088 512.913 542.252 494.061 516.689C495.154 515.601 496.247 514.513 497.613 513.697Z" fill="#E2A12B"/>
<path d="M433.409 270.562C452.17 247.348 470.932 224.135 489.693 200.648C491.053 201.741 492.14 202.56 493.5 203.653C474.738 226.866 455.705 249.806 436.944 273.02C435.584 272.201 434.497 271.381 433.409 270.562Z" fill="#E2A12B"/>
<path d="M430.601 175.077C422.136 200.063 413.671 225.321 405.206 250.578C403.841 250.035 402.202 249.492 400.837 249.22C409.029 223.963 417.494 198.705 425.686 173.719C427.597 173.99 428.963 174.534 430.601 175.077Z" fill="#E2A12B"/>
<path d="M464.297 78.0396C455.909 103.575 447.52 129.11 439.132 154.645C437.509 154.102 436.156 153.559 434.532 153.287C442.92 128.023 451.308 102.488 459.426 77.2246C461.05 77.2246 462.673 77.4963 464.297 78.0396Z" fill="#E2A12B"/>
<path d="M249.768 659.622C258.792 637.252 267.817 614.609 276.841 592.238C278.209 592.784 279.85 593.329 281.217 594.148C272.192 616.791 263.441 639.161 254.417 661.805C252.776 660.986 251.135 660.44 249.768 659.622Z" fill="#E2A12B"/>
<path d="M487.129 509.209C469.313 488.238 451.498 467.266 433.409 446.294C434.505 445.477 435.602 444.387 436.698 443.57C454.787 464.27 472.602 484.969 490.692 505.669C489.321 507.031 488.225 508.12 487.129 509.209Z" fill="#E2A12B"/>
<path d="M541.553 459.278C514.49 445.723 487.428 432.168 460.365 418.885C489.342 428.644 518.317 438.675 542.92 457.923C542.646 458.194 542.1 458.736 541.553 459.278Z" fill="#E2A12B"/>
<path d="M554.152 129.867C536.897 150.752 519.643 171.637 502.115 192.793C501.019 191.709 499.649 190.895 498.554 189.81C515.808 168.925 533.337 148.039 550.591 127.154C551.687 127.968 552.782 128.782 554.152 129.867Z" fill="#E2A12B"/>
<path d="M159.078 324.633C129.592 320.29 100.105 315.675 70.6192 311.332C70.8922 310.246 70.8921 308.889 71.1651 307.803C100.651 311.875 129.865 315.947 159.351 320.29L159.078 324.633Z" fill="#E2A12B"/>
<path d="M269.794 257.311C252.54 236.334 235.011 215.085 217.757 194.108C218.852 193.018 219.948 192.201 221.317 191.111C238.572 212.088 256.1 233.065 273.355 254.042C271.985 255.132 270.89 256.222 269.794 257.311Z" fill="#E2A12B"/>
<path d="M542.599 457.596C567.7 470.642 593.073 483.688 618.174 496.735C617.355 498.365 616.536 499.724 615.718 501.355C590.89 487.222 566.063 473.088 541.235 458.955C541.781 458.683 542.326 458.139 542.599 457.596Z" fill="#E2A12B"/>
<path d="M115.615 220.845C92.4763 208.198 69.3373 195.826 46.4706 183.179C47.0151 181.804 47.832 180.43 48.3764 179.33C71.5153 191.977 94.6542 204.624 117.793 216.996C116.976 218.371 116.432 219.471 115.615 220.845Z" fill="#E2A12B"/>
<path d="M557.521 327.588C530.559 331.936 503.597 336.555 476.635 340.903C476.363 339.545 476.09 338.458 476.09 337.099C502.78 332.479 529.47 327.86 556.16 323.512C556.432 324.87 556.977 326.229 557.521 327.588Z" fill="#E2A12B"/>
<path d="M117.231 504.356C94.7415 519.155 72.2517 533.68 49.7617 548.48C48.9488 547.383 48.1357 546.013 47.5938 544.917C69.8129 530.117 92.3028 515.592 114.522 500.793C115.335 501.889 116.419 502.985 117.231 504.356Z" fill="#E2A12B"/>
<path d="M260.007 81.7129C268.671 102.586 277.607 123.459 286.271 144.332C284.918 144.875 283.293 145.688 281.668 146.23C273.004 125.628 264.339 104.755 255.945 84.1526C257.299 83.3394 258.653 82.5261 260.007 81.7129Z" fill="#E2A12B"/>
<path d="M221.688 608.726C211.149 630.443 200.609 652.432 190.07 674.148L185.746 672.248C196.285 650.531 206.555 628.814 217.094 606.826C218.445 607.641 220.067 608.184 221.688 608.726Z" fill="#E2A12B"/>
<path d="M169.46 394.05C194.084 389.702 218.707 385.082 243.331 380.734C243.605 382.093 243.878 383.452 244.152 384.811C219.528 389.158 194.904 393.778 170.28 398.126C170.007 396.767 169.733 395.409 169.46 394.05Z" fill="#E2A12B"/>
<path d="M555.293 395.322C529.453 390.554 503.614 385.504 477.775 380.455C478.047 379.333 478.047 377.931 478.319 376.809C504.158 381.577 529.997 386.065 555.836 390.834C555.836 392.517 555.565 393.92 555.293 395.322Z" fill="#E2A12B"/>
<path d="M422.262 535.015C413.997 513.581 405.732 491.876 397.467 470.442C398.845 469.9 400.497 469.357 401.875 468.814C410.14 490.519 418.405 511.953 426.67 533.658C425.017 533.929 423.64 534.472 422.262 535.015Z" fill="#E2A12B"/>
<path d="M149.804 404.218C124.619 407.515 99.1601 410.813 73.9749 413.836C73.7011 412.462 73.7009 411.088 73.4272 409.989C98.6123 406.691 123.798 403.394 149.257 400.371C149.53 401.47 149.804 402.844 149.804 404.218Z" fill="#E2A12B"/>
<path d="M169.076 127.717C184.083 145.887 199.091 164.058 213.826 182.229C212.734 183.042 211.643 184.127 210.551 184.941C195.544 166.77 180.536 148.599 165.529 130.7C166.62 129.615 167.984 128.53 169.076 127.717Z" fill="#E2A12B"/>
<path d="M359.279 53.1005V0.925781C360.121 0.925781 361.244 0.925781 362.087 0.925781V53.1005C361.244 53.1005 360.121 53.1005 359.279 53.1005Z" fill="#E2A12B"/>
<path d="M173.939 326.316C196.124 330.103 218.035 333.89 240.221 337.677L239.673 341.464C217.488 337.677 195.576 333.89 173.391 330.103C173.665 328.751 173.665 327.398 173.939 326.316Z" fill="#E2A12B"/>
<path d="M673.862 535.016C657.829 526.09 641.797 517.163 626.036 508.237C626.579 507.155 627.395 505.803 627.938 504.721C644.243 513.647 660.275 522.573 676.579 531.229C675.492 532.581 674.677 533.663 673.862 535.016Z" fill="#E2A12B"/>
<path d="M535.359 362.783C517.005 361.941 498.376 361.1 480.021 360.258C480.021 358.856 480.022 357.453 480.296 356.051C498.924 356.612 517.552 357.453 536.181 358.014C535.907 359.697 535.633 361.38 535.359 362.783Z" fill="#E2A12B"/>
<path d="M363.97 724.078C362.78 708.085 361.591 692.093 360.402 676.101C362.186 675.83 363.672 675.83 365.456 675.83V723.807L363.97 724.078Z" fill="#E2A12B"/>
<path d="M542.191 676.391C533.449 660.571 524.706 645.024 515.963 629.204C517.329 628.385 518.422 627.84 519.788 627.021C528.531 642.569 537.547 658.389 546.289 673.936C544.923 674.755 543.557 675.573 542.191 676.391Z" fill="#E2A12B"/>
<path d="M545.166 48.2697C535.59 62.5004 526.288 76.4574 516.712 90.6881L513.155 88.225L541.883 45.8066C542.704 46.9013 543.798 47.7224 545.166 48.2697Z" fill="#E2A12B"/>
<path d="M205.963 547.003C195.349 561.43 184.735 576.129 174.121 590.556C173.033 589.74 171.672 588.923 170.583 588.106C181.197 573.679 191.811 558.98 202.426 544.553C203.514 545.369 204.875 546.186 205.963 547.003Z" fill="#E2A12B"/>
</svg>
