<svg width="22" height="22" viewBox="0 0 22 22" fill="none" xmlns="http://www.w3.org/2000/svg">
<g clip-path="url(#clip0_3778_73893)">
<path d="M21.347 7.83978L18.6426 5.58279V2.38078C18.6426 2.10431 18.4013 1.89319 18.1198 1.89319H14.1839L12.6055 0.576188C11.6756 -0.192898 10.3284 -0.192898 9.39847 0.581215L7.82008 1.89319H3.8339C3.55743 1.89319 3.31112 2.09928 3.31112 2.38078V5.63306L0.657018 7.83978C0.546431 7.93529 0.481084 8.08107 0.48611 8.22684H0.496164V19.4816C0.496164 20.869 1.61209 22 2.99444 22H19.0045C20.3919 22 21.5028 20.864 21.5028 19.4816V8.22684H21.5128C21.5229 8.07604 21.4626 7.93529 21.347 7.83978ZM18.6426 6.88974L20.226 8.20673L18.6426 9.38298V6.88974ZM10.0419 1.3503C10.5999 0.887844 11.4092 0.892871 11.9671 1.35533L12.6055 1.89319H9.39344L10.0419 1.3503ZM4.31646 2.89853H17.6372V10.132L11.9118 14.3946C11.3689 14.7917 10.635 14.7917 10.0972 14.3946L4.31646 10.0917V2.89853ZM3.31112 6.93498V9.34277L1.77797 8.20171L3.31112 6.93498ZM20.5025 19.4766C20.5075 20.3111 19.8389 20.9897 19.0095 20.9947H2.99444C2.16503 20.9897 1.49648 20.3111 1.50151 19.4816V9.22716L9.50403 15.2039C10.3938 15.8624 11.6102 15.8624 12.4999 15.2039L20.5025 9.22716V19.4766Z" fill="#252A36"/>
<path d="M10.5999 6.91797H7.88548C7.60901 6.91797 7.38281 7.14417 7.38281 7.42064C7.38281 7.69711 7.60901 7.92331 7.88548 7.92331H10.5999C10.8764 7.92331 11.1026 7.69711 11.1026 7.42064C11.1026 7.14417 10.8764 6.91797 10.5999 6.91797ZM14.1186 9.43132H7.88548C7.60901 9.43132 7.38281 9.65753 7.38281 9.93399C7.38281 10.2105 7.60901 10.4367 7.88548 10.4367H14.1186C14.3951 10.4367 14.6213 10.2105 14.6213 9.93399C14.6213 9.65753 14.3951 9.43132 14.1186 9.43132Z" fill="#252A36"/>
</g>
<defs>
<clipPath id="clip0_3778_73893">
<rect width="22" height="22" fill="white"/>
</clipPath>
</defs>
</svg>
