<svg width="24" height="18" viewBox="0 0 24 18" fill="none" xmlns="http://www.w3.org/2000/svg">
<path d="M24 2.26993C24 2.18885 24 2.0267 24 1.94561C23.8378 1.29697 23.3513 0.972656 22.6216 0.972656C15.5676 0.972656 8.43244 0.972656 1.37839 0.972656C1.29731 0.972656 1.2973 0.972656 1.21622 0.972656C0.810811 0.972656 0.405415 1.21588 0.162172 1.54021C0.081091 1.70237 0 1.78345 0 1.94561C0 6.64832 0 11.351 0 16.0537C0 16.0537 4.94759e-06 16.0537 0.081086 16.1348C0.324329 16.7834 0.729739 17.0267 1.37839 17.0267C8.51352 17.0267 15.6486 17.0267 22.7027 17.0267C23.5135 17.0267 24 16.5402 24 15.7294C24 11.1889 24 6.72939 24 2.26993ZM22.2162 1.86453C22.2162 1.94561 22.1351 1.94562 22.1351 2.0267C19.0541 4.37805 15.973 6.64833 12.8919 8.99968C12.3243 9.48616 11.7568 9.40508 11.1892 8.99968C8.10812 6.72941 5.02702 4.37806 1.94594 2.10779C1.86486 2.02671 1.86487 2.0267 1.70271 1.94561C8.5946 1.86453 15.4054 1.86453 22.2162 1.86453ZM23.027 15.324C22.9459 15.324 22.946 15.2429 22.8649 15.2429C21.2432 13.2159 19.5405 11.1889 17.9189 9.08076C17.7568 8.9186 17.5946 8.75642 17.3513 8.8375C17.1892 8.91859 17.027 8.99967 17.027 9.24291C17.027 9.40507 17.1081 9.56723 17.1892 9.64832C18.6487 11.4321 20.1081 13.2159 21.5676 14.9997C21.8108 15.324 22.0541 15.6483 22.3784 15.9727C15.4054 15.9727 8.51351 15.9727 1.54054 15.9727C2.02702 15.4051 2.51352 14.8375 2.91892 14.2699C4.21622 12.7294 5.43245 11.1889 6.72974 9.56723C6.81082 9.40507 6.89189 9.32399 6.89189 9.16182C6.89189 8.99966 6.72973 8.8375 6.56757 8.75642C6.40541 8.67534 6.16216 8.75643 6.08108 8.91859C5.75676 9.324 5.35136 9.81049 5.02704 10.2159C3.72974 11.8375 2.35137 13.5402 1.05407 15.1618C1.05407 15.1618 1.05406 15.1618 0.972983 15.2429C0.972983 10.9456 0.972983 6.64832 0.972983 2.43211C1.05406 2.43211 1.05405 2.51319 1.13513 2.51319C4.29729 4.86454 7.45947 7.29696 10.7027 9.64832C11.5135 10.297 12.5676 10.297 13.4595 9.64832C16.6216 7.29696 19.7838 4.94562 22.946 2.51319C23.027 2.43211 23.1081 2.4321 23.1892 2.35102C23.027 6.7294 23.027 11.0267 23.027 15.324Z" fill="#666566"/>
</svg>
