<svg width="22" height="26" viewBox="0 0 22 26" fill="none" xmlns="http://www.w3.org/2000/svg">
<path d="M11.1044 24.9989C8.852 24.9989 6.52191 24.6882 4.34715 23.8338C3.64812 23.6008 3.02676 23.2125 2.4054 22.7465C1.47336 22.0474 0.92967 21.0377 1.00734 19.795C1.16268 17.2319 2.17239 15.0571 3.9588 13.193C4.19181 12.8824 4.50249 12.8047 4.89084 12.8824C5.27919 12.96 5.43453 13.193 5.5122 13.5814C5.58987 13.9697 5.43452 14.2804 5.20151 14.5134C4.26947 15.4455 3.64811 16.5328 3.25976 17.7756C3.02675 18.4746 2.94908 19.2513 2.87141 20.028C2.87141 20.494 3.02676 20.8047 3.33744 21.1154C3.88113 21.5814 4.50248 21.8921 5.20151 22.1251C7.45394 22.9018 9.86171 23.1348 12.2695 23.0571C13.9005 22.9795 15.5316 22.7464 17.085 22.1251C17.7064 21.8921 18.4054 21.5814 18.9491 21.1154C19.3374 20.8047 19.4928 20.4163 19.4928 19.9503C19.3374 17.8532 18.6384 15.9892 17.1627 14.5134C16.9297 14.2804 16.7743 13.9697 16.7743 13.6591C16.852 13.2707 17.0073 13.0377 17.3957 12.8824C17.784 12.727 18.0947 12.8047 18.4054 13.1154C19.4928 14.2027 20.3472 15.4455 20.8132 16.9212C21.2015 17.9309 21.3569 18.9406 21.3569 20.028C21.4345 20.96 21.0462 21.7367 20.3471 22.3581C19.4928 23.1348 18.4831 23.6008 17.3957 23.9892C15.3763 24.7659 13.3569 24.9989 11.1044 24.9989Z" fill="#666566" stroke="white" stroke-width="0.7805" stroke-miterlimit="10"/>
<path d="M11.2596 1C7.68678 1 4.81299 3.87378 4.81299 7.44659C4.81299 11.0194 7.68678 13.8932 11.2596 13.8932C14.7547 13.8932 17.7062 11.0194 17.7062 7.52427C17.7062 3.87378 14.8324 1 11.2596 1ZM11.1819 12.1068C8.61881 12.1068 6.5994 10.0097 6.5994 7.44659C6.5994 4.96116 8.69648 2.86407 11.1819 2.86407C13.745 2.86407 15.8421 4.96116 15.8421 7.44659C15.8421 10.0097 13.745 12.1068 11.1819 12.1068Z" fill="#666566" stroke="white" stroke-width="0.7805" stroke-miterlimit="10"/>
</svg>
