<svg width="22" height="22" viewBox="0 0 22 22" fill="none" xmlns="http://www.w3.org/2000/svg">
<path d="M11 3.66667L9.08417 5.5825L11 7.49833M3.91417 2.75L2.75 3.91417L7.08583 8.25H2.75V13.75H6.41667L11 18.3333V12.1642L14.8958 16.0692C14.2817 16.5367 13.5942 16.9217 12.8333 17.1417V19.0392C14.0983 18.7458 15.2442 18.1683 16.2067 17.38L18.0858 19.25L19.25 18.0858L11 9.83583M17.4167 11C17.4167 11.8617 17.2333 12.6683 16.9217 13.42L18.3058 14.8042C18.9245 13.6315 19.2485 12.3259 19.25 11C19.25 7.07667 16.5 3.795 12.8333 2.96083V4.84917C15.4825 5.6375 17.4167 8.09417 17.4167 11ZM15.125 11C15.125 9.3775 14.2083 7.98417 12.8333 7.30583V9.33167L15.0792 11.5775C15.125 11.3942 15.125 11.1925 15.125 11Z" fill="#252A36"/>
</svg>
