<svg width="24" height="24" viewBox="0 0 24 24" fill="none" xmlns="http://www.w3.org/2000/svg">
<path d="M13.9768 0.966797C13.2907 1.72356 12.9779 2.59635 13.0737 3.60537C13.1544 4.42267 13.5026 5.11384 14.1029 5.67385C15.3289 6.82917 17.2813 6.89475 18.6082 5.69403C18.6082 5.7243 18.6082 5.74448 18.6082 5.7697C18.6082 6.31457 18.6082 6.85944 18.6082 7.4043C18.6082 12.2476 18.6082 17.0908 18.6082 21.9341C18.6082 22.7262 18.0835 23.377 17.3065 23.5384C17.2056 23.5586 17.1047 23.5687 16.9988 23.5687C13.4975 23.5687 9.99623 23.5687 6.49496 23.5687C5.67261 23.5687 4.97639 22.9381 4.90072 22.1208C4.89567 22.0552 4.89062 21.9896 4.89062 21.924C4.89062 15.4865 4.89062 9.049 4.89062 2.60644C4.89062 1.80932 5.41027 1.15851 6.19225 0.997067C6.28811 0.976887 6.38901 0.966797 6.48487 0.966797C8.96704 0.966797 11.4442 0.966797 13.9263 0.966797C13.9364 0.966797 13.9516 0.966797 13.9768 0.966797ZM11.868 22.5092C12.6096 22.5092 13.2099 21.9139 13.2099 21.1723C13.2099 20.4307 12.6146 19.8303 11.873 19.8303C11.1314 19.8303 10.531 20.4256 10.531 21.1673C10.5361 21.9089 11.1314 22.5092 11.868 22.5092Z" fill="#252A36"/>
<path d="M16.5779 0.689453C17.9174 0.689453 18.9995 1.77689 18.9995 3.11763C18.9995 4.454 17.9131 5.53271 16.5735 5.53271C15.234 5.53707 14.1562 4.44527 14.1562 3.10016C14.1606 1.77252 15.2471 0.689453 16.5779 0.689453Z" fill="#11D147"/>
<path d="M11.8777 20.0879C12.473 20.0879 12.9573 20.5773 12.9573 21.1726C12.9573 21.7679 12.468 22.2573 11.8676 22.2522C11.2723 22.2522 10.788 21.7629 10.793 21.1625C10.788 20.5722 11.2773 20.0879 11.8777 20.0879Z" fill="#252A36"/>
</svg>
