<svg width="20" height="20" viewBox="0 0 20 20" fill="none" xmlns="http://www.w3.org/2000/svg">
<g clip-path="url(#clip0_4317_76850)">
<path d="M14.3838 0H0.919219C0.412344 0 0 0.412383 0 0.919219V19.0808C0 19.5877 0.412383 20 0.919219 20H14.3838C14.4615 20 14.536 19.9691 14.591 19.9142C14.6459 19.8592 14.6768 19.7847 14.6768 19.707C14.6768 19.6293 14.6459 19.5548 14.591 19.4999C14.536 19.4449 14.4615 19.4141 14.3838 19.4141H14.3636V18.7475H14.3838C14.718 18.7475 14.9899 18.4756 14.9899 18.1414V0.606094C14.9899 0.271875 14.718 0 14.3838 0ZM11.2727 5.63637H3.42426C3.41891 5.63637 3.41379 5.63424 3.41001 5.63046C3.40623 5.62668 3.4041 5.62156 3.4041 5.61621V4.98992C3.4041 4.97879 3.41313 4.96977 3.42426 4.96977H7.34846H11.2727V5.63637ZM0.585938 19.0808C0.585938 18.897 0.735469 18.7475 0.919219 18.7475H1.23234C1.31004 18.7475 1.38456 18.7166 1.4395 18.6617C1.49445 18.6067 1.52531 18.5322 1.52531 18.4545C1.52531 18.3768 1.49445 18.3023 1.4395 18.2474C1.38456 18.1924 1.31004 18.1616 1.23234 18.1616H0.919219C0.80168 18.1616 0.689336 18.184 0.585938 18.2244V0.919219C0.585938 0.73543 0.735469 0.585938 0.919219 0.585938H11.2727V4.38383H3.42426C3.09004 4.38383 2.81816 4.6557 2.81816 4.98992V5.61621C2.81816 5.95043 3.09004 6.2223 3.42426 6.2223H11.2727V18.1616H2.48484C2.40714 18.1616 2.33263 18.1924 2.27768 18.2474C2.22274 18.3023 2.19187 18.3768 2.19187 18.4545C2.19187 18.5322 2.22274 18.6067 2.27768 18.6617C2.33263 18.7166 2.40714 18.7475 2.48484 18.7475H11.2727V19.4141H0.919219C0.73543 19.4141 0.585938 19.2645 0.585938 19.0808ZM11.8586 18.7475H12.5252V19.4141H11.8586V18.7475ZM13.7777 19.4141H13.1111V18.7475H13.7777V19.4141ZM14.4039 18.1414C14.4039 18.1467 14.4018 18.1518 14.398 18.1556C14.3943 18.1594 14.3891 18.1615 14.3838 18.1615H13.1111V2.1716C13.1111 2.0939 13.0802 2.01938 13.0253 1.96444C12.9703 1.9095 12.8958 1.87863 12.8181 1.87863C12.7404 1.87863 12.6659 1.9095 12.611 1.96444C12.556 2.01938 12.5252 2.0939 12.5252 2.1716V18.1616H11.8586V0.585938H12.5252V0.919297C12.5252 0.996997 12.556 1.07151 12.611 1.12646C12.6659 1.1814 12.7404 1.21227 12.8181 1.21227C12.8958 1.21227 12.9703 1.1814 13.0253 1.12646C13.0802 1.07151 13.1111 0.996997 13.1111 0.919297V0.585938H14.3838C14.3949 0.585938 14.4039 0.594961 14.4039 0.606094V18.1414Z" fill="#131A2C"/>
<path d="M6.22328 8.72742H11.2334C11.5676 8.72742 11.8395 8.45555 11.8395 8.12133V7.49508C11.8395 7.16086 11.5676 6.88898 11.2334 6.88898H6.22328C5.88906 6.88898 5.61719 7.16086 5.61719 7.49508V8.12133C5.61719 8.45555 5.8891 8.72742 6.22328 8.72742ZM6.20312 7.49508C6.20312 7.48395 6.21215 7.47492 6.22328 7.47492H11.2334C11.2445 7.47492 11.2535 7.48395 11.2535 7.49508V8.12133C11.2535 8.12667 11.2514 8.1318 11.2476 8.13558C11.2438 8.13936 11.2387 8.14149 11.2334 8.14149H6.22328C6.21794 8.14149 6.21281 8.13936 6.20903 8.13558C6.20525 8.1318 6.20312 8.12667 6.20312 8.12133V7.49508ZM18.7485 3.13141H18.7283V2.485C18.7283 2.15078 18.4564 1.87891 18.1222 1.87891H17.496C17.1618 1.87891 16.8899 2.15078 16.8899 2.485V17.2021C16.8899 17.6066 17.1525 17.9505 17.5161 18.0732V18.4546C17.5161 18.5324 17.547 18.6069 17.6019 18.6618C17.6569 18.7168 17.7314 18.7476 17.8091 18.7476C17.8868 18.7476 17.9613 18.7168 18.0163 18.6618C18.0712 18.6069 18.1021 18.5324 18.1021 18.4546V18.0732C18.4657 17.9506 18.7283 17.6066 18.7283 17.2021V3.71734H18.7485C18.9323 3.71734 19.0818 3.86688 19.0818 4.05063V7.49508C19.0818 7.57278 19.1126 7.6473 19.1676 7.70224C19.2225 7.75718 19.297 7.78805 19.3747 7.78805C19.4524 7.78805 19.5269 7.75718 19.5819 7.70224C19.6368 7.6473 19.6677 7.57278 19.6677 7.49508V4.05063C19.6677 3.54379 19.2554 3.13141 18.7485 3.13141ZM17.496 2.46484H18.1222C18.1334 2.46484 18.1424 2.47387 18.1424 2.485V3.13141H17.4758V2.485C17.4758 2.47387 17.4848 2.46484 17.496 2.46484ZM18.1424 15.9698H17.4758V12.485H18.1424V15.9698ZM17.8091 17.5354C17.6253 17.5354 17.4758 17.3859 17.4758 17.2021V16.5557H18.1424V17.2021C18.1424 17.3859 17.9929 17.5354 17.8091 17.5354ZM18.1424 11.8991H17.4758V3.71734H18.1424V11.8991Z" fill="#131A2C"/>
</g>
<defs>
<clipPath id="clip0_4317_76850">
<rect width="20" height="20" fill="white"/>
</clipPath>
</defs>
</svg>
