<svg width="22" height="22" viewBox="0 0 22 22" fill="none" xmlns="http://www.w3.org/2000/svg">
<path d="M5.9734 19.9761C6.54164 19.8168 7.0601 19.5155 7.48008 19.1004L20.3137 6.24761C20.7532 5.80573 21 5.20744 21 4.58375C21 3.96006 20.7532 3.36178 20.3137 2.9199L19.0492 1.66696C18.6017 1.23887 18.0067 1 17.3878 1C16.769 1 16.174 1.23887 15.7264 1.66696L2.89278 14.5063C2.47756 14.9241 2.18047 15.4448 2.03183 16.0152L1.03634 19.7336C0.989112 19.9034 0.987896 20.0828 1.03282 20.2533C1.07774 20.4238 1.16718 20.5792 1.29194 20.7036C1.48235 20.8911 1.73792 20.9973 2.00492 21L5.9734 19.9761ZM6.52495 18.1438C6.27695 18.3967 5.96566 18.5782 5.62364 18.6693L4.31875 19.0195L2.9735 17.6723L3.32326 16.3655C3.41736 16.0242 3.59811 15.7133 3.84791 15.4628L4.3591 14.9643L7.03615 17.6453L6.52495 18.1438ZM7.99127 16.6888L5.31423 14.0078L14.3678 4.94078L17.0448 7.6218L7.99127 16.6888ZM19.3586 5.30453L17.9999 6.66526L15.3229 3.98423L16.6816 2.61003C16.7751 2.51602 16.8862 2.44142 17.0085 2.39051C17.1309 2.33961 17.2621 2.31341 17.3946 2.31341C17.5271 2.31341 17.6582 2.33961 17.7806 2.39051C17.9029 2.44142 18.014 2.51602 18.1075 2.61003L19.3586 3.87645C19.5463 4.0666 19.6515 4.32316 19.6515 4.59049C19.6515 4.85783 19.5463 5.11438 19.3586 5.30453Z" fill="black"/>
</svg>
