<svg width="26" height="26" viewBox="0 0 26 26" fill="none" xmlns="http://www.w3.org/2000/svg">
<g clip-path="url(#clip0_94_4024)">
<path d="M22.4424 1.84754C21.132 0.539427 19.0099 0.539427 17.6994 1.84754L16.5122 3.04134L3.87368 15.6731L3.84682 15.7001C3.84038 15.7067 3.84038 15.7135 3.83339 15.7135C3.81996 15.7337 3.79982 15.7537 3.78666 15.7738C3.78666 15.7805 3.77967 15.7805 3.77967 15.7872C3.76624 15.8074 3.7598 15.8208 3.7461 15.841C3.73965 15.8477 3.73965 15.8542 3.73288 15.8611C3.72617 15.8813 3.71946 15.8947 3.71253 15.9148C3.71253 15.9213 3.70608 15.9213 3.70608 15.9283L0.901893 24.3604C0.861568 24.478 0.85528 24.6046 0.883753 24.7257C0.912226 24.8467 0.974303 24.9572 1.06284 25.0445C1.18966 25.1698 1.3609 25.2398 1.53916 25.2393C1.612 25.238 1.6842 25.2266 1.75382 25.2057L10.1795 22.3948C10.186 22.3948 10.186 22.3948 10.193 22.3884C10.2142 22.3821 10.2344 22.373 10.2532 22.3613C10.2583 22.3607 10.2631 22.3584 10.2668 22.3548C10.2868 22.3414 10.3136 22.3277 10.3338 22.3143C10.3537 22.301 10.3741 22.281 10.3942 22.2675C10.4009 22.2605 10.4074 22.2605 10.4074 22.2541C10.4144 22.2473 10.4278 22.2408 10.4345 22.2272L24.2602 8.40147C25.5684 7.09105 25.5684 4.96894 24.2602 3.65867L22.4424 1.84754ZM9.96494 20.8183L5.296 16.1496L16.9818 4.46387L21.6507 9.13259L9.96494 20.8183ZM4.63837 17.3906L8.71726 21.4693L2.59243 23.5084L4.63837 17.3906ZM23.3145 7.46225L22.6034 8.1801L17.9343 3.511L18.6523 2.79332C19.4377 2.00853 20.7108 2.00853 21.4965 2.79332L23.321 4.61794C24.1006 5.40691 24.0977 6.67704 23.3145 7.46225Z" fill="#E2A12D"/>
</g>
<defs>
<clipPath id="clip0_94_4024">
<rect width="26" height="26" fill="white"/>
</clipPath>
</defs>
</svg>
