<svg width="104" height="104" viewBox="0 0 104 104" fill="none" xmlns="http://www.w3.org/2000/svg">
<path d="M40.8573 72.0583L72.0573 52.0011L40.8573 31.944V72.0583ZM52.0001 96.5725C45.8344 96.5725 40.0401 95.4018 34.6173 93.0603C29.1944 90.7218 24.4773 87.5468 20.4659 83.5354C16.4544 79.524 13.2795 74.8068 10.9409 69.384C8.59945 63.9611 7.42871 58.1668 7.42871 52.0011C7.42871 45.8354 8.59945 40.0411 10.9409 34.6183C13.2795 29.1954 16.4544 24.4783 20.4659 20.4668C24.4773 16.4554 29.1944 13.2789 34.6173 10.9375C40.0401 8.59894 45.8344 7.42969 52.0001 7.42969C58.1659 7.42969 63.9601 8.59894 69.383 10.9375C74.8059 13.2789 79.523 16.4554 83.5344 20.4668C87.5459 24.4783 90.7208 29.1954 93.0593 34.6183C95.4008 40.0411 96.5716 45.8354 96.5716 52.0011C96.5716 58.1668 95.4008 63.9611 93.0593 69.384C90.7208 74.8068 87.5459 79.524 83.5344 83.5354C79.523 87.5468 74.8059 90.7218 69.383 93.0603C63.9601 95.4018 58.1659 96.5725 52.0001 96.5725Z" fill="white"/>
</svg>
