<svg width="34" height="34" viewBox="0 0 34 34" fill="none" xmlns="http://www.w3.org/2000/svg">
<path d="M17.1667 3C9.34667 3 3 9.34667 3 17.1667C3 24.9867 9.34667 31.3333 17.1667 31.3333C24.9867 31.3333 31.3333 24.9867 31.3333 17.1667C31.3333 9.34667 24.9867 3 17.1667 3ZM13.625 20.9492V13.3842C13.625 12.265 14.8717 11.585 15.8067 12.1942L21.6858 15.9767C21.8847 16.1051 22.0481 16.2813 22.1613 16.4892C22.2745 16.697 22.3338 16.93 22.3338 17.1667C22.3338 17.4034 22.2745 17.6363 22.1613 17.8442C22.0481 18.052 21.8847 18.2282 21.6858 18.3567L15.8067 22.1392C14.8717 22.7483 13.625 22.0683 13.625 20.9492Z" fill="#252A36"/>
</svg>
