<svg width="24" height="24" viewBox="0 0 24 24" fill="none" xmlns="http://www.w3.org/2000/svg">
<g clip-path="url(#clip0_4021_70677)">
<path d="M16.0993 10.572L16.0985 10.5715L11.1209 7.36907C11.1205 7.36879 11.1201 7.36852 11.1197 7.36825C9.9921 6.63495 8.5 7.45528 8.5 8.796V15.204C8.5 16.5448 9.99216 17.3651 11.1197 16.6317C11.1201 16.6314 11.1205 16.6312 11.1209 16.6309L16.0985 13.4285L16.0993 13.428C16.3379 13.2739 16.5341 13.0624 16.6699 12.813C16.8057 12.5635 16.8769 12.284 16.8769 12C16.8769 11.716 16.8057 11.4365 16.6699 11.187C16.5341 10.9376 16.3379 10.7261 16.0993 10.572ZM0.5 12C0.5 5.65214 5.65214 0.5 12 0.5C18.3479 0.5 23.5 5.65214 23.5 12C23.5 18.3479 18.3479 23.5 12 23.5C5.65214 23.5 0.5 18.3479 0.5 12Z" stroke="white"/>
</g>
<defs>
<clipPath id="clip0_4021_70677">
<rect width="24" height="24" fill="white"/>
</clipPath>
</defs>
</svg>
