<svg width="24" height="24" viewBox="0 0 24 24" fill="none" xmlns="http://www.w3.org/2000/svg">
<path d="M11.25 1.5V12H12.75V1.5H11.25Z" fill="#252A36"/>
<path d="M4.50005 13.2173C4.49969 11.8777 4.85817 10.5625 5.53823 9.40842C6.21828 8.25433 7.19508 7.30349 8.36705 6.65475L7.63955 5.34375C5.90034 6.30685 4.52897 7.81871 3.73952 9.64332C2.95007 11.4679 2.78697 13.5026 3.2757 15.4296C3.76443 17.3567 4.87746 19.0677 6.44105 20.2956C8.00464 21.5234 9.93078 22.199 11.9188 22.2168C13.9068 22.2346 15.8447 21.5937 17.4301 20.3941C19.0154 19.1946 20.159 17.5038 20.6822 15.5858C21.2055 13.6678 21.0789 11.6306 20.3223 9.79211C19.5657 7.95363 18.2217 6.4174 16.5001 5.42325L15.7486 6.72075C16.8889 7.37878 17.8359 8.32539 18.4945 9.46545C19.153 10.6055 19.4998 11.8988 19.5001 13.2154C19.5003 14.532 19.154 15.8254 18.4959 16.9657C17.8378 18.106 16.8911 19.053 15.751 19.7115C14.6109 20.3699 13.3176 20.7166 12.001 20.7168C10.6844 20.717 9.39097 20.3706 8.25072 19.7124C7.11046 19.0542 6.16355 18.1075 5.50516 16.9673C4.84678 15.8272 4.50013 14.5338 4.50005 13.2173Z" fill="#252A36"/>
</svg>
