<svg width="104" height="104" viewBox="0 0 104 104" fill="none" xmlns="http://www.w3.org/2000/svg">
<path fill-rule="evenodd" clip-rule="evenodd" d="M69.5294 93.6126C64.1304 95.849 58.3438 97 52.5 97C40.6979 97 29.3791 92.3116 21.0337 83.9662C12.6884 75.6209 8 64.3021 8 52.5C8 40.6979 12.6884 29.3791 21.0337 21.0337C29.3791 12.6884 40.6979 8 52.5 8C58.3438 8 64.1304 9.15103 69.5294 11.3874C74.9284 13.6237 79.834 16.9015 83.9662 21.0337C88.0985 25.166 91.3763 30.0716 93.6126 35.4706C95.849 40.8696 97 46.6562 97 52.5C97 58.3438 95.849 64.1304 93.6126 69.5294C91.3763 74.9284 88.0985 79.834 83.9662 83.9662C79.834 88.0985 74.9284 91.3763 69.5294 93.6126ZM47.5555 40.1404V64.8626V64.8627C47.5555 67.1667 47.5555 68.3188 47.1748 69.2285C46.6741 70.4386 45.7139 71.4006 44.5048 71.9035C43.595 72.2793 42.4429 72.2793 40.1388 72.2793C37.8347 72.2793 36.6827 72.2793 35.7729 71.8985C34.5628 71.3979 33.6008 70.4376 33.0979 69.2285C32.7222 68.3188 32.7222 67.1667 32.7222 64.8626V40.1404V40.1403C32.7222 37.8363 32.7222 36.6842 33.1029 35.7744C33.6035 34.5644 34.5638 33.6024 35.7729 33.0995C36.6827 32.7237 37.8347 32.7237 40.1388 32.7237H40.1389C42.443 32.7237 43.595 32.7237 44.5048 33.1044C45.7148 33.6051 46.6768 34.5653 47.1797 35.7744C47.5555 36.6842 47.5555 37.8363 47.5555 40.1404ZM72.2777 40.1404V64.8626C72.2777 67.1667 72.2777 68.3188 71.897 69.2285C71.3963 70.4386 70.4361 71.4006 69.227 71.9035C68.3172 72.2793 67.1652 72.2793 64.8611 72.2793C62.5569 72.2793 61.4049 72.2793 60.4951 71.8985C59.2851 71.3979 58.3231 70.4376 57.8202 69.2285C57.4444 68.3188 57.4444 67.1667 57.4444 64.8626V40.1404V40.1403C57.4444 37.8362 57.4444 36.6842 57.8251 35.7744C58.3258 34.5644 59.286 33.6024 60.4951 33.0995C61.4049 32.7237 62.5569 32.7237 64.8611 32.7237H64.8611C67.1652 32.7237 68.3172 32.7237 69.227 33.1044C70.437 33.6051 71.399 34.5653 71.9019 35.7744C72.2777 36.6842 72.2777 37.8363 72.2777 40.1404Z" fill="white"/>
</svg>
