<svg width="16" height="16" viewBox="0 0 16 16" fill="none" xmlns="http://www.w3.org/2000/svg">
<g clip-path="url(#clip0_3357_65987)">
<path d="M8 16C3.6 16 0 12.4 0 8C0 3.6 3.6 0 8 0C12.4 0 16 3.6 16 8C16 12.4 12.4 16 8 16ZM8 14.496C11.6 14.496 14.496 11.6 14.496 8C14.496 4.4 11.6 1.504 8 1.504C4.4 1.504 1.504 4.4 1.504 8C1.504 11.6 4.4 14.496 8 14.496ZM9.008 12C9.008 12.304 8.896 12.496 8.704 12.704C8.512 12.912 8.304 12.992 8 12.992C7.696 12.992 7.504 12.896 7.296 12.704C7.104 12.496 7.008 12.304 7.008 12C7.008 11.696 7.104 11.504 7.296 11.296C7.504 11.104 7.696 10.992 8 10.992C8.304 10.992 8.496 11.104 8.704 11.296C8.912 11.488 9.008 11.696 9.008 12ZM8.704 9.6C8.704 10 8.4 10.304 8 10.304C7.6 10.304 7.296 10 7.296 9.6V9.296C7.296 8.992 7.408 8.704 7.504 8.496C7.6 8.288 7.808 8.096 8 7.904C8 7.792 8.208 7.6 8.4 7.392C8.592 7.184 8.704 7.104 8.896 6.896C9.008 6.704 9.2 6.592 9.296 6.4C9.408 6.192 9.408 6 9.408 5.792C9.408 5.392 9.296 5.104 9.008 4.896C8.8 4.704 8.4 4.496 8 4.496C7.6 4.496 7.296 4.592 7.008 4.8C6.896 5.104 6.704 5.392 6.608 5.792C6.608 5.904 6.496 6 6.496 6.096C6.304 6.304 6 6.496 5.6 6.4C5.408 6.304 5.2 6.192 5.104 6C5.104 5.792 5.104 5.696 5.104 5.6C5.2 5.2 5.296 4.896 5.504 4.592C5.696 4.304 5.904 4 6.208 3.792C6.4 3.504 6.704 3.296 7.008 3.2C7.312 3.104 7.696 2.992 8.096 2.992C8.496 2.992 8.896 3.104 9.2 3.2C9.504 3.296 9.904 3.504 10.096 3.696C10.4 3.904 10.608 4.192 10.704 4.496C10.8 4.8 10.896 5.2 10.896 5.6C10.896 6 10.8 6.4 10.704 6.704C10.608 6.992 10.4 7.2 10.304 7.504C10.096 7.696 9.904 7.904 9.696 8.096C9.504 8.192 9.408 8.4 9.2 8.496C9.104 8.704 9.008 8.896 8.896 9.104C8.896 9.2 8.8 9.296 8.8 9.296C8.8 9.296 8.8 9.296 8.8 9.392L8.704 9.6Z" fill="#BEBEBE"/>
</g>
<defs>
<clipPath id="clip0_3357_65987">
<rect width="16" height="16" fill="white"/>
</clipPath>
</defs>
</svg>
