<svg width="22" height="20" viewBox="0 0 22 20" fill="none" xmlns="http://www.w3.org/2000/svg">
<path d="M9 1.75C9.19891 1.75 9.38968 1.67098 9.53033 1.53033C9.67098 1.38968 9.75 1.19891 9.75 1C9.75 0.801089 9.67098 0.610323 9.53033 0.469671C9.38968 0.329019 9.19891 0.250001 9 0.250001V1.75ZM13 0.250001C12.8011 0.250001 12.6103 0.329019 12.4697 0.469671C12.329 0.610323 12.25 0.801089 12.25 1C12.25 1.19891 12.329 1.38968 12.4697 1.53033C12.6103 1.67098 12.8011 1.75 13 1.75V0.250001ZM12 19.75C12.1989 19.75 12.3897 19.671 12.5303 19.5303C12.671 19.3897 12.75 19.1989 12.75 19C12.75 18.8011 12.671 18.6103 12.5303 18.4697C12.3897 18.329 12.1989 18.25 12 18.25V19.75ZM20.25 11C20.25 11.1989 20.329 11.3897 20.4697 11.5303C20.6103 11.671 20.8011 11.75 21 11.75C21.1989 11.75 21.3897 11.671 21.5303 11.5303C21.671 11.3897 21.75 11.1989 21.75 11H20.25ZM13 10.75C13.1989 10.75 13.3897 10.671 13.5303 10.5303C13.671 10.3897 13.75 10.1989 13.75 10C13.75 9.80109 13.671 9.61032 13.5303 9.46967C13.3897 9.32902 13.1989 9.25 13 9.25V10.75ZM17 9.25C16.8011 9.25 16.6103 9.32902 16.4697 9.46967C16.329 9.61032 16.25 9.80109 16.25 10C16.25 10.1989 16.329 10.3897 16.4697 10.5303C16.6103 10.671 16.8011 10.75 17 10.75V9.25ZM1.75 11V10H0.250001V11H1.75ZM1.75 10V9H0.250001V10H1.75ZM12 18.25H9V19.75H12V18.25ZM20.25 9V10H21.75V9H20.25ZM0.250001 11C0.250001 12.864 0.248001 14.338 0.403001 15.489C0.561001 16.661 0.893001 17.61 1.641 18.359L2.701 17.299C2.279 16.875 2.025 16.295 1.89 15.289C1.752 14.262 1.75 12.907 1.75 11H0.250001ZM9 18.25C7.093 18.25 5.739 18.248 4.71 18.11C3.705 17.975 3.125 17.721 2.702 17.298L1.642 18.358C2.39 19.108 3.339 19.439 4.511 19.597C5.661 19.752 7.136 19.75 9 19.75V18.25ZM13 1.75C14.907 1.75 16.262 1.752 17.29 1.89C18.295 2.025 18.875 2.279 19.298 2.702L20.358 1.642C19.61 0.892001 18.661 0.561001 17.489 0.403001C16.339 0.248001 14.864 0.250001 13 0.250001V1.75ZM21.75 9C21.75 7.136 21.752 5.662 21.597 4.511C21.439 3.339 21.107 2.39 20.359 1.641L19.299 2.701C19.721 3.125 19.975 3.705 20.11 4.711C20.248 5.739 20.25 7.093 20.25 9H21.75ZM9 0.250001C7.136 0.250001 5.662 0.248001 4.511 0.403001C3.339 0.561001 2.39 0.893001 1.641 1.641L2.701 2.701C3.125 2.279 3.705 2.025 4.711 1.89C5.739 1.752 7.093 1.75 9 1.75V0.250001ZM1.75 9C1.75 7.093 1.752 5.739 1.89 4.71C2.025 3.705 2.279 3.125 2.702 2.702L1.642 1.642C0.892001 2.39 0.561001 3.339 0.403001 4.511C0.248001 5.661 0.250001 7.136 0.250001 9H1.75ZM20.25 10V11H21.75V10H20.25ZM1 10.75H13V9.25H1V10.75ZM17 10.75H21V9.25H17V10.75Z" fill="#252A36"/>
<path d="M14.5839 16L14.0959 16.57C14.3769 16.81 14.7909 16.81 15.0719 16.57L14.5839 16ZM15.6559 16.07C15.8071 15.9407 15.9007 15.7567 15.9161 15.5583C15.9316 15.36 15.8677 15.1637 15.7384 15.0125C15.6091 14.8613 15.425 14.7677 15.2267 14.7522C15.0284 14.7368 14.832 14.8007 14.6809 14.93L15.6559 16.07ZM14.4879 14.93C14.3367 14.8006 14.1403 14.7365 13.9419 14.7519C13.7435 14.7673 13.5593 14.8608 13.4299 15.012C13.3005 15.1632 13.2364 15.3596 13.2518 15.558C13.2671 15.7564 13.3607 15.9406 13.5119 16.07L14.4879 14.93ZM19.3889 14.635C19.5042 14.797 19.6793 14.9066 19.8754 14.9396C20.0716 14.9726 20.2728 14.9264 20.4349 14.811C20.5969 14.6956 20.7065 14.5206 20.7395 14.3245C20.7725 14.1283 20.7262 13.927 20.6109 13.765L19.3889 14.635ZM17.5049 12.25C15.5909 12.25 13.8349 13.6 13.8349 15.5H15.3349C15.3349 14.639 16.1919 13.75 17.5049 13.75V12.25ZM13.8349 15.5V16H15.3349V15.5H13.8349ZM15.0719 16.57L15.6559 16.07L14.6809 14.93L14.0959 15.43L15.0719 16.57ZM15.0719 15.43L14.4879 14.93L13.5119 16.07L14.0959 16.57L15.0719 15.43ZM20.6109 13.765C19.9449 12.83 18.7819 12.25 17.5049 12.25V13.75C18.3409 13.75 19.0289 14.13 19.3889 14.635L20.6109 13.765ZM20.4149 16L20.9039 15.43C20.768 15.3135 20.5949 15.2495 20.4159 15.2495C20.2369 15.2495 20.0638 15.3135 19.9279 15.43L20.4149 16ZM19.3439 15.93C19.1927 16.0593 19.0991 16.2433 19.0836 16.4417C19.0681 16.64 19.1321 16.8363 19.2614 16.9875C19.3907 17.1387 19.5747 17.2323 19.773 17.2478C19.9714 17.2632 20.1677 17.1993 20.3189 17.07L19.3439 15.93ZM20.5119 17.07C20.6631 17.1994 20.8594 17.2635 21.0579 17.2481C21.2563 17.2327 21.4405 17.1392 21.5699 16.988C21.6993 16.8368 21.7634 16.6404 21.748 16.442C21.7326 16.2436 21.6391 16.0594 21.4879 15.93L20.5119 17.07ZM15.6109 17.365C15.5538 17.2848 15.4814 17.2166 15.3979 17.1643C15.3144 17.112 15.2215 17.0767 15.1243 17.0604C15.0272 17.044 14.9278 17.047 14.8318 17.069C14.7358 17.0911 14.6451 17.1319 14.5649 17.189C14.4846 17.2461 14.4164 17.3185 14.3642 17.402C14.3119 17.4855 14.2766 17.5784 14.2602 17.6755C14.2439 17.7727 14.2468 17.8721 14.2689 17.9681C14.291 18.0641 14.3318 18.1548 14.3889 18.235L15.6109 17.365ZM17.4949 19.75C19.4089 19.75 21.1649 18.4 21.1649 16.5H19.6649C19.6649 17.361 18.8079 18.25 17.4949 18.25V19.75ZM21.1649 16.5V16H19.6649V16.5H21.1649ZM19.9279 15.43L19.3439 15.93L20.3189 17.07L20.9039 16.57L19.9279 15.43ZM19.9279 16.57L20.5119 17.07L21.4879 15.93L20.9039 15.43L19.9279 16.57ZM14.3889 18.235C15.0549 19.17 16.2179 19.75 17.4949 19.75V18.25C16.6589 18.25 15.9709 17.87 15.6109 17.365L14.3889 18.235Z" fill="#252A36"/>
</svg>
