<svg width="26" height="27" viewBox="0 0 26 27" fill="none" xmlns="http://www.w3.org/2000/svg">
<path d="M13.0007 8.35156C10.1626 8.35156 7.85352 10.6607 7.85352 13.4987C7.85352 16.3368 10.1626 18.6459 13.0007 18.6459C15.8388 18.6459 18.1479 16.3368 18.1479 13.4987C18.1479 10.6607 15.8388 8.35156 13.0007 8.35156ZM13.0007 16.9129C11.1181 16.9129 9.58658 15.3813 9.58658 13.4987C9.58658 11.6162 11.1181 10.0846 13.0007 10.0846C14.8833 10.0846 16.4148 11.6162 16.4148 13.4987C16.4148 15.3813 14.8833 16.9129 13.0007 16.9129Z" fill="white"/>
<path d="M12.9998 4.96875C7.5073 4.96875 2.4373 8.17244 0.0834844 13.1319C-0.0278281 13.3676 -0.0278281 13.6414 0.0834844 13.877C2.44542 18.83 7.51542 22.0312 12.9998 22.0312C18.4842 22.0312 23.5542 18.83 25.9153 13.877C26.0274 13.6414 26.0274 13.3684 25.9153 13.1319C23.5623 8.17325 18.4923 4.96875 12.9998 4.96875ZM12.9998 20.2982C8.31898 20.2982 3.98105 17.6446 1.83361 13.5041C3.97455 9.35787 8.31167 6.70181 12.9998 6.70181C17.6879 6.70181 22.025 9.35869 24.166 13.5041C22.0185 17.6437 17.6798 20.2982 12.9998 20.2982Z" fill="white"/>
</svg>
