<svg width="18" height="18" viewBox="0 0 18 18" fill="none" xmlns="http://www.w3.org/2000/svg">
<circle cx="9" cy="9" r="8.4" fill="#E3A130" stroke="white" stroke-width="1.2"/>
<g clip-path="url(#clip0_5933_81901)">
<path d="M15.1084 7.67195C14.4852 7.17738 14.1674 6.41025 14.2584 5.61969C14.3179 5.10257 14.141 4.59491 13.773 4.22702C13.4049 3.85895 12.8973 3.68203 12.3803 3.74161C11.5894 3.8325 10.8226 3.5149 10.3281 2.89165C10.0046 2.48385 9.52051 2.25 9.00005 2.25C8.47953 2.25 7.99549 2.48385 7.67195 2.8916C7.17738 3.51481 6.41053 3.8325 5.61987 3.74166C5.10275 3.68193 4.5951 3.85895 4.22707 4.22698C3.85899 4.59491 3.68207 5.10257 3.74156 5.61978C3.83259 6.41021 3.51485 7.17734 2.89146 7.67199C2.48385 7.99554 2.25 8.47958 2.25 9C2.25 9.52042 2.4838 10.0045 2.89156 10.3281C3.51485 10.8227 3.83259 11.5898 3.74156 12.3804C3.68207 12.8975 3.85899 13.4051 4.22698 13.773C4.5951 14.1411 5.10312 14.3181 5.61974 14.2584C6.41025 14.1675 7.17738 14.4851 7.67195 15.1084C7.99545 15.5161 8.47949 15.75 9.00005 15.75C9.52051 15.75 10.0046 15.5162 10.3281 15.1084C10.8227 14.4852 11.5896 14.1676 12.3802 14.2584C12.8973 14.3178 13.4049 14.1411 13.773 13.7731C14.1411 13.4051 14.318 12.8975 14.2585 12.3803C14.1675 11.5898 14.4852 10.8227 15.1086 10.3281C15.5162 10.0045 15.75 9.52047 15.75 9C15.75 8.47953 15.5161 7.99554 15.1084 7.67195Z" fill="white"/>
<path d="M13.1114 8.32673L11.2706 10.1212L11.7053 12.6556C11.7146 12.7099 11.7086 12.7658 11.6878 12.8169C11.667 12.8679 11.6323 12.9122 11.5877 12.9446C11.5431 12.977 11.4903 12.9963 11.4353 13.0002C11.3803 13.0042 11.3253 12.9927 11.2765 12.9671L9.00039 11.7705L6.72455 12.9668C6.67575 12.9924 6.62074 13.0039 6.56574 12.9999C6.51074 12.996 6.45796 12.9767 6.41334 12.9443C6.36873 12.9119 6.33408 12.8676 6.31329 12.8166C6.29251 12.7655 6.28643 12.7096 6.29575 12.6553L6.73046 10.1209L4.88934 8.32673C4.84983 8.28823 4.82188 8.23943 4.80866 8.18586C4.79544 8.1323 4.79748 8.0761 4.81455 8.02363C4.83161 7.97117 4.86303 7.92453 4.90524 7.88899C4.94744 7.85346 4.99875 7.83045 5.05336 7.82256L7.59753 7.45316L8.7353 5.14748C8.83489 4.94563 9.16588 4.94563 9.26547 5.14748L10.4032 7.45316L12.9474 7.82256C13.0019 7.83065 13.053 7.85378 13.0951 7.88934C13.1372 7.9249 13.1685 7.97148 13.1855 8.02386C13.2026 8.07624 13.2047 8.13234 13.1916 8.18584C13.1785 8.23934 13.1507 8.28813 13.1114 8.32673Z" fill="#131A2C"/>
</g>
<defs>
<clipPath id="clip0_5933_81901">
<rect width="13.5" height="13.5" fill="white" transform="translate(2.25 2.25)"/>
</clipPath>
</defs>
</svg>
