<svg width="24" height="24" viewBox="0 0 24 24" fill="none" xmlns="http://www.w3.org/2000/svg">
<g clip-path="url(#clip0_935_36709)">
<path d="M20.4885 8.48239V3.51623H15.5223L12 0.0117188L8.4777 3.51623H3.51153V8.48239L0 11.9939L3.51153 15.5055V20.4716H8.4777L12 23.9902L15.5223 20.4716H20.4885V15.5055L24 11.9939L20.4885 8.48239ZM12 19.4582C7.88807 19.4582 4.54279 16.1129 4.54279 12.0009C4.54279 7.88902 7.88807 4.54374 12 4.54374C16.1119 4.54374 19.4572 7.88902 19.4572 12.0009C19.4572 16.1129 16.1119 19.4582 12 19.4582Z" fill="#E3A130"/>
<path d="M11.9995 18.0537C15.342 18.0537 18.0517 15.344 18.0517 12.0014C18.0517 8.65889 15.342 5.94922 11.9995 5.94922C8.65694 5.94922 5.94727 8.65889 5.94727 12.0014C5.94727 15.344 8.65694 18.0537 11.9995 18.0537Z" fill="#E3A130"/>
</g>
<defs>
<clipPath id="clip0_935_36709">
<rect width="24" height="24" fill="white"/>
</clipPath>
</defs>
</svg>
