<svg width="151" height="150" viewBox="0 0 151 150" fill="none" xmlns="http://www.w3.org/2000/svg">
<g opacity="0.45" clip-path="url(#clip0_675_2751)">
<path d="M103.625 56.25C103.625 63.7092 100.662 70.8629 95.3874 76.1374C90.1129 81.4118 82.9592 84.375 75.5 84.375C68.0408 84.375 60.8871 81.4118 55.6126 76.1374C50.3382 70.8629 47.375 63.7092 47.375 56.25C47.375 48.7908 50.3382 41.6371 55.6126 36.3626C60.8871 31.0882 68.0408 28.125 75.5 28.125C82.9592 28.125 90.1129 31.0882 95.3874 36.3626C100.662 41.6371 103.625 48.7908 103.625 56.25Z" fill="white"/>
<path fill-rule="evenodd" clip-rule="evenodd" d="M0.5 75C0.5 55.1088 8.40176 36.0322 22.467 21.967C36.5322 7.90176 55.6088 0 75.5 0C95.3912 0 114.468 7.90176 128.533 21.967C142.598 36.0322 150.5 55.1088 150.5 75C150.5 94.8912 142.598 113.968 128.533 128.033C114.468 142.098 95.3912 150 75.5 150C55.6088 150 36.5322 142.098 22.467 128.033C8.40176 113.968 0.5 94.8912 0.5 75V75ZM75.5 9.375C63.1417 9.37566 51.0347 12.8659 40.5725 19.444C30.1104 26.0221 21.7183 35.4207 16.3622 46.5581C11.0061 57.6954 8.90362 70.1188 10.2969 82.3983C11.6901 94.6779 16.5224 106.314 24.2375 115.969C30.8938 105.244 45.5469 93.75 75.5 93.75C105.453 93.75 120.097 105.234 126.763 115.969C134.478 106.314 139.31 94.6779 140.703 82.3983C142.096 70.1188 139.994 57.6954 134.638 46.5581C129.282 35.4207 120.89 26.0221 110.427 19.444C99.9653 12.8659 87.8583 9.37566 75.5 9.375V9.375Z" fill="white"/>
</g>
<defs>
<clipPath id="clip0_675_2751">
<rect width="150" height="150" fill="white" transform="translate(0.5)"/>
</clipPath>
</defs>
</svg>
